<svg width="32" height="47" viewBox="0 0 32 47" fill="none" xmlns="http://www.w3.org/2000/svg">
<g id="Vector">
<path fill-rule="evenodd" clip-rule="evenodd" d="M16 0C13.6298 0 11.706 1.91268 11.706 4.2681C11.706 6.62399 13.6297 8.53667 16 8.53667C18.3702 8.53667 20.2939 6.62399 20.2939 4.2681C20.2938 1.91268 18.3701 0 16 0ZM16 1.48421C17.5459 1.48421 18.8007 2.73196 18.8007 4.2681C18.8007 5.80471 17.546 7.05246 16 7.05246C14.454 7.05246 13.1992 5.80471 13.1992 4.2681C13.1992 2.7319 14.454 1.48421 16 1.48421Z" fill="url(#paint0_linear_2763_196)"/>
<path fill-rule="evenodd" clip-rule="evenodd" d="M7.92225 17.3424L5.57345 18.8899C5.25092 19.1027 5.1454 19.5257 5.33055 19.8641L7.01041 22.925C7.41951 23.6706 7.14278 24.6056 6.39274 25.0123C5.64313 25.419 4.70196 25.1439 4.2928 24.3984L1.68222 19.641C1.32138 18.9835 1.48958 18.1637 2.07938 17.6987C2.08287 17.6962 8.49015 12.8943 8.49015 12.8943C9.37213 12.2333 10.4467 11.8756 11.5517 11.8756H20.4482C21.5531 11.8756 22.6278 12.2333 23.5097 12.8943L29.917 17.6962C30.5098 18.1608 30.679 18.9825 30.3177 19.641L27.7071 24.3984C27.298 25.144 26.3568 25.4191 25.6071 25.0124C24.857 24.6057 24.5803 23.6707 24.9895 22.9251L26.6693 19.8641C26.8545 19.5257 26.749 19.1027 26.4264 18.89L22.0509 16.0067C21.8164 15.8519 21.5138 15.842 21.2689 15.9805C21.024 16.119 20.8787 16.3827 20.8926 16.6622C20.9479 17.7541 20.6413 21.3474 20.9887 25.7223C21.4426 31.436 22.9169 38.3316 23.6874 43.0325C23.8785 44.1977 23.0817 45.2975 21.9095 45.4874C20.7373 45.6774 19.6304 44.8853 19.4397 43.7202C19.4378 43.7103 19.4362 43.7004 19.4343 43.6905L16.7171 30.4974C16.6459 30.1516 16.3398 29.9037 15.9849 29.9037C15.6301 29.9042 15.3244 30.1531 15.2538 30.4989L12.5656 43.692C12.5636 43.7014 12.5621 43.7108 12.5601 43.7202C12.3695 44.8853 11.2625 45.6774 10.0904 45.4874C8.91826 45.2974 8.1214 44.1976 8.31253 43.0325C8.31404 43.0246 8.31501 43.0162 8.31603 43.0083C8.8023 39.2745 10.1407 31.81 10.8107 25.7451C11.3283 21.0584 11.2462 17.2084 11.3179 16.5652C11.3626 16.1581 11.067 15.7915 10.6574 15.7464C10.2477 15.7014 9.87842 15.9958 9.8336 16.403C9.76192 17.0461 9.84404 20.8961 9.3264 25.5828C8.65793 31.6344 7.32202 39.0811 6.83623 42.811C6.52118 44.7756 7.86904 46.6318 9.85049 46.9524C11.8345 47.2735 13.7079 45.9348 14.0334 43.9632C14.0314 43.9742 15.9895 34.3654 15.9895 34.3654L17.9685 43.9751C18.2995 45.9397 20.1695 47.2731 22.1495 46.9524C24.1349 46.6308 25.4847 44.7677 25.1612 42.7942C24.3962 38.1259 22.9279 31.2792 22.4775 25.6056C22.2261 22.4378 22.3197 19.6821 22.369 17.9965L25.0304 19.7509L23.6785 22.2142C22.8747 23.6791 23.4187 25.5166 24.892 26.3156C26.3653 27.1141 28.2143 26.5738 29.0182 25.1094L31.6283 20.352C32.3406 19.0548 32.0041 17.4361 30.8339 16.5248C30.8304 16.5218 30.8264 16.5193 30.8229 16.5164C30.8229 16.5164 26.7296 13.4485 24.4087 11.7095C23.2679 10.8541 21.8772 10.3915 20.4482 10.3915C18.0377 10.3915 13.9623 10.3915 11.5518 10.3915C10.1228 10.3915 8.73214 10.8541 7.59134 11.7095C5.2704 13.4485 1.17706 16.5164 1.17706 16.5164C1.17357 16.5193 1.16958 16.5218 1.16608 16.5248C-0.00409547 17.4361 -0.340562 19.0548 0.371706 20.352L2.98181 25.1094C3.78566 26.5738 5.63474 27.1141 7.10803 26.3156C8.58131 25.5166 9.12531 23.6792 8.32146 22.2142L6.96963 19.7509L8.74704 18.5794C9.0905 18.3533 9.18456 17.8922 8.95711 17.5508C8.72912 17.2093 8.26572 17.1163 7.92225 17.3424Z" fill="url(#paint1_linear_2763_196)"/>
</g>
<defs>
<linearGradient id="paint0_linear_2763_196" x1="16" y1="10.3915" x2="16" y2="46.9999" gradientUnits="userSpaceOnUse">
<stop stop-color="#70F45D"/>
<stop offset="1" stop-color="#418E36"/>
</linearGradient>
<linearGradient id="paint1_linear_2763_196" x1="16" y1="10.3915" x2="16" y2="46.9999" gradientUnits="userSpaceOnUse">
<stop stop-color="#70F45D"/>
<stop offset="1" stop-color="#418E36"/>
</linearGradient>
</defs>
</svg>
