<svg width="72" height="72" viewBox="0 0 72 72" fill="none" xmlns="http://www.w3.org/2000/svg">
<g id="fi_4616790">
<g id="Group">
<g id="Page-1_24_">
<g id="_x30_25---AI">
<path id="Shape_69_" d="M24.0786 44.2193C24.3547 44.336 24.6654 44.3368 24.9421 44.2215C25.2187 44.1062 25.439 43.8842 25.5542 43.6045L27.1449 39.7361H33.1626L34.7534 43.6045C34.9932 44.1871 35.654 44.4623 36.229 44.2194C36.8041 43.9764 37.0758 43.3071 36.836 42.7246L31.1951 29.0108C31.0199 28.5851 30.6092 28.3077 30.1539 28.3077C29.6985 28.3077 29.2878 28.5851 29.1126 29.0108L23.4718 42.7246C23.3565 43.0043 23.3557 43.319 23.4696 43.5993C23.5834 43.8796 23.8023 44.1026 24.0786 44.2193ZM30.1538 32.422L32.2217 37.4504H28.0858L30.1538 32.422Z" fill="url(#paint0_linear_2763_147)"/>
<path id="Path_84_" fill-rule="evenodd" clip-rule="evenodd" d="M39.3082 42.022C38.6709 42.022 38.1543 42.5336 38.1543 43.1649C38.1543 43.7961 38.6709 44.3077 39.3082 44.3077H46.2312C46.8685 44.3077 47.3851 43.7961 47.3851 43.1649C47.3851 42.5336 46.8685 42.022 46.2312 42.022H43.9235V30.5935H46.2312C46.8685 30.5935 47.3851 30.0818 47.3851 29.4506C47.3851 28.8194 46.8685 28.3077 46.2312 28.3077H39.3082C38.6709 28.3077 38.1543 28.8194 38.1543 29.4506C38.1543 30.0818 38.6709 30.5935 39.3082 30.5935H41.6159V42.022H39.3082Z" fill="url(#paint1_linear_2763_147)"/>
<path id="Shape_68_" d="M3.08534 52.1026C3.08534 54.595 5.11783 56.6154 7.6249 56.6154C8.19353 56.6133 8.75658 56.5038 9.28411 56.2927C11.967 58.3347 15.7531 59.3998 20.4061 59.3998C21.1074 59.3998 21.8361 59.367 22.5748 59.3197C25.8706 66.0145 30.6258 70.1539 35.9973 70.1539C41.3687 70.1539 46.124 66.0145 49.4208 59.3231C50.1608 59.3705 50.8882 59.4031 51.5896 59.4031C56.2426 59.4031 60.0287 58.3381 62.7116 56.296C63.239 56.5058 63.8016 56.6141 64.3697 56.6154C66.3733 56.6097 68.1363 55.2988 68.7077 53.3896C69.2791 51.4804 68.524 49.4246 66.8494 48.3309C67.0082 44.6981 65.5953 40.5756 62.7195 36.3076C65.5953 32.0408 67.0083 27.9183 66.8494 24.2843C68.8114 23.0257 69.4892 20.4904 68.4149 18.4294C67.3405 16.3683 64.8659 15.4571 62.7002 16.3248C59.6166 13.9793 55.0635 12.9402 49.4218 13.3058C46.1287 6.60548 41.3712 2.46155 35.9974 2.46155C30.6236 2.46155 25.8661 6.60548 22.5693 13.3059C16.93 12.9426 12.379 13.9827 9.29092 16.3249C7.12652 15.4642 4.65832 16.3768 3.58573 18.4344C2.51314 20.4919 3.18631 23.0229 5.14173 24.2845C4.98514 27.9162 6.39918 32.0386 9.27506 36.3078C6.39918 40.5757 4.98514 44.6982 5.14519 48.3311C3.86161 49.1615 3.08679 50.5802 3.08534 52.1026ZM5.35518 52.1026C5.35518 50.8564 6.37136 49.8461 7.62501 49.8461C8.87866 49.8461 9.89485 50.8563 9.89485 52.1026C9.89485 53.3488 8.87866 54.359 7.62501 54.359C7.02298 54.359 6.44564 54.1213 6.01998 53.6982C5.59431 53.275 5.35518 52.7011 5.35518 52.1026ZM23.9777 15.6841C26.999 16.0438 29.9757 16.708 32.8617 17.6664C30.8303 18.5677 28.8465 19.5716 26.9183 20.6743C24.9832 21.7845 23.1087 22.996 21.3028 24.3037C21.8978 21.3477 22.7941 18.4596 23.9777 15.6841ZM50.6909 24.3037C48.8855 22.9959 47.0114 21.7843 45.0765 20.6743C43.151 19.5729 41.1707 18.569 39.1432 17.6664C42.0264 16.7084 44.9999 16.0443 48.0182 15.6841C49.2011 18.4597 50.0966 21.3477 50.6909 24.3037ZM48.0171 56.9314C44.9957 56.5717 42.0191 55.9075 39.1331 54.9491C41.1644 54.0478 43.1482 53.0439 45.0765 51.9412C47.0116 50.831 48.886 49.6195 50.692 48.3119C50.097 51.2678 49.2008 54.1558 48.0171 56.9314ZM43.9417 22.6294C46.501 24.0936 48.9477 25.7441 51.2617 27.5675C51.6791 30.4624 51.8877 33.3833 51.8859 36.3078C51.888 39.2322 51.6798 42.1531 51.2629 45.048C48.9484 46.8713 46.5013 48.5219 43.9417 49.9861C41.3903 51.4531 38.7352 52.7344 35.9974 53.8197C33.2594 52.7338 30.6044 51.4518 28.0531 49.9838C25.4937 48.5196 23.0471 46.8691 20.733 45.0456C19.9022 39.2481 19.9022 33.3628 20.733 27.5652C23.0472 25.7427 25.494 24.0929 28.0531 22.6293C30.6066 21.1612 33.264 19.8791 36.0042 18.7933C38.7398 19.8797 41.3926 21.1617 43.9417 22.6294ZM53.8153 29.6998C56.0789 31.6919 58.1347 33.9057 59.9517 36.3078C58.1373 38.7093 56.084 40.9231 53.8233 42.9157C54.0462 40.7201 54.1572 38.5146 54.1558 36.3078C54.1565 34.1009 54.0447 31.8955 53.8211 29.6998H53.8153ZM18.1795 42.9157C15.9153 40.9241 13.8594 38.7102 12.043 36.3078C13.8575 33.9062 15.9107 31.6924 18.1714 29.6998C17.725 34.0939 17.725 38.5216 18.1714 42.9157H18.1795ZM26.925 51.9412C28.8505 53.0426 30.8308 54.0465 32.8582 54.9491C29.9751 55.9071 27.0016 56.5712 23.9833 56.9314C22.8 54.1558 21.9041 51.2678 21.3095 48.3119C23.1131 49.6195 24.9853 50.831 26.9182 51.9412H26.925ZM35.9974 67.8975C31.7347 67.8975 27.8613 64.5366 25.0047 59.0851C28.766 58.555 32.4541 57.5996 35.9974 56.2375C39.542 57.6003 43.2317 58.5556 46.9945 59.0851C44.1324 64.5366 40.2601 67.8975 35.9974 67.8975ZM64.3699 54.359C63.1163 54.359 62.1 53.3488 62.1 52.1026C62.1 50.8563 63.1162 49.8461 64.3699 49.8461C65.6235 49.8461 66.6397 50.8563 66.6397 52.1026C66.6397 53.3488 65.6234 54.359 64.3699 54.359ZM64.6081 47.6134C64.5276 47.6134 64.4515 47.5898 64.3698 47.5898C61.8626 47.5898 59.8302 49.6103 59.8302 52.1026C59.8344 53.1114 60.182 54.0892 60.8165 54.8768C58.3447 56.498 54.7368 57.2686 50.4151 57.1073C51.8222 53.6128 52.8195 49.9686 53.3874 46.2472C56.3228 43.8974 58.9793 41.2228 61.3056 38.2753C63.2218 41.041 64.3618 44.2643 64.6081 47.6134ZM66.6396 20.5128C66.6396 21.759 65.6234 22.7693 64.3698 22.7693C63.1161 22.7693 62.0999 21.7591 62.0999 20.5128C62.0999 19.2666 63.1161 18.2564 64.3698 18.2564C65.6234 18.2564 66.6396 19.2667 66.6396 20.5128ZM60.8165 17.7386C60.1822 18.5262 59.8346 19.504 59.8302 20.5128C59.8302 23.0052 61.8627 25.0256 64.3698 25.0256C64.4515 25.0256 64.5275 25.0064 64.6081 25.002C64.3621 28.3512 63.2221 31.5747 61.3056 34.3401C58.9789 31.3925 56.322 28.7179 53.3863 26.3682C52.8176 22.6466 51.8191 19.0024 50.4105 15.5081C54.7358 15.3457 58.3458 16.1128 60.8165 17.7386ZM35.9974 4.718C40.2601 4.718 44.1335 8.07891 46.99 13.5304C43.2307 14.0609 39.5444 15.0163 36.0031 16.378C32.4585 15.0153 28.7688 14.0599 25.006 13.5304C27.8624 8.07891 31.7347 4.718 35.9974 4.718ZM7.6249 18.2565C8.87844 18.2565 9.89473 19.2667 9.89473 20.5129C9.89473 21.7592 8.87855 22.7694 7.6249 22.7694C6.37125 22.7694 5.35507 21.7592 5.35507 20.5129C5.35507 19.2667 6.37136 18.2565 7.6249 18.2565ZM7.38666 25.002C7.46719 25.002 7.54325 25.0256 7.62501 25.0256C10.1322 25.0256 12.1646 23.0051 12.1646 20.5128C12.1603 19.504 11.8127 18.5261 11.1783 17.7386C13.649 16.1174 17.2568 15.3479 21.5797 15.5081C20.1727 19.0026 19.1752 22.6468 18.6074 26.3682C15.6723 28.7179 13.0158 31.392 10.6892 34.339C8.77233 31.5741 7.63227 28.351 7.38666 25.002ZM10.6892 38.2764C13.0169 41.2232 15.6741 43.8973 18.6096 46.2472C19.1781 49.9692 20.1762 53.6137 21.5842 57.1084C17.2648 57.2708 13.6547 56.498 11.1829 54.8768C11.8156 54.0887 12.1616 53.1109 12.1646 52.1026C12.1646 49.6102 10.1321 47.5898 7.62501 47.5898C7.54325 47.5898 7.4673 47.6101 7.38666 47.6134C7.63272 44.2645 8.77266 41.0415 10.6892 38.2764Z" fill="url(#paint2_linear_2763_147)"/>
</g>
</g>
</g>
</g>
<defs>
<linearGradient id="paint0_linear_2763_147" x1="30.154" y1="28.3077" x2="30.154" y2="44.3077" gradientUnits="userSpaceOnUse">
<stop stop-color="#70F45D"/>
<stop offset="1" stop-color="#3AA82A"/>
</linearGradient>
<linearGradient id="paint1_linear_2763_147" x1="42.7697" y1="28.3077" x2="42.7697" y2="44.3077" gradientUnits="userSpaceOnUse">
<stop stop-color="#70F45D"/>
<stop offset="1" stop-color="#3AA82A"/>
</linearGradient>
<linearGradient id="paint2_linear_2763_147" x1="36.0002" y1="2.46155" x2="36.0002" y2="70.1539" gradientUnits="userSpaceOnUse">
<stop stop-color="#70F45D"/>
<stop offset="1" stop-color="#3AA82A"/>
</linearGradient>
</defs>
</svg>
