<svg width="56" height="56" viewBox="0 0 56 56" fill="none" xmlns="http://www.w3.org/2000/svg">
<path id="Vector" fill-rule="evenodd" clip-rule="evenodd" d="M14.4375 0C6.46391 0 0 6.46391 0 14.4375V21.0547C0 21.7192 0.538639 22.2578 1.20312 22.2578C1.86761 22.2578 2.40625 21.7192 2.40625 21.0547V14.4375C2.40625 7.79282 7.79282 2.40625 14.4375 2.40625H21.0547C21.7192 2.40625 22.2578 1.86761 22.2578 1.20312C22.2578 0.538639 21.7192 0 21.0547 0H14.4375ZM34.2891 0C33.6246 0 33.0859 0.538639 33.0859 1.20312C33.0859 1.86761 33.6246 2.40625 34.2891 2.40625H40.9062C47.5509 2.40625 52.9375 7.79282 52.9375 14.4375V21.0547C52.9375 21.7192 53.4759 22.2578 54.1406 22.2578C54.8054 22.2578 55.3438 21.7192 55.3438 21.0547V14.4375C55.3438 6.46391 48.8798 0 40.9062 0H34.2891ZM2.40625 34.2891C2.40625 33.6246 1.86761 33.0859 1.20312 33.0859C0.538639 33.0859 0 33.6246 0 34.2891V40.9062C0 48.8798 6.46391 55.3438 14.4375 55.3438H21.0547C21.7192 55.3438 22.2578 54.8054 22.2578 54.1406C22.2578 53.4759 21.7192 52.9375 21.0547 52.9375H14.4375C7.79282 52.9375 2.40625 47.5509 2.40625 40.9062V34.2891ZM55.3438 34.2891C55.3438 33.6246 54.8054 33.0859 54.1406 33.0859C53.4759 33.0859 52.9375 33.6246 52.9375 34.2891V40.9062C52.9375 47.5509 47.5509 52.9375 40.9062 52.9375H34.2891C33.6246 52.9375 33.0859 53.4759 33.0859 54.1406C33.0859 54.8054 33.6246 55.3438 34.2891 55.3438H40.9062C48.8798 55.3438 55.3438 48.8798 55.3438 40.9062V34.2891ZM39.1016 21.84V36.2283L28.875 41.3623V26.7126L39.1016 21.84ZM29.0831 43.9503C28.4261 44.2801 26.9176 44.2801 26.2606 43.9503L14.8309 38.2123C14.221 37.9061 13.8359 37.282 13.8359 36.5994V20.8105C13.8359 19.7252 13.6897 18.4156 14.9167 17.8897L26.9609 12.7279C27.4149 12.5334 27.9288 12.5334 28.3827 12.7279L40.427 17.8897C41.6539 18.4156 41.5078 19.7252 41.5078 20.8105V36.5994C41.5078 37.282 41.1228 37.9061 40.5128 38.2123L29.0831 43.9503ZM26.4688 26.7126V41.3623L16.2422 36.2283V21.84L26.4688 26.7126ZM27.6719 15.0412L17.1664 19.5435L27.6719 24.6176L38.1774 19.5435L27.6719 15.0412Z" fill="url(#paint0_linear_2766_863)"/>
<defs>
<linearGradient id="paint0_linear_2766_863" x1="27.6719" y1="0" x2="27.6719" y2="55.3438" gradientUnits="userSpaceOnUse">
<stop stop-color="#70F45D"/>
<stop offset="1" stop-color="#418E36"/>
</linearGradient>
</defs>
</svg>
