<svg width="58" height="58" viewBox="0 0 58 58" fill="none" xmlns="http://www.w3.org/2000/svg">
<g id="fi_3162381" clip-path="url(#clip0_2763_176)">
<g id="Vector">
<path d="M3.625 10.8749V3.62492H10.875C11.1955 3.62492 11.5028 3.49761 11.7294 3.27101C11.956 3.0444 12.0833 2.73706 12.0833 2.41659C12.0833 2.09612 11.956 1.78877 11.7294 1.56216C11.5028 1.33556 11.1955 1.20825 10.875 1.20825H2.41667C2.0962 1.20825 1.78885 1.33556 1.56225 1.56216C1.33564 1.78877 1.20833 2.09612 1.20833 2.41659V10.8749C1.20833 11.1954 1.33564 11.5027 1.56225 11.7293C1.78885 11.9559 2.0962 12.0833 2.41667 12.0833C2.73714 12.0833 3.04448 11.9559 3.27109 11.7293C3.49769 11.5027 3.625 11.1954 3.625 10.8749Z" fill="url(#paint0_linear_2763_176)"/>
<path d="M47.125 3.62492H54.375V10.8749C54.375 11.1954 54.5023 11.5027 54.7289 11.7293C54.9555 11.9559 55.2629 12.0833 55.5833 12.0833C55.9038 12.0833 56.2112 11.9559 56.4378 11.7293C56.6644 11.5027 56.7917 11.1954 56.7917 10.8749V2.41659C56.7917 2.09612 56.6644 1.78877 56.4378 1.56216C56.2112 1.33556 55.9038 1.20825 55.5833 1.20825H47.125C46.8045 1.20825 46.4972 1.33556 46.2706 1.56216C46.044 1.78877 45.9167 2.09612 45.9167 2.41659C45.9167 2.73706 46.044 3.0444 46.2706 3.27101C46.4972 3.49761 46.8045 3.62492 47.125 3.62492Z" fill="url(#paint1_linear_2763_176)"/>
<path d="M10.875 54.3749H3.625V47.1249C3.625 46.8044 3.49769 46.4971 3.27109 46.2705C3.04448 46.0439 2.73714 45.9166 2.41667 45.9166C2.0962 45.9166 1.78885 46.0439 1.56225 46.2705C1.33564 46.4971 1.20833 46.8044 1.20833 47.1249V55.5832C1.20833 55.9037 1.33564 56.2111 1.56225 56.4377C1.78885 56.6643 2.0962 56.7916 2.41667 56.7916H10.875C11.1955 56.7916 11.5028 56.6643 11.7294 56.4377C11.956 56.2111 12.0833 55.9037 12.0833 55.5832C12.0833 55.2628 11.956 54.9554 11.7294 54.7288C11.5028 54.5022 11.1955 54.3749 10.875 54.3749Z" fill="url(#paint2_linear_2763_176)"/>
<path d="M54.375 47.1249V54.3749H47.125C46.8045 54.3749 46.4972 54.5022 46.2706 54.7288C46.044 54.9554 45.9167 55.2628 45.9167 55.5832C45.9167 55.9037 46.044 56.2111 46.2706 56.4377C46.4972 56.6643 46.8045 56.7916 47.125 56.7916H55.5833C55.9038 56.7916 56.2112 56.6643 56.4378 56.4377C56.6644 56.2111 56.7917 55.9037 56.7917 55.5832V47.1249C56.7917 46.8044 56.6644 46.4971 56.4378 46.2705C56.2112 46.0439 55.9038 45.9166 55.5833 45.9166C55.2629 45.9166 54.9555 46.0439 54.7289 46.2705C54.5023 46.4971 54.375 46.8044 54.375 47.1249Z" fill="url(#paint3_linear_2763_176)"/>
<path d="M56.7917 31.4166H41.615L42.05 28.9999C43.2696 29.0734 44.4719 28.6822 45.4147 27.9051C46.3576 27.128 46.9712 26.0226 47.1319 24.8113C47.2927 23.6001 46.9888 22.3729 46.2813 21.3767C45.5738 20.3805 44.5153 19.6893 43.3187 19.442C42.4729 6.69408 26.4021 1.19617 17.9438 11.177C15.9942 13.5128 14.8351 16.4063 14.6329 19.442C13.4459 19.6925 12.3965 20.3802 11.6931 21.3686C10.9897 22.357 10.6837 23.5738 10.8358 24.7774C10.988 25.9809 11.5872 27.0833 12.5145 27.8655C13.4417 28.6478 14.6293 29.0527 15.8413 28.9999L16.2763 31.4166H1.20833C0.887863 31.4166 0.580519 31.5439 0.353913 31.7705C0.127306 31.9971 0 32.3044 0 32.6249C0 32.9454 0.127306 33.2527 0.353913 33.4793C0.580519 33.7059 0.887863 33.8333 1.20833 33.8333H17.0012C17.853 36.256 19.4205 38.3629 21.4963 39.8749C20.8438 42.5937 18.6929 48.3332 12.0833 48.3332C11.7629 48.3332 11.4555 48.4606 11.2289 48.6872C11.0023 48.9138 10.875 49.2211 10.875 49.5416C10.875 49.8621 11.0023 50.1694 11.2289 50.396C11.4555 50.6226 11.7629 50.7499 12.0833 50.7499C18.6688 50.7499 22.2817 46.0253 23.6592 41.0832C25.3343 41.8535 27.1562 42.2523 29 42.2523C30.8438 42.2523 32.6657 41.8535 34.3408 41.0832C35.7183 45.9891 39.3313 50.7499 45.9167 50.7499C46.2371 50.7499 46.5445 50.6226 46.7711 50.396C46.9977 50.1694 47.125 49.8621 47.125 49.5416C47.125 49.2211 46.9977 48.9138 46.7711 48.6872C46.5445 48.4606 46.2371 48.3332 45.9167 48.3332C39.3071 48.3332 37.1562 42.5695 36.5037 39.8749C38.5797 38.3603 40.1505 36.2547 41.0108 33.8333H56.7917C57.1121 33.8333 57.4195 33.7059 57.6461 33.4793C57.8727 33.2527 58 32.9454 58 32.6249C58 32.3044 57.8727 31.9971 57.6461 31.7705C57.4195 31.5439 57.1121 31.4166 56.7917 31.4166ZM42.485 26.5833C43.3067 21.9674 43.1496 22.9583 43.2583 21.9795C43.7421 22.2005 44.1395 22.5749 44.3888 23.0447C44.6381 23.5145 44.7255 24.0535 44.6374 24.578C44.5493 25.1025 44.2906 25.5833 43.9015 25.9458C43.5123 26.3084 43.0144 26.5324 42.485 26.5833ZM14.6933 21.9795C14.8883 23.5271 15.1625 25.0637 15.515 26.5833C14.9766 26.5418 14.4675 26.3212 14.0691 25.9567C13.6706 25.5922 13.4058 25.1047 13.3168 24.572C13.2277 24.0394 13.3197 23.4922 13.578 23.018C13.8363 22.5437 14.2459 22.1696 14.7417 21.9553L14.6933 21.9795ZM18.8258 31.4166L17.2429 22.5595C16.9333 20.8412 17.0056 19.0758 17.4545 17.3885C17.9035 15.7012 18.7182 14.1334 19.8408 12.7962C27.7071 3.40742 42.8838 10.6453 40.7571 22.5595L39.1742 31.4166C39.15 31.4891 18.8379 31.4166 18.8258 31.4166ZM19.5992 33.8333H38.4008C37.5715 35.6285 36.2455 37.1487 34.5796 38.2142C32.9137 39.2797 30.9775 39.846 29 39.846C27.0225 39.846 25.0863 39.2797 23.4204 38.2142C21.7545 37.1487 20.4285 35.6285 19.5992 33.8333Z" fill="url(#paint4_linear_2763_176)"/>
</g>
</g>
<defs>
<linearGradient id="paint0_linear_2763_176" x1="29" y1="6.03133" x2="29" y2="50.7499" gradientUnits="userSpaceOnUse">
<stop stop-color="#70F45D"/>
<stop offset="1" stop-color="#418E36"/>
</linearGradient>
<linearGradient id="paint1_linear_2763_176" x1="29" y1="6.03133" x2="29" y2="50.7499" gradientUnits="userSpaceOnUse">
<stop stop-color="#70F45D"/>
<stop offset="1" stop-color="#418E36"/>
</linearGradient>
<linearGradient id="paint2_linear_2763_176" x1="29" y1="6.03133" x2="29" y2="50.7499" gradientUnits="userSpaceOnUse">
<stop stop-color="#70F45D"/>
<stop offset="1" stop-color="#418E36"/>
</linearGradient>
<linearGradient id="paint3_linear_2763_176" x1="29" y1="6.03133" x2="29" y2="50.7499" gradientUnits="userSpaceOnUse">
<stop stop-color="#70F45D"/>
<stop offset="1" stop-color="#418E36"/>
</linearGradient>
<linearGradient id="paint4_linear_2763_176" x1="29" y1="6.03133" x2="29" y2="50.7499" gradientUnits="userSpaceOnUse">
<stop stop-color="#70F45D"/>
<stop offset="1" stop-color="#418E36"/>
</linearGradient>
<clipPath id="clip0_2763_176">
<rect width="58" height="58" fill="white"/>
</clipPath>
</defs>
</svg>
