<svg width="56" height="56" viewBox="0 0 56 56" fill="none" xmlns="http://www.w3.org/2000/svg">
<g id="fi_15603329">
<g id="Vector">
<path d="M28 51.1875H7C4.82873 51.1875 3.0625 49.4213 3.0625 47.25V7C3.0625 4.82873 4.82873 3.0625 7 3.0625H42C44.1713 3.0625 45.9375 4.82873 45.9375 7V30.2661C45.9375 30.9907 45.3496 31.5786 44.625 31.5786C43.9004 31.5786 43.3125 30.9907 43.3125 30.2661V7C43.3125 6.27624 42.7238 5.6875 42 5.6875H7C6.27624 5.6875 5.6875 6.27624 5.6875 7V47.25C5.6875 47.9738 6.27624 48.5625 7 48.5625H28C28.7246 48.5625 29.3125 49.1504 29.3125 49.875C29.3125 50.5996 28.7246 51.1875 28 51.1875Z" fill="url(#paint0_linear_2763_164)"/>
<path d="M26.25 31.9375H10.5C9.7754 31.9375 9.1875 31.3496 9.1875 30.625V10.5C9.1875 9.7754 9.7754 9.1875 10.5 9.1875C11.2246 9.1875 11.8125 9.7754 11.8125 10.5V29.3125H26.25C26.9746 29.3125 27.5625 29.9004 27.5625 30.625C27.5625 31.3496 26.9746 31.9375 26.25 31.9375Z" fill="url(#paint1_linear_2763_164)"/>
<path d="M10.4991 25.8125C10.1924 25.8125 9.88476 25.7057 9.6361 25.4878C9.09009 25.0101 9.03454 24.1813 9.5122 23.6361L15.6372 16.6361C15.8765 16.3627 16.2183 16.2003 16.5814 16.1884C16.936 16.1661 17.2966 16.3148 17.553 16.572L22.6526 21.6716L29.609 13.1686C29.844 12.8815 30.1892 12.708 30.5592 12.6892C30.9395 12.6755 31.2907 12.8097 31.553 13.072L34.8915 16.4097L37.4755 13.1797C37.9275 12.614 38.7521 12.5209 39.3203 12.9755C39.886 13.4283 39.9774 14.2538 39.5245 14.8203L36.0245 19.1953C35.7913 19.4867 35.4452 19.6644 35.0726 19.6858C34.7052 19.7012 34.3361 19.567 34.072 19.303L30.7224 15.9534L23.766 24.4564C23.531 24.7435 23.1858 24.917 22.8158 24.9358C22.4321 24.9461 22.0843 24.8145 21.822 24.553L16.6891 19.42L11.4878 25.3639C11.228 25.6604 10.8649 25.8125 10.4991 25.8125Z" fill="url(#paint2_linear_2763_164)"/>
<path d="M24.5 38.0625H10.5C9.7754 38.0625 9.1875 37.4746 9.1875 36.75C9.1875 36.0254 9.7754 35.4375 10.5 35.4375H24.5C25.2246 35.4375 25.8125 36.0254 25.8125 36.75C25.8125 37.4746 25.2246 38.0625 24.5 38.0625Z" fill="url(#paint3_linear_2763_164)"/>
<path d="M18.375 43.3125H10.5C9.7754 43.3125 9.1875 42.7246 9.1875 42C9.1875 41.2754 9.7754 40.6875 10.5 40.6875H18.375C19.0996 40.6875 19.6875 41.2754 19.6875 42C19.6875 42.7246 19.0996 43.3125 18.375 43.3125Z" fill="url(#paint4_linear_2763_164)"/>
<path d="M40.5568 52.9375C33.7294 52.9375 28.1752 47.3833 28.1752 40.5568C28.1752 33.7294 33.7294 28.1752 40.5568 28.1752C47.3833 28.1752 52.9375 33.7294 52.9375 40.5568C52.9375 47.3833 47.3833 52.9375 40.5568 52.9375ZM40.5568 30.8002C35.1769 30.8002 30.8002 35.1769 30.8002 40.5568C30.8002 45.9358 35.1769 50.3125 40.5568 50.3125C45.9358 50.3125 50.3125 45.9358 50.3125 40.5568C50.3125 35.1769 45.9358 30.8002 40.5568 30.8002Z" fill="url(#paint5_linear_2763_164)"/>
<path d="M45.4231 46.3451C45.1052 46.3451 44.7865 46.2306 44.5344 45.999L39.6681 41.5232C39.3981 41.2745 39.2443 40.9242 39.2443 40.5568V34.0866C39.2443 33.3619 39.8322 32.7741 40.5568 32.7741C41.2814 32.7741 41.8693 33.3619 41.8693 34.0866V39.9808L46.3118 44.0662C46.845 44.5575 46.88 45.3872 46.3895 45.9213C46.1306 46.2024 45.7769 46.3451 45.4231 46.3451Z" fill="url(#paint6_linear_2763_164)"/>
</g>
</g>
<defs>
<linearGradient id="paint0_linear_2763_164" x1="42.9898" y1="32.7741" x2="42.9898" y2="46.3452" gradientUnits="userSpaceOnUse">
<stop stop-color="#70F45D"/>
<stop offset="1" stop-color="#418E36"/>
</linearGradient>
<linearGradient id="paint1_linear_2763_164" x1="42.9898" y1="32.7741" x2="42.9898" y2="46.3452" gradientUnits="userSpaceOnUse">
<stop stop-color="#70F45D"/>
<stop offset="1" stop-color="#418E36"/>
</linearGradient>
<linearGradient id="paint2_linear_2763_164" x1="42.9898" y1="32.7741" x2="42.9898" y2="46.3452" gradientUnits="userSpaceOnUse">
<stop stop-color="#70F45D"/>
<stop offset="1" stop-color="#418E36"/>
</linearGradient>
<linearGradient id="paint3_linear_2763_164" x1="42.9898" y1="32.7741" x2="42.9898" y2="46.3452" gradientUnits="userSpaceOnUse">
<stop stop-color="#70F45D"/>
<stop offset="1" stop-color="#418E36"/>
</linearGradient>
<linearGradient id="paint4_linear_2763_164" x1="42.9898" y1="32.7741" x2="42.9898" y2="46.3452" gradientUnits="userSpaceOnUse">
<stop stop-color="#70F45D"/>
<stop offset="1" stop-color="#418E36"/>
</linearGradient>
<linearGradient id="paint5_linear_2763_164" x1="42.9898" y1="32.7741" x2="42.9898" y2="46.3452" gradientUnits="userSpaceOnUse">
<stop stop-color="#70F45D"/>
<stop offset="1" stop-color="#418E36"/>
</linearGradient>
<linearGradient id="paint6_linear_2763_164" x1="42.9898" y1="32.7741" x2="42.9898" y2="46.3452" gradientUnits="userSpaceOnUse">
<stop stop-color="#70F45D"/>
<stop offset="1" stop-color="#418E36"/>
</linearGradient>
</defs>
</svg>
