<svg width="57" height="57" viewBox="0 0 57 57" fill="none" xmlns="http://www.w3.org/2000/svg">
<g id="fi_8922014">
<path id="Vector" d="M27.411 31.1V7.71894C27.411 7.22709 27.0122 6.82831 26.5204 6.82831C19.9386 6.82831 13.7509 9.39131 9.09695 14.0454C4.44299 18.6995 1.87988 24.8872 1.87988 31.4689C1.87988 38.0506 4.44299 44.2383 9.09695 48.8923C13.7509 53.5463 19.9386 56.1094 26.5204 56.1094C33.1021 56.1094 39.2899 53.5463 43.9438 48.8923C44.2916 48.5445 44.2916 47.9806 43.9438 47.6329L27.411 31.1ZM26.5204 54.3281C13.9157 54.3281 3.66102 44.0735 3.66102 31.4688C3.66102 19.1626 13.4365 9.09651 25.6297 8.62659V31.4688C25.6297 31.705 25.7236 31.9316 25.8906 32.0986L42.0425 48.2505C37.8059 52.1766 32.3286 54.3281 26.5204 54.3281ZM54.2287 28.599H30.4787C30.1185 28.599 29.7937 28.8159 29.6559 29.1487C29.5181 29.4815 29.5942 29.8645 29.849 30.1193L46.6427 46.9131C46.8166 47.087 47.0445 47.174 47.2725 47.174C47.5005 47.174 47.7284 47.087 47.9023 46.9131C52.5562 42.2592 55.1193 36.0714 55.1193 29.4897C55.1193 28.9977 54.7206 28.599 54.2287 28.599ZM47.2606 45.0119L32.6289 30.3802H53.3212C53.1128 35.8562 50.9853 40.9925 47.2606 45.0119ZM30.4787 26.4218H54.2287C54.7206 26.4218 55.1193 26.0231 55.1193 25.5312C55.1193 18.9495 52.5563 12.7617 47.9023 8.10769C43.2482 3.45373 37.0605 0.890625 30.4787 0.890625C29.9869 0.890625 29.5881 1.2894 29.5881 1.78125V25.5312C29.5881 26.0231 29.9869 26.4218 30.4787 26.4218ZM31.3694 2.68902C43.2668 3.14747 52.8625 12.7432 53.3209 24.6406H31.3694V2.68902Z" fill="url(#paint0_linear_2763_174)"/>
</g>
<defs>
<linearGradient id="paint0_linear_2763_174" x1="28.4996" y1="0.890625" x2="28.4996" y2="56.1094" gradientUnits="userSpaceOnUse">
<stop stop-color="#70F45D"/>
<stop offset="1" stop-color="#418E36"/>
</linearGradient>
</defs>
</svg>
