<svg width="67" height="65" viewBox="0 0 67 65" fill="none" xmlns="http://www.w3.org/2000/svg">
<path id="Vector" fill-rule="evenodd" clip-rule="evenodd" d="M11.6451 22.8541H11.4025L8.77429 34.3411C9.82559 34.7814 10.7151 35.5018 11.3621 36.4224L16.5377 34.0209C15.9716 31.8996 16.6186 29.6583 18.1551 28.1373L14.1521 22.3337C13.3838 22.6539 12.5347 22.8541 11.6451 22.8541ZM9.1382 22.3337C6.9143 21.3732 5.37779 19.1718 5.37779 16.6502C5.37779 10.6866 13.1008 8.16502 16.6995 12.968L27.4146 7.84483C26.3633 3.92241 29.3555 0 33.4798 0C37.6041 0 40.5963 3.92241 39.545 7.84483L50.3005 12.968C53.8992 8.16502 61.6222 10.6866 61.6222 16.6502C61.6222 19.1718 60.0453 21.3732 57.8618 22.3337L60.49 33.8208C64.0483 33.7007 67 36.5425 67 40.0246C67 44.7475 61.9457 47.7094 57.8214 45.548L50.3814 54.7537C53.8588 58.7562 50.9879 65 45.6101 65C42.5371 65 39.9897 62.8387 39.4641 59.9569H27.5359C26.9698 62.8387 24.4225 65 21.3899 65C16.0121 65 13.1412 58.7562 16.6186 54.7537L9.17864 45.548C5.05432 47.7094 0 44.7475 0 40.0246C0 36.5425 2.91129 33.7007 6.46952 33.8208L9.1382 22.3337ZM17.9125 16.4901C17.9529 18.2112 17.2655 19.8522 16.0929 21.0129L20.096 26.8165C21.2686 26.2962 22.6029 26.1761 23.8564 26.4163L30.0833 11.447L28.4659 9.92611L17.7103 15.0493C17.8316 15.4895 17.9125 15.9698 17.9125 16.4901ZM38.1298 10.4064C36.8763 11.7672 35.0972 12.5277 33.1967 12.4477C32.8733 12.4076 32.5498 12.3676 32.2263 12.3276L26.0398 27.2968C27.4146 28.2174 28.4659 29.6583 28.7894 31.3393H38.2106C38.7767 28.4975 41.3241 26.2962 44.3971 26.2962C47.834 26.2962 50.6645 29.0979 50.6645 32.5C50.6645 37.303 45.3675 40.2648 41.2432 37.8633L35.0567 44.9477L42.4562 53.4329C44.3567 52.3522 46.5806 52.2722 48.5214 53.3128L55.9614 44.0671C53.2523 40.9452 54.344 36.0222 58.2257 34.3411L55.557 22.8541C51.271 22.9741 48.1979 19.0117 49.2897 15.0493L38.5341 9.92611C38.4128 10.0862 38.2915 10.2463 38.1298 10.4064ZM40.6771 54.9538L33.4798 46.7087L26.2824 54.9538C26.9294 55.7143 27.3337 56.6349 27.5359 57.6355H39.4641C39.6258 56.6349 40.0706 55.7143 40.6771 54.9538ZM18.4381 53.3128C19.3277 52.8325 20.2981 52.5924 21.3899 52.5924C22.7646 52.5924 23.452 52.9126 24.5033 53.4329L31.9433 44.9477L25.7568 37.8633C22.9668 39.5043 19.4086 38.7438 17.5081 36.1422L12.3325 38.5037C12.8177 40.4649 12.3325 42.5462 10.9982 44.0671L18.4381 53.3128ZM11.3217 20.5326C13.7073 20.7328 15.6886 18.7716 15.5673 16.4501C15.4864 14.3688 13.7477 12.7679 11.6451 12.7679C9.50211 12.7679 7.72299 14.4889 7.72299 16.6502C7.72299 18.6915 9.34037 20.3725 11.3217 20.5326ZM30.3259 8.52525C32.5902 11.5671 37.4424 9.92611 37.4424 6.24384C37.4424 4.08251 35.6632 2.32143 33.4798 2.32143C30.2855 2.32143 28.4255 5.96367 30.3259 8.52525ZM51.4327 17.1305C51.7158 19.3719 53.8992 20.9329 56.2444 20.4126C57.9831 20.0123 59.277 18.4914 59.277 16.6502C59.277 14.4889 57.4979 12.7679 55.3549 12.7679C52.9692 12.7679 51.1497 14.7691 51.4327 17.1305ZM33.4798 43.1866L39.4641 36.3824C38.8576 35.5819 38.4128 34.6613 38.2106 33.6607H28.7894C28.5872 34.6613 28.1424 35.5819 27.5359 36.3824L33.4798 43.1866ZM22.6029 28.6176C20.4599 28.6176 18.6807 30.3787 18.6807 32.5C18.6807 34.6613 20.4599 36.4224 22.6029 36.4224C24.7864 36.4224 26.525 34.6613 26.525 32.5C26.525 30.3787 24.7864 28.6176 22.6029 28.6176ZM44.3971 28.6176C42.2136 28.6176 40.4345 30.3787 40.4345 32.5C40.4345 34.6613 42.2136 36.4224 44.3971 36.4224C46.5401 36.4224 48.3193 34.6613 48.3193 32.5C48.3193 30.3787 46.5401 28.6176 44.3971 28.6176ZM60.7327 36.1422C58.5492 36.1422 56.8105 37.9033 56.8105 40.0246C56.8105 42.186 58.5492 43.907 60.7327 43.907C62.9161 43.907 64.6548 42.186 64.6548 40.0246C64.6548 37.9033 62.9161 36.1422 60.7327 36.1422ZM45.6101 54.9138C43.4671 54.9138 41.688 56.6349 41.688 58.7962C41.688 60.9575 43.4671 62.6786 45.6101 62.6786C47.7936 62.6786 49.5323 60.9575 49.5323 58.7962C49.5323 56.6349 47.7936 54.9138 45.6101 54.9138ZM21.3899 54.9138C19.2064 54.9138 17.4273 56.6349 17.4273 58.7962C17.4273 60.9575 19.2064 62.6786 21.3899 62.6786C23.5329 62.6786 25.312 60.9575 25.312 58.7962C25.312 56.6349 23.5329 54.9138 21.3899 54.9138ZM6.26735 36.1422C4.08389 36.1422 2.3452 37.9033 2.3452 40.0246C2.3452 42.186 4.08389 43.907 6.26735 43.907C8.41038 43.907 10.1895 42.186 10.1895 40.0246C10.1895 37.9033 8.41038 36.1422 6.26735 36.1422Z" fill="url(#paint0_linear_2763_752)"/>
<defs>
<linearGradient id="paint0_linear_2763_752" x1="33.5" y1="0" x2="33.5" y2="65" gradientUnits="userSpaceOnUse">
<stop stop-color="#70F45D"/>
<stop offset="1" stop-color="#418E36"/>
</linearGradient>
</defs>
</svg>
