<svg width="62" height="60" viewBox="0 0 62 60" fill="none" xmlns="http://www.w3.org/2000/svg">
<path id="Vector" fill-rule="evenodd" clip-rule="evenodd" d="M42.9569 46.14V49.3333C42.9569 49.8735 42.5164 50.3114 41.973 50.3114H15.2024C14.659 50.3114 14.2185 49.8735 14.2185 49.3333V14.8417C14.2185 14.3016 14.659 13.8637 15.2024 13.8637H18.418V10.6669C18.418 10.1268 18.8586 9.68882 19.4019 9.68882H41.836C42.0947 9.68882 42.3457 9.79018 42.532 9.97552L46.8686 14.2901C47.0548 14.4753 47.1565 14.7246 47.1565 14.9814V45.1619C47.1565 45.7022 46.7159 46.14 46.1726 46.14H42.9569ZM20.3858 13.8637H37.6365C37.8949 13.8637 38.1459 13.9649 38.3322 14.1501L42.6688 18.4612C42.8551 18.6464 42.9569 18.8959 42.9569 19.1528V44.1838H45.1887V15.9595H41.836C41.2927 15.9595 40.8522 15.5216 40.8522 14.9814V11.645H20.3858V13.8637ZM36.6526 15.8198H16.1862V48.3552H40.9892C40.9892 48.3552 40.9892 24.1827 40.9892 20.1309H37.6365C37.0931 20.1309 36.6526 19.6929 36.6526 19.1528V15.8198ZM43.7986 14.0033L42.8199 13.0296V14.0033H43.7986ZM39.5977 18.1747L38.6204 17.2031V18.1747H39.5977ZM20.6661 40.4188C20.123 40.4188 19.6822 39.9805 19.6822 39.4407C19.6822 38.9008 20.123 38.4626 20.6661 38.4626H36.5128C37.0559 38.4626 37.4966 38.9008 37.4966 39.4407C37.4966 39.9805 37.0559 40.4188 36.5128 40.4188H20.6661ZM20.6661 45.0614C20.123 45.0614 19.6822 44.6231 19.6822 44.0833C19.6822 43.5435 20.123 43.1052 20.6661 43.1052H36.5128C37.0559 43.1052 37.4966 43.5435 37.4966 44.0833C37.4966 44.6231 37.0559 45.0614 36.5128 45.0614H20.6661ZM20.6661 21.8518C20.123 21.8518 19.6822 21.4135 19.6822 20.8737C19.6822 20.3338 20.123 19.8956 20.6661 19.8956H32.0393C32.5824 19.8956 33.0232 20.3338 33.0232 20.8737C33.0232 21.4135 32.5824 21.8518 32.0393 21.8518H20.6661ZM20.6661 26.4944C20.123 26.4944 19.6822 26.0561 19.6822 25.5163C19.6822 24.9765 20.123 24.5382 20.6661 24.5382H36.5128C37.0559 24.5382 37.4966 24.9765 37.4966 25.5163C37.4966 26.0561 37.0559 26.4944 36.5128 26.4944H20.6661ZM20.6661 31.1336C20.123 31.1336 19.6822 30.6953 19.6822 30.1555C19.6822 29.6156 20.123 29.1774 20.6661 29.1774H36.5128C37.0559 29.1774 37.4966 29.6156 37.4966 30.1555C37.4966 30.6953 37.0559 31.1336 36.5128 31.1336H20.6661ZM20.6661 35.7762C20.123 35.7762 19.6822 35.3379 19.6822 34.7981C19.6822 34.2582 20.123 33.82 20.6661 33.82H36.5128C37.0559 33.82 37.4966 34.2582 37.4966 34.7981C37.4966 35.3379 37.0559 35.7762 36.5128 35.7762H20.6661ZM21.5633 2.41541L20.1024 1.90009C19.5907 1.71951 19.3226 1.15992 19.5042 0.651192C19.6858 0.142466 20.2488 -0.124063 20.7605 0.0565164L25.4354 1.70569C25.73 1.80961 25.9572 2.04643 26.048 2.34377C26.1387 2.64111 26.0817 2.96363 25.8948 3.21255L22.878 7.22979C22.5532 7.66235 21.9361 7.75148 21.501 7.42847C21.0659 7.10558 20.9764 6.4922 21.3012 6.05964L22.759 4.11826C19.0571 5.07581 15.4973 6.81973 12.335 9.37474C2.88079 17.0131 -0.155329 29.5905 3.92862 40.3296C4.12072 40.8345 3.86418 41.3995 3.35625 41.5903C2.84832 41.7812 2.28013 41.5262 2.08803 41.0213C-2.28751 29.5157 0.964937 16.0404 11.0938 7.85675C14.2824 5.28047 17.8483 3.47444 21.5633 2.41541ZM10.314 50.1036C20.1836 59.8523 36.0661 60.8253 47.106 51.9059C48.58 50.7151 49.8978 49.4041 51.0573 47.9988C51.4017 47.5814 52.0221 47.5206 52.442 47.8629C52.8617 48.2052 52.9231 48.822 52.5787 49.2394C51.3368 50.7445 49.9257 52.1486 48.3471 53.424C36.5329 62.9689 19.5429 61.9396 8.96582 51.5295L9.19777 53.4795C9.26148 54.0157 8.87543 54.5024 8.33626 54.5657C7.79698 54.6292 7.30738 54.2454 7.24367 53.7093L6.65162 48.7308C6.61497 48.4222 6.72787 48.1147 6.95589 47.9023C7.18402 47.6899 7.49997 47.5977 7.80731 47.6542L12.6854 48.5495C13.2194 48.6476 13.5729 49.1581 13.4743 49.689C13.3757 50.2198 12.8621 50.5712 12.3281 50.4732L10.314 50.1036ZM58.3783 37.7358L59.5654 36.7293C59.9785 36.3789 60.5999 36.4281 60.9524 36.8388C61.3047 37.2494 61.2554 37.8673 60.8422 38.2176L57.068 41.4178C56.8302 41.6194 56.5102 41.6968 56.2059 41.6261C55.9015 41.5555 55.6491 41.3453 55.5257 41.0598L53.5343 36.454C53.32 35.9581 53.5509 35.3824 54.0498 35.1693C54.5487 34.9561 55.1278 35.1857 55.3422 35.6817L56.3015 37.9005C58.571 29.6612 56.9449 20.4919 51.1122 13.3571C46.6825 7.93891 40.6013 4.64288 34.1752 3.59914C33.6394 3.51209 33.2753 3.00887 33.3629 2.47618C33.4505 1.94337 33.9567 1.58147 34.4925 1.66852C41.3774 2.78684 47.8932 6.31822 52.6391 12.1234C58.7277 19.5709 60.5383 29.0876 58.3783 37.7358Z" fill="url(#paint0_linear_2763_810)"/>
<defs>
<linearGradient id="paint0_linear_2763_810" x1="30.6875" y1="0" x2="30.6875" y2="60" gradientUnits="userSpaceOnUse">
<stop stop-color="#70F45D"/>
<stop offset="1" stop-color="#418E36"/>
</linearGradient>
</defs>
</svg>
