<svg width="60" height="47" viewBox="0 0 60 47" fill="none" xmlns="http://www.w3.org/2000/svg">
<g id="Group">
<path id="Vector" fill-rule="evenodd" clip-rule="evenodd" d="M56.4359 3.80209H3.13534V43.8646H56.4359V3.80209ZM3.13534 0.666748C1.40373 0.666748 0 2.07048 0 3.80209V43.8646C0 45.5961 1.40373 47 3.13534 47H56.4359C58.1674 47 59.5713 45.5961 59.5713 43.8646V3.80209C59.5713 2.07048 58.1674 0.666748 56.4359 0.666748H3.13534Z" fill="url(#paint0_linear_2763_812)"/>
<path id="Vector_2" fill-rule="evenodd" clip-rule="evenodd" d="M19.8574 10.5952V37.0714L41.3693 23.8333L19.8574 10.5952ZM23.1669 16.5178V31.1486L35.0547 23.8333L23.1669 16.5178Z" fill="url(#paint1_linear_2763_812)"/>
</g>
<defs>
<linearGradient id="paint0_linear_2763_812" x1="29.7857" y1="0.666748" x2="29.7857" y2="47" gradientUnits="userSpaceOnUse">
<stop stop-color="#70F45D"/>
<stop offset="1" stop-color="#418E36"/>
</linearGradient>
<linearGradient id="paint1_linear_2763_812" x1="30.6134" y1="10.5952" x2="30.6134" y2="37.0714" gradientUnits="userSpaceOnUse">
<stop stop-color="#70F45D"/>
<stop offset="1" stop-color="#418E36"/>
</linearGradient>
</defs>
</svg>
