<svg width="81" height="60" viewBox="0 0 81 60" fill="none" xmlns="http://www.w3.org/2000/svg">
<g id="Vector">
<path d="M81 60H28.2169V51.1766H31.7356V56.4708H77.4813V3.52922H31.7356V8.82338H28.2169V0H81V60Z" fill="url(#paint0_linear_2763_742)"/>
<path d="M31.7356 47.6474C19.1042 47.6745 7.34015 41.2042 0.571516 30.5073L0 29.6252L0.505795 28.6984C5.60756 19.4802 14.9367 13.4008 25.4077 12.4728C35.8786 11.5448 46.1266 15.8883 52.7612 24.066L53.5311 25.0148L52.9152 26.0733C48.3366 33.9461 39.943 38.7975 30.8561 38.8234C24.0907 38.846 17.5965 36.1537 12.8221 31.3455L11.7441 30.2643L12.6462 29.0513C15.8723 24.6787 20.7801 21.8642 26.1738 21.2942C31.5674 20.7236 36.952 22.4498 41.0171 26.0514L38.6859 28.6984C32.1885 22.9306 22.273 23.4818 16.4509 29.9334C20.4464 33.4116 25.5655 35.3161 30.8561 35.2942C38.26 35.2793 45.1639 31.5439 49.2425 25.3456C43.3012 18.6504 34.5435 15.1826 25.6448 16.0007C16.746 16.8189 8.76346 21.8261 4.13463 29.4927C10.3459 38.6592 20.686 44.1382 31.7356 44.1175C41.9848 44.1175 51.1774 39.5737 57.6213 31.3455L60.3926 33.5292C53.267 42.6395 43.0841 47.6474 31.7356 47.6474Z" fill="url(#paint1_linear_2763_742)"/>
</g>
<defs>
<linearGradient id="paint0_linear_2763_742" x1="40.5" y1="0" x2="40.5" y2="60" gradientUnits="userSpaceOnUse">
<stop stop-color="#70F45D"/>
<stop offset="1" stop-color="#418E36"/>
</linearGradient>
<linearGradient id="paint1_linear_2763_742" x1="40.5" y1="0" x2="40.5" y2="60" gradientUnits="userSpaceOnUse">
<stop stop-color="#70F45D"/>
<stop offset="1" stop-color="#418E36"/>
</linearGradient>
</defs>
</svg>
