<svg width="64" height="62" viewBox="0 0 64 62" fill="none" xmlns="http://www.w3.org/2000/svg">
<g id="Vector">
<path d="M33.0667 59.7857C32.4779 59.7857 32 59.2897 32 58.6786V47.6071C32 46.996 32.4779 46.5 33.0667 46.5C33.6555 46.5 34.1333 46.996 34.1333 47.6071V58.6786C34.1333 59.2897 33.6555 59.7857 33.0667 59.7857Z" fill="#455A64"/>
<path d="M48 59.7857C47.4112 59.7857 46.9333 59.2897 46.9333 58.6786V36.5357C46.9333 35.9246 47.4112 35.4286 48 35.4286C48.5888 35.4286 49.0667 35.9246 49.0667 36.5357V58.6786C49.0667 59.2897 48.5888 59.7857 48 59.7857Z" fill="#455A64"/>
<path d="M33.0667 59.7857C32.4779 59.7857 32 59.2897 32 58.6786V47.6071C32 46.996 32.4779 46.5 33.0667 46.5C33.6555 46.5 34.1333 46.996 34.1333 47.6071V58.6786C34.1333 59.2897 33.6555 59.7857 33.0667 59.7857Z" fill="url(#paint0_linear_2763_807)"/>
<path d="M48 59.7857C47.4112 59.7857 46.9333 59.2897 46.9333 58.6786V36.5357C46.9333 35.9246 47.4112 35.4286 48 35.4286C48.5888 35.4286 49.0667 35.9246 49.0667 36.5357V58.6786C49.0667 59.2897 48.5888 59.7857 48 59.7857Z" fill="url(#paint1_linear_2763_807)"/>
<path d="M37.3333 62C36.7445 62 36.2667 61.504 36.2667 60.8929V45.3929C36.2667 44.7839 35.7867 44.2857 35.2 44.2857H34.1333C33.5445 44.2857 33.0667 43.7897 33.0667 43.1786C33.0667 42.5674 33.5445 42.0714 34.1333 42.0714H35.2C36.9643 42.0714 38.4 43.5616 38.4 45.3929V60.8929C38.4 61.504 37.9221 62 37.3333 62Z" fill="url(#paint2_linear_2763_807)"/>
<path d="M28.8 62C28.2112 62 27.7333 61.504 27.7333 60.8929V45.3929C27.7333 43.5616 29.1691 42.0714 30.9333 42.0714C31.5221 42.0714 32 42.5674 32 43.1786C32 43.7897 31.5221 44.2857 30.9333 44.2857C30.3467 44.2857 29.8667 44.7839 29.8667 45.3929V60.8929C29.8667 61.504 29.3888 62 28.8 62Z" fill="url(#paint3_linear_2763_807)"/>
<path d="M35.2 44.2857C34.6112 44.2857 34.1333 43.7897 34.1333 43.1786V37.6429H32V43.1786C32 43.7897 31.5221 44.2857 30.9333 44.2857C30.3445 44.2857 29.8667 43.7897 29.8667 43.1786L29.8645 37.6429C29.2757 37.6429 28.7979 37.1469 28.7979 36.5357C28.7979 35.9246 29.2757 35.4286 29.8645 35.4286H36.2667C36.8555 35.4286 37.3333 35.9246 37.3333 36.5357C37.3333 37.1469 36.8555 37.6429 36.2667 37.6429V43.1786C36.2667 43.7897 35.7888 44.2857 35.2 44.2857Z" fill="url(#paint4_linear_2763_807)"/>
<path d="M52.2667 62C51.6779 62 51.2 61.504 51.2 60.8929V35.4286C51.2 35.0809 51.3579 34.751 51.6267 34.5429L55.4667 31.5536V23.7084L53.3333 21.4941V26.5714C53.3333 26.9191 53.1755 27.249 52.9067 27.4571L48.64 30.7786C48.2603 31.0731 47.7397 31.0731 47.36 30.7786L43.0933 27.4571C42.8245 27.249 42.6667 26.9191 42.6667 26.5714V21.4941L40.5333 23.7084V31.5536L44.3733 34.5429C44.6421 34.7532 44.8 35.0809 44.8 35.4286V60.8929C44.8 61.504 44.3221 62 43.7333 62C43.1445 62 42.6667 61.504 42.6667 60.8929V35.9821L38.8267 32.9929C38.5579 32.7825 38.4 32.4548 38.4 32.1071V23.25C38.4 22.9555 38.5131 22.6743 38.7115 22.4661L42.9781 18.0376C43.2832 17.7187 43.744 17.6257 44.1408 17.7984C44.5397 17.9689 44.8 18.3741 44.8 18.8214V26.0179L48 28.5089L51.2 26.0179V18.8214C51.2 18.3741 51.4603 17.9689 51.8592 17.7984C52.2581 17.6301 52.7168 17.7209 53.0219 18.0376L57.2885 22.4661C57.4869 22.6743 57.6 22.9555 57.6 23.25V32.1071C57.6 32.4548 57.4421 32.7847 57.1733 32.9929L53.3333 35.9821V60.8929C53.3333 61.504 52.8555 62 52.2667 62Z" fill="url(#paint5_linear_2763_807)"/>
<path d="M33.0667 37.6429C32.4779 37.6429 32 37.1469 32 36.5357V18.8214C32 18.2103 32.4779 17.7143 33.0667 17.7143C33.6555 17.7143 34.1333 18.2103 34.1333 18.8214V36.5357C34.1333 37.1469 33.6555 37.6429 33.0667 37.6429Z" fill="url(#paint6_linear_2763_807)"/>
<path d="M9.6 55.3571C9.0112 55.3571 8.53333 54.8611 8.53333 54.25C8.53333 53.6389 9.0112 53.0321 9.6 53.0321C10.1888 53.0321 10.6667 53.4174 10.6667 54.0286V54.25C10.6667 54.8611 10.1888 55.3571 9.6 55.3571Z" fill="url(#paint7_linear_2763_807)"/>
<path d="M13.8667 55.3571C13.2779 55.3571 12.8 54.8611 12.8 54.25C12.8 53.6389 13.2779 53.0321 13.8667 53.0321C14.4555 53.0321 14.9333 53.4174 14.9333 54.0286V54.25C14.9333 54.8611 14.4555 55.3571 13.8667 55.3571Z" fill="url(#paint8_linear_2763_807)"/>
<path d="M18.1333 55.3571C17.5445 55.3571 17.0667 54.8611 17.0667 54.25C17.0667 53.6389 17.5445 53.0321 18.1333 53.0321C18.7221 53.0321 19.2 53.4174 19.2 54.0286V54.25C19.2 54.8611 18.7221 55.3571 18.1333 55.3571Z" fill="url(#paint9_linear_2763_807)"/>
<path d="M41.6 8.85714C41.0112 8.85714 40.5333 8.36114 40.5333 7.75V5.53571C40.5333 3.7045 39.0976 2.21429 37.3333 2.21429H26.6667C24.9024 2.21429 23.4667 3.7045 23.4667 5.53571V7.75C23.4667 8.36114 22.9888 8.85714 22.4 8.85714C21.8112 8.85714 21.3333 8.36114 21.3333 7.75V5.53571C21.3333 2.48221 23.7248 0 26.6667 0H37.3333C40.2752 0 42.6667 2.48221 42.6667 5.53571V7.75C42.6667 8.36114 42.1888 8.85714 41.6 8.85714Z" fill="url(#paint10_linear_2763_807)"/>
<path d="M58.6667 62L52.2667 62C51.6779 62 51.2 61.504 51.2 60.8929C51.2 60.2817 51.6779 59.7857 52.2667 59.7857H58.6667C60.4309 59.7857 61.8667 58.2955 61.8667 56.4643V16.6071C61.8667 14.7759 60.4309 13.2857 58.6667 13.2857H5.33333C3.56907 13.2857 2.13333 14.7759 2.13333 16.6071V56.4643C2.13333 58.2955 3.56907 59.7857 5.33333 59.7857H28.8C29.3888 59.7857 29.8667 60.2817 29.8667 60.8929C29.8667 61.504 29.3888 62 28.8 62H5.33333C2.39147 62 0 59.5178 0 56.4643V16.6071C0 13.5536 2.39147 11.0714 5.33333 11.0714H58.6667C61.6085 11.0714 64 13.5536 64 16.6071V56.4643C64 59.5178 61.6085 62 58.6667 62Z" fill="url(#paint11_linear_2763_807)"/>
<path d="M43.7333 62L37.3333 62C36.7445 62 36.2667 61.504 36.2667 60.8929C36.2667 60.2817 36.7445 59.7857 37.3333 59.7857H43.7333C44.3221 59.7857 44.8 60.2817 44.8 60.8929C44.8 61.504 44.3221 62 43.7333 62Z" fill="url(#paint12_linear_2763_807)"/>
</g>
<defs>
<linearGradient id="paint0_linear_2763_807" x1="32" y1="0" x2="32" y2="62" gradientUnits="userSpaceOnUse">
<stop stop-color="#70F45D"/>
<stop offset="1" stop-color="#418E36"/>
</linearGradient>
<linearGradient id="paint1_linear_2763_807" x1="32" y1="0" x2="32" y2="62" gradientUnits="userSpaceOnUse">
<stop stop-color="#70F45D"/>
<stop offset="1" stop-color="#418E36"/>
</linearGradient>
<linearGradient id="paint2_linear_2763_807" x1="32" y1="0" x2="32" y2="62" gradientUnits="userSpaceOnUse">
<stop stop-color="#70F45D"/>
<stop offset="1" stop-color="#418E36"/>
</linearGradient>
<linearGradient id="paint3_linear_2763_807" x1="32" y1="0" x2="32" y2="62" gradientUnits="userSpaceOnUse">
<stop stop-color="#70F45D"/>
<stop offset="1" stop-color="#418E36"/>
</linearGradient>
<linearGradient id="paint4_linear_2763_807" x1="32" y1="0" x2="32" y2="62" gradientUnits="userSpaceOnUse">
<stop stop-color="#70F45D"/>
<stop offset="1" stop-color="#418E36"/>
</linearGradient>
<linearGradient id="paint5_linear_2763_807" x1="32" y1="0" x2="32" y2="62" gradientUnits="userSpaceOnUse">
<stop stop-color="#70F45D"/>
<stop offset="1" stop-color="#418E36"/>
</linearGradient>
<linearGradient id="paint6_linear_2763_807" x1="32" y1="0" x2="32" y2="62" gradientUnits="userSpaceOnUse">
<stop stop-color="#70F45D"/>
<stop offset="1" stop-color="#418E36"/>
</linearGradient>
<linearGradient id="paint7_linear_2763_807" x1="32" y1="0" x2="32" y2="62" gradientUnits="userSpaceOnUse">
<stop stop-color="#70F45D"/>
<stop offset="1" stop-color="#418E36"/>
</linearGradient>
<linearGradient id="paint8_linear_2763_807" x1="32" y1="0" x2="32" y2="62" gradientUnits="userSpaceOnUse">
<stop stop-color="#70F45D"/>
<stop offset="1" stop-color="#418E36"/>
</linearGradient>
<linearGradient id="paint9_linear_2763_807" x1="32" y1="0" x2="32" y2="62" gradientUnits="userSpaceOnUse">
<stop stop-color="#70F45D"/>
<stop offset="1" stop-color="#418E36"/>
</linearGradient>
<linearGradient id="paint10_linear_2763_807" x1="32" y1="0" x2="32" y2="62" gradientUnits="userSpaceOnUse">
<stop stop-color="#70F45D"/>
<stop offset="1" stop-color="#418E36"/>
</linearGradient>
<linearGradient id="paint11_linear_2763_807" x1="32" y1="0" x2="32" y2="62" gradientUnits="userSpaceOnUse">
<stop stop-color="#70F45D"/>
<stop offset="1" stop-color="#418E36"/>
</linearGradient>
<linearGradient id="paint12_linear_2763_807" x1="32" y1="0" x2="32" y2="62" gradientUnits="userSpaceOnUse">
<stop stop-color="#70F45D"/>
<stop offset="1" stop-color="#418E36"/>
</linearGradient>
</defs>
</svg>
