<svg width="60" height="62" viewBox="0 0 60 62" fill="none" xmlns="http://www.w3.org/2000/svg">
<g id="Vector">
<path fill-rule="evenodd" clip-rule="evenodd" d="M45 1C45.9337 1 46.7432 1.64607 46.9502 2.55654L48.0568 7.42294C48.5686 9.6738 50.3262 11.4314 52.5771 11.9432L57.4435 13.0498C58.3539 13.2568 59 14.0663 59 15C59 15.9337 58.3539 16.7432 57.4435 16.9502L52.5771 18.0568C50.3262 18.5686 48.5686 20.3262 48.0568 22.5771L46.9502 27.4435C46.7432 28.3539 45.9337 29 45 29C44.0663 29 43.2568 28.3539 43.0498 27.4435L41.9432 22.5771C41.4314 20.3262 39.6738 18.5686 37.4229 18.0568L32.5565 16.9502C31.6461 16.7432 31 15.9337 31 15C31 14.0663 31.6461 13.2568 32.5565 13.0498L37.4229 11.9432C39.6738 11.4314 41.4314 9.6738 41.9432 7.42294L43.0498 2.55654C43.2568 1.64607 44.0663 1 45 1ZM45 10.6384C44.0427 12.5142 42.5142 14.0427 40.6384 15C42.5142 15.9573 44.0427 17.4858 45 19.3616C45.9573 17.4858 47.4858 15.9573 49.3616 15C47.4858 14.0427 45.9573 12.5142 45 10.6384Z" fill="url(#paint0_linear_2763_839)"/>
<path fill-rule="evenodd" clip-rule="evenodd" d="M33.188 22C30.177 22 27.688 24.4358 27.688 27.5C27.688 30.5642 30.177 33 33.188 33C36.1991 33 38.688 30.5642 38.688 27.5C38.688 24.4358 36.1991 22 33.188 22ZM31.5683 27.5C31.5683 26.6522 32.2669 25.9167 33.188 25.9167C34.1092 25.9167 34.8078 26.6522 34.8078 27.5C34.8078 28.3478 34.1092 29.0833 33.188 29.0833C32.2669 29.0833 31.5683 28.3478 31.5683 27.5Z" fill="url(#paint1_linear_2763_839)"/>
<path fill-rule="evenodd" clip-rule="evenodd" d="M9 13H28.417C28.1478 13.6162 28 14.2939 28 15C28 15.7061 28.1478 16.3838 28.417 17H9C6.79086 17 5 18.7909 5 21V38.0217C13.8025 35.795 22.6822 38.1665 29.1162 43.6599C33.3669 40.9401 38.3781 40.2645 43 41.4055V31.583C43.6162 31.8522 44.2939 32 45 32C45.7061 32 46.3838 31.8522 47 31.583V44.13C47.0007 44.1601 47.0007 44.1903 47 44.2205V53C47 57.4183 43.4183 61 39 61H9C4.58172 61 1 57.4183 1 53V21C1 16.5817 4.58172 13 9 13ZM5 42.0904V53C5 55.2091 6.79086 57 9 57H33.4431C29.5772 45.4074 17.407 38.7631 5.52868 42.0188C5.35213 42.0672 5.17463 42.0903 5 42.0904ZM37.6265 57H39C41.2091 57 43 55.2091 43 53V45.561C39.4049 44.4022 35.4514 44.6912 32.0418 46.5716C34.5677 49.5017 36.5075 53.0237 37.6265 57Z" fill="url(#paint2_linear_2763_839)"/>
<path fill-rule="evenodd" clip-rule="evenodd" d="M45 1C45.9337 1 46.7432 1.64607 46.9502 2.55654L48.0568 7.42294C48.5686 9.6738 50.3262 11.4314 52.5771 11.9432L57.4435 13.0498C58.3539 13.2568 59 14.0663 59 15C59 15.9337 58.3539 16.7432 57.4435 16.9502L52.5771 18.0568C50.3262 18.5686 48.5686 20.3262 48.0568 22.5771L46.9502 27.4435C46.7432 28.3539 45.9337 29 45 29C44.0663 29 43.2568 28.3539 43.0498 27.4435L41.9432 22.5771C41.4314 20.3262 39.6738 18.5686 37.4229 18.0568L32.5565 16.9502C31.6461 16.7432 31 15.9337 31 15C31 14.0663 31.6461 13.2568 32.5565 13.0498L37.4229 11.9432C39.6738 11.4314 41.4314 9.6738 41.9432 7.42294L43.0498 2.55654C43.2568 1.64607 44.0663 1 45 1ZM45 10.6384C44.0427 12.5142 42.5142 14.0427 40.6384 15C42.5142 15.9573 44.0427 17.4858 45 19.3616C45.9573 17.4858 47.4858 15.9573 49.3616 15C47.4858 14.0427 45.9573 12.5142 45 10.6384Z" stroke="white"/>
<path fill-rule="evenodd" clip-rule="evenodd" d="M33.188 22C30.177 22 27.688 24.4358 27.688 27.5C27.688 30.5642 30.177 33 33.188 33C36.1991 33 38.688 30.5642 38.688 27.5C38.688 24.4358 36.1991 22 33.188 22ZM31.5683 27.5C31.5683 26.6522 32.2669 25.9167 33.188 25.9167C34.1092 25.9167 34.8078 26.6522 34.8078 27.5C34.8078 28.3478 34.1092 29.0833 33.188 29.0833C32.2669 29.0833 31.5683 28.3478 31.5683 27.5Z" stroke="white"/>
<path fill-rule="evenodd" clip-rule="evenodd" d="M9 13H28.417C28.1478 13.6162 28 14.2939 28 15C28 15.7061 28.1478 16.3838 28.417 17H9C6.79086 17 5 18.7909 5 21V38.0217C13.8025 35.795 22.6822 38.1665 29.1162 43.6599C33.3669 40.9401 38.3781 40.2645 43 41.4055V31.583C43.6162 31.8522 44.2939 32 45 32C45.7061 32 46.3838 31.8522 47 31.583V44.13C47.0007 44.1601 47.0007 44.1903 47 44.2205V53C47 57.4183 43.4183 61 39 61H9C4.58172 61 1 57.4183 1 53V21C1 16.5817 4.58172 13 9 13ZM5 42.0904V53C5 55.2091 6.79086 57 9 57H33.4431C29.5772 45.4074 17.407 38.7631 5.52868 42.0188C5.35213 42.0672 5.17463 42.0903 5 42.0904ZM37.6265 57H39C41.2091 57 43 55.2091 43 53V45.561C39.4049 44.4022 35.4514 44.6912 32.0418 46.5716C34.5677 49.5017 36.5075 53.0237 37.6265 57Z" stroke="white"/>
</g>
<defs>
<linearGradient id="paint0_linear_2763_839" x1="30" y1="1" x2="30" y2="61" gradientUnits="userSpaceOnUse">
<stop stop-color="#70F45D"/>
<stop offset="1" stop-color="#418E36"/>
</linearGradient>
<linearGradient id="paint1_linear_2763_839" x1="30" y1="1" x2="30" y2="61" gradientUnits="userSpaceOnUse">
<stop stop-color="#70F45D"/>
<stop offset="1" stop-color="#418E36"/>
</linearGradient>
<linearGradient id="paint2_linear_2763_839" x1="30" y1="1" x2="30" y2="61" gradientUnits="userSpaceOnUse">
<stop stop-color="#70F45D"/>
<stop offset="1" stop-color="#418E36"/>
</linearGradient>
</defs>
</svg>
