<svg width="52" height="69" viewBox="0 0 52 69" fill="none" xmlns="http://www.w3.org/2000/svg">
<path id="Vector" fill-rule="evenodd" clip-rule="evenodd" d="M51.3025 8.28028C51.7623 8.75549 52 9.34088 52 10.0171V66.5422C52 67.8945 50.9304 69 49.6221 69H2.3827C1.06665 69 0 67.8934 0 66.5422V2.46285C0 1.10372 1.06786 0 2.3827 0H42.3084C42.9626 0 43.529 0.245673 43.9888 0.720883L51.3025 8.28028ZM41.7685 2.22581H2.3827C2.25618 2.22581 2.15349 2.33195 2.15349 2.46285V66.5422C2.15349 66.671 2.25726 66.7742 2.3827 66.7742H49.6221C49.7456 66.7742 49.8465 66.6699 49.8465 66.5422V10.5751H43.4983C42.5501 10.5751 41.7685 9.76726 41.7685 8.78721V2.22581ZM48.3237 8.34928L43.922 3.79973V8.34928H48.3237ZM26 59.0781C24.1593 60.307 21.9669 61.0206 19.6145 61.0206C13.1072 61.0206 7.82416 55.5602 7.82416 48.8343C7.82416 42.1085 13.1072 36.648 19.6145 36.648C21.9669 36.648 24.1593 37.3616 26 38.5906C27.8407 37.3616 30.0331 36.648 32.3855 36.648C38.8928 36.648 44.1758 42.1085 44.1758 48.8343C44.1758 55.5602 38.8928 61.0206 32.3855 61.0206C30.0331 61.0206 27.8407 60.307 26 59.0781ZM24.1959 40.0708C22.833 39.3075 21.2723 38.8739 19.6145 38.8739C14.2958 38.8739 9.97765 43.337 9.97765 48.8343C9.97765 54.3317 14.2958 58.7948 19.6145 58.7948C21.2723 58.7948 22.833 58.3612 24.1959 57.5978C21.9762 55.3813 20.5952 52.2732 20.5952 48.8343C20.5952 45.3955 21.9762 42.2874 24.1959 40.0708ZM27.8041 57.5978C29.167 58.3612 30.7277 58.7948 32.3855 58.7948C37.7042 58.7948 42.0224 54.3317 42.0224 48.8343C42.0224 43.337 37.7042 38.8739 32.3855 38.8739C30.7277 38.8739 29.167 39.3075 27.8041 40.0708C30.0238 42.2874 31.4049 45.3955 31.4049 48.8343C31.4049 52.2732 30.0238 55.3813 27.8041 57.5978ZM26.7699 42.1651C26.5277 41.8877 26.2707 41.6244 26 41.3766C25.7293 41.6244 25.4723 41.8877 25.2301 42.1651H26.7699ZM28.8333 45.9255C28.6736 45.3849 28.4706 44.8636 28.2283 44.3663C28.1554 44.3824 28.0799 44.3909 28.0023 44.3909H23.9593C23.894 44.3909 23.8302 44.3849 23.7682 44.3734C23.5275 44.8686 23.3256 45.3874 23.1667 45.9255H28.8333ZM29.2165 49.686C29.2397 49.4053 29.2514 49.1212 29.2514 48.8343C29.2514 48.6048 29.2438 48.3771 29.229 48.1513H22.771C22.7562 48.3771 22.7486 48.6048 22.7486 48.8343C22.7486 49.1212 22.7603 49.4053 22.7835 49.686H29.2165ZM28.1325 53.4938C28.391 52.9905 28.609 52.4617 28.7818 51.9118H23.2182C23.3857 52.4445 23.5954 52.9574 23.8433 53.4465H27.8212C27.9294 53.4465 28.034 53.463 28.1325 53.4938ZM26 56.2919C26.2152 56.0949 26.4217 55.8882 26.6191 55.6723H25.3809C25.5783 55.8882 25.7848 56.0949 26 56.2919ZM16.7103 8.55016C22.4361 8.55016 27.0767 13.3465 27.0767 19.2646C27.0767 25.1828 22.4361 29.9792 16.7103 29.9792C10.9845 29.9792 6.34391 25.1828 6.34391 19.2646C6.34391 13.3465 10.9845 8.55016 16.7103 8.55016ZM23.6547 23.7993C24.4581 22.4875 24.9233 20.9323 24.9233 19.2646C24.9233 14.576 21.2467 10.776 16.7103 10.776C12.1739 10.776 8.49739 14.576 8.49739 19.2646C8.49739 20.9323 8.96241 22.4875 9.76593 23.7993C10.4964 22.0518 11.8257 20.6341 13.4864 19.8233C12.7828 19.0227 12.3528 17.9613 12.3528 16.8007C12.3528 14.3228 14.3129 12.2969 16.7103 12.2969C19.1076 12.2969 21.0677 14.3228 21.0677 16.8007C21.0677 17.9613 20.6378 19.0227 19.9342 19.8233C21.5948 20.6341 22.9241 22.0518 23.6547 23.7993ZM11.415 25.754C12.8446 27.0015 14.6924 27.7534 16.7103 27.7534C18.7282 27.7534 20.5759 27.0015 22.0057 25.754C21.4957 23.2136 19.3179 21.3044 16.7103 21.3044C14.1027 21.3044 11.9248 23.2136 11.415 25.754ZM16.7103 19.0786C17.9228 19.0786 18.9142 18.0539 18.9142 16.8007C18.9142 15.5474 17.9228 14.5227 16.7103 14.5227C15.4977 14.5227 14.5063 15.5474 14.5063 16.8007C14.5063 18.0539 15.4977 19.0786 16.7103 19.0786ZM29.7891 20.3732C29.1948 20.3725 28.7129 19.8734 28.7135 19.2591C28.7142 18.6449 29.1973 18.1467 29.7915 18.1474L41.6696 18.1612C42.2638 18.1619 42.7458 18.6612 42.7451 19.2753C42.7444 19.8895 42.2614 20.3877 41.6672 20.387L29.7891 20.3732ZM29.7903 16.1262C29.196 16.1262 28.7135 15.6275 28.7135 15.0133C28.7135 14.399 29.196 13.9004 29.7903 13.9004H37.2016C37.7959 13.9004 38.2784 14.399 38.2784 15.0133C38.2784 15.6275 37.7959 16.1262 37.2016 16.1262H29.7903ZM29.7903 24.629C29.196 24.629 28.7135 24.1302 28.7135 23.5161C28.7135 22.9019 29.196 22.4032 29.7903 22.4032H46.2685C46.8627 22.4032 47.3452 22.9019 47.3452 23.5161C47.3452 24.1302 46.8627 24.629 46.2685 24.629H29.7903Z" fill="url(#paint0_linear_2763_820)"/>
<defs>
<linearGradient id="paint0_linear_2763_820" x1="26" y1="0" x2="26" y2="69" gradientUnits="userSpaceOnUse">
<stop stop-color="#70F45D"/>
<stop offset="1" stop-color="#418E36"/>
</linearGradient>
</defs>
</svg>
