<svg width="54" height="54" viewBox="0 0 54 54" fill="none" xmlns="http://www.w3.org/2000/svg">
<g id="Vector">
<path d="M53.129 0H32.2258C31.7442 0 31.3548 0.390191 31.3548 0.870963V28.7418C31.3548 29.2225 31.7442 29.6127 32.2258 29.6127H53.129C53.6107 29.6127 54 29.2225 54 28.7418V0.870963C54 0.390191 53.6107 0 53.129 0ZM52.2581 27.8708H33.0968V1.74193H52.2581V27.8708Z" fill="url(#paint0_linear_2763_861)"/>
<path d="M51.3871 32.2256H28.7419C27.3014 32.2256 26.129 33.3979 26.129 34.8385V51.3868C26.129 52.8274 27.3014 53.9997 28.7419 53.9997H51.3871C52.8277 53.9997 54 52.8274 54 51.3868V34.8385C54 33.3979 52.8277 32.2256 51.3871 32.2256ZM52.2581 51.3868C52.2581 51.8667 51.8679 52.2578 51.3871 52.2578H28.7419C28.2612 52.2578 27.871 51.8667 27.871 51.3868V34.8385C27.871 34.3586 28.2612 33.9675 28.7419 33.9675H51.3871C51.8679 33.9675 52.2581 34.3586 52.2581 34.8385V51.3868Z" fill="url(#paint1_linear_2763_861)"/>
<path d="M48.7742 47.9029H47.0323C47.0323 47.4222 46.6429 47.032 46.1613 47.032C45.6796 47.032 45.2903 47.4222 45.2903 47.9029H31.3548C30.2017 47.9029 30.2025 49.6449 31.3548 49.6449H45.2903C45.2903 50.1256 45.6796 50.5158 46.1613 50.5158C46.6429 50.5158 47.0323 50.1256 47.0323 49.6449H48.7742C49.9274 49.6449 49.9265 47.9029 48.7742 47.9029Z" fill="url(#paint2_linear_2763_861)"/>
<path d="M27.871 26.1289V5.22578C27.871 3.7852 26.6986 2.61289 25.2581 2.61289H2.6129C1.17232 2.61289 0 3.7852 0 5.22578V26.1289C0 27.5695 1.17232 28.7418 2.6129 28.7418H25.2581C26.6986 28.7418 27.871 27.5695 27.871 26.1289ZM26.129 26.1289C26.129 26.6088 25.7388 26.9998 25.2581 26.9998H2.6129C2.13213 26.9998 1.74194 26.6088 1.74194 26.1289V5.22578C1.74194 4.74588 2.13213 4.35481 2.6129 4.35481H25.2581C25.7388 4.35481 26.129 4.74588 26.129 5.22578V26.1289Z" fill="url(#paint3_linear_2763_861)"/>
<path d="M17.4194 13.9354C19.3407 13.9354 20.9032 12.3729 20.9032 10.4516C20.9032 8.53021 19.3407 6.9677 17.4194 6.9677C15.498 6.9677 13.9355 8.53021 13.9355 10.4516C13.9355 12.3729 15.498 13.9354 17.4194 13.9354ZM17.4194 8.70963C18.38 8.70963 19.1613 9.49088 19.1613 10.4516C19.1613 11.4122 18.38 12.1935 17.4194 12.1935C16.4587 12.1935 15.6774 11.4122 15.6774 10.4516C15.6774 9.49088 16.4587 8.70963 17.4194 8.70963Z" fill="url(#paint4_linear_2763_861)"/>
<path d="M20.648 16.8035C20.3075 16.4629 19.757 16.4629 19.4165 16.8035L16.5484 19.6716L11.0674 14.1906C10.7268 13.85 10.1764 13.85 9.83584 14.1906L3.73906 20.2873C2.92384 21.1026 4.15626 22.3332 4.97061 21.5189L10.4516 16.0379L15.9326 21.5189C16.2732 21.8594 16.8236 21.8594 17.1642 21.5189L20.0323 18.6508L22.9004 21.5189C23.7034 22.3219 24.9576 21.1121 24.1319 20.2873L20.648 16.8035Z" fill="url(#paint5_linear_2763_861)"/>
<path d="M36.5806 6.09674H45.2903C46.4435 6.09674 46.4426 4.35481 45.2903 4.35481H36.5806C35.4275 4.35481 35.4284 6.09674 36.5806 6.09674Z" fill="url(#paint6_linear_2763_861)"/>
<path d="M36.5806 13.9354H48.7742C49.9274 13.9354 49.9265 12.1935 48.7742 12.1935H36.5806C35.4275 12.1935 35.4284 13.9354 36.5806 13.9354Z" fill="url(#paint7_linear_2763_861)"/>
<path d="M36.5806 21.7741H48.7742C49.9274 21.7741 49.9265 20.0321 48.7742 20.0321H36.5806C35.4275 20.0321 35.4284 21.7741 36.5806 21.7741Z" fill="url(#paint8_linear_2763_861)"/>
<path d="M36.5806 25.2579H40.9355C42.0886 25.2579 42.0878 23.516 40.9355 23.516H36.5806C35.4275 23.516 35.4284 25.2579 36.5806 25.2579Z" fill="url(#paint9_linear_2763_861)"/>
<path d="M36.5806 10.4516H38.3226C39.4757 10.4516 39.4749 8.70963 38.3226 8.70963H36.5806C35.4275 8.70963 35.4284 10.4516 36.5806 10.4516Z" fill="url(#paint10_linear_2763_861)"/>
<path d="M42.6774 10.4516H48.7742C49.9274 10.4516 49.9265 8.70963 48.7742 8.70963H42.6774C41.5243 8.70963 41.5251 10.4516 42.6774 10.4516Z" fill="url(#paint11_linear_2763_861)"/>
<path d="M36.5806 18.2902H42.6774C43.8306 18.2902 43.8297 16.5483 42.6774 16.5483H36.5806C35.4275 16.5483 35.4284 18.2902 36.5806 18.2902Z" fill="url(#paint12_linear_2763_861)"/>
<path d="M48.7742 16.5483H47.0323C45.8791 16.5483 45.88 18.2902 47.0323 18.2902H48.7742C49.9274 18.2902 49.9265 16.5483 48.7742 16.5483Z" fill="url(#paint13_linear_2763_861)"/>
<path d="M12.1935 31.3547C5.46968 31.3547 0 35.6529 0 40.9352C0 43.0857 0.924968 45.1803 2.6129 46.87V53.1287C2.6129 53.9091 3.55616 54.288 4.09965 53.7445L7.93103 49.9131C9.27581 50.3138 10.7077 50.5158 12.1935 50.5158C18.9174 50.5158 24.3871 46.2176 24.3871 40.9352C24.3871 35.6529 18.9174 31.3547 12.1935 31.3547ZM12.1935 48.7739C10.7051 48.7739 9.28539 48.5466 7.97197 48.098C7.65929 47.99 7.30916 48.0702 7.07487 48.3062L4.35484 51.0262V46.5007C4.35484 46.2586 4.25468 46.0278 4.07787 45.8632C2.54932 44.4417 1.74194 42.7373 1.74194 40.9352C1.74194 36.6135 6.43035 33.0966 12.1935 33.0966C17.9567 33.0966 22.6452 36.6135 22.6452 40.9352C22.6452 45.257 17.9567 48.7739 12.1935 48.7739Z" fill="url(#paint14_linear_2763_861)"/>
<path d="M12.1935 42.2417C12.9151 42.2417 13.5 41.6568 13.5 40.9352C13.5 40.2137 12.9151 39.6288 12.1935 39.6288C11.472 39.6288 10.8871 40.2137 10.8871 40.9352C10.8871 41.6568 11.472 42.2417 12.1935 42.2417Z" fill="url(#paint15_linear_2763_861)"/>
<path d="M18.2903 42.2417C19.0119 42.2417 19.5968 41.6568 19.5968 40.9352C19.5968 40.2137 19.0119 39.6288 18.2903 39.6288C17.5688 39.6288 16.9839 40.2137 16.9839 40.9352C16.9839 41.6568 17.5688 42.2417 18.2903 42.2417Z" fill="url(#paint16_linear_2763_861)"/>
<path d="M6.09677 42.2417C6.81831 42.2417 7.40323 41.6568 7.40323 40.9352C7.40323 40.2137 6.81831 39.6288 6.09677 39.6288C5.37524 39.6288 4.79032 40.2137 4.79032 40.9352C4.79032 41.6568 5.37524 42.2417 6.09677 42.2417Z" fill="url(#paint17_linear_2763_861)"/>
<path d="M38.5508 45.9119L44.3401 42.5761C45.6013 41.8506 45.6013 40.0242 44.3401 39.2978L38.5516 35.9638C37.294 35.2357 35.7097 36.1493 35.7097 37.6021V44.2719C35.7097 45.7438 37.3079 46.6252 38.5508 45.9119ZM37.4516 37.6021C37.4516 37.4897 37.5788 37.4131 37.6815 37.4732L43.4709 40.8081C43.5702 40.8656 43.5702 41.0093 43.4709 41.0668L37.6824 44.4017C37.5796 44.4592 37.4516 44.3886 37.4516 44.2728V37.6021Z" fill="url(#paint18_linear_2763_861)"/>
</g>
<defs>
<linearGradient id="paint0_linear_2763_861" x1="27" y1="0" x2="27" y2="54" gradientUnits="userSpaceOnUse">
<stop stop-color="#70F45D"/>
<stop offset="1" stop-color="#418E36"/>
</linearGradient>
<linearGradient id="paint1_linear_2763_861" x1="27" y1="0" x2="27" y2="54" gradientUnits="userSpaceOnUse">
<stop stop-color="#70F45D"/>
<stop offset="1" stop-color="#418E36"/>
</linearGradient>
<linearGradient id="paint2_linear_2763_861" x1="27" y1="0" x2="27" y2="54" gradientUnits="userSpaceOnUse">
<stop stop-color="#70F45D"/>
<stop offset="1" stop-color="#418E36"/>
</linearGradient>
<linearGradient id="paint3_linear_2763_861" x1="27" y1="0" x2="27" y2="54" gradientUnits="userSpaceOnUse">
<stop stop-color="#70F45D"/>
<stop offset="1" stop-color="#418E36"/>
</linearGradient>
<linearGradient id="paint4_linear_2763_861" x1="27" y1="0" x2="27" y2="54" gradientUnits="userSpaceOnUse">
<stop stop-color="#70F45D"/>
<stop offset="1" stop-color="#418E36"/>
</linearGradient>
<linearGradient id="paint5_linear_2763_861" x1="27" y1="0" x2="27" y2="54" gradientUnits="userSpaceOnUse">
<stop stop-color="#70F45D"/>
<stop offset="1" stop-color="#418E36"/>
</linearGradient>
<linearGradient id="paint6_linear_2763_861" x1="27" y1="0" x2="27" y2="54" gradientUnits="userSpaceOnUse">
<stop stop-color="#70F45D"/>
<stop offset="1" stop-color="#418E36"/>
</linearGradient>
<linearGradient id="paint7_linear_2763_861" x1="27" y1="0" x2="27" y2="54" gradientUnits="userSpaceOnUse">
<stop stop-color="#70F45D"/>
<stop offset="1" stop-color="#418E36"/>
</linearGradient>
<linearGradient id="paint8_linear_2763_861" x1="27" y1="0" x2="27" y2="54" gradientUnits="userSpaceOnUse">
<stop stop-color="#70F45D"/>
<stop offset="1" stop-color="#418E36"/>
</linearGradient>
<linearGradient id="paint9_linear_2763_861" x1="27" y1="0" x2="27" y2="54" gradientUnits="userSpaceOnUse">
<stop stop-color="#70F45D"/>
<stop offset="1" stop-color="#418E36"/>
</linearGradient>
<linearGradient id="paint10_linear_2763_861" x1="27" y1="0" x2="27" y2="54" gradientUnits="userSpaceOnUse">
<stop stop-color="#70F45D"/>
<stop offset="1" stop-color="#418E36"/>
</linearGradient>
<linearGradient id="paint11_linear_2763_861" x1="27" y1="0" x2="27" y2="54" gradientUnits="userSpaceOnUse">
<stop stop-color="#70F45D"/>
<stop offset="1" stop-color="#418E36"/>
</linearGradient>
<linearGradient id="paint12_linear_2763_861" x1="27" y1="0" x2="27" y2="54" gradientUnits="userSpaceOnUse">
<stop stop-color="#70F45D"/>
<stop offset="1" stop-color="#418E36"/>
</linearGradient>
<linearGradient id="paint13_linear_2763_861" x1="27" y1="0" x2="27" y2="54" gradientUnits="userSpaceOnUse">
<stop stop-color="#70F45D"/>
<stop offset="1" stop-color="#418E36"/>
</linearGradient>
<linearGradient id="paint14_linear_2763_861" x1="27" y1="0" x2="27" y2="54" gradientUnits="userSpaceOnUse">
<stop stop-color="#70F45D"/>
<stop offset="1" stop-color="#418E36"/>
</linearGradient>
<linearGradient id="paint15_linear_2763_861" x1="27" y1="0" x2="27" y2="54" gradientUnits="userSpaceOnUse">
<stop stop-color="#70F45D"/>
<stop offset="1" stop-color="#418E36"/>
</linearGradient>
<linearGradient id="paint16_linear_2763_861" x1="27" y1="0" x2="27" y2="54" gradientUnits="userSpaceOnUse">
<stop stop-color="#70F45D"/>
<stop offset="1" stop-color="#418E36"/>
</linearGradient>
<linearGradient id="paint17_linear_2763_861" x1="27" y1="0" x2="27" y2="54" gradientUnits="userSpaceOnUse">
<stop stop-color="#70F45D"/>
<stop offset="1" stop-color="#418E36"/>
</linearGradient>
<linearGradient id="paint18_linear_2763_861" x1="27" y1="0" x2="27" y2="54" gradientUnits="userSpaceOnUse">
<stop stop-color="#70F45D"/>
<stop offset="1" stop-color="#418E36"/>
</linearGradient>
</defs>
</svg>
