<svg width="70" height="55" viewBox="0 0 70 55" fill="none" xmlns="http://www.w3.org/2000/svg">
<g id="Vector">
<path fill-rule="evenodd" clip-rule="evenodd" d="M32.9504 21.7131L31.808 23.7918C31.0427 25.185 29.568 26.0557 27.9664 26.0557C24.8752 26.0557 18.3755 26.0557 14.5861 26.0557C12.1707 26.0557 10.2107 24.1105 10.2107 21.7131C10.2107 17.263 10.2107 8.7927 10.2107 4.34262C10.2107 1.94529 12.1707 0 14.5861 0H55.4213C57.8368 0 59.7968 1.94529 59.7968 4.34262V21.7131C59.7968 24.1105 57.8368 26.0557 55.4213 26.0557H42.0411C40.4395 26.0557 38.9685 25.1887 38.1995 23.7918L37.0571 21.7131H32.9504ZM56.8736 4.34633C56.8736 3.54598 56.2203 2.89755 55.4139 2.89755C47.0325 2.89755 22.96 2.89755 14.5787 2.89755C13.7723 2.89755 13.1189 3.54598 13.1189 4.34633V21.7168C13.1189 22.5172 13.7723 23.1656 14.5787 23.1656H27.9589C28.4928 23.1656 28.9856 22.8766 29.2395 22.4097C29.9301 21.1573 30.7963 19.5751 30.7963 19.5751C31.0501 19.112 31.5429 18.8193 32.0768 18.8193H37.9083C38.4421 18.8193 38.9349 19.1083 39.1888 19.5751C39.1888 19.5751 40.0549 21.1573 40.7456 22.4097C40.9995 22.8729 41.4923 23.1656 42.0261 23.1656H55.4064C56.2128 23.1656 56.8661 22.5172 56.8661 21.7168L56.8736 4.34633Z" fill="url(#paint0_linear_2763_831)"/>
<path fill-rule="evenodd" clip-rule="evenodd" d="M8.75093 8.68525V17.3705C8.75093 18.1708 9.40427 18.8193 10.2107 18.8193C11.0171 18.8193 11.6704 18.1708 11.6704 17.3705V8.68525C11.6704 7.8849 11.0171 7.23647 10.2107 7.23647C9.40427 7.23647 8.75093 7.8886 8.75093 8.68525Z" fill="url(#paint1_linear_2763_831)"/>
<path fill-rule="evenodd" clip-rule="evenodd" d="M58.3333 8.68525V17.3705C58.3333 18.1708 58.9867 18.8193 59.7931 18.8193C60.5995 18.8193 61.2528 18.1708 61.2528 17.3705V8.68525C61.2528 7.8849 60.5995 7.23647 59.7931 7.23647C58.9867 7.23647 58.3333 7.8886 58.3333 8.68525Z" fill="url(#paint2_linear_2763_831)"/>
<path fill-rule="evenodd" clip-rule="evenodd" d="M17.4981 8.68525H20.4139C21.2203 8.68525 21.8736 8.03682 21.8736 7.23647C21.8736 6.43612 21.2203 5.78769 20.4139 5.78769H17.4981C16.6917 5.78769 16.0384 6.43612 16.0384 7.23647C16.0384 8.03682 16.6955 8.68525 17.4981 8.68525Z" fill="url(#paint3_linear_2763_831)"/>
<path fill-rule="evenodd" clip-rule="evenodd" d="M17.4981 14.4766H20.4139C21.2203 14.4766 21.8736 13.8282 21.8736 13.0279C21.8736 12.2275 21.2203 11.5791 20.4139 11.5791H17.4981C16.6917 11.5791 16.0384 12.2275 16.0384 13.0279C16.0384 13.8282 16.6955 14.4766 17.4981 14.4766Z" fill="url(#paint4_linear_2763_831)"/>
<path fill-rule="evenodd" clip-rule="evenodd" d="M17.4981 20.268H20.4139C21.2203 20.268 21.8736 19.6196 21.8736 18.8193C21.8736 18.0189 21.2203 17.3705 20.4139 17.3705H17.4981C16.6917 17.3705 16.0384 18.0189 16.0384 18.8193C16.0384 19.6196 16.6955 20.268 17.4981 20.268Z" fill="url(#paint5_linear_2763_831)"/>
<path fill-rule="evenodd" clip-rule="evenodd" d="M19.6784 45.3493C13.4736 44.5082 8.4448 43.1891 5.41707 41.5513C4.55093 41.0808 3.86027 40.5954 3.40107 40.0766C3.1136 39.7543 2.91573 39.4356 2.91573 39.0873C2.91573 38.702 3.15093 38.3537 3.49067 37.9942C4.032 37.4236 4.8384 36.8975 5.8576 36.3898C11.3195 33.6627 22.3291 31.8508 34.9963 31.8508C47.6635 31.8508 58.6768 33.6664 64.1349 36.3898C65.1541 36.8975 65.9605 37.4273 66.5019 37.9942C66.8416 38.3537 67.0768 38.702 67.0768 39.0873C67.0768 39.4727 66.8416 39.821 66.5019 40.1804C65.9605 40.751 65.1541 41.2771 64.1349 41.7848C58.6731 44.5119 47.6635 46.3238 34.9963 46.3238H30.6208C29.8144 46.3238 29.1611 46.9722 29.1611 47.7726C29.1611 48.5729 29.8144 49.2213 30.6208 49.2213H35C48.2459 49.2213 59.7408 47.2242 65.4528 44.3711C68.5029 42.8482 70 40.9214 70 39.0873C70 37.2532 68.4992 35.3264 65.4528 33.8035C59.7445 30.9542 48.2496 28.9533 35 28.9533C21.7504 28.9533 10.2592 30.9504 4.5472 33.8035C1.49707 35.3264 0 37.2532 0 39.0873C0 40.4694 0.787734 41.8737 2.4528 43.1113C5.40213 45.2863 11.4651 47.1575 19.2827 48.2135C20.0816 48.3209 20.8171 47.7688 20.9253 46.9759C21.0336 46.1867 20.4736 45.4567 19.6784 45.3493Z" fill="url(#paint6_linear_2763_831)"/>
<path fill-rule="evenodd" clip-rule="evenodd" d="M32.9616 47.7651L38.8304 52.4227C39.4576 52.9229 39.5621 53.8344 39.0581 54.4569C38.5541 55.0794 37.6357 55.1832 37.0085 54.683L29.7173 48.8953C29.3701 48.6211 29.1723 48.2061 29.1723 47.7651C29.1723 47.3242 29.3739 46.9092 29.7173 46.635L37.0085 40.8473C37.6357 40.3471 38.5541 40.4509 39.0581 41.0734C39.5621 41.6958 39.4576 42.6073 38.8304 43.1076L32.9616 47.7651Z" fill="url(#paint7_linear_2763_831)"/>
</g>
<defs>
<linearGradient id="paint0_linear_2763_831" x1="35" y1="0" x2="35" y2="55" gradientUnits="userSpaceOnUse">
<stop stop-color="#70F45D"/>
<stop offset="1" stop-color="#418E36"/>
</linearGradient>
<linearGradient id="paint1_linear_2763_831" x1="35" y1="0" x2="35" y2="55" gradientUnits="userSpaceOnUse">
<stop stop-color="#70F45D"/>
<stop offset="1" stop-color="#418E36"/>
</linearGradient>
<linearGradient id="paint2_linear_2763_831" x1="35" y1="0" x2="35" y2="55" gradientUnits="userSpaceOnUse">
<stop stop-color="#70F45D"/>
<stop offset="1" stop-color="#418E36"/>
</linearGradient>
<linearGradient id="paint3_linear_2763_831" x1="35" y1="0" x2="35" y2="55" gradientUnits="userSpaceOnUse">
<stop stop-color="#70F45D"/>
<stop offset="1" stop-color="#418E36"/>
</linearGradient>
<linearGradient id="paint4_linear_2763_831" x1="35" y1="0" x2="35" y2="55" gradientUnits="userSpaceOnUse">
<stop stop-color="#70F45D"/>
<stop offset="1" stop-color="#418E36"/>
</linearGradient>
<linearGradient id="paint5_linear_2763_831" x1="35" y1="0" x2="35" y2="55" gradientUnits="userSpaceOnUse">
<stop stop-color="#70F45D"/>
<stop offset="1" stop-color="#418E36"/>
</linearGradient>
<linearGradient id="paint6_linear_2763_831" x1="35" y1="0" x2="35" y2="55" gradientUnits="userSpaceOnUse">
<stop stop-color="#70F45D"/>
<stop offset="1" stop-color="#418E36"/>
</linearGradient>
<linearGradient id="paint7_linear_2763_831" x1="35" y1="0" x2="35" y2="55" gradientUnits="userSpaceOnUse">
<stop stop-color="#70F45D"/>
<stop offset="1" stop-color="#418E36"/>
</linearGradient>
</defs>
</svg>
