<svg width="1512" height="414" viewBox="0 0 1512 414" fill="none" xmlns="http://www.w3.org/2000/svg">
<path d="M25.0573 409.984L36.8028 413M25.0573 409.984L59.8642 409.984M25.0573 409.984L12.9214 406.868M25.0573 409.984L0.406851 409.984M36.8028 413L32.5289 412.999L28.2992 412.992L24.1576 412.974L20.1458 412.938L16.3081 412.879L12.6851 412.791L9.32035 412.668L6.19732 412.511L3.5173 412.295L1.07738 412.044L0.406851 411.956L0.406851 409.984M36.8028 413L71.05 413M71.05 413L105.297 413M71.05 413L59.8642 409.984M105.297 413L139.545 413M105.297 413L94.671 409.984M139.545 413L173.793 413M139.545 413L129.477 409.984M173.793 413L208.04 413M173.793 413L164.284 409.984M208.04 413L242.288 413M208.04 413L199.091 409.984M242.288 413L276.535 413M242.288 413L233.898 409.984M276.535 413L310.782 413M276.535 413L268.705 409.984M310.782 413L345.03 413M310.782 413L303.512 409.984M345.03 413L379.278 413M345.03 413L338.318 409.984M379.278 413L413.525 413M379.278 413L373.125 409.984M413.525 413L447.772 413M413.525 413L407.932 409.984M447.772 413L482.02 413M447.772 413L446.53 412.255L444.645 411.127L442.739 409.984M482.02 413L516.267 413M482.02 413L480.915 412.255L477.546 409.984M516.267 413L550.515 413M516.267 413L512.353 409.984M550.515 413L584.763 413M550.515 413L549.27 411.88L548.008 410.747L547.585 410.366L547.159 409.984M584.763 413L619.01 413M584.763 413L583.725 411.88L583.375 411.504L583.025 411.127L581.966 409.984M619.01 413L653.257 413M619.01 413L616.773 409.984M653.257 413L653.05 412.628L652.843 412.255L651.793 410.366L651.579 409.984M653.257 413L687.505 413M687.505 413L721.753 413M687.505 413L686.386 409.984M721.753 413L756 413M721.753 413L721.545 411.88L721.193 409.984M756 413L790.247 413M756 413L756 409.984M790.247 413L824.495 413M790.247 413L790.455 411.88L790.807 409.984M824.495 413L858.743 413M824.495 413L825.614 409.984M858.743 413L858.949 412.628L859.156 412.255L860.207 410.366L860.421 409.984M858.743 413L892.99 413M892.99 413L927.238 413M892.99 413L894.943 410.366L895.227 409.984M927.238 413L961.485 413M927.238 413L928.275 411.88L928.625 411.504L929.327 410.747L929.679 410.366L930.034 409.984M961.485 413L995.732 413M961.485 413L962.73 411.88L963.992 410.747L964.415 410.366L964.841 409.984M995.732 413L1029.98 413M995.732 413L999.647 409.984M1029.98 413L1064.23 413M1029.98 413L1031.08 412.255L1034.45 409.984M1064.23 413L1098.47 413M1064.23 413L1069.26 409.984M1098.47 413L1132.72 413M1098.47 413L1104.07 409.984M1132.72 413L1166.97 413M1132.72 413L1138.87 409.984M1166.97 413L1201.22 413M1166.97 413L1173.68 409.984M1201.22 413L1235.46 413M1201.22 413L1208.49 409.984M1235.46 413L1269.71 413M1235.46 413L1243.3 409.984M1269.71 413L1303.96 413M1269.71 413L1278.1 409.984M1303.96 413L1338.21 413M1303.96 413L1312.91 409.984M1338.21 413L1372.45 413M1338.21 413L1347.72 409.984M1372.45 413L1406.7 413M1372.45 413L1382.52 409.984M1406.7 413L1440.95 413M1406.7 413L1417.33 409.984M1440.95 413L1475.2 413M1440.95 413L1452.14 409.984M1475.2 413L1479.47 412.999L1483.7 412.992L1487.84 412.974L1491.85 412.938L1495.69 412.879L1499.31 412.791L1502.68 412.668L1505.8 412.512L1508.48 412.295L1510.92 412.044L1511.59 411.957L1511.59 409.984M1475.2 413L1486.94 409.984M1417.33 409.984L1382.52 409.984M1417.33 409.984L1452.14 409.984M1417.33 409.984L1428.31 406.868M1382.52 409.984L1392.92 406.868M1382.52 409.984L1347.72 409.984M1278.1 409.984L1243.3 409.984M1278.1 409.984L1312.91 409.984M1278.1 409.984L1280.24 409.214L1286.77 406.868M1243.3 409.984L1251.39 406.868M1243.3 409.984L1208.49 409.984M1138.87 409.984L1104.07 409.984M1138.87 409.984L1173.68 409.984M1138.87 409.984L1140.44 409.214L1141.23 408.828L1145.23 406.868M1104.07 409.984L1104.78 409.6L1105.49 409.214L1109.85 406.868M1104.07 409.984L1069.26 409.984M999.647 409.984L1000.15 409.6L1003.69 406.868M999.647 409.984L964.841 409.984M999.647 409.984L1034.45 409.984M964.841 409.984L965.697 409.214L966.128 408.828L966.56 408.439L968.308 406.868M964.841 409.984L930.034 409.984M860.421 409.984L825.614 409.984M860.421 409.984L895.227 409.984M860.421 409.984L862.154 406.868M825.614 409.984L825.756 409.6L825.899 409.214L826.043 408.828L826.477 407.657L826.769 406.868M825.614 409.984L790.807 409.984M721.193 409.984L686.386 409.984M721.193 409.984L756 409.984M721.193 409.984L720.615 406.868M686.386 409.984L686.244 409.6L686.101 409.214L685.957 408.828L685.231 406.868M686.386 409.984L651.579 409.984M581.966 409.984L547.159 409.984M581.966 409.984L616.773 409.984M581.966 409.984L581.253 409.214L579.807 407.657L579.443 407.263L579.076 406.868M547.159 409.984L546.303 409.214L545.872 408.828L545.44 408.439L543.692 406.868M547.159 409.984L512.353 409.984M442.739 409.984L407.932 409.984M442.739 409.984L477.546 409.984M442.739 409.984L441.454 409.214L440.808 408.828L437.538 406.868M407.932 409.984L407.22 409.6L406.505 409.214L402.153 406.868M407.932 409.984L373.125 409.984M303.512 409.984L268.705 409.984M303.512 409.984L338.318 409.984M303.512 409.984L301.656 409.214L300.723 408.828L295.999 406.868M268.705 409.984L260.614 406.868M268.705 409.984L233.898 409.984M164.284 409.984L129.477 409.984M164.284 409.984L199.091 409.984M164.284 409.984L154.46 406.868M129.477 409.984L119.075 406.868M129.477 409.984L94.671 409.984M1511.72 381.779L1511.59 381.779M1476.68 381.779L1463.39 385.759M1476.68 381.779L1490.48 377.646M1476.68 381.779L1436.64 381.779M1476.68 381.779L1511.59 381.779M1463.39 385.759L1502.69 385.759M1463.39 385.759L1450.58 389.596M1463.39 385.759L1424.09 385.759M1502.69 385.759L1489.17 389.596M1502.69 385.759L1511.59 385.759M1502.69 385.759L1511.59 383.234M1463.55 396.867L1426.31 396.867M1463.55 396.867L1451.4 400.315M1463.55 396.867L1500.79 396.867M1463.55 396.867L1476.13 393.296M1426.31 396.867L1414.8 400.315M1426.31 396.867L1438.23 393.296M1426.31 396.867L1389.07 396.867M1451.4 400.315L1414.8 400.315M1451.4 400.315L1439.66 403.647M1451.4 400.315L1488 400.315M1414.8 400.315L1378.2 400.315M1414.8 400.315L1403.68 403.647M1511.98 318.949L1511.59 318.949M1479.67 318.949L1462.53 325.548M1479.67 318.949L1497.66 312.021M1479.67 318.949L1427.98 318.949M1479.67 318.949L1511.59 318.949M1462.53 325.548L1446.19 331.842M1462.53 325.548L1412.07 325.548M1462.53 325.548L1511.59 325.548M1495.49 331.842L1446.19 331.842M1495.49 331.842L1478.77 337.852M1495.49 331.842L1511.59 331.842M1495.49 331.842L1511.59 326.054M1462.79 343.596L1415.67 343.596M1462.79 343.596L1447.5 349.092M1462.79 343.596L1509.91 343.596M1462.79 343.596L1478.77 337.852M1415.67 343.596L1401.4 349.092M1415.67 343.596L1430.59 337.852M1415.67 343.596L1368.55 343.596M1447.5 349.092L1401.4 349.092M1447.5 349.092L1493.6 349.092M1447.5 349.092L1432.86 354.354M1401.4 349.092L1387.74 354.354M1401.4 349.092L1355.3 349.091M1405.36 364.239L1362.07 364.239M1405.36 364.239L1392.44 368.885M1405.36 364.239L1448.66 364.239M1405.36 364.239L1418.83 359.399M1362.07 364.239L1350.01 368.885M1362.07 364.239L1374.64 359.399M1362.07 364.239L1318.78 364.239M1392.44 368.885L1350.01 368.885M1392.44 368.885L1434.87 368.885M1392.44 368.885L1380.01 373.351M1350.01 368.885L1338.41 373.351M1350.01 368.885L1307.58 368.885M1356.57 381.779L1316.53 381.779M1356.57 381.779L1345.49 385.759M1356.57 381.779L1396.61 381.779M1356.57 381.779L1368.07 377.646M1316.53 381.779L1306.19 385.759M1316.53 381.779L1327.26 377.646M1316.53 381.779L1276.49 381.779M1345.49 385.759L1306.19 385.759M1345.49 385.759L1384.79 385.759M1345.49 385.759L1334.82 389.596M1306.19 385.759L1296.23 389.596M1306.19 385.759L1266.9 385.759M1314.59 396.867L1277.35 396.867M1314.59 396.867L1305 400.315M1314.59 396.867L1351.83 396.867M1314.59 396.867L1324.53 393.296M1277.35 396.867L1268.4 400.315M1277.35 396.867L1286.63 393.296M1277.35 396.867L1240.11 396.867M1305 400.315L1268.4 400.315M1305 400.315L1295.73 403.647M1305 400.315L1341.6 400.315M1268.4 400.315L1231.8 400.315M1268.4 400.315L1259.75 403.647M1485.11 204.531L1460.99 217.535M1485.11 204.531L1510.94 190.606M1485.11 204.531L1412.2 204.531M1485.11 204.531L1511.59 204.531M1460.99 217.535L1438.42 229.706M1460.99 217.535L1390.49 217.535M1460.99 217.535L1511.59 217.535M1461.48 251.852L1397.35 251.852M1461.48 251.852L1440.87 261.954M1461.48 251.852L1483.37 241.122M1461.48 251.852L1511.59 251.852M1397.35 251.852L1378.61 261.954M1397.35 251.852L1417.25 241.122M1397.35 251.852L1333.21 251.852M1440.87 261.954L1378.61 261.954M1440.87 261.954L1503.13 261.954M1440.87 261.954L1421.43 271.483M1378.61 261.954L1360.94 271.483M1378.61 261.954L1316.35 261.954M1385.69 289.005L1328.44 289.005M1385.69 289.005L1369.22 297.078M1385.69 289.005L1442.93 289.005M1385.69 289.005L1403.07 280.485M1328.44 289.005L1313.47 297.078M1328.44 289.005L1344.24 280.485M1328.44 289.005L1271.2 289.005M1369.22 297.078L1313.47 297.078M1369.22 297.078L1424.96 297.078M1369.22 297.078L1353.59 304.74M1313.47 297.078L1299.26 304.74M1313.47 297.078L1257.72 297.078M1324.6 318.949L1272.91 318.949M1324.6 318.949L1311.13 325.548M1324.6 318.949L1376.29 318.949M1324.6 318.949L1338.73 312.021M1272.91 318.949L1260.67 325.548M1272.91 318.949L1285.76 312.021M1272.91 318.949L1221.22 318.949M1311.13 325.548L1260.67 325.548M1311.13 325.548L1361.6 325.548M1311.13 325.548L1298.29 331.842M1260.67 325.548L1248.99 331.842M1260.67 325.548L1210.2 325.548M1274.31 343.596L1227.19 343.596M1274.31 343.596L1263.1 349.091M1274.31 343.596L1321.43 343.596M1274.31 343.596L1286.03 337.852M1227.19 343.596L1217 349.091M1227.19 343.596L1237.85 337.852M1227.19 343.596L1180.08 343.596M1263.1 349.091L1217 349.091M1263.1 349.091L1309.2 349.091M1263.1 349.091L1252.37 354.354M1217 349.091L1207.24 354.354M1217 349.091L1170.9 349.091M1232.2 364.239L1188.91 364.239M1232.2 364.239L1222.72 368.885M1232.2 364.239L1275.49 364.239M1232.2 364.239L1242.07 359.399M1188.91 364.239L1187.81 364.83L1180.29 368.885M1188.91 364.239L1197.88 359.399M1188.91 364.239L1145.62 364.239M1222.72 368.885L1180.29 368.885M1222.72 368.885L1265.15 368.885M1222.72 368.885L1213.61 373.351M1180.29 368.885L1172.01 373.351M1180.29 368.885L1137.86 368.885M1196.42 381.779L1156.38 381.779M1196.42 381.779L1188.3 385.759M1196.42 381.779L1236.45 381.779M1196.42 381.779L1204.85 377.646M1156.38 381.779L1149 385.759M1156.38 381.779L1159.22 380.247L1164.04 377.646M1156.38 381.779L1116.34 381.779M1188.3 385.759L1149 385.759M1188.3 385.759L1227.59 385.759M1188.3 385.759L1180.47 389.596M1149 385.759L1141.88 389.596M1149 385.759L1109.7 385.759M1165.64 396.867L1128.4 396.867M1165.64 396.867L1158.6 400.315M1165.64 396.867L1202.87 396.867M1165.64 396.867L1172.92 393.296M1128.4 396.867L1123.58 399.464L1122.79 399.891L1122 400.315M1128.4 396.867L1135.02 393.296M1128.4 396.867L1091.16 396.867M1158.6 400.315L1122 400.315M1158.6 400.315L1151.8 403.647M1158.6 400.315L1195.2 400.315M1122 400.315L1085.4 400.315M1122 400.315L1115.82 403.647M1458.69 56.3967L1358.31 56.3967M1458.69 56.3967L1427.08 80.7439M1458.69 56.3967L1493.43 29.6421M1458.69 56.3967L1511.59 56.3962M1358.31 56.3967L1331.21 80.7439M1358.31 56.3967L1388.08 29.6421M1358.31 56.3967L1257.92 56.3967M1427.08 80.7439L1331.21 80.7439M1427.08 80.7439L1398.2 102.995M1427.08 80.7439L1511.59 80.7439M1331.21 80.7439L1306.45 102.995M1331.21 80.7439L1235.35 80.7438M1347.29 142.206L1262.82 142.206M1347.29 142.206L1324.75 159.569M1347.29 142.206L1431.76 142.206M1347.29 142.206L1371.69 123.41M1262.82 142.206L1243.5 159.569M1262.82 142.206L1283.74 123.41M1262.82 142.206L1178.35 142.206M1324.75 159.569L1243.5 159.569M1324.75 159.569L1406 159.569M1324.75 159.569L1303.86 175.657M1243.5 159.569L1225.6 175.657M1243.5 159.569L1162.25 159.569M1266.38 204.531L1193.47 204.531M1266.38 204.531L1249.49 217.535M1266.38 204.531L1339.29 204.531M1266.38 204.531L1284.46 190.606M1193.47 204.531L1179 217.535M1193.47 204.531L1208.96 190.606M1193.47 204.531L1120.56 204.531M1249.49 217.535L1179 217.535M1249.49 217.535L1319.99 217.535M1249.49 217.535L1233.69 229.706M1179 217.535L1165.45 229.706M1179 217.535L1108.5 217.535M1204.94 251.852L1140.81 251.852M1204.94 251.852L1191.83 261.954M1204.94 251.852L1269.08 251.852M1204.94 251.852L1218.87 241.122M1140.81 251.852L1129.57 261.954M1140.81 251.852L1152.75 241.122M1140.81 251.852L1076.67 251.852M1191.83 261.954L1129.57 261.954M1191.83 261.954L1254.09 261.954M1191.83 261.954L1179.46 271.483M1129.57 261.954L1118.96 271.483M1129.57 261.954L1067.31 261.954M1156.71 289.005L1099.47 289.005M1156.71 289.005L1146.23 297.078M1156.71 289.005L1213.95 289.005M1156.71 289.005L1167.77 280.485M1099.47 289.005L1090.48 297.078M1099.47 289.005L1108.95 280.485M1099.47 289.005L1042.22 289.005M1146.23 297.078L1090.48 297.078M1146.23 297.078L1201.98 297.078M1146.23 297.078L1136.28 304.74M1090.48 297.078L1081.96 304.74M1090.48 297.078L1034.73 297.078M1117.83 318.949L1066.14 318.949M1117.83 318.949L1109.27 325.548M1117.83 318.949L1169.53 318.949M1117.83 318.949L1126.83 312.021M1066.14 318.949L1058.8 325.548M1066.14 318.949L1073.85 312.021M1066.14 318.949L1014.45 318.949M1109.27 325.548L1058.8 325.548M1109.27 325.548L1159.73 325.548M1109.27 325.548L1101.1 331.842M1058.8 325.548L1051.8 331.842M1058.8 325.548L1008.33 325.548M1085.84 343.596L1038.72 343.596M1085.84 343.596L1078.7 349.091M1085.84 343.596L1132.96 343.596M1085.84 343.596L1093.29 337.852M1038.72 343.596L1032.6 349.091M1038.72 343.596L1045.11 337.852M1038.72 343.596L991.597 343.596M1078.7 349.091L1032.6 349.091M1078.7 349.091L1124.8 349.091M1078.7 349.091L1071.87 354.354M1032.6 349.091L1026.74 354.354M1032.6 349.091L986.501 349.091M1059.04 364.239L1015.75 364.239M1059.04 364.239L1053 368.885M1059.04 364.239L1102.33 364.239M1059.04 364.239L1065.32 359.399M1015.75 364.239L1016.41 363.645L1021.13 359.399M1015.75 364.239L1010.57 368.885M1015.75 364.239L972.455 364.239M1053 368.885L1010.57 368.885M1053 368.885L1095.43 368.885M1053 368.885L1047.21 373.351M1010.57 368.885L1005.61 373.351M1010.57 368.885L968.145 368.885M1036.27 381.779L996.227 381.779M1036.27 381.779L1031.1 385.759M1036.27 381.779L1076.3 381.779M1036.27 381.779L1041.63 377.646M996.227 381.779L991.798 385.759M996.227 381.779L997.931 380.247L999.081 379.214L1000.83 377.646M996.227 381.779L956.19 381.779M1031.1 385.759L991.798 385.759M1031.1 385.759L1070.4 385.759M1031.1 385.759L1026.12 389.596M991.798 385.759L990.178 387.215L989.111 388.174L987.528 389.596M991.798 385.759L952.498 385.759M1016.68 396.867L979.437 396.867M1016.68 396.867L1013.3 399.464L1012.2 400.315M1016.68 396.867L1053.92 396.867M1016.68 396.867L1020.72 393.75L1021.31 393.296M979.437 396.867L976.547 399.464L976.073 399.891L975.6 400.315M979.437 396.867L981.407 395.098L983.411 393.296M979.437 396.867L942.198 396.867M1012.2 400.315L975.6 400.315M1012.2 400.315L1007.87 403.647M1012.2 400.315L1048.8 400.315M975.6 400.315L939 400.315M975.6 400.315L971.893 403.647M1057.15 56.3966L956.77 56.3966M1057.15 56.3966L1043.61 80.7438M1057.15 56.3966L1157.54 56.3966M1057.15 56.3966L1072.04 29.6421M956.77 56.3966L947.738 80.7438M956.77 56.3966L966.693 29.6421M956.77 56.3966L856.384 56.3966M1043.61 80.7438L947.738 80.7438M1043.61 80.7438L1139.48 80.7438M1043.61 80.7438L1031.23 102.995M947.738 80.7438L939.485 102.995M947.738 80.7438L851.869 80.7438M1009.41 142.206L924.94 142.206M1009.41 142.206L999.75 159.569M1009.41 142.206L1093.88 142.206M1009.41 142.206L1019.87 123.41M924.94 142.206L918.5 159.569M924.94 142.206L931.912 123.41M924.94 142.206L840.47 142.206M999.75 159.569L918.5 159.569M999.75 159.569L1081 159.569M999.75 159.569L990.798 175.657M918.5 159.569L912.532 175.657M918.5 159.569L837.25 159.569M974.733 204.531L901.822 204.531M974.733 204.531L967.498 217.535M974.733 204.531L1047.64 204.531M974.733 204.531L982.481 190.606M901.822 204.531L896.998 217.535M901.822 204.531L906.987 190.606M901.822 204.531L828.911 204.531M967.498 217.535L896.998 217.535M967.498 217.535L1038 217.535M967.498 217.535L960.726 229.706M896.998 217.535L892.484 229.706M896.998 217.535L826.499 217.535M948.404 251.852L884.27 251.852M948.404 251.852L942.783 261.954M948.404 251.852L1012.54 251.852M948.404 251.852L954.374 241.122M884.27 251.852L880.522 261.954M884.27 251.852L888.249 241.122M884.27 251.852L820.135 251.852M942.783 261.954L880.522 261.954M942.783 261.954L1005.04 261.954M942.783 261.954L937.482 271.483M880.522 261.954L876.988 271.483M880.522 261.954L818.261 261.954M927.733 289.005L870.488 289.005M927.733 289.005L923.241 297.078M927.733 289.005L984.977 289.005M927.733 289.005L932.473 280.485M870.488 289.005L867.494 297.078M870.488 289.005L873.648 280.485M870.488 289.005L813.244 289.005M923.241 297.078L867.494 297.078M923.241 297.078L978.987 297.078M923.241 297.078L918.977 304.74M867.494 297.078L864.652 304.74M867.494 297.078L811.747 297.078M911.072 318.949L859.382 318.949M911.072 318.949L907.4 325.548M911.072 318.949L962.763 318.949M911.072 318.949L914.926 312.021M859.382 318.949L856.933 325.548M859.382 318.949L861.951 312.021M859.382 318.949L807.69 318.949M907.4 325.548L856.933 325.548M907.4 325.548L957.867 325.548M907.4 325.548L906.067 327.943L903.898 331.842M856.933 325.548L854.599 331.842M856.933 325.548L806.466 325.548M897.358 343.596L850.239 343.596M897.358 343.596L894.3 349.091M897.358 343.596L944.478 343.596M897.358 343.596L899.741 339.312L900.554 337.852M850.239 343.596L849.464 345.685L848.2 349.091M850.239 343.596L852.37 337.852M850.239 343.596L803.119 343.596M894.3 349.091L893.928 349.762L891.372 354.354M894.3 349.091L848.2 349.091M894.3 349.091L940.401 349.091M848.2 349.091L847.458 351.092L847.214 351.751L846.97 352.407L846.248 354.354M848.2 349.091L802.1 349.091M885.873 364.239L842.582 364.239M885.873 364.239L884.567 366.585L884.245 367.165L883.924 367.741L883.605 368.315L883.287 368.885M885.873 364.239L929.164 364.239M885.873 364.239L888.566 359.399M842.582 364.239L841.283 367.741L841.069 368.315L840.859 368.885M842.582 364.239L844.377 359.399M842.582 364.239L799.291 364.239M883.287 368.885L840.859 368.885M883.287 368.885L925.716 368.885M883.287 368.885L881.723 371.697L881.415 372.251L880.803 373.351M840.859 368.885L839.816 371.697L839.609 372.251L839.406 372.803L839.202 373.351M840.859 368.885L798.429 368.885M876.113 381.779L836.075 381.779M876.113 381.779L873.898 385.759M876.113 381.779L916.152 381.779M876.113 381.779L876.681 380.76L877.541 379.214L878.413 377.646M836.075 381.779L836.264 381.271L837.414 378.171L837.609 377.646M836.075 381.779L834.599 385.759M836.075 381.779L796.038 381.779M873.898 385.759L834.599 385.759M873.898 385.759L913.198 385.759M873.898 385.759L871.764 389.596M834.599 385.759L834.059 387.215L833.881 387.695L833.703 388.174L833.176 389.596M834.599 385.759L795.299 385.759M867.718 396.867L830.479 396.867M867.718 396.867L866.273 399.464L865.8 400.315M867.718 396.867L904.958 396.867M867.718 396.867L868.456 395.543L868.703 395.098L868.952 394.65L869.706 393.296M830.479 396.867L830.316 397.305L829.995 398.174L829.674 399.036L829.2 400.315M830.479 396.867L831.136 395.098L831.301 394.65L831.636 393.75L831.803 393.296M830.479 396.867L793.24 396.867M865.8 400.315L829.2 400.315M865.8 400.315L864.175 403.237L863.946 403.647M865.8 400.315L902.4 400.315M829.2 400.315L829.043 400.738L828.887 401.159L828.731 401.578L828.577 401.995L828.117 403.237L827.964 403.647M829.2 400.315L792.6 400.315M655.616 56.3966L555.23 56.3966M655.616 56.3966L660.131 80.7438M655.616 56.3966L756 56.3966M655.616 56.3966L650.653 29.642M555.23 56.3966L564.261 80.7438M555.23 56.3966L545.307 29.642M555.23 56.3966L454.846 56.3966M660.131 80.7438L564.261 80.7438M660.131 80.7438L756 80.7438M660.131 80.7438L664.258 102.995M564.261 80.7438L572.515 102.995M564.261 80.7438L468.392 80.7438M671.53 142.206L587.06 142.206M671.53 142.206L674.75 159.569M671.53 142.206L756 142.206M671.53 142.206L668.043 123.41M587.06 142.206L593.5 159.569M587.06 142.206L580.088 123.41M587.06 142.206L502.59 142.206M674.75 159.569L593.5 159.569M674.75 159.569L756 159.569M674.75 159.569L677.734 175.657M593.5 159.569L599.468 175.657M593.5 159.569L512.25 159.569M683.089 204.531L610.178 204.531M683.089 204.531L685.501 217.535M683.089 204.531L756 204.531M683.089 204.531L680.506 190.606M610.178 204.531L615.002 217.535M610.178 204.531L605.013 190.606M610.178 204.531L537.267 204.531M685.501 217.535L615.002 217.535M685.501 217.535L756 217.535M685.501 217.535L687.758 229.706M615.002 217.535L619.516 229.706M615.002 217.535L544.502 217.535M691.865 251.852L627.73 251.852M691.865 251.852L693.739 261.954M691.865 251.852L756 251.852M691.865 251.852L689.875 241.122M627.73 251.852L631.477 261.954M627.73 251.852L623.751 241.122M627.73 251.852L563.596 251.852M693.739 261.954L631.477 261.954M693.739 261.954L756 261.954M693.739 261.954L695.506 271.483M631.477 261.954L635.012 271.483M631.477 261.954L569.217 261.954M698.756 289.005L641.512 289.005M698.756 289.005L700.253 297.078M698.756 289.005L756 289.005M698.756 289.005L697.175 280.485M641.512 289.005L644.506 297.078M641.512 289.005L638.352 280.485M641.512 289.005L584.267 289.005M700.253 297.078L644.506 297.078M700.253 297.078L756 297.078M700.253 297.078L701.674 304.74M644.506 297.078L647.348 304.74M644.506 297.078L588.759 297.078M704.31 318.948L652.618 318.948M704.31 318.948L705.533 325.548M704.31 318.948L756 318.949M704.31 318.948L703.024 312.021M652.618 318.948L655.067 325.548M652.618 318.948L650.049 312.021M652.618 318.948L600.928 318.948M705.533 325.548L655.067 325.548M705.533 325.548L756 325.548M705.533 325.548L706.701 331.842M655.067 325.548L657.401 331.842M655.067 325.548L604.6 325.548M708.881 343.596L661.761 343.596M708.881 343.596L709.9 349.091M708.881 343.596L756 343.596M708.881 343.596L707.815 337.852M661.761 343.596L663.55 348.417L663.8 349.091M661.761 343.596L659.63 337.852M661.761 343.596L614.642 343.596M709.9 349.091L710.024 349.762L710.876 354.354M709.9 349.091L663.8 349.091M709.9 349.091L756 349.091M663.8 349.091L664.542 351.092L664.786 351.751L665.03 352.407L665.751 354.354M663.8 349.091L617.7 349.091M712.709 364.239L669.418 364.239M712.709 364.239L713.571 368.885M712.709 364.239L756 364.239M712.709 364.239L712.377 362.447L712.264 361.844L712.153 361.237L711.926 360.015L711.811 359.399M669.418 364.239L670.717 367.741L671.142 368.885M669.418 364.239L667.623 359.399M669.418 364.239L626.127 364.239M713.571 368.885L671.142 368.885M713.571 368.885L756 368.885M713.571 368.885L714.399 373.351M671.142 368.885L672.184 371.697L672.39 372.251L672.594 372.803L672.798 373.351M671.142 368.885L628.712 368.885M715.962 381.779L675.924 381.779M715.962 381.779L716.7 385.759M715.962 381.779L756 381.779M715.962 381.779L715.196 377.646M675.924 381.779L675.736 381.271L674.586 378.171L674.391 377.646M675.924 381.779L677.401 385.759M675.924 381.779L635.887 381.779M716.7 385.759L677.401 385.759M716.7 385.759L756 385.759M716.7 385.759L717.412 389.596M677.401 385.759L677.941 387.215L678.119 387.695L678.297 388.174L678.824 389.596M677.401 385.759L638.102 385.759M718.76 396.867L681.52 396.867M718.76 396.867L719.4 400.315M718.76 396.867L756 396.867M718.76 396.867L718.098 393.296M681.52 396.867L681.683 397.305L682.006 398.174L682.166 398.606L682.485 399.464L682.642 399.891L682.8 400.315M681.52 396.867L680.864 395.098L680.699 394.65L680.364 393.75L680.197 393.296M681.52 396.867L644.282 396.867M719.4 400.315L719.478 400.738L719.557 401.159L719.634 401.578L720.018 403.647M719.4 400.315L682.8 400.315M719.4 400.315L756 400.315M682.8 400.315L646.2 400.315M682.8 400.315L683.113 401.159L683.269 401.578L683.423 401.995L683.883 403.237L684.036 403.647M254.076 56.3966L153.692 56.3966M254.076 56.3966L276.654 80.7438M254.076 56.3966L354.46 56.3966M254.076 56.3966L229.266 29.642M153.692 56.3966L180.785 80.7438M153.692 56.3966L123.92 29.642M153.692 56.3966L53.3062 56.3966M276.654 80.7438L180.785 80.7438M276.654 80.7438L372.523 80.7438M276.654 80.7438L297.288 102.995M180.785 80.7438L205.546 102.995M180.785 80.7438L84.9152 80.7438M333.649 142.206L249.179 142.206M333.649 142.206L349.751 159.569M333.649 142.206L418.119 142.206M333.649 142.206L316.219 123.41M249.179 142.206L268.501 159.569M249.179 142.206L228.263 123.41M249.179 142.206L164.709 142.206M349.751 159.569L268.501 159.569M349.751 159.569L431 159.569M349.751 159.569L364.67 175.657M268.501 159.569L286.404 175.657M268.501 159.569L187.251 159.569M391.444 204.531L318.534 204.531M391.444 204.531L403.504 217.535M391.444 204.531L464.356 204.531M391.444 204.531L378.531 190.606M318.534 204.531L333.004 217.535M318.534 204.531L303.038 190.606M318.534 204.531L245.623 204.531M403.504 217.535L333.004 217.535M403.504 217.535L474.003 217.535M403.504 217.535L414.791 229.706M333.004 217.535L346.549 229.706M333.004 217.535L262.506 217.535M435.326 251.852L371.191 251.852M435.326 251.852L444.694 261.954M435.326 251.852L499.461 251.852M435.326 251.852L425.377 241.122M371.191 251.852L382.433 261.954M371.191 251.852L359.252 241.122M371.191 251.852L307.056 251.852M444.694 261.954L382.433 261.954M444.694 261.954L506.956 261.954M444.694 261.954L453.531 271.483M382.433 261.954L393.037 271.483M382.433 261.954L320.172 261.954M469.779 289.005L412.535 289.005M469.779 289.005L477.266 297.078M469.779 289.005L527.023 289.005M469.779 289.005L461.879 280.485M412.535 289.005L421.519 297.078M412.535 289.005L403.055 280.485M412.535 289.005L355.29 289.005M477.266 297.078L421.519 297.078M477.266 297.078L533.013 297.078M477.266 297.078L484.371 304.74M421.519 297.078L430.044 304.74M421.519 297.078L365.772 297.078M497.546 318.948L445.856 318.948M497.546 318.948L503.667 325.548M497.546 318.948L549.237 318.948M497.546 318.948L491.122 312.02M445.856 318.948L453.2 325.548M445.856 318.948L438.146 312.02M445.856 318.948L394.165 318.948M503.667 325.548L453.2 325.548M503.667 325.548L554.133 325.548M503.667 325.548L509.503 331.842M453.2 325.548L460.204 331.842M453.2 325.548L402.733 325.548M520.403 343.596L519.75 342.892L519.093 342.184L515.077 337.852M520.403 343.596L473.284 343.596M520.403 343.596L525.499 349.091M520.403 343.596L567.522 343.596M473.284 343.596L479.399 349.091M473.284 343.596L466.892 337.852M473.284 343.596L426.164 343.596M525.499 349.091L479.399 349.091M525.499 349.091L571.599 349.091M525.499 349.091L530.379 354.354M479.399 349.091L485.255 354.354M479.399 349.091L433.299 349.091M539.545 364.239L496.254 364.238M539.545 364.239L543.855 368.885M539.545 364.239L582.836 364.239M539.545 364.239L535.057 359.399M496.254 364.238L499.511 367.165L501.425 368.885M496.254 364.238L490.869 359.399M496.254 364.238L452.963 364.238M543.855 368.885L501.425 368.885M543.855 368.885L586.284 368.885M543.855 368.885L547.486 372.803L547.995 373.351M501.425 368.885L506.395 373.351M501.425 368.885L458.996 368.885M555.81 381.779L515.773 381.779M555.81 381.779L556.746 382.788L559.502 385.759M555.81 381.779L595.848 381.779M555.81 381.779L554.866 380.76L552.949 378.694L551.978 377.646M515.773 381.779L520.202 385.759M515.773 381.779L514.069 380.247L512.919 379.214L511.174 377.646M515.773 381.779L475.735 381.779M559.502 385.759L520.202 385.759M559.502 385.759L598.802 385.759M559.502 385.759L562.182 388.65L563.06 389.596M520.202 385.759L521.822 387.215L522.889 388.174L524.472 389.596M520.202 385.759L480.903 385.759M569.802 396.867L532.562 396.867M569.802 396.867L571.814 399.036L573 400.315M569.802 396.867L607.042 396.867M569.802 396.867L566.491 393.296M532.562 396.867L535.453 399.464L535.927 399.891L536.4 400.315M532.562 396.867L530.593 395.098L528.589 393.296M532.562 396.867L495.323 396.867M573 400.315L536.4 400.315M573 400.315L574.558 401.995L575.327 402.825L575.709 403.237L576.089 403.647M573 400.315L609.6 400.315M536.4 400.315L499.8 400.315M536.4 400.315L540.107 403.647M24.7512 159.569L106.001 159.569M24.7512 159.569L51.6046 175.657M24.7512 159.569L0.406876 159.569M24.7512 159.569L0.406878 144.985M99.8004 204.531L26.8896 204.531M99.8004 204.531L121.506 217.535M99.8004 204.531L172.711 204.531M99.8004 204.531L76.5565 190.606M26.8896 204.531L51.0072 217.535M26.8896 204.531L1.06251 190.606M26.8896 204.531L0.406872 204.531M121.506 217.535L51.0072 217.535M121.506 217.535L192.006 217.535M121.506 217.535L141.823 229.706M51.0072 217.535L73.5813 229.706M51.0072 217.535L0.40687 217.535M178.787 251.852L114.653 251.852M178.787 251.852L195.65 261.954M178.787 251.852L242.922 251.852M178.787 251.852L160.878 241.122M114.653 251.852L133.388 261.954M114.653 251.852L94.7537 241.122M114.653 251.852L50.5176 251.852M195.65 261.954L133.388 261.954M195.65 261.954L257.911 261.954M195.65 261.954L211.555 271.483M133.388 261.954L151.061 271.483M133.388 261.954L71.1273 261.954M240.802 289.005L183.558 289.005M240.802 289.005L254.277 297.078M240.802 289.005L298.046 289.005M240.802 289.005L226.582 280.485M183.558 289.005L198.531 297.078M183.558 289.005L167.757 280.485M183.558 289.005L126.313 289.005M254.277 297.078L198.531 297.078M254.277 297.078L310.024 297.078M254.277 297.078L267.067 304.74M198.531 297.078L212.741 304.74M198.531 297.078L142.784 297.078M290.784 318.948L239.093 318.948M290.784 318.948L301.8 325.548M290.784 318.948L342.474 318.948M290.784 318.948L279.22 312.02M239.093 318.948L251.333 325.548M239.093 318.948L226.244 312.02M239.093 318.948L187.403 318.948M301.8 325.548L251.333 325.548M301.8 325.548L352.266 325.548M301.8 325.548L312.306 331.842M251.333 325.548L263.007 331.842M251.333 325.548L200.866 325.548M331.925 343.596L284.806 343.596M331.925 343.596L341.098 349.091M331.925 343.596L379.045 343.596M331.925 343.596L322.338 337.852M284.806 343.596L294.998 349.091M284.806 343.596L274.153 337.852M284.806 343.596L237.687 343.596M341.098 349.091L294.998 349.091M341.098 349.091L387.198 349.091M341.098 349.091L349.883 354.354M294.998 349.091L304.759 354.354M294.998 349.091L248.898 349.091M366.382 364.238L323.091 364.238M366.382 364.238L374.138 368.885M366.382 364.238L409.672 364.238M366.382 364.238L358.303 359.399M323.091 364.238L331.708 368.885M323.091 364.238L314.114 359.399M323.091 364.238L279.799 364.238M374.138 368.885L331.708 368.885M374.138 368.885L416.567 368.885M374.138 368.885L381.592 373.351M331.708 368.885L339.991 373.351M331.708 368.885L289.28 368.885M395.659 381.779L355.621 381.779M395.659 381.779L402.304 385.759M395.659 381.779L435.697 381.779M395.659 381.779L393.958 380.76L393.103 380.247L388.76 377.646M355.621 381.779L363.004 385.759M355.621 381.779L347.955 377.646M355.621 381.779L315.584 381.779M402.304 385.759L363.004 385.759M402.304 385.759L441.603 385.759M402.304 385.759L408.707 389.596M363.004 385.759L370.119 389.596M363.004 385.759L323.705 385.759M420.844 396.867L383.604 396.867M420.844 396.867L426.6 400.315M420.844 396.867L458.084 396.867M420.844 396.867L414.884 393.296M383.604 396.867L388.422 399.464L389.212 399.891L390 400.315M383.604 396.867L376.982 393.296M383.604 396.867L346.365 396.867M426.6 400.315L390 400.315M426.6 400.315L431.476 403.237L432.161 403.647M426.6 400.315L463.2 400.315M390 400.315L353.399 400.315M390 400.315L396.179 403.647M11.8249 289.005L31.2902 297.078M11.8249 289.005L69.0691 289.005M11.8249 289.005L0.406864 284.269M11.8249 289.005L0.406863 289.005M31.2902 297.078L87.0372 297.078M31.2902 297.078L49.7628 304.74M31.2902 297.078L0.406862 297.078M84.0211 318.948L32.3299 318.948M84.0211 318.948L99.9335 325.548M84.0211 318.948L135.712 318.948M84.0211 318.948L67.3178 312.02M32.3299 318.948L49.4661 325.548M32.3299 318.948L14.342 312.02M32.3299 318.948L0.40686 318.948M99.9335 325.548L49.4661 325.548M99.9335 325.548L150.4 325.548M99.9335 325.548L115.109 331.842M49.4661 325.548L65.8097 331.842M49.4661 325.548L0.406859 325.548M143.448 343.596L96.3278 343.596M143.448 343.596L156.697 349.091M143.448 343.596L190.567 343.596M143.448 343.596L129.598 337.852M96.3278 343.596L110.598 349.091M96.3278 343.596L81.4143 337.852M96.3278 343.596L49.2088 343.596M156.697 349.091L110.598 349.091M156.697 349.091L202.798 349.091M156.697 349.091L169.387 354.354M110.598 349.091L124.262 354.354M110.598 349.091L64.4969 349.091M193.218 364.238L149.927 364.238M193.218 364.238L204.422 368.885M193.218 364.238L236.508 364.238M193.218 364.238L181.549 359.399M149.927 364.238L161.992 368.885M149.927 364.238L137.361 359.399M149.927 364.238L106.635 364.238M204.422 368.885L161.992 368.885M204.422 368.885L246.851 368.885M204.422 368.885L215.188 373.351M161.992 368.885L173.587 373.351M161.992 368.885L119.563 368.885M235.507 381.779L195.47 381.779M235.507 381.779L245.105 385.759M235.507 381.779L275.545 381.779M235.507 381.779L225.542 377.646M195.47 381.779L205.805 385.759M195.47 381.779L184.738 377.646M195.47 381.779L155.432 381.779M245.105 385.759L205.805 385.759M245.105 385.759L284.405 385.759M245.105 385.759L254.355 389.596M205.805 385.759L215.767 389.596M205.805 385.759L166.506 385.759M271.886 396.867L234.646 396.867M271.886 396.867L280.2 400.315M271.886 396.867L309.126 396.867M271.886 396.867L263.277 393.296M234.646 396.867L243.6 400.315M234.646 396.867L225.374 393.296M234.646 396.867L197.406 396.867M280.2 400.315L243.6 400.315M280.2 400.315L288.233 403.647M280.2 400.315L316.8 400.315M243.6 400.315L206.999 400.315M243.6 400.315L252.251 403.647M20.0539 364.238L34.7053 368.885M20.0539 364.238L63.3446 364.238M20.0539 364.238L4.79477 359.399M20.0539 364.238L0.406855 364.238M34.7053 368.885L77.1342 368.885M34.7053 368.885L48.7845 373.351M34.7053 368.885L0.406855 368.885M75.3562 381.779L35.3184 381.779M75.3562 381.779L87.9069 385.759M75.3562 381.779L115.394 381.779M75.3562 381.779L62.3245 377.646M35.3184 381.779L48.6074 385.759M35.3184 381.779L21.5201 377.646M35.3184 381.779L0.406854 381.779M87.9069 385.759L48.6074 385.759M87.9069 385.759L127.206 385.759M87.9069 385.759L100.004 389.596M48.6074 385.759L61.4154 389.596M48.6074 385.759L9.30787 385.759M122.928 396.867L85.6882 396.867M122.928 396.867L133.8 400.315M122.928 396.867L160.168 396.867M122.928 396.867L111.67 393.296M85.6882 396.867L97.1999 400.315M85.6882 396.867L73.7679 393.296M85.6882 396.867L48.4484 396.867M133.8 400.315L97.1999 400.315M133.8 400.315L144.304 403.647M133.8 400.315L170.4 400.315M97.1999 400.315L60.5993 400.315M97.1999 400.315L108.322 403.647M73.7679 393.296L61.4154 389.596M73.7679 393.296L35.8654 393.296M73.7679 393.296L111.67 393.296M48.4484 396.867L60.5993 400.315M48.4484 396.867L35.8654 393.296M48.4484 396.867L11.2095 396.867M60.5993 400.315L23.9994 400.315M60.5993 400.315L72.3401 403.647M108.322 403.647L144.304 403.647M108.322 403.647L72.3401 403.647M108.322 403.647L119.075 406.868M35.8654 393.296L22.8267 389.596M35.8654 393.296L0.406853 393.296M11.2095 396.867L23.9994 400.315M11.2095 396.867L0.406852 393.955M11.2095 396.867L0.406852 396.867M23.9994 400.315L36.3581 403.647M23.9994 400.315L0.406852 400.315M72.3401 403.647L36.3581 403.647M72.3401 403.647L83.6905 406.868M36.3581 403.647L48.306 406.868M36.3581 403.647L0.406852 403.647M61.4154 389.596L22.8267 389.596M61.4154 389.596L100.004 389.596M9.30787 385.759L22.8267 389.596M9.30787 385.759L0.406854 383.234M9.30787 385.759L0.406853 385.759M22.8267 389.596L0.406853 389.596M100.004 389.596L138.591 389.596M100.004 389.596L111.67 393.296M111.67 393.296L149.571 393.296M21.5201 377.646L7.18357 373.351M21.5201 377.646L62.3245 377.646M21.5201 377.646L0.406854 377.646M0.284834 381.779L0.406854 381.779M7.18357 373.351L48.7845 373.351M7.18357 373.351L0.406855 371.321M7.18357 373.351L0.406855 373.351M48.7845 373.351L90.3854 373.351M48.7845 373.351L62.3245 377.646M62.3245 377.646L103.129 377.646M225.374 393.296L215.767 389.596M225.374 393.296L187.473 393.296M225.374 393.296L263.277 393.296M197.406 396.867L206.999 400.315M197.406 396.867L187.473 393.296M197.406 396.867L160.168 396.867M206.999 400.315L170.4 400.315M206.999 400.315L216.269 403.647M252.251 403.647L216.269 403.647M252.251 403.647L260.614 406.868M252.251 403.647L288.233 403.647M187.473 393.296L177.179 389.596M187.473 393.296L149.571 393.296M160.168 396.867L170.4 400.315M160.168 396.867L149.571 393.296M170.4 400.315L180.286 403.647M216.269 403.647L180.286 403.647M216.269 403.647L225.23 406.868M149.571 393.296L138.591 389.596M144.304 403.647L180.286 403.647M144.304 403.647L154.46 406.868M180.286 403.647L189.845 406.868M215.767 389.596L177.179 389.596M215.767 389.596L254.355 389.596M166.506 385.759L177.179 389.596M166.506 385.759L155.432 381.779M166.506 385.759L127.206 385.759M177.179 389.596L138.591 389.596M254.355 389.596L292.943 389.596M254.355 389.596L263.277 393.296M138.591 389.596L127.206 385.759M263.277 393.296L301.179 393.296M155.432 381.779L143.933 377.646M155.432 381.779L115.394 381.779M127.206 385.759L115.394 381.779M115.394 381.779L103.129 377.646M184.738 377.646L173.587 373.351M184.738 377.646L143.933 377.646M184.738 377.646L225.542 377.646M143.933 377.646L131.986 373.351M143.933 377.646L103.129 377.646M103.129 377.646L90.3854 373.351M173.587 373.351L131.986 373.351M173.587 373.351L215.188 373.351M119.563 368.885L131.986 373.351M119.563 368.885L106.635 364.238M119.563 368.885L77.1342 368.885M131.986 373.351L90.3854 373.351M215.188 373.351L256.789 373.351M215.188 373.351L225.542 377.646M90.3854 373.351L77.1342 368.885M225.542 377.646L266.347 377.646M106.635 364.238L93.1716 359.399M106.635 364.238L63.3446 364.238M77.1342 368.885L63.3446 364.238M63.3446 364.238L48.9836 359.399M137.361 359.399L124.262 354.354M137.361 359.399L93.1716 359.399M137.361 359.399L181.549 359.399M93.1716 359.399L79.1381 354.354M93.1716 359.399L48.9836 359.399M48.9836 359.399L34.0142 354.354M48.9836 359.399L4.79477 359.399M4.79477 359.399L0.406856 359.399M4.79477 359.399L0.406856 358.007M124.262 354.354L79.1381 354.354M124.262 354.354L169.387 354.354M64.4969 349.091L79.1381 354.354M64.4969 349.091L49.2088 343.596M64.4969 349.091L18.3971 349.091M79.1381 354.354L34.0142 354.354M169.387 354.354L214.511 354.354M169.387 354.354L181.549 359.399M34.0142 354.354L18.3971 349.091M34.0142 354.354L0.406856 354.354M181.549 359.399L225.737 359.399M49.2088 343.596L33.2295 337.852M49.2088 343.596L2.08958 343.596M18.3971 349.091L2.08958 343.596M18.3971 349.091L0.406857 349.091M0.170695 354.354L0.406856 354.354M2.08958 343.596L0.406858 343.029M2.08958 343.596L0.406858 343.596M81.4143 337.852L65.8097 331.842M81.4143 337.852L33.2295 337.852M81.4143 337.852L129.598 337.852M33.2295 337.852L16.5104 331.842M33.2295 337.852L0.406858 337.852M-3.53653e-05 342.892L0.406858 343.029M65.8097 331.842L16.5104 331.842M65.8097 331.842L115.109 331.842M16.5104 331.842L0.406859 331.842M16.5104 331.842L0.406859 326.054M115.109 331.842L164.408 331.842M115.109 331.842L129.598 337.852M129.598 337.852L177.783 337.852M14.342 312.02L67.3178 312.02M14.342 312.02L0.406861 306.654M14.342 312.02L0.406861 312.02M0.0235063 318.948L0.40686 318.948M67.3178 312.02L120.293 312.02M67.3178 312.02L49.7628 304.74M0.253424 306.595L0.406861 306.654M376.982 393.296L370.119 389.596M376.982 393.296L339.08 393.296M376.982 393.296L414.884 393.296M346.365 396.867L353.399 400.315M346.365 396.867L339.08 393.296M346.365 396.867L309.126 396.867M353.399 400.315L316.8 400.315M353.399 400.315L360.197 403.647M396.179 403.647L360.197 403.647M396.179 403.647L398.443 404.867L402.153 406.868M396.179 403.647L432.161 403.647M339.08 393.296L331.531 389.596M339.08 393.296L301.179 393.296M309.126 396.867L316.8 400.315M309.126 396.867L301.179 393.296M316.8 400.315L324.215 403.647M360.197 403.647L324.215 403.647M360.197 403.647L366.768 406.868M301.179 393.296L292.943 389.596M288.233 403.647L295.999 406.868M288.233 403.647L324.215 403.647M324.215 403.647L325.124 404.056L326.932 404.867L331.383 406.868M370.119 389.596L331.531 389.596M370.119 389.596L408.707 389.596M323.705 385.759L331.531 389.596M323.705 385.759L315.584 381.779M323.705 385.759L284.405 385.759M331.531 389.596L292.943 389.596M408.707 389.596L447.295 389.596M408.707 389.596L414.884 393.296M292.943 389.596L284.405 385.759M414.884 393.296L452.786 393.296M315.584 381.779L307.151 377.646M315.584 381.779L275.545 381.779M284.405 385.759L283.315 385.27L275.545 381.779M275.545 381.779L266.347 377.646M347.955 377.646L346.977 377.118L339.991 373.351M347.955 377.646L307.151 377.646M347.955 377.646L388.76 377.646M307.151 377.646L298.39 373.351M307.151 377.646L266.347 377.646M266.347 377.646L256.789 373.351M339.991 373.351L298.39 373.351M339.991 373.351L381.592 373.351M289.28 368.885L298.39 373.351M289.28 368.885L279.799 364.238M289.28 368.885L246.851 368.885M298.39 373.351L256.789 373.351M381.592 373.351L423.193 373.351M381.592 373.351L388.76 377.646M256.789 373.351L246.851 368.885M388.76 377.646L429.564 377.646M279.799 364.238L269.926 359.399M279.799 364.238L236.508 364.238M246.851 368.885L236.508 364.238M236.508 364.238L225.737 359.399M314.114 359.399L304.759 354.354M314.114 359.399L269.926 359.399M314.114 359.399L358.303 359.399M269.926 359.399L259.634 354.354M269.926 359.399L225.737 359.399M225.737 359.399L214.511 354.354M304.759 354.354L259.634 354.354M304.759 354.354L349.883 354.354M248.898 349.091L259.634 354.354M248.898 349.091L237.687 343.596M248.898 349.091L202.798 349.091M259.634 354.354L214.511 354.354M349.883 354.354L395.007 354.354M349.883 354.354L358.303 359.399M214.511 354.354L202.798 349.091M358.303 359.399L402.492 359.399M237.687 343.596L225.968 337.852M237.687 343.596L190.567 343.596M202.798 349.091L190.567 343.596M190.567 343.596L177.783 337.852M274.153 337.852L263.007 331.842M274.153 337.852L225.968 337.852M274.153 337.852L322.338 337.852M225.968 337.852L213.708 331.842M225.968 337.852L177.783 337.852M177.783 337.852L164.408 331.842M263.007 331.842L213.708 331.842M263.007 331.842L312.306 331.842M200.866 325.548L213.708 331.842M200.866 325.548L187.403 318.948M200.866 325.548L150.4 325.548M213.708 331.842L164.408 331.842M312.306 331.842L361.606 331.842M312.306 331.842L322.338 337.852M164.408 331.842L150.4 325.548M322.338 337.852L370.522 337.852M187.403 318.948L173.269 312.02M187.403 318.948L135.712 318.948M150.4 325.548L135.712 318.948M135.712 318.948L120.293 312.02M226.244 312.02L212.741 304.74M226.244 312.02L173.269 312.02M226.244 312.02L279.22 312.02M173.269 312.02L158.415 304.74M173.269 312.02L120.293 312.02M120.293 312.02L104.089 304.74M212.741 304.74L158.415 304.74M212.741 304.74L267.067 304.74M142.784 297.078L158.415 304.74M142.784 297.078L126.313 289.005M142.784 297.078L87.0372 297.078M158.415 304.74L104.089 304.74M267.067 304.74L321.393 304.74M267.067 304.74L279.22 312.02M104.089 304.74L87.0372 297.078M104.089 304.74L49.7628 304.74M279.22 312.02L332.196 312.02M126.313 289.005L108.934 280.485M126.313 289.005L69.0691 289.005M87.0372 297.078L69.0691 289.005M49.7628 304.74L0.406862 304.74M69.0691 289.005L50.1091 280.485M167.757 280.485L151.061 271.483M167.757 280.485L108.934 280.485M167.757 280.485L226.582 280.485M108.934 280.485L90.5672 271.483M108.934 280.485L50.1091 280.485M50.1091 280.485L30.0734 271.483M50.1091 280.485L0.406864 280.485M151.061 271.483L90.5672 271.483M151.061 271.483L211.555 271.483M71.1273 261.954L90.5672 271.483M71.1273 261.954L50.5176 251.852M71.1273 261.954L8.8664 261.954M90.5672 271.483L30.0734 271.483M211.555 271.483L272.049 271.483M211.555 271.483L226.582 280.485M30.0734 271.483L8.8664 261.954M30.0734 271.483L0.406865 271.483M226.582 280.485L285.406 280.485M50.5176 251.852L28.6291 241.122M50.5176 251.852L0.406867 251.852M8.8664 261.954L0.406866 261.954M8.8664 261.954L0.406866 258.153M94.7537 241.122L73.5813 229.706M94.7537 241.122L28.6291 241.122M94.7537 241.122L160.878 241.122M28.6291 241.122L5.33945 229.706M28.6291 241.122L0.406868 241.122M73.5813 229.706L5.33945 229.706M73.5813 229.706L141.823 229.706M5.33945 229.706L0.406869 227.289M5.33945 229.706L0.406869 229.706M141.823 229.706L210.065 229.706M141.823 229.706L160.878 241.122M160.878 241.122L227.003 241.122M1.06251 190.606L76.5565 190.606M1.06251 190.606L0.406873 190.606M1.06251 190.606L0.406873 190.252M76.5565 190.606L152.05 190.606M76.5565 190.606L51.6046 175.657M528.589 393.296L527.062 391.924L526.549 391.463L524.472 389.596M528.589 393.296L490.688 393.296M528.589 393.296L566.491 393.296M495.323 396.867L498.695 399.464L499.8 400.315M495.323 396.867L491.276 393.75L490.688 393.296M495.323 396.867L458.084 396.867M499.8 400.315L463.2 400.315M499.8 400.315L504.125 403.647M540.107 403.647L504.125 403.647M540.107 403.647L541.466 404.867L543.692 406.868M540.107 403.647L576.089 403.647M490.688 393.296L489.502 392.384L485.883 389.596M490.688 393.296L452.786 393.296M458.084 396.867L463.2 400.315M458.084 396.867L452.786 393.296M463.2 400.315L466.923 402.825L468.143 403.647M504.125 403.647L468.143 403.647M504.125 403.647L508.307 406.868M452.786 393.296L447.295 389.596M432.161 403.647L432.843 404.056L437.538 406.868M432.161 403.647L468.143 403.647M468.143 403.647L469.954 404.867L472.923 406.868M524.472 389.596L485.883 389.596M524.472 389.596L563.06 389.596M480.903 385.759L485.883 389.596M480.903 385.759L475.735 381.779M480.903 385.759L441.603 385.759M485.883 389.596L447.295 389.596M563.06 389.596L601.648 389.596M563.06 389.596L566.491 393.296M447.295 389.596L441.603 385.759M566.491 393.296L604.393 393.296M475.735 381.779L472.405 379.214L471.729 378.694L470.369 377.646M475.735 381.779L435.697 381.779M441.603 385.759L435.697 381.779M435.697 381.779L429.564 377.646M511.174 377.646L506.395 373.351M511.174 377.646L470.369 377.646M511.174 377.646L551.978 377.646M470.369 377.646L464.794 373.351M470.369 377.646L429.564 377.646M429.564 377.646L423.193 373.351M506.395 373.351L464.794 373.351M506.395 373.351L547.995 373.351M458.996 368.885L462.646 371.697L463.365 372.251L464.794 373.351M458.996 368.885L452.963 364.238M458.996 368.885L416.567 368.885M464.794 373.351L423.193 373.351M547.995 373.351L589.596 373.351M547.995 373.351L551.978 377.646M423.193 373.351L416.567 368.885M551.978 377.646L592.782 377.646M452.963 364.238L446.68 359.399M452.963 364.238L409.672 364.238M416.567 368.885L409.672 364.238M409.672 364.238L402.492 359.399M490.869 359.399L488.091 356.903L487.388 356.271L485.255 354.354M490.869 359.399L446.68 359.399M490.869 359.399L535.057 359.399M446.68 359.399L440.131 354.354M446.68 359.399L402.492 359.399M402.492 359.399L395.007 354.354M485.255 354.354L440.131 354.354M485.255 354.354L530.379 354.354M433.299 349.091L440.131 354.354M433.299 349.091L426.164 343.596M433.299 349.091L387.198 349.091M440.131 354.354L395.007 354.354M530.379 354.354L575.504 354.354M530.379 354.354L531.568 355.635L535.057 359.399M395.007 354.354L387.198 349.091M535.057 359.399L579.245 359.399M426.164 343.596L418.707 337.852M426.164 343.596L379.045 343.596M387.198 349.091L379.045 343.596M379.045 343.596L370.522 337.852M466.892 337.852L460.204 331.842M466.892 337.852L418.707 337.852M466.892 337.852L515.077 337.852M418.707 337.852L410.905 331.842M418.707 337.852L370.522 337.852M370.522 337.852L361.606 331.842M460.204 331.842L410.905 331.842M460.204 331.842L509.503 331.842M402.733 325.548L410.905 331.842M402.733 325.548L394.165 318.948M402.733 325.548L352.266 325.548M410.905 331.842L361.606 331.842M509.503 331.842L558.803 331.842M509.503 331.842L515.077 337.852M361.606 331.842L352.266 325.548M515.077 337.852L563.261 337.852M394.165 318.948L385.171 312.02M394.165 318.948L342.474 318.948M352.266 325.548L342.474 318.948M342.474 318.948L332.196 312.02M438.146 312.02L430.044 304.74M438.146 312.02L385.171 312.02M438.146 312.02L491.122 312.02M385.171 312.02L375.719 304.74M385.171 312.02L332.196 312.02M332.196 312.02L321.393 304.74M430.044 304.74L375.719 304.74M430.044 304.74L484.371 304.74M365.772 297.078L375.719 304.74M365.772 297.078L355.29 289.005M365.772 297.078L310.024 297.078M375.719 304.74L321.393 304.74M484.371 304.74L538.696 304.74M484.371 304.74L491.122 312.02M321.393 304.74L310.024 297.078M491.122 312.02L544.098 312.021M355.29 289.005L344.23 280.485M355.29 289.005L298.046 289.005M310.024 297.078L298.046 289.005M298.046 289.005L285.406 280.485M403.055 280.485L393.037 271.483M403.055 280.485L344.23 280.485M403.055 280.485L461.879 280.485M344.23 280.485L332.543 271.483M344.23 280.485L285.406 280.485M285.406 280.485L272.049 271.483M393.037 271.483L332.543 271.483M393.037 271.483L453.531 271.483M320.172 261.954L332.543 271.483M320.172 261.954L307.056 251.852M320.172 261.954L257.911 261.954M332.543 271.483L272.049 271.483M453.531 271.483L514.024 271.483M453.531 271.483L461.879 280.485M272.049 271.483L257.911 261.954M461.879 280.485L520.703 280.485M307.056 251.852L293.128 241.122M307.056 251.852L242.922 251.852M257.911 261.954L242.922 251.852M242.922 251.852L227.003 241.122M359.252 241.122L346.549 229.706M359.252 241.122L293.128 241.122M359.252 241.122L425.377 241.122M293.128 241.122L278.307 229.706M293.128 241.122L227.003 241.122M227.003 241.122L210.065 229.706M346.549 229.706L278.307 229.706M346.549 229.706L414.791 229.706M262.506 217.535L278.307 229.706M262.506 217.535L245.623 204.531M262.506 217.535L192.006 217.535M278.307 229.706L210.065 229.706M414.791 229.706L483.033 229.706M414.791 229.706L425.377 241.122M210.065 229.706L192.006 217.535M425.377 241.122L491.501 241.122M245.623 204.531L227.544 190.606M245.623 204.531L172.711 204.531M192.006 217.535L172.711 204.531M172.711 204.531L152.05 190.606M303.038 190.606L286.404 175.657M303.038 190.606L227.544 190.606M303.038 190.606L378.531 190.606M227.544 190.606L208.138 175.657M227.544 190.606L152.05 190.606M152.05 190.606L129.871 175.657M286.404 175.657L208.138 175.657M286.404 175.657L364.67 175.657M187.251 159.569L208.138 175.657M187.251 159.569L164.709 142.206M187.251 159.569L106.001 159.569M208.138 175.657L129.871 175.657M364.67 175.657L442.936 175.657M364.67 175.657L378.531 190.606M129.871 175.657L106.001 159.569M129.871 175.657L51.6046 175.657M378.531 190.606L454.025 190.606M164.709 142.206L140.306 123.409M164.709 142.206L80.2392 142.206M106.001 159.569L80.2392 142.206M51.6046 175.657L0.406875 175.657M80.2392 142.206L52.35 123.409M80.2392 142.206L0.406878 142.206M228.263 123.41L205.546 102.995M228.263 123.41L140.306 123.409M228.263 123.41L316.219 123.41M140.306 123.409L113.803 102.995M140.306 123.409L52.35 123.409M52.35 123.409L22.0609 102.995M52.35 123.409L0.40688 123.409M205.546 102.995L113.803 102.995M205.546 102.995L297.288 102.995M84.9152 80.7438L113.803 102.995M84.9152 80.7438L53.3062 56.3966M84.9152 80.7438L0.406884 80.7438M113.803 102.995L22.0609 102.995M297.288 102.995L389.03 102.995M297.288 102.995L316.219 123.41M22.0609 102.995L0.406882 102.995M22.0609 102.995L0.406883 88.4003M316.219 123.41L404.175 123.41M53.3062 56.3966L18.5726 29.642M53.3062 56.3966L0.406887 56.3966M123.92 29.642L91.0513 0.104859M123.92 29.642L18.5726 29.642M123.92 29.642L229.266 29.642M18.5726 29.642L0.406891 15.6492M18.5726 29.642L0.406889 29.642M91.0513 0.104859L201.876 0.104867M91.0513 0.104859L0.406892 0.105395M201.876 0.104867L312.701 0.104876M201.876 0.104867L229.266 29.642M229.266 29.642L334.613 29.642M680.197 393.296L680.027 392.841L679.858 392.384L679.687 391.924L679.517 391.463L678.998 390.066L678.824 389.596M680.197 393.296L642.294 393.296M680.197 393.296L718.098 393.296M644.282 396.867L645.727 399.464L646.2 400.315M644.282 396.867L643.047 394.65L642.294 393.296M644.282 396.867L607.042 396.867M646.2 400.315L609.6 400.315M646.2 400.315L647.596 402.825L648.054 403.647M684.036 403.647L684.187 404.056L684.787 405.673L685.231 406.868M684.036 403.647L648.054 403.647M684.036 403.647L720.018 403.647M642.294 393.296L642.042 392.841L641.787 392.384L641.532 391.924L641.274 391.463L640.236 389.596M642.294 393.296L604.393 393.296M607.042 396.867L608.969 399.464L609.6 400.315M607.042 396.867L604.393 393.296M609.6 400.315L610.847 401.995L611.768 403.237L612.071 403.647M648.054 403.647L648.281 404.056L648.733 404.867L649.181 405.673L649.403 406.073L649.846 406.868M648.054 403.647L612.071 403.647M604.393 393.296L602.343 390.534L601.648 389.596M576.089 403.647L578.339 406.073L579.076 406.868M576.089 403.647L612.071 403.647M612.071 403.647L614.166 406.471L614.462 406.868M678.824 389.596L640.236 389.596M678.824 389.596L717.412 389.596M638.102 385.759L640.236 389.596M638.102 385.759L635.887 381.779M638.102 385.759L598.802 385.759M640.236 389.596L601.648 389.596M717.412 389.596L756 389.596M717.412 389.596L718.098 393.296M601.648 389.596L598.802 385.759M718.098 393.296L756 393.296M635.887 381.779L635.319 380.76L634.459 379.214L633.587 377.646M635.887 381.779L595.848 381.779M598.802 385.759L598.438 385.27L595.848 381.779M595.848 381.779L595.472 381.271L595.092 380.76L594.712 380.247L592.782 377.646M674.391 377.646L672.798 373.351M674.391 377.646L633.587 377.646M674.391 377.646L715.196 377.646M633.587 377.646L631.197 373.351M633.587 377.646L592.782 377.646M592.782 377.646L590.405 374.44L590.001 373.897L589.596 373.351M672.798 373.351L631.197 373.351M672.798 373.351L714.399 373.351M628.712 368.885L628.395 368.315L628.076 367.741L627.755 367.165L626.127 364.239M628.712 368.885L629.967 371.14L630.277 371.697L630.585 372.251L631.197 373.351M628.712 368.885L586.284 368.885M631.197 373.351L589.596 373.351M714.399 373.351L756 373.351M714.399 373.351L715.196 377.646M589.596 373.351L586.284 368.885M715.196 377.646L756 377.646M626.127 364.239L623.777 360.015L623.434 359.399M626.127 364.239L582.836 364.239M586.284 368.885L585.434 367.741L582.836 364.239M582.836 364.239L581.507 362.447L579.245 359.399M667.623 359.399L666.697 356.903L666.463 356.271L665.751 354.354M667.623 359.399L623.434 359.399M667.623 359.399L711.811 359.399M623.434 359.399L620.628 354.354M623.434 359.399L579.245 359.399M579.245 359.399L575.504 354.354M665.751 354.354L620.628 354.354M665.751 354.354L710.876 354.354M617.7 349.091L620.628 354.354M617.7 349.091L614.642 343.596M617.7 349.091L571.599 349.091M620.628 354.354L575.504 354.354M710.876 354.354L756 354.354M710.876 354.354L711.114 355.635L711.581 358.158L711.811 359.399M575.504 354.354L571.599 349.091M711.811 359.399L756 359.399M614.642 343.596L612.259 339.312L611.446 337.852M614.642 343.596L567.522 343.596M571.599 349.091L567.522 343.596M567.522 343.596L565.416 340.756L563.261 337.852M659.63 337.852L657.401 331.842M659.63 337.852L611.446 337.852M659.63 337.852L707.815 337.852M611.446 337.852L608.102 331.842M611.446 337.852L563.261 337.852M563.261 337.852L558.803 331.842M657.401 331.842L608.102 331.842M657.401 331.842L706.701 331.842M604.6 325.548L605.491 327.149L608.102 331.842M604.6 325.548L600.928 318.948M604.6 325.548L554.133 325.548M608.102 331.842L558.803 331.842M706.701 331.842L756 331.842M706.701 331.842L707.815 337.852M558.803 331.842L554.133 325.548M707.815 337.852L756 337.852M600.928 318.948L597.074 312.021M600.928 318.948L549.237 318.948M554.133 325.548L549.237 318.948M549.237 318.948L544.098 312.021M650.049 312.021L647.348 304.74M650.049 312.021L597.074 312.021M650.049 312.021L703.024 312.021M597.074 312.021L593.022 304.74M597.074 312.021L544.098 312.021M544.098 312.021L538.696 304.74M647.348 304.74L593.022 304.74M647.348 304.74L701.674 304.74M588.759 297.078L593.022 304.74M588.759 297.078L584.267 289.005M588.759 297.078L533.013 297.078M593.022 304.74L538.696 304.74M701.674 304.74L756 304.74M701.674 304.74L702.86 311.13L703.024 312.021M538.696 304.74L533.013 297.078M703.024 312.021L756 312.021M584.267 289.005L579.527 280.485M584.267 289.005L527.023 289.005M533.013 297.078L528.551 291.063L527.023 289.005M527.023 289.005L520.703 280.485M638.352 280.485L635.012 271.483M638.352 280.485L579.527 280.485M638.352 280.485L697.175 280.485M579.527 280.485L574.518 271.483M579.527 280.485L520.703 280.485M520.703 280.485L514.024 271.483M635.012 271.483L574.518 271.483M635.012 271.483L695.506 271.483M569.217 261.954L574.518 271.483M569.217 261.954L563.596 251.852M569.217 261.954L506.956 261.954M574.518 271.483L514.024 271.483M695.506 271.483L756 271.483M695.506 271.483L697.175 280.485M514.024 271.483L506.956 261.954M697.175 280.485L756 280.485M563.596 251.852L557.626 241.122M563.596 251.852L499.461 251.852M506.956 261.954L499.461 251.852M499.461 251.852L491.501 241.122M623.751 241.122L619.516 229.706M623.751 241.122L557.626 241.122M623.751 241.122L689.875 241.122M557.626 241.122L551.274 229.706M557.626 241.122L491.501 241.122M491.501 241.122L483.033 229.706M619.516 229.706L551.274 229.706M619.516 229.706L687.758 229.706M544.502 217.535L551.274 229.706M544.502 217.535L537.267 204.531M544.502 217.535L474.003 217.535M551.274 229.706L483.033 229.706M687.758 229.706L756 229.706M687.758 229.706L689.875 241.122M483.033 229.706L474.003 217.535M689.875 241.122L756 241.122M537.267 204.531L529.519 190.606M537.267 204.531L464.356 204.531M474.003 217.535L464.356 204.531M464.356 204.531L454.025 190.606M605.013 190.606L599.468 175.657M605.013 190.606L529.519 190.606M605.013 190.606L680.506 190.606M529.519 190.606L521.202 175.657M529.519 190.606L454.025 190.606M454.025 190.606L442.936 175.657M599.468 175.657L521.202 175.657M599.468 175.657L677.734 175.657M512.25 159.569L521.202 175.657M512.25 159.569L502.59 142.206M512.25 159.569L431 159.569M521.202 175.657L442.936 175.657M677.734 175.657L756 175.657M677.734 175.657L680.506 190.606M442.936 175.657L431 159.569M680.506 190.606L756 190.606M502.59 142.206L492.131 123.41M502.59 142.206L418.119 142.206M431 159.569L418.119 142.206M418.119 142.206L404.175 123.41M580.088 123.41L572.515 102.995M580.088 123.41L492.131 123.41M580.088 123.41L668.043 123.41M492.131 123.41L480.773 102.995M492.131 123.41L404.175 123.41M404.175 123.41L389.03 102.995M572.515 102.995L480.773 102.995M572.515 102.995L664.258 102.995M468.392 80.7438L480.773 102.995M468.392 80.7438L454.846 56.3966M468.392 80.7438L372.523 80.7438M480.773 102.995L389.03 102.995M664.258 102.995L756 102.995M664.258 102.995L668.043 123.41M389.03 102.995L372.523 80.7438M668.043 123.41L756 123.41M454.846 56.3966L439.96 29.642M454.846 56.3966L354.46 56.3966M372.523 80.7438L354.46 56.3966M354.46 56.3966L334.613 29.642M545.307 29.642L534.351 0.104893M545.307 29.642L439.96 29.642M545.307 29.642L650.653 29.642M439.96 29.642L423.526 0.104884M439.96 29.642L334.613 29.642M334.613 29.642L312.701 0.104876M423.526 0.104884L534.351 0.104893M423.526 0.104884L312.701 0.104876M534.351 0.104893L645.175 0.104901M645.175 0.104901L756 0.104909M645.175 0.104901L650.653 29.642M650.653 29.642L756 29.6421M831.803 393.296L831.972 392.841L832.142 392.384L832.312 391.924L832.483 391.463L832.828 390.534L833.002 390.066L833.176 389.596M831.803 393.296L793.902 393.296M831.803 393.296L869.706 393.296M793.24 396.867L792.6 400.315M793.24 396.867L793.902 393.296M793.24 396.867L756 396.867M792.6 400.315L792.522 400.738L792.443 401.159L792.366 401.578L791.982 403.647M792.6 400.315L756 400.315M827.964 403.647L827.813 404.056L827.213 405.673L826.769 406.868M827.964 403.647L791.982 403.647M827.964 403.647L863.946 403.647M793.902 393.296L793.987 392.841L794.071 392.384L794.157 391.924L794.588 389.596M793.902 393.296L756 393.296M756 396.867L756 400.315M756 396.867L756 393.296M756 400.315L756 403.647M791.982 403.647L756 403.647M791.982 403.647L791.756 404.867L791.68 405.271L791.384 406.868M756 393.296L756 389.596M720.018 403.647L720.244 404.867L720.319 405.271L720.393 405.673L720.468 406.073L720.541 406.472L720.615 406.868M720.018 403.647L756 403.647M756 403.647L756 406.868M833.176 389.596L794.588 389.596M833.176 389.596L871.764 389.596M795.299 385.759L795.391 385.27L795.481 384.778L796.038 381.779M795.299 385.759L794.588 389.596M795.299 385.759L756 385.759M794.588 389.596L756 389.596M871.764 389.596L910.352 389.596M871.764 389.596L871.243 390.534L870.983 390.999L870.726 391.463L870.468 391.924L870.213 392.384L869.958 392.841L869.706 393.296M756 389.596L756 385.759M869.706 393.296L907.607 393.296M796.038 381.779L796.804 377.646M796.038 381.779L756 381.779M756 385.759L756 381.779M756 381.779L756 377.646M837.609 377.646L839.202 373.351M837.609 377.646L796.804 377.646M837.609 377.646L878.413 377.646M796.804 377.646L797.601 373.351M796.804 377.646L756 377.646M756 377.646L756 373.351M839.202 373.351L797.601 373.351M839.202 373.351L880.803 373.351M798.429 368.885L797.601 373.351M798.429 368.885L799.291 364.239M798.429 368.885L756 368.885M797.601 373.351L756 373.351M880.803 373.351L922.404 373.351M880.803 373.351L878.413 377.646M756 373.351L756 368.885M878.413 377.646L919.218 377.646M799.291 364.239L799.623 362.447L799.961 360.628L800.189 359.399M799.291 364.239L756 364.239M756 368.885L756 364.239M756 364.239L756 359.399M844.377 359.399L845.303 356.903L845.537 356.271L846.248 354.354M844.377 359.399L800.189 359.399M844.377 359.399L888.566 359.399M800.189 359.399L800.419 358.158L800.886 355.635L801.124 354.354M800.189 359.399L756 359.399M756 359.399L756 354.354M846.248 354.354L801.124 354.354M846.248 354.354L891.372 354.354M802.1 349.091L801.976 349.762L801.124 354.354M802.1 349.091L803.119 343.596M802.1 349.091L756 349.091M801.124 354.354L756 354.354M891.372 354.354L936.496 354.354M891.372 354.354L888.566 359.399M756 354.354L756 349.091M888.566 359.399L932.754 359.399M803.119 343.596L804.185 337.852M803.119 343.596L756 343.596M756 349.091L756 343.596M756 343.596L756 337.852M852.37 337.852L854.599 331.842M852.37 337.852L804.185 337.852M852.37 337.852L900.554 337.852M804.185 337.852L805.299 331.842M804.185 337.852L756 337.852M756 337.852L756 331.842M854.599 331.842L805.299 331.842M854.599 331.842L903.898 331.842M806.466 325.548L805.299 331.842M806.466 325.548L807.69 318.949M806.466 325.548L756 325.548M805.299 331.842L756 331.842M903.898 331.842L953.197 331.842M903.898 331.842L900.554 337.852M756 331.842L756 325.548M900.554 337.852L948.739 337.852M807.69 318.949L808.976 312.021M807.69 318.949L756 318.949M756 325.548L756 318.949M756 318.949L756 312.021M861.951 312.021L864.652 304.74M861.951 312.021L808.976 312.021M861.951 312.021L914.926 312.021M808.976 312.021L810.325 304.74M808.976 312.021L756 312.021M756 312.021L756 304.74M864.652 304.74L810.325 304.74M864.652 304.74L918.977 304.74M811.747 297.078L810.325 304.74M811.747 297.078L813.244 289.005M811.747 297.078L756 297.078M810.325 304.74L756 304.74M918.977 304.74L973.304 304.74M918.977 304.74L914.926 312.021M756 304.74L756 297.078M914.926 312.021L967.902 312.021M813.244 289.005L814.824 280.485M813.244 289.005L756 289.005M756 297.078L756 289.005M756 289.005L756 280.485M873.648 280.485L876.988 271.483M873.648 280.485L814.824 280.485M873.648 280.485L932.473 280.485M814.824 280.485L816.494 271.483M814.824 280.485L756 280.485M756 280.485L756 271.483M876.988 271.483L816.494 271.483M876.988 271.483L937.482 271.483M818.261 261.954L816.494 271.483M818.261 261.954L820.135 251.852M818.261 261.954L756 261.954M816.494 271.483L756 271.483M937.482 271.483L997.975 271.483M937.482 271.483L932.473 280.485M756 271.483L756 261.954M932.473 280.485L991.297 280.485M820.135 251.852L822.125 241.122M820.135 251.852L756 251.852M756 261.954L756 251.852M756 251.852L756 241.122M888.249 241.122L892.484 229.706M888.249 241.122L822.125 241.122M888.249 241.122L954.374 241.122M822.125 241.122L824.242 229.706M822.125 241.122L756 241.122M756 241.122L756 229.706M892.484 229.706L824.242 229.706M892.484 229.706L960.726 229.706M826.499 217.535L824.242 229.706M826.499 217.535L828.911 204.531M826.499 217.535L756 217.535M824.242 229.706L756 229.706M960.726 229.706L1028.97 229.706M960.726 229.706L954.374 241.122M756 229.706L756 217.535M954.374 241.122L1020.5 241.122M828.911 204.531L831.494 190.606M828.911 204.531L756 204.531M756 217.535L756 204.531M756 204.531L756 190.606M906.987 190.606L912.532 175.657M906.987 190.606L831.494 190.606M906.987 190.606L982.481 190.606M831.494 190.606L834.266 175.657M831.494 190.606L756 190.606M756 190.606L756 175.657M912.532 175.657L834.266 175.657M912.532 175.657L990.798 175.657M837.25 159.569L834.266 175.657M837.25 159.569L840.47 142.206M837.25 159.569L756 159.569M834.266 175.657L756 175.657M990.798 175.657L1069.06 175.657M990.798 175.657L982.481 190.606M756 175.657L756 159.569M982.481 190.606L1057.98 190.606M840.47 142.206L843.956 123.41M840.47 142.206L756 142.206M756 159.569L756 142.206M756 142.206L756 123.41M931.912 123.41L939.485 102.995M931.912 123.41L843.956 123.41M931.912 123.41L1019.87 123.41M843.956 123.41L847.742 102.995M843.956 123.41L756 123.41M756 123.41L756 102.995M939.485 102.995L847.742 102.995M939.485 102.995L1031.23 102.995M851.869 80.7438L847.742 102.995M851.869 80.7438L856.384 56.3966M851.869 80.7438L756 80.7438M847.742 102.995L756 102.995M1031.23 102.995L1122.97 102.995M1031.23 102.995L1019.87 123.41M756 102.995L756 80.7438M1019.87 123.41L1107.82 123.41M856.384 56.3966L861.347 29.6421M856.384 56.3966L756 56.3966M756 80.7438L756 56.3966M756 56.3966L756 29.6421M966.693 29.6421L977.649 0.104926M966.693 29.6421L861.347 29.6421M966.693 29.6421L1072.04 29.6421M861.347 29.6421L866.825 0.104918M861.347 29.6421L756 29.6421M756 29.6421L756 0.104909M866.825 0.104918L977.649 0.104926M866.825 0.104918L756 0.104909M977.649 0.104926L1088.47 0.104935M1088.47 0.104935L1199.3 0.104943M1088.47 0.104935L1072.04 29.6421M1072.04 29.6421L1177.39 29.6421M983.411 393.296L985.451 391.463L987.528 389.596M983.411 393.296L945.509 393.296M983.411 393.296L1021.31 393.296M942.198 396.867L939 400.315M942.198 396.867L945.509 393.296M942.198 396.867L904.958 396.867M939 400.315L902.4 400.315M939 400.315L936.673 402.825L935.911 403.647M971.893 403.647L935.911 403.647M971.893 403.647L970.534 404.867L968.308 406.868M971.893 403.647L1007.87 403.647M945.509 393.296L948.94 389.596M945.509 393.296L907.607 393.296M904.958 396.867L902.4 400.315M904.958 396.867L907.607 393.296M902.4 400.315L901.153 401.995L900.232 403.237L899.929 403.647M935.911 403.647L899.929 403.647M935.911 403.647L933.661 406.073L932.924 406.868M907.607 393.296L909.657 390.534L910.352 389.596M863.946 403.647L863.719 404.056L863.267 404.867L862.597 406.073L862.154 406.868M863.946 403.647L899.929 403.647M899.929 403.647L899.626 404.056L899.023 404.867L897.539 406.868M987.528 389.596L948.94 389.596M987.528 389.596L1026.12 389.596M952.498 385.759L952.046 386.247L951.596 386.732L949.817 388.65L948.94 389.596M952.498 385.759L955.254 382.788L956.19 381.779M952.498 385.759L913.198 385.759M948.94 389.596L910.352 389.596M1026.12 389.596L1064.7 389.596M1026.12 389.596L1022.5 392.384L1021.31 393.296M910.352 389.596L913.198 385.759M1021.31 393.296L1059.21 393.296M956.19 381.779L956.66 381.271L957.134 380.76L958.567 379.214L959.051 378.694L960.022 377.646M956.19 381.779L916.152 381.779M913.198 385.759L913.562 385.27L916.152 381.779M916.152 381.779L916.528 381.271L916.907 380.76L917.288 380.247L919.218 377.646M1000.83 377.646L1005.61 373.351M1000.83 377.646L960.022 377.646M1000.83 377.646L1041.63 377.646M960.022 377.646L964.005 373.351M960.022 377.646L919.218 377.646M919.218 377.646L922.404 373.351M1005.61 373.351L964.005 373.351M1005.61 373.351L1047.21 373.351M968.145 368.885L964.005 373.351M968.145 368.885L972.455 364.239M968.145 368.885L925.716 368.885M964.005 373.351L922.404 373.351M1047.21 373.351L1088.81 373.351M1047.21 373.351L1041.63 377.646M922.404 373.351L925.716 368.885M1041.63 377.646L1082.44 377.646M972.455 364.239L976.942 359.399M972.455 364.239L929.164 364.239M925.716 368.885L926.566 367.741L929.164 364.239M929.164 364.239L930.493 362.447L931.843 360.628L932.754 359.399M1021.13 359.399L1023.91 356.903L1026.74 354.354M1021.13 359.399L976.942 359.399M1021.13 359.399L1065.32 359.399M976.942 359.399L981.621 354.354M976.942 359.399L932.754 359.399M932.754 359.399L936.496 354.354M1026.74 354.354L981.621 354.354M1026.74 354.354L1071.87 354.354M986.501 349.091L981.621 354.354M986.501 349.091L991.597 343.596M986.501 349.091L940.401 349.091M981.621 354.354L936.496 354.354M1071.87 354.354L1116.99 354.354M1071.87 354.354L1065.32 359.399M936.496 354.354L940.401 349.091M1065.32 359.399L1109.51 359.399M991.597 343.596L992.907 342.184L996.923 337.852M991.597 343.596L944.478 343.596M940.401 349.091L944.478 343.596M944.478 343.596L945 342.892L946.584 340.756L948.739 337.852M1045.11 337.852L1051.8 331.842M1045.11 337.852L996.923 337.852M1045.11 337.852L1093.29 337.852M996.923 337.852L1002.5 331.842M996.923 337.852L948.739 337.852M948.739 337.852L953.197 331.842M1051.8 331.842L1002.5 331.842M1051.8 331.842L1101.1 331.842M1008.33 325.548L1004.65 329.516L1002.5 331.842M1008.33 325.548L1014.45 318.949M1008.33 325.548L957.867 325.548M1002.5 331.842L953.197 331.842M1101.1 331.842L1150.39 331.842M1101.1 331.842L1093.29 337.852M953.197 331.842L957.867 325.548M1093.29 337.852L1141.48 337.852M1014.45 318.949L1020.88 312.021M1014.45 318.949L962.763 318.949M957.867 325.548L962.763 318.949M962.763 318.949L967.902 312.021M1073.85 312.021L1081.96 304.74M1073.85 312.021L1020.88 312.021M1073.85 312.021L1126.83 312.021M1020.88 312.021L1027.63 304.74M1020.88 312.021L967.902 312.021M967.902 312.021L973.304 304.74M1081.96 304.74L1027.63 304.74M1081.96 304.74L1136.28 304.74M1034.73 297.078L1027.63 304.74M1034.73 297.078L1042.22 289.005M1034.73 297.078L978.987 297.078M1027.63 304.74L973.304 304.74M1136.28 304.74L1190.61 304.74M1136.28 304.74L1126.83 312.021M973.304 304.74L978.987 297.078M1126.83 312.021L1179.8 312.021M1042.22 289.005L1050.12 280.485M1042.22 289.005L984.977 289.005M978.987 297.078L984.977 289.005M984.977 289.005L991.297 280.485M1108.95 280.485L1118.96 271.483M1108.95 280.485L1050.12 280.485M1108.95 280.485L1167.77 280.485M1050.12 280.485L1058.47 271.483M1050.12 280.485L991.297 280.485M991.297 280.485L997.975 271.483M1118.96 271.483L1058.47 271.483M1118.96 271.483L1179.46 271.483M1067.31 261.954L1058.47 271.483M1067.31 261.954L1076.67 251.852M1067.31 261.954L1005.04 261.954M1058.47 271.483L997.975 271.483M1179.46 271.483L1239.95 271.483M1179.46 271.483L1167.77 280.485M997.975 271.483L1005.04 261.954M1167.77 280.485L1226.59 280.485M1076.67 251.852L1086.62 241.122M1076.67 251.852L1012.54 251.852M1005.04 261.954L1012.54 251.852M1012.54 251.852L1020.5 241.122M1152.75 241.122L1165.45 229.706M1152.75 241.122L1086.62 241.122M1152.75 241.122L1218.87 241.122M1086.62 241.122L1097.21 229.706M1086.62 241.122L1020.5 241.122M1020.5 241.122L1028.97 229.706M1165.45 229.706L1097.21 229.706M1165.45 229.706L1233.69 229.706M1108.5 217.535L1097.21 229.706M1108.5 217.535L1120.56 204.531M1108.5 217.535L1038 217.535M1097.21 229.706L1028.97 229.706M1233.69 229.706L1301.93 229.706M1233.69 229.706L1218.87 241.122M1028.97 229.706L1038 217.535M1218.87 241.122L1285 241.122M1120.56 204.531L1133.47 190.606M1120.56 204.531L1047.64 204.531M1038 217.535L1047.64 204.531M1047.64 204.531L1057.98 190.606M1208.96 190.606L1225.6 175.657M1208.96 190.606L1133.47 190.606M1208.96 190.606L1284.46 190.606M1133.47 190.606L1147.33 175.657M1133.47 190.606L1057.98 190.606M1057.98 190.606L1069.06 175.657M1225.6 175.657L1147.33 175.657M1225.6 175.657L1303.86 175.657M1162.25 159.569L1147.33 175.657M1162.25 159.569L1178.35 142.206M1162.25 159.569L1081 159.569M1147.33 175.657L1069.06 175.657M1303.86 175.657L1382.13 175.657M1303.86 175.657L1284.46 190.606M1069.06 175.657L1081 159.569M1284.46 190.606L1359.95 190.606M1178.35 142.206L1195.78 123.41M1178.35 142.206L1093.88 142.206M1081 159.569L1093.88 142.206M1093.88 142.206L1107.82 123.41M1283.74 123.41L1306.45 102.995M1283.74 123.41L1195.78 123.41M1283.74 123.41L1371.69 123.41M1195.78 123.41L1214.71 102.995M1195.78 123.41L1107.82 123.41M1107.82 123.41L1122.97 102.995M1306.45 102.995L1214.71 102.995M1306.45 102.995L1398.2 102.995M1235.35 80.7438L1214.71 102.995M1235.35 80.7438L1257.92 56.3967M1235.35 80.7438L1139.48 80.7438M1214.71 102.995L1122.97 102.995M1398.2 102.995L1489.94 102.995M1398.2 102.995L1371.69 123.41M1122.97 102.995L1139.48 80.7438M1371.69 123.41L1459.65 123.41M1257.92 56.3967L1282.73 29.6421M1257.92 56.3967L1157.54 56.3966M1139.48 80.7438L1157.54 56.3966M1157.54 56.3966L1177.39 29.6421M1388.08 29.6421L1420.95 0.10496M1388.08 29.6421L1282.73 29.6421M1388.08 29.6421L1493.43 29.6421M1282.73 29.6421L1310.12 0.104951M1282.73 29.6421L1177.39 29.6421M1177.39 29.6421L1199.3 0.104943M1310.12 0.104951L1420.95 0.10496M1310.12 0.104951L1199.3 0.104943M1420.95 0.10496L1511.59 0.105509M1493.43 29.6421L1511.59 15.6493M1493.43 29.6421L1511.59 29.6421M1135.02 393.296L1141.88 389.596M1135.02 393.296L1097.12 393.296M1135.02 393.296L1172.92 393.296M1091.16 396.867L1085.4 400.315M1091.16 396.867L1097.12 393.296M1091.16 396.867L1053.92 396.867M1085.4 400.315L1048.8 400.315M1085.4 400.315L1079.84 403.647M1115.82 403.647L1079.84 403.647M1115.82 403.647L1113.56 404.867L1109.85 406.868M1115.82 403.647L1151.8 403.647M1097.12 393.296L1103.29 389.596M1097.12 393.296L1059.21 393.296M1053.92 396.867L1048.8 400.315M1053.92 396.867L1059.21 393.296M1048.8 400.315L1045.08 402.825L1043.86 403.647M1079.84 403.647L1079.16 404.056L1074.46 406.868M1079.84 403.647L1043.86 403.647M1059.21 393.296L1064.7 389.596M1007.87 403.647L1003.69 406.868M1007.87 403.647L1043.86 403.647M1043.86 403.647L1042.05 404.867L1039.08 406.868M1141.88 389.596L1103.29 389.596M1141.88 389.596L1180.47 389.596M1109.7 385.759L1103.29 389.596M1109.7 385.759L1116.34 381.779M1109.7 385.759L1070.4 385.759M1103.29 389.596L1064.7 389.596M1180.47 389.596L1219.06 389.596M1180.47 389.596L1172.92 393.296M1064.7 389.596L1070.4 385.759M1172.92 393.296L1210.82 393.296M1116.34 381.779L1118.04 380.76L1123.24 377.646M1116.34 381.779L1076.3 381.779M1070.4 385.759L1076.3 381.779M1076.3 381.779L1082.44 377.646M1164.04 377.646L1165.02 377.118L1172.01 373.351M1164.04 377.646L1123.24 377.646M1164.04 377.646L1204.85 377.646M1123.24 377.646L1130.41 373.351M1123.24 377.646L1082.44 377.646M1082.44 377.646L1083.22 377.118L1088.81 373.351M1172.01 373.351L1130.41 373.351M1172.01 373.351L1213.61 373.351M1137.86 368.885L1130.41 373.351M1137.86 368.885L1145.62 364.239M1137.86 368.885L1095.43 368.885M1130.41 373.351L1088.81 373.351M1213.61 373.351L1255.21 373.351M1213.61 373.351L1204.85 377.646M1088.81 373.351L1095.43 368.885M1204.85 377.646L1245.65 377.646M1145.62 364.239L1153.7 359.399M1145.62 364.239L1102.33 364.239M1095.43 368.885L1102.33 364.239M1102.33 364.239L1109.51 359.399M1197.88 359.399L1207.24 354.354M1197.88 359.399L1153.7 359.399M1197.88 359.399L1242.07 359.399M1153.7 359.399L1162.12 354.354M1153.7 359.399L1109.51 359.399M1109.51 359.399L1116.99 354.354M1207.24 354.354L1162.12 354.354M1207.24 354.354L1252.37 354.354M1170.9 349.091L1162.12 354.354M1170.9 349.091L1180.08 343.596M1170.9 349.091L1124.8 349.091M1162.12 354.354L1116.99 354.354M1252.37 354.354L1297.49 354.354M1252.37 354.354L1242.07 359.399M1116.99 354.354L1124.8 349.091M1242.07 359.399L1286.26 359.399M1180.08 343.596L1189.66 337.852M1180.08 343.596L1132.96 343.596M1124.8 349.091L1132.96 343.596M1132.96 343.596L1141.48 337.852M1237.85 337.852L1248.99 331.842M1237.85 337.852L1189.66 337.852M1237.85 337.852L1286.03 337.852M1189.66 337.852L1199.69 331.842M1189.66 337.852L1141.48 337.852M1141.48 337.852L1150.39 331.842M1248.99 331.842L1199.69 331.842M1248.99 331.842L1298.29 331.842M1210.2 325.548L1199.69 331.842M1210.2 325.548L1221.22 318.949M1210.2 325.548L1159.73 325.548M1199.69 331.842L1150.39 331.842M1298.29 331.842L1347.59 331.842M1298.29 331.842L1286.03 337.852M1150.39 331.842L1159.73 325.548M1286.03 337.852L1334.22 337.852M1221.22 318.949L1232.78 312.021M1221.22 318.949L1169.53 318.949M1159.73 325.548L1169.53 318.949M1169.53 318.949L1179.8 312.021M1285.76 312.021L1299.26 304.74M1285.76 312.021L1232.78 312.021M1285.76 312.021L1338.73 312.021M1232.78 312.021L1244.93 304.74M1232.78 312.021L1179.8 312.021M1179.8 312.021L1190.61 304.74M1299.26 304.74L1244.93 304.74M1299.26 304.74L1353.59 304.74M1257.72 297.078L1244.93 304.74M1257.72 297.078L1271.2 289.005M1257.72 297.078L1201.98 297.078M1244.93 304.74L1190.61 304.74M1353.59 304.74L1407.91 304.74M1353.59 304.74L1338.73 312.021M1190.61 304.74L1201.98 297.078M1338.73 312.021L1391.71 312.021M1271.2 289.005L1285.42 280.485M1271.2 289.005L1213.95 289.005M1201.98 297.078L1213.95 289.005M1213.95 289.005L1226.59 280.485M1344.24 280.485L1360.94 271.483M1344.24 280.485L1285.42 280.485M1344.24 280.485L1403.07 280.485M1285.42 280.485L1300.44 271.483M1285.42 280.485L1226.59 280.485M1226.59 280.485L1239.95 271.483M1360.94 271.483L1300.44 271.483M1360.94 271.483L1421.43 271.483M1316.35 261.954L1300.44 271.483M1316.35 261.954L1333.21 251.852M1316.35 261.954L1254.09 261.954M1300.44 271.483L1239.95 271.483M1421.43 271.483L1481.93 271.483M1421.43 271.483L1403.07 280.485M1239.95 271.483L1254.09 261.954M1403.07 280.485L1461.89 280.485M1333.21 251.852L1351.12 241.122M1333.21 251.852L1269.08 251.852M1254.09 261.954L1269.08 251.852M1269.08 251.852L1285 241.122M1417.25 241.122L1438.42 229.706M1417.25 241.122L1351.12 241.122M1417.25 241.122L1483.37 241.122M1351.12 241.122L1370.18 229.706M1351.12 241.122L1285 241.122M1285 241.122L1301.93 229.706M1438.42 229.706L1370.18 229.706M1438.42 229.706L1506.66 229.706M1390.49 217.535L1370.18 229.706M1390.49 217.535L1412.2 204.531M1390.49 217.535L1319.99 217.535M1370.18 229.706L1301.93 229.706M1506.66 229.706L1483.37 241.122M1506.66 229.706L1511.59 229.706M1506.66 229.706L1511.59 227.289M1301.93 229.706L1319.99 217.535M1483.37 241.122L1511.59 241.122M1412.2 204.531L1435.44 190.606M1412.2 204.531L1339.29 204.531M1319.99 217.535L1339.29 204.531M1339.29 204.531L1359.95 190.606M1510.94 190.606L1435.44 190.606M1510.94 190.606L1511.59 190.606M1510.94 190.606L1511.59 190.252M1435.44 190.606L1460.4 175.657M1435.44 190.606L1359.95 190.606M1359.95 190.606L1382.13 175.657M1487.25 159.569L1460.4 175.657M1487.25 159.569L1406 159.569M1487.25 159.569L1511.59 159.569M1487.25 159.569L1511.59 144.985M1460.4 175.657L1382.13 175.657M1460.4 175.657L1511.59 175.657M1382.13 175.657L1406 159.569M1406 159.569L1431.76 142.206M1431.76 142.206L1459.65 123.41M1431.76 142.206L1511.59 142.206M1459.65 123.41L1489.94 102.995M1459.65 123.41L1511.59 123.41M1489.94 102.995L1511.59 102.995M1489.94 102.995L1511.59 88.4004M1286.63 393.296L1296.23 389.596M1286.63 393.296L1248.72 393.296M1286.63 393.296L1324.53 393.296M1240.11 396.867L1231.8 400.315M1240.11 396.867L1248.72 393.296M1240.11 396.867L1202.87 396.867M1231.8 400.315L1195.2 400.315M1231.8 400.315L1223.77 403.647M1259.75 403.647L1223.77 403.647M1259.75 403.647L1251.39 406.868M1259.75 403.647L1295.73 403.647M1248.72 393.296L1257.64 389.596M1248.72 393.296L1210.82 393.296M1202.87 396.867L1195.2 400.315M1202.87 396.867L1210.82 393.296M1195.2 400.315L1187.79 403.647M1223.77 403.647L1222.78 404.056L1216 406.868M1223.77 403.647L1187.79 403.647M1210.82 393.296L1219.06 389.596M1151.8 403.647L1145.23 406.868M1151.8 403.647L1187.79 403.647M1187.79 403.647L1186.88 404.056L1180.62 406.868M1296.23 389.596L1257.64 389.596M1296.23 389.596L1334.82 389.596M1266.9 385.759L1257.64 389.596M1266.9 385.759L1276.49 381.779M1266.9 385.759L1227.59 385.759M1257.64 389.596L1219.06 389.596M1334.82 389.596L1373.41 389.596M1334.82 389.596L1324.53 393.296M1219.06 389.596L1227.59 385.759M1324.53 393.296L1362.43 393.296M1276.49 381.779L1286.46 377.646M1276.49 381.779L1236.45 381.779M1227.59 385.759L1228.68 385.27L1236.45 381.779M1236.45 381.779L1245.65 377.646M1327.26 377.646L1338.41 373.351M1327.26 377.646L1286.46 377.646M1327.26 377.646L1368.07 377.646M1286.46 377.646L1296.81 373.351M1286.46 377.646L1245.65 377.646M1245.65 377.646L1255.21 373.351M1338.41 373.351L1296.81 373.351M1338.41 373.351L1380.01 373.351M1307.58 368.885L1296.81 373.351M1307.58 368.885L1318.78 364.239M1307.58 368.885L1265.15 368.885M1296.81 373.351L1255.21 373.351M1380.01 373.351L1421.61 373.351M1380.01 373.351L1368.07 377.646M1255.21 373.351L1265.15 368.885M1368.07 377.646L1408.87 377.646M1318.78 364.239L1330.45 359.399M1318.78 364.239L1275.49 364.239M1265.15 368.885L1275.49 364.239M1275.49 364.239L1286.26 359.399M1374.64 359.399L1387.74 354.354M1374.64 359.399L1330.45 359.399M1374.64 359.399L1418.83 359.399M1330.45 359.399L1342.61 354.354M1330.45 359.399L1286.26 359.399M1286.26 359.399L1297.49 354.354M1387.74 354.354L1342.61 354.354M1387.74 354.354L1432.86 354.354M1355.3 349.091L1342.61 354.354M1355.3 349.091L1368.55 343.596M1355.3 349.091L1309.2 349.091M1342.61 354.354L1297.49 354.354M1432.86 354.354L1477.99 354.354M1432.86 354.354L1418.83 359.399M1297.49 354.354L1309.2 349.091M1418.83 359.399L1463.02 359.399M1368.55 343.596L1382.4 337.852M1368.55 343.596L1321.43 343.596M1309.2 349.091L1321.43 343.596M1321.43 343.596L1334.22 337.852M1430.59 337.852L1446.19 331.842M1430.59 337.852L1382.4 337.852M1430.59 337.852L1478.77 337.852M1382.4 337.852L1396.89 331.842M1382.4 337.852L1334.22 337.852M1334.22 337.852L1347.59 331.842M1446.19 331.842L1396.89 331.842M1412.07 325.548L1396.89 331.842M1412.07 325.548L1427.98 318.949M1412.07 325.548L1361.6 325.548M1396.89 331.842L1347.59 331.842M1347.59 331.842L1361.6 325.548M1478.77 337.852L1511.59 337.852M1427.98 318.949L1444.68 312.021M1427.98 318.949L1376.29 318.949M1361.6 325.548L1376.29 318.949M1376.29 318.949L1391.71 312.021M1497.66 312.021L1444.68 312.021M1497.66 312.021L1511.59 312.021M1497.66 312.021L1511.59 306.654M1444.68 312.021L1462.24 304.74M1444.68 312.021L1391.71 312.021M1391.71 312.021L1407.91 304.74M1480.71 297.078L1462.24 304.74M1480.71 297.078L1500.17 289.005M1480.71 297.078L1424.96 297.078M1480.71 297.078L1511.59 297.078M1462.24 304.74L1407.91 304.74M1462.24 304.74L1511.59 304.74M1407.91 304.74L1424.96 297.078M1511.75 306.595L1511.59 306.654M1500.17 289.005L1442.93 289.005M1500.17 289.005L1511.59 289.005M1500.17 289.005L1511.59 284.269M1424.96 297.078L1442.93 289.005M1442.93 289.005L1461.89 280.485M1461.89 280.485L1481.93 271.483M1461.89 280.485L1511.59 280.485M1503.13 261.954L1481.93 271.483M1503.13 261.954L1511.59 261.954M1503.13 261.954L1511.59 258.153M1481.93 271.483L1511.59 271.483M1438.23 393.296L1450.58 389.596M1438.23 393.296L1400.33 393.296M1438.23 393.296L1476.13 393.296M1389.07 396.867L1378.2 400.315M1389.07 396.867L1400.33 393.296M1389.07 396.867L1351.83 396.867M1378.2 400.315L1341.6 400.315M1378.2 400.315L1367.7 403.647M1403.68 403.647L1367.7 403.647M1403.68 403.647L1392.92 406.868M1403.68 403.647L1439.66 403.647M1400.33 393.296L1412 389.596M1400.33 393.296L1362.43 393.296M1351.83 396.867L1341.6 400.315M1351.83 396.867L1362.43 393.296M1341.6 400.315L1331.71 403.647M1367.7 403.647L1331.71 403.647M1367.7 403.647L1357.54 406.868M1362.43 393.296L1373.41 389.596M1295.73 403.647L1286.77 406.868M1295.73 403.647L1331.71 403.647M1331.71 403.647L1322.15 406.868M1450.58 389.596L1412 389.596M1450.58 389.596L1489.17 389.596M1424.09 385.759L1412 389.596M1424.09 385.759L1436.64 381.779M1424.09 385.759L1384.79 385.759M1412 389.596L1373.41 389.596M1489.17 389.596L1476.13 393.296M1489.17 389.596L1511.59 389.596M1373.41 389.596L1384.79 385.759M1476.13 393.296L1511.59 393.296M1436.64 381.779L1449.68 377.646M1436.64 381.779L1396.61 381.779M1384.79 385.759L1396.61 381.779M1396.61 381.779L1408.87 377.646M1490.48 377.646L1504.82 373.351M1490.48 377.646L1449.68 377.646M1490.48 377.646L1511.59 377.646M1449.68 377.646L1463.22 373.351M1449.68 377.646L1408.87 377.646M1408.87 377.646L1421.61 373.351M1477.29 368.885L1463.22 373.351M1477.29 368.885L1491.95 364.239M1477.29 368.885L1434.87 368.885M1477.29 368.885L1511.59 368.885M1463.22 373.351L1504.82 373.351M1463.22 373.351L1421.61 373.351M1504.82 373.351L1511.59 371.321M1504.82 373.351L1511.59 373.351M1421.61 373.351L1434.87 368.885M1491.95 364.239L1507.21 359.399M1491.95 364.239L1448.66 364.239M1491.95 364.239L1511.59 364.239M1434.87 368.885L1448.66 364.239M1448.66 364.239L1463.02 359.399M1507.21 359.399L1463.02 359.399M1507.21 359.399L1511.59 358.008M1507.21 359.399L1511.59 359.399M1463.02 359.399L1477.99 354.354M1493.6 349.092L1477.99 354.354M1493.6 349.092L1509.91 343.596M1493.6 349.092L1511.59 349.092M1477.99 354.354L1511.59 354.354M1511.83 354.354L1511.59 354.354M1509.91 343.596L1511.59 343.596M1509.91 343.596L1511.59 343.029M1512 342.892L1511.59 343.029M1500.79 396.867L1488 400.315M1500.79 396.867L1511.59 396.867M1500.79 396.867L1511.59 393.955M1488 400.315L1475.64 403.647M1488 400.315L1511.59 400.315M1439.66 403.647L1428.31 406.868M1439.66 403.647L1475.64 403.647M1475.64 403.647L1463.69 406.868M1475.64 403.647L1511.59 403.647M260.614 406.868L225.23 406.868M260.614 406.868L295.999 406.868M233.898 409.984L231.758 409.214L225.23 406.868M233.898 409.984L199.091 409.984M225.23 406.868L189.845 406.868M199.091 409.984L196.808 409.214L195.659 408.828L189.845 406.868M189.845 406.868L154.46 406.868M154.46 406.868L119.075 406.868M295.999 406.868L331.383 406.868M119.075 406.868L83.6905 406.868M83.6905 406.868L94.671 409.984M83.6905 406.868L48.306 406.868M94.671 409.984L59.8642 409.984M402.153 406.868L366.768 406.868M402.153 406.868L437.538 406.868M373.125 409.984L371.556 409.214L370.766 408.828L366.768 406.868M373.125 409.984L338.318 409.984M366.768 406.868L331.383 406.868M338.318 409.984L331.383 406.868M437.538 406.868L472.923 406.868M543.692 406.868L508.307 406.868M543.692 406.868L579.076 406.868M512.353 409.984L511.854 409.6L511.354 409.214L510.851 408.828L508.307 406.868M512.353 409.984L477.546 409.984M508.307 406.868L472.923 406.868M477.546 409.984L472.923 406.868M579.076 406.868L614.462 406.868M685.231 406.868L649.846 406.868M685.231 406.868L720.615 406.868M651.579 409.984L649.846 406.868M651.579 409.984L616.773 409.984M649.846 406.868L614.462 406.868M616.773 409.984L616.488 409.6L616.202 409.214L615.915 408.828L614.462 406.868M720.615 406.868L756 406.868M826.769 406.868L791.384 406.868M826.769 406.868L862.154 406.868M790.807 409.984L791.384 406.868M790.807 409.984L756 409.984M791.384 406.868L756 406.868M756 409.984L756 406.868M862.154 406.868L897.539 406.868M968.308 406.868L932.924 406.868M968.308 406.868L1003.69 406.868M930.034 409.984L930.747 409.214L932.192 407.657L932.924 406.868M930.034 409.984L895.227 409.984M932.924 406.868L897.539 406.868M895.227 409.984L895.512 409.6L895.798 409.214L896.085 408.828L897.539 406.868M1003.69 406.868L1039.08 406.868M1109.85 406.868L1074.46 406.868M1109.85 406.868L1145.23 406.868M1069.26 409.984L1070.55 409.214L1071.19 408.828L1074.46 406.868M1069.26 409.984L1034.45 409.984M1074.46 406.868L1039.08 406.868M1034.45 409.984L1035.02 409.6L1039.08 406.868M1145.23 406.868L1180.62 406.868M1251.39 406.868L1216 406.868M1251.39 406.868L1286.77 406.868M1208.49 409.984L1210.34 409.214L1211.28 408.828L1216 406.868M1208.49 409.984L1173.68 409.984M1216 406.868L1180.62 406.868M1173.68 409.984L1174.54 409.6L1180.62 406.868M1286.77 406.868L1322.15 406.868M1392.92 406.868L1357.54 406.868M1392.92 406.868L1428.31 406.868M1347.72 409.984L1357.54 406.868M1347.72 409.984L1312.91 409.984M1357.54 406.868L1322.15 406.868M1312.91 409.984L1315.19 409.214L1316.34 408.828L1322.15 406.868M1428.31 406.868L1463.69 406.868M1486.94 409.984L1499.08 406.868M1486.94 409.984L1452.14 409.984M1486.94 409.984L1511.59 409.984M1499.08 406.868L1463.69 406.868M1499.08 406.868L1511.59 403.655M1499.08 406.868L1511.59 406.868M1452.14 409.984L1454.99 409.214L1463.69 406.868M59.8642 409.984L57.0102 409.214L48.306 406.868M48.306 406.868L12.9214 406.868M12.9214 406.868L0.406852 403.655M12.9214 406.868L0.406851 406.868M0.406866 258.153L0.406866 261.954M0.406866 258.153L0.406867 251.852M0.406866 261.954L0.406865 271.483M0.406867 251.852L0.406867 249.969L0.406868 241.122M0.406868 241.122L0.406869 229.706M0.406859 331.842L0.406858 337.852M0.406859 331.842L0.406859 326.054M0.406851 409.984L0.406851 406.868M0.406851 406.868L0.406852 403.655M0.406852 403.655L0.376202 403.647L0.406852 403.647M0.406852 403.655L0.406852 403.647M0.406852 403.647L0.406852 400.315M0.406852 400.315L0.406852 396.867M0.406852 396.867L0.406852 393.955M0.406852 393.955L0.406853 393.296M0.406853 393.296L0.406853 389.596M0.406853 389.596L0.406853 385.759M0.406853 385.759L0.406854 383.234M0.406854 383.234L0.406854 381.779M0.406854 381.779L0.406854 377.646M0.406854 377.646L0.406855 373.351M0.406855 373.351L0.406855 371.321M0.406855 371.321L0.406855 368.885M0.406855 368.885L0.406855 364.238M0.406855 364.238L0.406856 359.399M0.406856 359.399L0.406856 358.007M0.406856 358.007L0.406856 354.354M0.406856 354.354L0.406857 349.091M0.406857 349.091L0.406858 343.596M0.406858 343.596L0.406858 343.029M0.406858 343.029L0.406858 337.852M0.406859 325.548L0.40686 318.948M0.406859 325.548L0.406859 326.054M0.40686 318.948L0.406861 312.02M0.406861 312.02L0.406861 306.654M0.406861 306.654L0.406862 304.74M0.406862 304.74L0.406862 297.078M0.406862 297.078L0.406863 289.005M0.406863 289.005L0.406864 284.269M0.406864 284.269L0.406864 280.485M0.406864 280.485L0.406865 271.483M0.406869 229.706L0.406869 227.289M0.406869 227.289L0.40687 217.535M0.40687 217.535L0.406872 204.531M0.406872 204.531L0.406873 190.606M0.406873 190.606L0.406873 190.252M0.406873 190.252L0.406875 175.657M0.406875 175.657L0.406876 159.569M0.406876 159.569L0.406878 144.985M0.406878 144.985L0.406878 142.206M0.406878 142.206L0.40688 123.409M0.40688 123.409L0.406882 102.995M0.406882 102.995L0.406883 88.4003M0.406883 88.4003L0.406884 80.7438M0.406884 80.7438L0.406887 56.3966M0.406887 56.3966L0.406889 29.642M0.406889 29.642L0.406891 15.6492M0.406891 15.6492L0.406892 0.105395M0.406892 0.105395L0.406892 -7.3485e-05L1511.59 4.08976e-05L1511.59 0.105509M1511.59 325.548L1511.59 318.949M1511.59 325.548L1511.59 326.054M1511.59 326.054L1511.59 331.842M1511.59 331.842L1511.59 337.852M1511.59 337.852L1511.59 343.029M1511.59 343.029L1511.59 343.596M1511.59 343.596L1511.59 349.092M1511.59 349.092L1511.59 354.354M1511.59 354.354L1511.59 358.008M1511.59 358.008L1511.59 359.399M1511.59 359.399L1511.59 364.239M1511.59 364.239L1511.59 368.885M1511.59 368.885L1511.59 371.321M1511.59 371.321L1511.59 373.351M1511.59 373.351L1511.59 377.646M1511.59 377.646L1511.59 381.779M1511.59 381.779L1511.59 383.234M1511.59 383.234L1511.59 385.759M1511.59 385.759L1511.59 389.596M1511.59 389.596L1511.59 393.296M1511.59 393.296L1511.59 393.955M1511.59 393.955L1511.59 396.867M1511.59 396.867L1511.59 400.315M1511.59 400.315L1511.59 403.647M1511.59 403.647L1511.62 403.647L1511.59 403.655M1511.59 403.647L1511.59 403.655M1511.59 403.655L1511.59 406.868M1511.59 406.868L1511.59 409.984M1511.59 0.105509L1511.59 15.6493M1511.59 15.6493L1511.59 29.6421M1511.59 29.6421L1511.59 56.3962M1511.59 56.3962L1511.59 80.7439M1511.59 80.7439L1511.59 88.4004M1511.59 88.4004L1511.59 102.995M1511.59 102.995L1511.59 123.41M1511.59 123.41L1511.59 142.206M1511.59 142.206L1511.59 144.985M1511.59 144.985L1511.59 159.569M1511.59 159.569L1511.59 175.657M1511.59 175.657L1511.59 190.252M1511.59 190.252L1511.59 190.606M1511.59 190.606L1511.59 204.531M1511.59 204.531L1511.59 217.535M1511.59 217.535L1511.59 227.289M1511.59 227.289L1511.59 229.706M1511.59 229.706L1511.59 241.122M1511.59 241.122L1511.59 251.852M1511.59 251.852L1511.59 258.153M1511.59 258.153L1511.59 261.954M1511.59 261.954L1511.59 271.483M1511.59 271.483L1511.59 280.485M1511.59 280.485L1511.59 284.269M1511.59 284.269L1511.59 289.005M1511.59 289.005L1511.59 297.078M1511.59 297.078L1511.59 304.74M1511.59 304.74L1511.59 306.654M1511.59 306.654L1511.59 312.021M1511.59 312.021L1511.59 318.949" stroke="url(#paint0_linear_2734_1052)" stroke-opacity="0.6" stroke-width="1.8895" stroke-miterlimit="10" stroke-linecap="round" stroke-linejoin="round"/>
<defs>
<linearGradient id="paint0_linear_2734_1052" x1="756" y1="-631.275" x2="756" y2="661.719" gradientUnits="userSpaceOnUse">
<stop offset="0.465" stop-opacity="0"/>
<stop offset="0.604" stop-color="#70F45D" stop-opacity="0.4"/>
<stop offset="0.735" stop-color="#AAFF9E" stop-opacity="0"/>
</linearGradient>
</defs>
</svg>
