<svg width="1512" height="331" viewBox="0 0 1512 331" fill="none" xmlns="http://www.w3.org/2000/svg">
<path d="M1489.86 3.40268L1478.08 1M1489.86 3.40268H1454.94M1489.86 3.40268L1502.04 5.8847M1489.86 3.40268H1514.59M1478.08 1L1482.36 1.00094L1486.61 1.00614L1490.76 1.02077L1494.79 1.04957L1498.64 1.09632L1502.27 1.16669L1505.65 1.26445L1508.78 1.3891L1511.47 1.56147L1513.92 1.76123L1514.59 1.83119V3.40268M1478.08 1H1443.72M1443.72 1H1409.35M1443.72 1L1454.94 3.40268M1409.35 1H1374.99M1409.35 1L1420.02 3.40268M1374.99 1H1340.63M1374.99 1L1385.09 3.40268M1340.63 1H1306.27M1340.63 1L1350.17 3.40268M1306.27 1H1271.91M1306.27 1L1315.25 3.40268M1271.91 1H1237.55M1271.91 1L1280.33 3.40268M1237.55 1H1203.19M1237.55 1L1245.41 3.40268M1203.19 1H1168.83M1203.19 1L1210.48 3.40268M1168.83 1H1134.47M1168.83 1L1175.56 3.40268M1134.47 1H1100.11M1134.47 1L1140.64 3.40268M1100.11 1H1065.75M1100.11 1L1105.72 3.40268M1065.75 1H1031.39M1065.75 1L1066.99 1.59358L1068.88 2.49223L1070.8 3.40268M1031.39 1H997.025M1031.39 1L1032.49 1.59358L1035.87 3.40268M997.025 1H962.665M997.025 1L1000.95 3.40268M962.665 1H928.303M962.665 1L963.914 1.89202L965.18 2.79445L965.605 3.09809L966.032 3.40268M928.303 1H893.943M928.303 1L929.345 1.89202L929.696 2.19142L930.047 2.49223L931.11 3.40268M893.943 1H859.582M893.943 1L896.188 3.40268M859.582 1L859.79 1.29608L859.998 1.59358L861.052 3.09809L861.266 3.40268M859.582 1H825.222M825.222 1H790.861M825.222 1L826.344 3.40268M790.861 1H756.5M790.861 1L791.069 1.89202L791.422 3.40268M756.5 1H722.139M756.5 1V3.40268M722.139 1H687.778M722.139 1L721.931 1.89202L721.578 3.40268M687.778 1H653.418M687.778 1L686.656 3.40268M653.418 1L653.21 1.29608L653.002 1.59358L651.948 3.09809L651.734 3.40268M653.418 1H619.057M619.057 1H584.696M619.057 1L617.097 3.09809L616.812 3.40268M584.696 1H550.335M584.696 1L583.655 1.89202L583.305 2.19142L582.6 2.79445L582.246 3.09809L581.89 3.40268M550.335 1H515.975M550.335 1L549.086 1.89202L547.82 2.79445L547.395 3.09809L546.968 3.40268M515.975 1H481.614M515.975 1L512.047 3.40268M481.614 1H447.253M481.614 1L480.506 1.59358L477.125 3.40268M447.253 1H412.893M447.253 1L442.203 3.40268M412.893 1H378.532M412.893 1L407.281 3.40268M378.532 1H344.171M378.532 1L372.359 3.40268M344.171 1H309.81M344.171 1L337.437 3.40268M309.81 1H275.45M309.81 1L302.515 3.40268M275.45 1H241.089M275.45 1L267.593 3.40268M241.089 1H206.728M241.089 1L232.671 3.40268M206.728 1H172.367M206.728 1L197.749 3.40268M172.367 1H138.007M172.367 1L162.827 3.40268M138.007 1H103.646M138.007 1L127.905 3.40268M103.646 1H69.2851M103.646 1L92.9842 3.40268M69.2851 1H34.9246M69.2851 1L58.0622 3.40268M34.9246 1L30.6366 1.00094L26.3929 1.00614L22.2376 1.02077L18.2126 1.04957L14.3621 1.09632L10.7273 1.16669L7.35138 1.26445L4.21793 1.3891L1.52908 1.56147L-0.918927 1.76123L-1.59173 1.83121V3.40268M34.9246 1L23.1402 3.40268M92.9842 3.40268H127.905M92.9842 3.40268H58.0622M92.9842 3.40268L81.9674 5.8847M127.905 3.40268L117.469 5.8847M127.905 3.40268H162.827M232.671 3.40268H267.593M232.671 3.40268H197.749M232.671 3.40268L230.524 4.01563L223.975 5.8847M267.593 3.40268L259.476 5.8847M267.593 3.40268H302.515M372.359 3.40268H407.281M372.359 3.40268H337.437M372.359 3.40268L370.784 4.01563L369.992 4.32352L365.981 5.8847M407.281 3.40268L406.566 3.70821L405.849 4.01563L401.483 5.8847M407.281 3.40268H442.203M512.047 3.40268L511.546 3.70821L507.988 5.8847M512.047 3.40268H546.968M512.047 3.40268H477.125M546.968 3.40268L546.11 4.01563L545.677 4.32352L545.244 4.6333L543.49 5.8847M546.968 3.40268H581.89M651.734 3.40268H686.656M651.734 3.40268H616.812M651.734 3.40268L649.995 5.8847M686.656 3.40268L686.513 3.70821L686.37 4.01563L686.226 4.32352L685.79 5.25617L685.497 5.8847M686.656 3.40268H721.578M791.422 3.40268H826.344M791.422 3.40268H756.5M791.422 3.40268L792.002 5.8847M826.344 3.40268L826.487 3.70821L826.63 4.01563L826.774 4.32352L827.503 5.8847M826.344 3.40268H861.266M931.11 3.40268H966.032M931.11 3.40268H896.188M931.11 3.40268L931.825 4.01563L933.275 5.25617L933.641 5.56973L934.009 5.8847M966.032 3.40268L966.89 4.01563L967.323 4.32352L967.756 4.6333L969.51 5.8847M966.032 3.40268H1000.95M1070.8 3.40268H1105.72M1070.8 3.40268H1035.87M1070.8 3.40268L1072.09 4.01563L1072.73 4.32352L1076.02 5.8847M1105.72 3.40268L1106.43 3.70821L1107.15 4.01563L1111.52 5.8847M1105.72 3.40268H1140.64M1210.48 3.40268H1245.41M1210.48 3.40268H1175.56M1210.48 3.40268L1212.35 4.01563L1213.28 4.32352L1218.02 5.8847M1245.41 3.40268L1253.52 5.8847M1245.41 3.40268H1280.33M1350.17 3.40268H1385.09M1350.17 3.40268H1315.25M1350.17 3.40268L1360.03 5.8847M1385.09 3.40268L1395.53 5.8847M1385.09 3.40268H1420.02M-1.71413 25.8712H-1.59173M33.4353 25.8712L46.7682 22.7002M33.4353 25.8712L19.5914 29.1635M33.4353 25.8712H73.6054M33.4353 25.8712H-1.59173M46.7682 22.7002H7.33875M46.7682 22.7002L59.6187 19.6439M46.7682 22.7002H86.1977M7.33875 22.7002L20.9031 19.6439M7.33875 22.7002H-1.59173M7.33875 22.7002L-1.59173 24.7119M46.6087 13.8516H83.9716M46.6087 13.8516L58.7998 11.1047M46.6087 13.8516H9.24661M46.6087 13.8516L33.9841 16.6963M83.9716 13.8516L95.5214 11.1047M83.9716 13.8516L72.0119 16.6963M83.9716 13.8516H121.334M58.7998 11.1047H95.5214M58.7998 11.1047L70.5794 8.45077M58.7998 11.1047H22.0789M95.5214 11.1047H132.242M95.5214 11.1047L106.68 8.45077M-1.9763 75.9223H-1.59173M30.4368 75.9223L47.6297 70.6651M30.4368 75.9223L12.3895 81.4412M30.4368 75.9223H82.299M30.4368 75.9223H-1.59173M47.6297 70.6651L64.0274 65.651M47.6297 70.6651H98.2632M47.6297 70.6651H-1.59173M14.5651 65.651H64.0274M14.5651 65.651L31.3395 60.8636M14.5651 65.651H-1.59173M14.5651 65.651L-1.59173 70.2621M47.3715 56.2877H94.6464M47.3715 56.2877L62.7102 51.9102M47.3715 56.2877H0.0966026M47.3715 56.2877L31.3395 60.8636M94.6464 56.2877L108.963 51.9102M94.6464 56.2877L79.6828 60.8636M94.6464 56.2877H141.922M62.7102 51.9102H108.963M62.7102 51.9102H16.458M62.7102 51.9102L77.3998 47.7177M108.963 51.9102L122.673 47.7177M108.963 51.9102H155.216M104.988 39.8439H148.422M104.988 39.8439L117.959 36.1421M104.988 39.8439H61.5542M104.988 39.8439L91.4798 43.6991M148.422 39.8439L160.528 36.1421M148.422 39.8439L135.815 43.6991M148.422 39.8439H191.857M117.959 36.1421H160.528M117.959 36.1421H75.3893M117.959 36.1421L130.423 32.5848M160.528 36.1421L172.161 32.5848M160.528 36.1421H203.098M153.946 25.8712H194.116M153.946 25.8712L165.057 22.7002M153.946 25.8712H113.776M153.946 25.8712L142.409 29.1635M194.116 25.8712L204.486 22.7002M194.116 25.8712L183.349 29.1635M194.116 25.8712H234.286M165.057 22.7002H204.486M165.057 22.7002H125.627M165.057 22.7002L175.765 19.6439M204.486 22.7002L214.481 19.6439M204.486 22.7002H243.915M196.059 13.8516H233.422M196.059 13.8516L205.684 11.1047M196.059 13.8516H158.697M196.059 13.8516L186.093 16.6963M233.422 13.8516L242.405 11.1047M233.422 13.8516L224.12 16.6963M233.422 13.8516H270.785M205.684 11.1047H242.405M205.684 11.1047L214.984 8.45077M205.684 11.1047H168.963M242.405 11.1047H279.126M242.405 11.1047L251.085 8.45077M24.9786 167.069L49.1759 156.709M24.9786 167.069L-0.933929 178.162M24.9786 167.069H98.1305M24.9786 167.069H-1.59173M49.1759 156.709L71.8247 147.014M49.1759 156.709H119.908M49.1759 156.709H-1.59173M48.6848 129.372H113.032M48.6848 129.372L69.3625 121.325M48.6848 129.372L26.7238 137.919M48.6848 129.372H-1.59173M113.032 129.372L131.829 121.325M113.032 129.372L93.0671 137.919M113.032 129.372H177.379M69.3625 121.325H131.829M69.3625 121.325H6.89574M69.3625 121.325L88.8668 113.734M131.829 121.325L149.561 113.734M131.829 121.325H194.297M124.731 99.7759H182.165M124.731 99.7759L141.256 93.3447M124.731 99.7759H67.2975M124.731 99.7759L107.294 106.563M182.165 99.7759L197.188 93.3447M182.165 99.7759L166.312 106.563M182.165 99.7759H239.598M141.256 93.3447H197.188M141.256 93.3447H85.3251M141.256 93.3447L156.939 87.2411M197.188 93.3447L211.445 87.2411M197.188 93.3447H253.118M186.022 75.9223H237.884M186.022 75.9223L199.531 70.6651M186.022 75.9223H134.16M186.022 75.9223L171.842 81.4412M237.884 75.9223L250.164 70.6651M237.884 75.9223L224.992 81.4412M237.884 75.9223H289.745M199.531 70.6651H250.164M199.531 70.6651H148.897M199.531 70.6651L212.414 65.651M250.164 70.6651L261.877 65.651M250.164 70.6651H300.798M236.473 56.2877H283.748M236.473 56.2877L247.721 51.9102M236.473 56.2877H189.197M236.473 56.2877L224.715 60.8636M283.748 56.2877L293.974 51.9102M283.748 56.2877L273.059 60.8636M283.748 56.2877H331.023M247.721 51.9102H293.974M247.721 51.9102H201.469M247.721 51.9102L258.493 47.7177M293.974 51.9102L303.767 47.7177M293.974 51.9102H340.226M278.725 39.8439H322.158M278.725 39.8439L288.236 36.1421M278.725 39.8439H235.291M278.725 39.8439L268.819 43.6991M322.158 39.8439L323.259 39.373L330.805 36.1421M322.158 39.8439L313.154 43.6991M322.158 39.8439H365.593M288.236 36.1421H330.805M288.236 36.1421H245.667M288.236 36.1421L297.377 32.5848M330.805 36.1421L339.115 32.5848M330.805 36.1421H373.375M314.627 25.8712H354.797M314.627 25.8712L322.775 22.7002M314.627 25.8712H274.456M314.627 25.8712L306.167 29.1635M354.797 25.8712L362.205 22.7002M354.797 25.8712L351.948 27.0914L347.106 29.1635M354.797 25.8712H394.968M322.775 22.7002H362.205M322.775 22.7002H283.346M322.775 22.7002L330.628 19.6439M362.205 22.7002L369.343 19.6439M362.205 22.7002H401.634M345.51 13.8516H382.873M345.51 13.8516L352.568 11.1047M345.51 13.8516H308.148M345.51 13.8516L338.202 16.6963M382.873 13.8516L387.707 11.7828L388.499 11.4428L389.29 11.1047M382.873 13.8516L376.229 16.6963M382.873 13.8516H420.236M352.568 11.1047H389.29M352.568 11.1047L359.388 8.45077M352.568 11.1047H315.847M389.29 11.1047H426.011M389.29 11.1047L395.489 8.45077M51.4826 285.074H152.2M51.4826 285.074L83.1961 265.679M51.4826 285.074L16.6341 306.387M51.4826 285.074L-1.59173 285.074M152.2 285.074L179.383 265.679M152.2 285.074L122.329 306.387M152.2 285.074H252.916M83.1961 265.679H179.383M83.1961 265.679L112.18 247.953M83.1961 265.679H-1.59173M179.383 265.679L204.225 247.953M179.383 265.679H275.569M163.254 216.717H248.004M163.254 216.717L185.87 202.885M163.254 216.717H78.5046M163.254 216.717L138.771 231.691M248.004 216.717L267.389 202.885M248.004 216.717L227.018 231.691M248.004 216.717H332.753M185.87 202.885H267.389M185.87 202.885H104.352M185.87 202.885L206.826 190.07M267.389 202.885L285.351 190.07M267.389 202.885H348.907M244.435 167.069H317.587M244.435 167.069L261.374 156.709M244.435 167.069H171.282M244.435 167.069L226.296 178.162M317.587 167.069L332.106 156.709M317.587 167.069L302.04 178.162M317.587 167.069H390.739M261.374 156.709H332.106M261.374 156.709H190.641M261.374 156.709L277.227 147.014M332.106 156.709L345.695 147.014M332.106 156.709H402.838M306.072 129.372H370.419M306.072 129.372L319.231 121.325M306.072 129.372H241.726M306.072 129.372L292.097 137.919M370.419 129.372L381.698 121.325M370.419 129.372L358.44 137.919M370.419 129.372H434.766M319.231 121.325H381.698M319.231 121.325H256.764M319.231 121.325L331.643 113.734M381.698 121.325L392.336 113.734M381.698 121.325H444.165M354.465 99.7759H411.899M354.465 99.7759L364.981 93.3447M354.465 99.7759H297.032M354.465 99.7759L343.368 106.563M411.899 99.7759L420.913 93.3447M411.899 99.7759L402.387 106.563M411.899 99.7759H469.333M364.981 93.3447H420.913M364.981 93.3447H309.05M364.981 93.3447L374.961 87.2411M420.913 93.3447L429.466 87.2411M420.913 93.3447H476.844M393.469 75.9223H445.33M393.469 75.9223L402.065 70.6651M393.469 75.9223H341.607M393.469 75.9223L384.445 81.4412M445.33 75.9223L452.699 70.6651M445.33 75.9223L437.595 81.4412M445.33 75.9223H497.192M402.065 70.6651H452.699M402.065 70.6651H351.431M402.065 70.6651L410.264 65.651M452.699 70.6651L459.726 65.651M452.699 70.6651H503.332M425.573 56.2877H472.849M425.573 56.2877L432.732 51.9102M425.573 56.2877H378.298M425.573 56.2877L418.092 60.8636M472.849 56.2877L478.984 51.9102M472.849 56.2877L466.436 60.8636M472.849 56.2877H520.124M432.732 51.9102H478.984M432.732 51.9102H386.479M432.732 51.9102L439.587 47.7177M478.984 51.9102L484.86 47.7177M478.984 51.9102H525.237M452.461 39.8439H495.896M452.461 39.8439L458.514 36.1421M452.461 39.8439H409.027M452.461 39.8439L446.157 43.6991M495.896 39.8439L495.232 40.317L490.492 43.6991M495.896 39.8439L501.083 36.1421M495.896 39.8439H539.33M458.514 36.1421H501.083M458.514 36.1421H415.945M458.514 36.1421L464.331 32.5848M501.083 36.1421L506.069 32.5848M501.083 36.1421H543.653M475.308 25.8712H515.478M475.308 25.8712L480.493 22.7002M475.308 25.8712H435.138M475.308 25.8712L469.925 29.1635M515.478 25.8712L519.923 22.7002M515.478 25.8712L513.769 27.0914L512.615 27.9145L510.864 29.1635M515.478 25.8712H555.648M480.493 22.7002H519.923M480.493 22.7002H441.064M480.493 22.7002L485.49 19.6439M519.923 22.7002L521.548 21.5409L522.619 20.7768L524.207 19.6439M519.923 22.7002H559.352M494.962 13.8516H532.324M494.962 13.8516L498.345 11.7828L499.452 11.1047M494.962 13.8516H457.599M494.962 13.8516L490.9 16.3351L490.31 16.6963M532.324 13.8516L535.224 11.7828L535.7 11.4428L536.174 11.1047M532.324 13.8516L530.348 15.2612L528.337 16.6963M532.324 13.8516H569.687M499.452 11.1047H536.174M499.452 11.1047L503.793 8.45077M499.452 11.1047H462.732M536.174 11.1047H572.895M536.174 11.1047L539.894 8.45077M454.35 285.074H555.066M454.35 285.074L467.941 265.679M454.35 285.074H353.633M454.35 285.074L439.415 306.387M555.066 285.074L564.128 265.679M555.066 285.074L545.11 306.387M555.066 285.074H655.784M467.941 265.679H564.128M467.941 265.679H371.755M467.941 265.679L480.363 247.953M564.128 265.679L572.409 247.953M564.128 265.679H660.314M502.252 216.717H587.001M502.252 216.717L511.944 202.885M502.252 216.717H417.502M502.252 216.717L491.759 231.691M587.001 216.717L593.463 202.885M587.001 216.717L580.006 231.691M587.001 216.717H671.751M511.944 202.885H593.463M511.944 202.885H430.426M511.944 202.885L520.925 190.07M593.463 202.885L599.45 190.07M593.463 202.885H674.982M537.044 167.069H610.195M537.044 167.069L544.303 156.709M537.044 167.069H463.892M537.044 167.069L529.27 178.162M610.195 167.069L615.035 156.709M610.195 167.069L605.014 178.162M610.195 167.069H683.348M544.303 156.709H615.035M544.303 156.709H473.571M544.303 156.709L551.097 147.014M615.035 156.709L619.565 147.014M615.035 156.709H685.768M563.46 129.372H627.806M563.46 129.372L569.099 121.325M563.46 129.372H499.113M563.46 129.372L557.47 137.919M627.806 129.372L631.566 121.325M627.806 129.372L623.813 137.919M627.806 129.372H692.153M569.099 121.325H631.566M569.099 121.325H506.632M569.099 121.325L574.418 113.734M631.566 121.325L635.112 113.734M631.566 121.325H694.033M584.199 99.7759H641.633M584.199 99.7759L588.706 93.3447M584.199 99.7759H526.766M584.199 99.7759L579.444 106.563M641.633 99.7759L644.637 93.3447M641.633 99.7759L638.463 106.563M641.633 99.7759H699.067M588.706 93.3447H644.637M588.706 93.3447H532.775M588.706 93.3447L592.984 87.2411M644.637 93.3447L647.489 87.2411M644.637 93.3447H700.569M600.915 75.9223H652.777M600.915 75.9223L604.599 70.6651M600.915 75.9223H549.054M600.915 75.9223L597.048 81.4412M652.777 75.9223L655.233 70.6651M652.777 75.9223L650.198 81.4412M652.777 75.9223H704.639M604.599 70.6651H655.233M604.599 70.6651H553.966M604.599 70.6651L605.937 68.7573L608.113 65.651M655.233 70.6651L657.575 65.651M655.233 70.6651H705.867M614.675 56.2877H661.949M614.675 56.2877L617.742 51.9102M614.675 56.2877H567.399M614.675 56.2877L612.283 59.7005L611.468 60.8636M661.949 56.2877L662.727 54.6236L663.995 51.9102M661.949 56.2877L659.812 60.8636M661.949 56.2877H709.225M617.742 51.9102L618.116 51.3761L620.68 47.7177M617.742 51.9102H663.995M617.742 51.9102H571.489M663.995 51.9102L664.739 50.3169L664.984 49.7913L665.229 49.269L665.953 47.7177M663.995 51.9102H710.248M626.197 39.8439H669.631M626.197 39.8439L627.508 37.9743L627.831 37.5129L628.153 37.0535L628.473 36.5968L628.792 36.1421M626.197 39.8439H582.764M626.197 39.8439L623.496 43.6991M669.631 39.8439L670.935 37.0535L671.149 36.5968L671.361 36.1421M669.631 39.8439L667.831 43.6991M669.631 39.8439H713.066M628.792 36.1421H671.361M628.792 36.1421H586.222M628.792 36.1421L630.361 33.9023L630.67 33.4608L631.285 32.5848M671.361 36.1421L672.407 33.9023L672.614 33.4608L672.819 33.0216L673.023 32.5848M671.361 36.1421H713.931M635.99 25.8712H676.16M635.99 25.8712L638.212 22.7002M635.99 25.8712H595.819M635.99 25.8712L635.42 26.6825L634.557 27.9145L633.682 29.1635M676.16 25.8712L675.97 26.2759L674.816 28.7451L674.621 29.1635M676.16 25.8712L677.641 22.7002M676.16 25.8712H716.33M638.212 22.7002H677.641M638.212 22.7002H598.782M638.212 22.7002L640.353 19.6439M677.641 22.7002L678.183 21.5409L678.361 21.1579L678.54 20.7768L679.069 19.6439M677.641 22.7002H717.071M644.412 13.8516H681.774M644.412 13.8516L645.862 11.7828L646.337 11.1047M644.412 13.8516H607.049M644.412 13.8516L643.672 14.9066L643.424 15.2612L643.174 15.6177L642.418 16.6963M681.774 13.8516L681.938 13.5031L682.261 12.8104L682.582 12.1237L683.058 11.1047M681.774 13.8516L681.116 15.2612L680.95 15.6177L680.614 16.3351L680.446 16.6963M681.774 13.8516H719.137M646.337 11.1047H683.058M646.337 11.1047L647.967 8.77756L648.197 8.45077M646.337 11.1047H609.616M683.058 11.1047L683.216 10.768L683.372 10.4327L683.528 10.0988L683.683 9.76639L684.145 8.77756L684.298 8.45077M683.058 11.1047H719.779M857.216 285.074H957.934M857.216 285.074L852.686 265.679M857.216 285.074H756.5M857.216 285.074L862.195 306.387M957.934 285.074L948.873 265.679M957.934 285.074L967.89 306.387M957.934 285.074H1058.65M852.686 265.679H948.873M852.686 265.679H756.5M852.686 265.679L848.546 247.953M948.873 265.679L940.592 247.953M948.873 265.679H1045.06M841.249 216.717H925.999M841.249 216.717L838.019 202.885M841.249 216.717H756.5M841.249 216.717L844.747 231.691M925.999 216.717L919.537 202.885M925.999 216.717L932.994 231.691M925.999 216.717H1010.75M838.019 202.885H919.537M838.019 202.885H756.5M838.019 202.885L835.025 190.07M919.537 202.885L913.55 190.07M919.537 202.885H1001.06M829.652 167.069H902.805M829.652 167.069L827.232 156.709M829.652 167.069H756.5M829.652 167.069L832.244 178.162M902.805 167.069L897.965 156.709M902.805 167.069L907.986 178.162M902.805 167.069H975.957M827.232 156.709H897.965M827.232 156.709H756.5M827.232 156.709L824.968 147.014M897.965 156.709L893.435 147.014M897.965 156.709H968.697M820.847 129.372H885.194M820.847 129.372L818.967 121.325M820.847 129.372H756.5M820.847 129.372L822.843 137.919M885.194 129.372L881.434 121.325M885.194 129.372L889.187 137.919M885.194 129.372H949.54M818.967 121.325H881.434M818.967 121.325H756.5M818.967 121.325L817.194 113.734M881.434 121.325L877.888 113.734M881.434 121.325H943.901M813.933 99.7759H871.367M813.933 99.7759L812.431 93.3447M813.933 99.7759H756.5M813.933 99.7759L815.519 106.563M871.367 99.7759L868.363 93.3447M871.367 99.7759L874.537 106.563M871.367 99.7759H928.801M812.431 93.3447H868.363M812.431 93.3447H756.5M812.431 93.3447L811.005 87.2411M868.363 93.3447L865.511 87.2411M868.363 93.3447H924.294M808.361 75.9223H860.224M808.361 75.9223L807.133 70.6651M808.361 75.9223H756.5M808.361 75.9223L809.651 81.4412M860.224 75.9223L857.767 70.6651M860.224 75.9223L862.802 81.4412M860.224 75.9223H912.085M807.133 70.6651H857.767M807.133 70.6651H756.5M807.133 70.6651L805.962 65.651M857.767 70.6651L855.425 65.651M857.767 70.6651H908.401M803.775 56.2877H851.051M803.775 56.2877L802.752 51.9102M803.775 56.2877H756.5M803.775 56.2877L804.844 60.8636M851.051 56.2877L849.256 52.4471L849.005 51.9102M851.051 56.2877L853.188 60.8636M851.051 56.2877H898.326M802.752 51.9102L802.628 51.3761L801.773 47.7177M802.752 51.9102H849.005M802.752 51.9102H756.5M849.005 51.9102L848.261 50.3169L848.016 49.7913L847.771 49.269L847.047 47.7177M849.005 51.9102H895.258M799.934 39.8439H843.369M799.934 39.8439L799.069 36.1421M799.934 39.8439H756.5M799.934 39.8439L800.267 41.2709L800.38 41.7516L800.492 42.2347L800.72 43.2085L800.835 43.6991M843.369 39.8439L842.065 37.0535L841.638 36.1421M843.369 39.8439L845.169 43.6991M843.369 39.8439H886.803M799.069 36.1421H841.638M799.069 36.1421H756.5M799.069 36.1421L798.239 32.5848M841.638 36.1421L840.593 33.9023L840.386 33.4608L840.181 33.0216L839.977 32.5848M841.638 36.1421H884.209M796.67 25.8712H836.84M796.67 25.8712L795.93 22.7002M796.67 25.8712H756.5M796.67 25.8712L797.439 29.1635M836.84 25.8712L837.03 26.2759L838.184 28.7451L838.379 29.1635M836.84 25.8712L835.359 22.7002M836.84 25.8712H877.011M795.93 22.7002H835.359M795.93 22.7002H756.5M795.93 22.7002L795.216 19.6439M835.359 22.7002L834.817 21.5409L834.639 21.1579L834.46 20.7768L833.931 19.6439M835.359 22.7002H874.788M793.863 13.8516H831.226M793.863 13.8516L793.221 11.1047M793.863 13.8516H756.5M793.863 13.8516L794.527 16.6963M831.226 13.8516L831.062 13.5031L830.739 12.8104L830.578 12.4661L830.258 11.7828L830.1 11.4428L829.942 11.1047M831.226 13.8516L831.884 15.2612L832.05 15.6177L832.386 16.3351L832.554 16.6963M831.226 13.8516H868.588M793.221 11.1047L793.143 10.768L793.064 10.4327L792.986 10.0988L792.601 8.45077M793.221 11.1047H829.942M793.221 11.1047H756.5M829.942 11.1047H866.663M829.942 11.1047L829.628 10.4327L829.472 10.0988L829.317 9.76639L828.855 8.77756L828.702 8.45077M1260.08 285.074H1360.8M1260.08 285.074L1237.43 265.679M1260.08 285.074H1159.37M1260.08 285.074L1284.98 306.387M1360.8 285.074L1333.62 265.679M1360.8 285.074L1390.67 306.387M1360.8 285.074H1461.52M1237.43 265.679H1333.62M1237.43 265.679H1141.25M1237.43 265.679L1216.73 247.953M1333.62 265.679L1308.77 247.953M1333.62 265.679H1429.8M1180.25 216.717H1265M1180.25 216.717L1164.09 202.885M1180.25 216.717H1095.5M1180.25 216.717L1197.74 231.691M1265 216.717L1245.61 202.885M1265 216.717L1285.98 231.691M1265 216.717H1349.75M1164.09 202.885H1245.61M1164.09 202.885H1082.57M1164.09 202.885L1149.12 190.07M1245.61 202.885L1227.65 190.07M1245.61 202.885H1327.13M1122.26 167.069H1195.41M1122.26 167.069L1110.16 156.709M1122.26 167.069H1049.11M1122.26 167.069L1135.22 178.162M1195.41 167.069L1180.89 156.709M1195.41 167.069L1210.96 178.162M1195.41 167.069H1268.56M1110.16 156.709H1180.89M1110.16 156.709H1039.43M1110.16 156.709L1098.84 147.014M1180.89 156.709L1167.31 147.014M1180.89 156.709H1251.63M1078.23 129.372H1142.58M1078.23 129.372L1068.84 121.325M1078.23 129.372H1013.89M1078.23 129.372L1088.22 137.919M1142.58 129.372L1131.3 121.325M1142.58 129.372L1154.56 137.919M1142.58 129.372H1206.93M1068.84 121.325H1131.3M1068.84 121.325H1006.37M1068.84 121.325L1059.97 113.734M1131.3 121.325L1120.66 113.734M1131.3 121.325H1193.77M1043.67 99.7759H1101.1M1043.67 99.7759L1036.16 93.3447M1043.67 99.7759H986.234M1043.67 99.7759L1051.59 106.563M1101.1 99.7759L1092.09 93.3447M1101.1 99.7759L1110.61 106.563M1101.1 99.7759H1158.54M1036.16 93.3447H1092.09M1036.16 93.3447H980.225M1036.16 93.3447L1029.03 87.2411M1092.09 93.3447L1083.53 87.2411M1092.09 93.3447H1148.02M1015.81 75.9223H1067.67M1015.81 75.9223L1009.67 70.6651M1015.81 75.9223H963.946M1015.81 75.9223L1022.25 81.4412M1067.67 75.9223L1060.3 70.6651M1067.67 75.9223L1075.4 81.4412M1067.67 75.9223H1119.53M1009.67 70.6651H1060.3M1009.67 70.6651H959.035M1009.67 70.6651L1003.81 65.651M1060.3 70.6651L1053.27 65.651M1060.3 70.6651H1110.93M992.876 56.2877L993.531 56.8487L994.19 57.4125L998.22 60.8636M992.876 56.2877H1040.15M992.876 56.2877L987.763 51.9102M992.876 56.2877H945.601M1040.15 56.2877L1034.02 51.9102M1040.15 56.2877L1046.56 60.8636M1040.15 56.2877H1087.43M987.763 51.9102H1034.02M987.763 51.9102H941.511M987.763 51.9102L982.867 47.7177M1034.02 51.9102L1028.14 47.7177M1034.02 51.9102H1080.27M973.67 39.8439H1017.11M973.67 39.8439L969.347 36.1421M973.67 39.8439H930.237M973.67 39.8439L978.173 43.6991M1017.11 39.8439L1013.84 37.5129L1011.92 36.1421M1017.11 39.8439L1022.51 43.6991M1017.11 39.8439H1060.54M969.347 36.1421H1011.92M969.347 36.1421H926.778M969.347 36.1421L965.703 33.0216L965.192 32.5848M1011.92 36.1421L1006.93 32.5848M1011.92 36.1421H1054.49M957.352 25.8712H997.522M957.352 25.8712L956.413 25.067L953.648 22.7002M957.352 25.8712H917.182M957.352 25.8712L958.299 26.6825L960.222 28.3286L961.197 29.1635M997.522 25.8712L993.078 22.7002M997.522 25.8712L999.232 27.0914L1000.39 27.9145L1002.14 29.1635M997.522 25.8712H1037.69M953.648 22.7002H993.078M953.648 22.7002H914.218M953.648 22.7002L950.958 20.3971L950.078 19.6439M993.078 22.7002L991.452 21.5409L990.382 20.7768L988.794 19.6439M993.078 22.7002H1032.51M943.314 13.8516H980.676M943.314 13.8516L941.295 12.1237L940.105 11.1047M943.314 13.8516H905.951M943.314 13.8516L946.636 16.6963M980.676 13.8516L977.776 11.7828L977.301 11.4428L976.826 11.1047M980.676 13.8516L982.652 15.2612L984.663 16.6963M980.676 13.8516H1018.04M940.105 11.1047H976.826M940.105 11.1047L938.542 9.76639L937.771 9.10574L937.387 8.77756L937.006 8.45077M940.105 11.1047H903.384M976.826 11.1047H1013.55M976.826 11.1047L973.107 8.45077M1490.17 202.885H1408.65M1490.17 202.885L1463.22 190.07M1490.17 202.885H1514.59M1490.17 202.885L1514.59 214.504M1414.87 167.069H1488.02M1414.87 167.069L1393.09 156.709M1414.87 167.069H1341.72M1414.87 167.069L1438.19 178.162M1488.02 167.069L1463.82 156.709M1488.02 167.069L1513.93 178.162M1488.02 167.069H1514.59M1393.09 156.709H1463.82M1393.09 156.709H1322.36M1393.09 156.709L1372.71 147.014M1463.82 156.709L1441.18 147.014M1463.82 156.709H1514.59M1335.62 129.372H1399.97M1335.62 129.372L1318.7 121.325M1335.62 129.372H1271.27M1335.62 129.372L1353.59 137.919M1399.97 129.372L1381.17 121.325M1399.97 129.372L1419.93 137.919M1399.97 129.372H1464.32M1318.7 121.325H1381.17M1318.7 121.325H1256.24M1318.7 121.325L1302.75 113.734M1381.17 121.325L1363.44 113.734M1381.17 121.325H1443.64M1273.4 99.7759H1330.84M1273.4 99.7759L1259.88 93.3447M1273.4 99.7759H1215.97M1273.4 99.7759L1287.67 106.563M1330.84 99.7759L1315.81 93.3447M1330.84 99.7759L1346.69 106.563M1330.84 99.7759H1388.27M1259.88 93.3447H1315.81M1259.88 93.3447H1203.95M1259.88 93.3447L1247.05 87.2411M1315.81 93.3447L1301.56 87.2411M1315.81 93.3447H1371.74M1223.25 75.9223H1275.12M1223.25 75.9223L1212.2 70.6651M1223.25 75.9223H1171.39M1223.25 75.9223L1234.86 81.4412M1275.12 75.9223L1262.84 70.6651M1275.12 75.9223L1288.01 81.4412M1275.12 75.9223H1326.98M1212.2 70.6651H1262.84M1212.2 70.6651H1161.57M1212.2 70.6651L1201.66 65.651M1262.84 70.6651L1251.12 65.651M1262.84 70.6651H1313.47M1181.98 56.2877H1229.25M1181.98 56.2877L1172.77 51.9102M1181.98 56.2877H1134.7M1181.98 56.2877L1191.6 60.8636M1229.25 56.2877L1219.03 51.9102M1229.25 56.2877L1239.94 60.8636M1229.25 56.2877H1276.53M1172.77 51.9102H1219.03M1172.77 51.9102H1126.52M1172.77 51.9102L1163.96 47.7177M1219.03 51.9102L1209.23 47.7177M1219.03 51.9102H1265.28M1147.41 39.8439H1190.84M1147.41 39.8439L1139.62 36.1421M1147.41 39.8439H1103.97M1147.41 39.8439L1155.51 43.6991M1190.84 39.8439L1182.19 36.1421M1190.84 39.8439L1199.85 43.6991M1190.84 39.8439H1234.28M1139.62 36.1421H1182.19M1139.62 36.1421H1097.06M1139.62 36.1421L1132.15 32.5848M1182.19 36.1421L1173.88 32.5848M1182.19 36.1421H1224.76M1118.03 25.8712H1158.2M1118.03 25.8712L1111.37 22.7002M1118.03 25.8712H1077.86M1118.03 25.8712L1119.74 26.6825L1120.6 27.0914L1124.95 29.1635M1158.2 25.8712L1150.8 22.7002M1158.2 25.8712L1165.89 29.1635M1158.2 25.8712H1198.37M1111.37 22.7002H1150.8M1111.37 22.7002H1071.94M1111.37 22.7002L1104.94 19.6439M1150.8 22.7002L1143.66 19.6439M1150.8 22.7002H1190.22M1092.76 13.8516H1130.13M1092.76 13.8516L1086.99 11.1047M1092.76 13.8516H1055.4M1092.76 13.8516L1098.74 16.6963M1130.13 13.8516L1125.29 11.7828L1124.5 11.4428L1123.71 11.1047M1130.13 13.8516L1136.77 16.6963M1130.13 13.8516H1167.49M1086.99 11.1047H1123.71M1086.99 11.1047L1082.1 8.77756L1081.41 8.45077M1086.99 11.1047H1050.27M1123.71 11.1047H1160.43M1123.71 11.1047L1117.51 8.45077M1503.14 99.7759L1483.61 93.3447M1503.14 99.7759H1445.7M1503.14 99.7759L1514.59 103.549M1503.14 99.7759H1514.59M1483.61 93.3447H1427.67M1483.61 93.3447L1465.07 87.2411M1483.61 93.3447H1514.59M1430.7 75.9223H1482.56M1430.7 75.9223L1414.74 70.6651M1430.7 75.9223H1378.84M1430.7 75.9223L1447.46 81.4412M1482.56 75.9223L1465.37 70.6651M1482.56 75.9223L1500.61 81.4412M1482.56 75.9223H1514.59M1414.74 70.6651H1465.37M1414.74 70.6651H1364.1M1414.74 70.6651L1399.51 65.651M1465.37 70.6651L1448.97 65.651M1465.37 70.6651H1514.59M1371.08 56.2877H1418.35M1371.08 56.2877L1357.78 51.9102M1371.08 56.2877H1323.8M1371.08 56.2877L1384.97 60.8636M1418.35 56.2877L1404.04 51.9102M1418.35 56.2877L1433.32 60.8636M1418.35 56.2877H1465.63M1357.78 51.9102H1404.04M1357.78 51.9102H1311.53M1357.78 51.9102L1345.05 47.7177M1404.04 51.9102L1390.33 47.7177M1404.04 51.9102H1450.29M1321.14 39.8439H1364.58M1321.14 39.8439L1309.9 36.1421M1321.14 39.8439H1277.71M1321.14 39.8439L1332.85 43.6991M1364.58 39.8439L1352.47 36.1421M1364.58 39.8439L1377.19 43.6991M1364.58 39.8439H1408.01M1309.9 36.1421H1352.47M1309.9 36.1421H1267.33M1309.9 36.1421L1299.1 32.5848M1352.47 36.1421L1340.84 32.5848M1352.47 36.1421H1395.04M1278.71 25.8712H1318.88M1278.71 25.8712L1269.08 22.7002M1278.71 25.8712H1238.54M1278.71 25.8712L1288.71 29.1635M1318.88 25.8712L1308.51 22.7002M1318.88 25.8712L1329.65 29.1635M1318.88 25.8712H1359.05M1269.08 22.7002H1308.51M1269.08 22.7002H1229.65M1269.08 22.7002L1259.8 19.6439M1308.51 22.7002L1298.52 19.6439M1308.51 22.7002H1347.94M1242.21 13.8516H1279.58M1242.21 13.8516L1233.87 11.1047M1242.21 13.8516H1204.85M1242.21 13.8516L1250.85 16.6963M1279.58 13.8516L1270.59 11.1047M1279.58 13.8516L1288.88 16.6963M1279.58 13.8516H1316.94M1233.87 11.1047H1270.59M1233.87 11.1047L1225.81 8.45077M1233.87 11.1047H1197.15M1270.59 11.1047H1307.32M1270.59 11.1047L1261.92 8.45077M1494.88 39.8439L1480.18 36.1421M1494.88 39.8439H1451.45M1494.88 39.8439L1510.19 43.6991M1494.88 39.8439H1514.59M1480.18 36.1421H1437.61M1480.18 36.1421L1466.05 32.5848M1480.18 36.1421H1514.59M1439.39 25.8712H1479.56M1439.39 25.8712L1426.8 22.7002M1439.39 25.8712H1399.22M1439.39 25.8712L1452.47 29.1635M1479.56 25.8712L1466.23 22.7002M1479.56 25.8712L1493.41 29.1635M1479.56 25.8712H1514.59M1426.8 22.7002H1466.23M1426.8 22.7002H1387.37M1426.8 22.7002L1414.67 19.6439M1466.23 22.7002L1453.38 19.6439M1466.23 22.7002H1505.66M1391.67 13.8516H1429.03M1391.67 13.8516L1380.76 11.1047M1391.67 13.8516H1354.3M1391.67 13.8516L1402.96 16.6963M1429.03 13.8516L1417.48 11.1047M1429.03 13.8516L1440.99 16.6963M1429.03 13.8516H1466.39M1380.76 11.1047H1417.48M1380.76 11.1047L1370.22 8.45077M1380.76 11.1047H1344.04M1417.48 11.1047H1454.2M1417.48 11.1047L1406.32 8.45077M1440.99 16.6963L1453.38 19.6439M1440.99 16.6963H1479.02M1440.99 16.6963H1402.96M1466.39 13.8516L1454.2 11.1047M1466.39 13.8516L1479.02 16.6963M1466.39 13.8516H1503.75M1454.2 11.1047H1490.92M1454.2 11.1047L1442.42 8.45077M1406.32 8.45077H1370.22M1406.32 8.45077H1442.42M1406.32 8.45077L1395.53 5.8847M1479.02 16.6963L1492.1 19.6439M1479.02 16.6963H1514.59M1503.75 13.8516L1490.92 11.1047M1503.75 13.8516L1514.59 16.1714M1503.75 13.8516H1514.59M1490.92 11.1047L1478.52 8.45077M1490.92 11.1047H1514.59M1442.42 8.45077H1478.52M1442.42 8.45077L1431.03 5.8847M1478.52 8.45077L1466.53 5.8847M1478.52 8.45077H1514.59M1453.38 19.6439H1492.1M1453.38 19.6439H1414.67M1505.66 22.7002L1492.1 19.6439M1505.66 22.7002L1514.59 24.7119M1505.66 22.7002H1514.59M1492.1 19.6439H1514.59M1414.67 19.6439H1375.95M1414.67 19.6439L1402.96 16.6963M1402.96 16.6963H1364.93M1493.41 29.1635L1507.79 32.5848M1493.41 29.1635H1452.47M1493.41 29.1635H1514.59M1514.71 25.8712H1514.59M1507.79 32.5848H1466.05M1507.79 32.5848L1514.59 34.2017M1507.79 32.5848H1514.59M1466.05 32.5848H1424.32M1466.05 32.5848L1452.47 29.1635M1452.47 29.1635H1411.53M1288.88 16.6963L1298.52 19.6439M1288.88 16.6963H1326.91M1288.88 16.6963H1250.85M1316.94 13.8516L1307.32 11.1047M1316.94 13.8516L1326.91 16.6963M1316.94 13.8516H1354.3M1307.32 11.1047H1344.04M1307.32 11.1047L1298.02 8.45077M1261.92 8.45077H1298.02M1261.92 8.45077L1253.52 5.8847M1261.92 8.45077H1225.81M1326.91 16.6963L1337.23 19.6439M1326.91 16.6963H1364.93M1354.3 13.8516L1344.04 11.1047M1354.3 13.8516L1364.93 16.6963M1344.04 11.1047L1334.12 8.45077M1298.02 8.45077H1334.12M1298.02 8.45077L1289.03 5.8847M1364.93 16.6963L1375.95 19.6439M1370.22 8.45077H1334.12M1370.22 8.45077L1360.03 5.8847M1334.12 8.45077L1324.53 5.8847M1298.52 19.6439H1337.23M1298.52 19.6439H1259.8M1347.94 22.7002L1337.23 19.6439M1347.94 22.7002L1359.05 25.8712M1347.94 22.7002H1387.37M1337.23 19.6439H1375.95M1259.8 19.6439H1221.09M1259.8 19.6439L1250.85 16.6963M1375.95 19.6439L1387.37 22.7002M1250.85 16.6963H1212.83M1359.05 25.8712L1370.59 29.1635M1359.05 25.8712H1399.22M1387.37 22.7002L1399.22 25.8712M1399.22 25.8712L1411.53 29.1635M1329.65 29.1635L1340.84 32.5848M1329.65 29.1635H1370.59M1329.65 29.1635H1288.71M1370.59 29.1635L1382.58 32.5848M1370.59 29.1635H1411.53M1411.53 29.1635L1424.32 32.5848M1340.84 32.5848H1382.58M1340.84 32.5848H1299.1M1395.04 36.1421L1382.58 32.5848M1395.04 36.1421L1408.01 39.8439M1395.04 36.1421H1437.61M1382.58 32.5848H1424.32M1299.1 32.5848H1257.36M1299.1 32.5848L1288.71 29.1635M1424.32 32.5848L1437.61 36.1421M1288.71 29.1635H1247.77M1408.01 39.8439L1421.52 43.6991M1408.01 39.8439H1451.45M1437.61 36.1421L1451.45 39.8439M1451.45 39.8439L1465.85 43.6991M1377.19 43.6991L1390.33 47.7177M1377.19 43.6991H1421.52M1377.19 43.6991H1332.85M1421.52 43.6991L1435.6 47.7177M1421.52 43.6991H1465.85M1465.85 43.6991L1480.87 47.7177M1465.85 43.6991H1510.19M1510.19 43.6991H1514.59M1510.19 43.6991L1514.59 44.8076M1390.33 47.7177H1435.6M1390.33 47.7177H1345.05M1450.29 51.9102L1435.6 47.7177M1450.29 51.9102L1465.63 56.2877M1450.29 51.9102H1496.54M1435.6 47.7177H1480.87M1345.05 47.7177H1299.78M1345.05 47.7177L1332.85 43.6991M1480.87 47.7177L1496.54 51.9102M1480.87 47.7177H1514.59M1332.85 43.6991H1288.52M1465.63 56.2877L1481.66 60.8636M1465.63 56.2877H1512.9M1496.54 51.9102L1512.9 56.2877M1496.54 51.9102H1514.59M1514.83 47.7177H1514.59M1512.9 56.2877L1514.59 56.7395M1512.9 56.2877H1514.59M1433.32 60.8636L1448.97 65.651M1433.32 60.8636H1481.66M1433.32 60.8636H1384.97M1481.66 60.8636L1498.43 65.651M1481.66 60.8636H1514.59M1515 56.8487L1514.59 56.7395M1448.97 65.651H1498.43M1448.97 65.651H1399.51M1498.43 65.651H1514.59M1498.43 65.651L1514.59 70.2621M1399.51 65.651H1350.05M1399.51 65.651L1384.97 60.8636M1384.97 60.8636H1336.63M1500.61 81.4412H1447.46M1500.61 81.4412L1514.59 85.7165M1500.61 81.4412H1514.59M1514.98 75.9223H1514.59M1447.46 81.4412H1394.31M1447.46 81.4412L1465.07 87.2411M1514.75 85.7635L1514.59 85.7165M1136.77 16.6963L1143.66 19.6439M1136.77 16.6963H1174.8M1136.77 16.6963H1098.74M1167.49 13.8516L1160.43 11.1047M1167.49 13.8516L1174.8 16.6963M1167.49 13.8516H1204.85M1160.43 11.1047H1197.15M1160.43 11.1047L1153.61 8.45077M1117.51 8.45077H1153.61M1117.51 8.45077L1115.24 7.47846L1111.52 5.8847M1117.51 8.45077H1081.41M1174.8 16.6963L1182.37 19.6439M1174.8 16.6963H1212.83M1204.85 13.8516L1197.15 11.1047M1204.85 13.8516L1212.83 16.6963M1197.15 11.1047L1189.71 8.45077M1153.61 8.45077H1189.71M1153.61 8.45077L1147.02 5.8847M1212.83 16.6963L1221.09 19.6439M1225.81 8.45077L1218.02 5.8847M1225.81 8.45077H1189.71M1189.71 8.45077L1188.8 8.12493L1186.99 7.47846L1182.52 5.8847M1143.66 19.6439H1182.37M1143.66 19.6439H1104.94M1190.22 22.7002L1182.37 19.6439M1190.22 22.7002L1198.37 25.8712M1190.22 22.7002H1229.65M1182.37 19.6439H1221.09M1104.94 19.6439H1066.23M1104.94 19.6439L1098.74 16.6963M1221.09 19.6439L1229.65 22.7002M1098.74 16.6963H1060.72M1198.37 25.8712L1206.83 29.1635M1198.37 25.8712H1238.54M1229.65 22.7002L1230.75 23.0898L1238.54 25.8712M1238.54 25.8712L1247.77 29.1635M1165.89 29.1635L1166.88 29.5843L1173.88 32.5848M1165.89 29.1635H1206.83M1165.89 29.1635H1124.95M1206.83 29.1635L1215.62 32.5848M1206.83 29.1635H1247.77M1247.77 29.1635L1257.36 32.5848M1173.88 32.5848H1215.62M1173.88 32.5848H1132.15M1224.76 36.1421L1215.62 32.5848M1224.76 36.1421L1234.28 39.8439M1224.76 36.1421H1267.33M1215.62 32.5848H1257.36M1132.15 32.5848H1090.41M1132.15 32.5848L1124.95 29.1635M1257.36 32.5848L1267.33 36.1421M1124.95 29.1635H1084.02M1234.28 39.8439L1244.18 43.6991M1234.28 39.8439H1277.71M1267.33 36.1421L1277.71 39.8439M1277.71 39.8439L1288.52 43.6991M1199.85 43.6991L1209.23 47.7177M1199.85 43.6991H1244.18M1199.85 43.6991H1155.51M1244.18 43.6991L1254.51 47.7177M1244.18 43.6991H1288.52M1288.52 43.6991L1299.78 47.7177M1209.23 47.7177H1254.51M1209.23 47.7177H1163.96M1265.28 51.9102L1254.51 47.7177M1265.28 51.9102L1276.53 56.2877M1265.28 51.9102H1311.53M1254.51 47.7177H1299.78M1163.96 47.7177H1118.69M1163.96 47.7177L1155.51 43.6991M1299.78 47.7177L1311.53 51.9102M1155.51 43.6991H1111.18M1276.53 56.2877L1288.28 60.8636M1276.53 56.2877H1323.8M1311.53 51.9102L1323.8 56.2877M1323.8 56.2877L1336.63 60.8636M1239.94 60.8636L1251.12 65.651M1239.94 60.8636H1288.28M1239.94 60.8636H1191.6M1288.28 60.8636L1300.59 65.651M1288.28 60.8636H1336.63M1336.63 60.8636L1350.05 65.651M1251.12 65.651H1300.59M1251.12 65.651H1201.66M1313.47 70.6651L1300.59 65.651M1313.47 70.6651L1326.98 75.9223M1313.47 70.6651H1364.1M1300.59 65.651H1350.05M1201.66 65.651H1152.2M1201.66 65.651L1191.6 60.8636M1350.05 65.651L1364.1 70.6651M1191.6 60.8636H1143.25M1326.98 75.9223L1341.16 81.4412M1326.98 75.9223H1378.84M1364.1 70.6651L1378.84 75.9223M1378.84 75.9223L1394.31 81.4412M1288.01 81.4412L1301.56 87.2411M1288.01 81.4412H1341.16M1288.01 81.4412H1234.86M1341.16 81.4412L1356.06 87.2411M1341.16 81.4412H1394.31M1394.31 81.4412L1410.57 87.2411M1301.56 87.2411H1356.06M1301.56 87.2411H1247.05M1371.74 93.3447L1356.06 87.2411M1371.74 93.3447L1388.27 99.7759M1371.74 93.3447H1427.67M1356.06 87.2411H1410.57M1247.05 87.2411H1192.54M1247.05 87.2411L1234.86 81.4412M1410.57 87.2411L1427.67 93.3447M1410.57 87.2411H1465.07M1234.86 81.4412H1181.71M1388.27 99.7759L1405.71 106.563M1388.27 99.7759H1445.7M1427.67 93.3447L1445.7 99.7759M1465.07 87.2411H1514.59M1445.7 99.7759L1464.73 106.563M1346.69 106.563L1363.44 113.734M1346.69 106.563H1405.71M1346.69 106.563H1287.67M1405.71 106.563L1424.13 113.734M1405.71 106.563H1464.73M1464.73 106.563L1484.83 113.734M1464.73 106.563H1514.59M1363.44 113.734H1424.13M1363.44 113.734H1302.75M1443.64 121.325L1424.13 113.734M1443.64 121.325L1464.32 129.372M1443.64 121.325H1506.1M1424.13 113.734H1484.83M1302.75 113.734H1242.05M1302.75 113.734L1287.67 106.563M1484.83 113.734L1506.1 121.325M1484.83 113.734H1514.59M1287.67 106.563H1228.65M1464.32 129.372L1486.28 137.919M1464.32 129.372H1514.59M1506.1 121.325H1514.59M1506.1 121.325L1514.59 124.353M1419.93 137.919L1441.18 147.014M1419.93 137.919H1486.28M1419.93 137.919H1353.59M1486.28 137.919L1509.64 147.014M1486.28 137.919H1514.59M1441.18 147.014H1509.64M1441.18 147.014H1372.71M1509.64 147.014L1514.59 148.939M1509.64 147.014H1514.59M1372.71 147.014H1304.24M1372.71 147.014L1353.59 137.919M1353.59 137.919H1287.25M1513.93 178.162H1438.19M1513.93 178.162H1514.59M1513.93 178.162L1514.59 178.443M1438.19 178.162H1362.45M1438.19 178.162L1463.22 190.07M984.663 16.6963L986.195 17.789L986.71 18.1569L988.794 19.6439M984.663 16.6963H1022.69M984.663 16.6963H946.636M1018.04 13.8516L1014.66 11.7828L1013.55 11.1047M1018.04 13.8516L1022.1 16.3351L1022.69 16.6963M1018.04 13.8516H1055.4M1013.55 11.1047H1050.27M1013.55 11.1047L1009.21 8.45077M973.107 8.45077H1009.21M973.107 8.45077L971.744 7.47846L969.51 5.8847M973.107 8.45077H937.006M1022.69 16.6963L1023.88 17.4231L1027.51 19.6439M1022.69 16.6963H1060.72M1055.4 13.8516L1050.27 11.1047M1055.4 13.8516L1060.72 16.6963M1050.27 11.1047L1046.53 9.10574L1045.31 8.45077M1009.21 8.45077H1045.31M1009.21 8.45077L1005.01 5.8847M1060.72 16.6963L1066.23 19.6439M1081.41 8.45077L1080.73 8.12493L1076.02 5.8847M1081.41 8.45077H1045.31M1045.31 8.45077L1043.49 7.47846L1040.51 5.8847M988.794 19.6439H1027.51M988.794 19.6439H950.078M1032.51 22.7002L1027.51 19.6439M1032.51 22.7002L1037.69 25.8712M1032.51 22.7002H1071.94M1027.51 19.6439H1066.23M950.078 19.6439H911.362M950.078 19.6439L946.636 16.6963M1066.23 19.6439L1071.94 22.7002M946.636 16.6963H908.609M1037.69 25.8712L1041.03 27.9145L1041.71 28.3286L1043.08 29.1635M1037.69 25.8712H1077.86M1071.94 22.7002L1077.86 25.8712M1077.86 25.8712L1084.02 29.1635M1002.14 29.1635L1006.93 32.5848M1002.14 29.1635H1043.08M1002.14 29.1635H961.197M1043.08 29.1635L1048.67 32.5848M1043.08 29.1635H1084.02M1084.02 29.1635L1090.41 32.5848M1006.93 32.5848H1048.67M1006.93 32.5848H965.192M1054.49 36.1421L1050.82 33.9023L1050.1 33.4608L1048.67 32.5848M1054.49 36.1421L1060.54 39.8439M1054.49 36.1421H1097.06M1048.67 32.5848H1090.41M965.192 32.5848H923.454M965.192 32.5848L961.197 29.1635M1090.41 32.5848L1097.06 36.1421M961.197 29.1635H920.257M1060.54 39.8439L1066.84 43.6991M1060.54 39.8439H1103.97M1097.06 36.1421L1103.97 39.8439M1103.97 39.8439L1111.18 43.6991M1022.51 43.6991L1025.29 45.6872L1026 46.191L1028.14 47.7177M1022.51 43.6991H1066.84M1022.51 43.6991H978.173M1066.84 43.6991L1073.41 47.7177M1066.84 43.6991H1111.18M1111.18 43.6991L1118.69 47.7177M1028.14 47.7177H1073.41M1028.14 47.7177H982.867M1080.27 51.9102L1073.41 47.7177M1080.27 51.9102L1087.43 56.2877M1080.27 51.9102H1126.52M1073.41 47.7177H1118.69M982.867 47.7177H937.593M982.867 47.7177L981.675 46.6973L978.173 43.6991M1118.69 47.7177L1126.52 51.9102M978.173 43.6991H933.839M1087.43 56.2877L1094.91 60.8636M1087.43 56.2877H1134.7M1126.52 51.9102L1134.7 56.2877M1134.7 56.2877L1143.25 60.8636M1046.56 60.8636L1053.27 65.651M1046.56 60.8636H1094.91M1046.56 60.8636H998.22M1094.91 60.8636L1102.74 65.651M1094.91 60.8636H1143.25M1143.25 60.8636L1152.2 65.651M1053.27 65.651H1102.74M1053.27 65.651H1003.81M1110.93 70.6651L1102.74 65.651M1110.93 70.6651L1119.53 75.9223M1110.93 70.6651H1161.57M1102.74 65.651H1152.2M1003.81 65.651H954.349M1003.81 65.651L998.22 60.8636M1152.2 65.651L1161.57 70.6651M998.22 60.8636H949.877M1119.53 75.9223L1128.55 81.4412M1119.53 75.9223H1171.39M1161.57 70.6651L1171.39 75.9223M1171.39 75.9223L1181.71 81.4412M1075.4 81.4412L1083.53 87.2411M1075.4 81.4412H1128.55M1075.4 81.4412H1022.25M1128.55 81.4412L1138.04 87.2411M1128.55 81.4412H1181.71M1181.71 81.4412L1192.54 87.2411M1083.53 87.2411H1138.04M1083.53 87.2411H1029.03M1148.02 93.3447L1138.04 87.2411M1148.02 93.3447L1158.54 99.7759M1148.02 93.3447H1203.95M1138.04 87.2411H1192.54M1029.03 87.2411H974.522M1029.03 87.2411L1022.25 81.4412M1192.54 87.2411L1203.95 93.3447M1022.25 81.4412H969.103M1158.54 99.7759L1169.63 106.563M1158.54 99.7759H1215.97M1203.95 93.3447L1215.97 99.7759M1215.97 99.7759L1228.65 106.563M1110.61 106.563L1120.66 113.734M1110.61 106.563H1169.63M1110.61 106.563H1051.59M1169.63 106.563L1181.36 113.734M1169.63 106.563H1228.65M1228.65 106.563L1242.05 113.734M1120.66 113.734H1181.36M1120.66 113.734H1059.97M1193.77 121.325L1181.36 113.734M1193.77 121.325L1206.93 129.372M1193.77 121.325H1256.24M1181.36 113.734H1242.05M1059.97 113.734H999.276M1059.97 113.734L1051.59 106.563M1242.05 113.734L1256.24 121.325M1051.59 106.563H992.575M1206.93 129.372L1220.9 137.919M1206.93 129.372H1271.27M1256.24 121.325L1271.27 129.372M1271.27 129.372L1287.25 137.919M1154.56 137.919L1167.31 147.014M1154.56 137.919H1220.9M1154.56 137.919H1088.22M1220.9 137.919L1235.77 147.014M1220.9 137.919H1287.25M1287.25 137.919L1304.24 147.014M1167.31 147.014H1235.77M1167.31 147.014H1098.84M1251.63 156.709L1235.77 147.014M1251.63 156.709L1268.56 167.069M1251.63 156.709H1322.36M1235.77 147.014H1304.24M1098.84 147.014H1030.37M1098.84 147.014L1088.22 137.919M1304.24 147.014L1322.36 156.709M1088.22 137.919H1021.87M1268.56 167.069L1286.7 178.162M1268.56 167.069H1341.72M1322.36 156.709L1341.72 167.069M1341.72 167.069L1362.45 178.162M1210.96 178.162L1227.65 190.07M1210.96 178.162H1286.7M1210.96 178.162H1135.22M1286.7 178.162L1306.17 190.07M1286.7 178.162H1362.45M1362.45 178.162L1384.7 190.07M1227.65 190.07H1306.17M1227.65 190.07H1149.12M1327.13 202.885L1306.17 190.07M1327.13 202.885L1349.75 216.717M1327.13 202.885H1408.65M1306.17 190.07H1384.7M1149.12 190.07H1070.6M1149.12 190.07L1135.22 178.162M1384.7 190.07L1408.65 202.885M1384.7 190.07H1463.22M1135.22 178.162H1059.47M1349.75 216.717L1374.23 231.691M1349.75 216.717H1434.5M1408.65 202.885L1434.5 216.717M1463.22 190.07H1514.59M1434.5 216.717L1462.48 231.691M1434.5 216.717H1514.59M1285.98 231.691L1308.77 247.953M1285.98 231.691H1374.23M1285.98 231.691H1197.74M1374.23 231.691L1400.82 247.953M1374.23 231.691H1462.48M1462.48 231.691L1492.87 247.953M1462.48 231.691H1514.59M1308.77 247.953H1400.82M1308.77 247.953H1216.73M1429.8 265.679L1400.82 247.953M1429.8 265.679L1461.52 285.074M1429.8 265.679H1514.59M1400.82 247.953H1492.87M1216.73 247.953H1124.68M1216.73 247.953L1197.74 231.691M1492.87 247.953H1514.59M1492.87 247.953L1514.59 259.579M1197.74 231.691H1109.49M1461.52 285.074L1496.37 306.387M1461.52 285.074H1514.59M1390.67 306.387L1423.65 329.916M1390.67 306.387H1496.37M1390.67 306.387H1284.98M1496.37 306.387L1514.59 317.534M1496.37 306.387H1514.59M1423.65 329.916H1312.46M1423.65 329.916L1514.59 329.916M1312.46 329.916H1201.27M1312.46 329.916L1284.98 306.387M1284.98 306.387H1179.28M832.554 16.6963L832.724 17.059L832.894 17.4231L833.065 17.789L833.236 18.1569L833.757 19.2695L833.931 19.6439M832.554 16.6963H870.582M832.554 16.6963H794.527M868.588 13.8516L867.138 11.7828L866.663 11.1047M868.588 13.8516L869.826 15.6177L870.582 16.6963M868.588 13.8516H905.951M866.663 11.1047H903.384M866.663 11.1047L865.262 9.10574L864.803 8.45077M828.702 8.45077L828.55 8.12493L827.949 6.8367L827.503 5.8847M828.702 8.45077H864.803M828.702 8.45077H792.601M870.582 16.6963L870.835 17.059L871.091 17.4231L871.347 17.789L871.605 18.1569L872.647 19.6439M870.582 16.6963H908.609M905.951 13.8516L904.018 11.7828L903.384 11.1047M905.951 13.8516L908.609 16.6963M903.384 11.1047L902.133 9.76639L901.209 8.77756L900.905 8.45077M864.803 8.45077L864.575 8.12493L864.122 7.47846L863.672 6.8367L863.449 6.51795L863.005 5.8847M864.803 8.45077H900.905M908.609 16.6963L910.665 18.8969L911.362 19.6439M937.006 8.45077L934.749 6.51795L934.009 5.8847M937.006 8.45077H900.905M900.905 8.45077L898.803 6.20062L898.506 5.8847M833.931 19.6439H872.647M833.931 19.6439H795.216M874.788 22.7002L872.647 19.6439M874.788 22.7002L877.011 25.8712M874.788 22.7002H914.218M872.647 19.6439H911.362M795.216 19.6439H756.5M795.216 19.6439L794.527 16.6963M911.362 19.6439L914.218 22.7002M794.527 16.6963H756.5M877.011 25.8712L877.58 26.6825L878.443 27.9145L879.318 29.1635M877.011 25.8712H917.182M914.218 22.7002L914.583 23.0898L917.182 25.8712M917.182 25.8712L917.559 26.2759L917.94 26.6825L918.321 27.0914L920.257 29.1635M838.379 29.1635L839.977 32.5848M838.379 29.1635H879.318M838.379 29.1635H797.439M879.318 29.1635L881.715 32.5848M879.318 29.1635H920.257M920.257 29.1635L922.643 31.7169L923.048 32.1499L923.454 32.5848M839.977 32.5848H881.715M839.977 32.5848H798.239M884.209 36.1421L884.527 36.5968L884.847 37.0535L885.169 37.5129L886.803 39.8439M884.209 36.1421L882.95 34.3457L882.639 33.9023L882.33 33.4608L881.715 32.5848M884.209 36.1421H926.778M881.715 32.5848H923.454M798.239 32.5848H756.5M798.239 32.5848L797.439 29.1635M923.454 32.5848L926.778 36.1421M797.439 29.1635H756.5M886.803 39.8439L889.161 43.2085L889.504 43.6991M886.803 39.8439H930.237M926.778 36.1421L927.63 37.0535L930.237 39.8439M930.237 39.8439L931.57 41.2709L933.839 43.6991M845.169 43.6991L846.099 45.6872L846.333 46.191L847.047 47.7177M845.169 43.6991H889.504M845.169 43.6991H800.835M889.504 43.6991L892.32 47.7177M889.504 43.6991H933.839M933.839 43.6991L937.593 47.7177M847.047 47.7177H892.32M847.047 47.7177H801.773M895.258 51.9102L892.32 47.7177M895.258 51.9102L898.326 56.2877M895.258 51.9102H941.511M892.32 47.7177H937.593M801.773 47.7177H756.5M801.773 47.7177L801.535 46.6973L801.066 44.6879L800.835 43.6991M937.593 47.7177L941.511 51.9102M800.835 43.6991H756.5M898.326 56.2877L900.717 59.7005L901.532 60.8636M898.326 56.2877H945.601M941.511 51.9102L945.601 56.2877M945.601 56.2877L947.714 58.5501L949.877 60.8636M853.188 60.8636L855.425 65.651M853.188 60.8636H901.532M853.188 60.8636H804.844M901.532 60.8636L904.887 65.651M901.532 60.8636H949.877M949.877 60.8636L954.349 65.651M855.425 65.651H904.887M855.425 65.651H805.962M908.401 70.6651L907.506 69.3896L904.887 65.651M908.401 70.6651L912.085 75.9223M908.401 70.6651H959.035M904.887 65.651H954.349M805.962 65.651H756.5M805.962 65.651L804.844 60.8636M954.349 65.651L959.035 70.6651M804.844 60.8636H756.5M912.085 75.9223L915.952 81.4412M912.085 75.9223H963.946M959.035 70.6651L963.946 75.9223M963.946 75.9223L969.103 81.4412M862.802 81.4412L865.511 87.2411M862.802 81.4412H915.952M862.802 81.4412H809.651M915.952 81.4412L920.016 87.2411M915.952 81.4412H969.103M969.103 81.4412L974.522 87.2411M865.511 87.2411H920.016M865.511 87.2411H811.005M924.294 93.3447L920.016 87.2411M924.294 93.3447L928.801 99.7759M924.294 93.3447H980.225M920.016 87.2411H974.522M811.005 87.2411H756.5M811.005 87.2411L809.816 82.1505L809.651 81.4412M974.522 87.2411L980.225 93.3447M809.651 81.4412H756.5M928.801 99.7759L933.556 106.563M928.801 99.7759H986.234M980.225 93.3447L984.701 98.1363L986.234 99.7759M986.234 99.7759L992.575 106.563M874.537 106.563L877.888 113.734M874.537 106.563H933.556M874.537 106.563H815.519M933.556 106.563L938.582 113.734M933.556 106.563H992.575M992.575 106.563L999.276 113.734M877.888 113.734H938.582M877.888 113.734H817.194M943.901 121.325L938.582 113.734M943.901 121.325L949.54 129.372M943.901 121.325H1006.37M938.582 113.734H999.276M817.194 113.734H756.5M817.194 113.734L815.519 106.563M999.276 113.734L1006.37 121.325M815.519 106.563H756.5M949.54 129.372L955.53 137.919M949.54 129.372H1013.89M1006.37 121.325L1013.89 129.372M1013.89 129.372L1021.87 137.919M889.187 137.919L893.435 147.014M889.187 137.919H955.53M889.187 137.919H822.843M955.53 137.919L961.903 147.014M955.53 137.919H1021.87M1021.87 137.919L1030.37 147.014M893.435 147.014H961.903M893.435 147.014H824.968M968.697 156.709L961.903 147.014M968.697 156.709L975.957 167.069M968.697 156.709H1039.43M961.903 147.014H1030.37M824.968 147.014H756.5M824.968 147.014L822.843 137.919M1030.37 147.014L1039.43 156.709M822.843 137.919H756.5M975.957 167.069L983.73 178.162M975.957 167.069H1049.11M1039.43 156.709L1049.11 167.069M1049.11 167.069L1059.47 178.162M907.986 178.162L913.55 190.07M907.986 178.162H983.73M907.986 178.162H832.244M983.73 178.162L992.075 190.07M983.73 178.162H1059.47M1059.47 178.162L1070.6 190.07M913.55 190.07H992.075M913.55 190.07H835.025M1001.06 202.885L992.075 190.07M1001.06 202.885L1010.75 216.717M1001.06 202.885H1082.57M992.075 190.07H1070.6M835.025 190.07H756.5M835.025 190.07L832.244 178.162M1070.6 190.07L1082.57 202.885M832.244 178.162H756.5M1010.75 216.717L1021.24 231.691M1010.75 216.717H1095.5M1082.57 202.885L1095.5 216.717M1095.5 216.717L1109.49 231.691M932.994 231.691L940.592 247.953M932.994 231.691H1021.24M932.994 231.691H844.747M1021.24 231.691L1032.64 247.953M1021.24 231.691H1109.49M1109.49 231.691L1124.68 247.953M940.592 247.953H1032.64M940.592 247.953H848.546M1045.06 265.679L1032.64 247.953M1045.06 265.679L1058.65 285.074M1045.06 265.679H1141.25M1032.64 247.953H1124.68M848.546 247.953H756.5M848.546 247.953L844.747 231.691M1124.68 247.953L1141.25 265.679M844.747 231.691H756.5M1058.65 285.074L1073.59 306.387M1058.65 285.074H1159.37M1141.25 265.679L1159.37 285.074M1159.37 285.074L1179.28 306.387M967.89 306.387L978.882 329.916M967.89 306.387H1073.59M967.89 306.387H862.195M1073.59 306.387L1090.07 329.916M1073.59 306.387H1179.28M1179.28 306.387L1201.27 329.916M1090.07 329.916H978.882M1090.07 329.916H1201.27M978.882 329.916H867.692M867.692 329.916H756.5M867.692 329.916L862.195 306.387M862.195 306.387H756.5M680.446 16.6963L680.276 17.059L680.107 17.4231L679.935 17.789L679.764 18.1569L679.418 18.8969L679.243 19.2695L679.069 19.6439M680.446 16.6963H718.473M680.446 16.6963H642.418M719.137 13.8516L719.779 11.1047M719.137 13.8516L718.473 16.6963M719.137 13.8516H756.5M719.779 11.1047L719.857 10.768L719.936 10.4327L720.014 10.0988L720.399 8.45077M719.779 11.1047H756.5M684.298 8.45077L684.45 8.12493L685.051 6.8367L685.497 5.8847M684.298 8.45077H720.399M684.298 8.45077H648.197M718.473 16.6963L718.388 17.059L718.303 17.4231L718.217 17.789L717.784 19.6439M718.473 16.6963H756.5M756.5 13.8516V11.1047M756.5 13.8516V16.6963M756.5 11.1047V8.45077M720.399 8.45077H756.5M720.399 8.45077L720.626 7.47846L720.702 7.15687L720.998 5.8847M756.5 16.6963V19.6439M792.601 8.45077L792.374 7.47846L792.299 7.15687L792.224 6.8367L792.149 6.51795L792.076 6.20062L792.002 5.8847M792.601 8.45077H756.5M756.5 8.45077V5.8847M679.069 19.6439H717.784M679.069 19.6439H640.353M717.071 22.7002L716.979 23.0898L716.888 23.4817L716.33 25.8712M717.071 22.7002L717.784 19.6439M717.071 22.7002H756.5M717.784 19.6439H756.5M640.353 19.6439H601.638M640.353 19.6439L640.876 18.8969L641.137 18.5262L641.395 18.1569L641.653 17.789L641.909 17.4231L642.165 17.059L642.418 16.6963M756.5 19.6439V22.7002M642.418 16.6963H604.391M716.33 25.8712L715.561 29.1635M716.33 25.8712H756.5M756.5 22.7002V25.8712M756.5 25.8712V29.1635M674.621 29.1635L673.023 32.5848M674.621 29.1635H715.561M674.621 29.1635H633.682M715.561 29.1635L714.762 32.5848M715.561 29.1635H756.5M756.5 29.1635V32.5848M673.023 32.5848H714.762M673.023 32.5848H631.285M713.931 36.1421L714.762 32.5848M713.931 36.1421L713.066 39.8439M713.931 36.1421H756.5M714.762 32.5848H756.5M631.285 32.5848H589.546M631.285 32.5848L633.682 29.1635M756.5 32.5848V36.1421M633.682 29.1635H592.743M713.066 39.8439L712.733 41.2709L712.394 42.7202L712.165 43.6991M713.066 39.8439H756.5M756.5 36.1421V39.8439M756.5 39.8439V43.6991M667.831 43.6991L666.902 45.6872L666.667 46.191L665.953 47.7177M667.831 43.6991H712.165M667.831 43.6991H623.496M712.165 43.6991L711.935 44.6879L711.465 46.6973L711.227 47.7177M712.165 43.6991H756.5M756.5 43.6991V47.7177M665.953 47.7177H711.227M665.953 47.7177H620.68M710.248 51.9102L710.372 51.3761L711.227 47.7177M710.248 51.9102L709.225 56.2877M710.248 51.9102H756.5M711.227 47.7177H756.5M620.68 47.7177H575.407M620.68 47.7177L623.496 43.6991M756.5 47.7177V51.9102M623.496 43.6991H579.161M709.225 56.2877L708.156 60.8636M709.225 56.2877H756.5M756.5 51.9102V56.2877M756.5 56.2877V60.8636M659.812 60.8636L657.575 65.651M659.812 60.8636H708.156M659.812 60.8636H611.468M708.156 60.8636L707.038 65.651M708.156 60.8636H756.5M756.5 60.8636V65.651M657.575 65.651H707.038M657.575 65.651H608.113M705.867 70.6651L707.038 65.651M705.867 70.6651L704.639 75.9223M705.867 70.6651H756.5M707.038 65.651H756.5M608.113 65.651H558.651M608.113 65.651L611.468 60.8636M756.5 65.651V70.6651M611.468 60.8636H563.123M704.639 75.9223L703.349 81.4412M704.639 75.9223H756.5M756.5 70.6651V75.9223M756.5 75.9223V81.4412M650.198 81.4412L647.489 87.2411M650.198 81.4412H703.349M650.198 81.4412H597.048M703.349 81.4412L701.995 87.2411M703.349 81.4412H756.5M756.5 81.4412V87.2411M647.489 87.2411H701.995M647.489 87.2411H592.984M700.569 93.3447L701.995 87.2411M700.569 93.3447L699.067 99.7759M700.569 93.3447H756.5M701.995 87.2411H756.5M592.984 87.2411H538.478M592.984 87.2411L597.048 81.4412M756.5 87.2411V93.3447M597.048 81.4412H543.897M699.067 99.7759L697.481 106.563M699.067 99.7759H756.5M756.5 93.3447V99.7759M756.5 99.7759V106.563M638.463 106.563L635.112 113.734M638.463 106.563H697.481M638.463 106.563H579.444M697.481 106.563L695.806 113.734M697.481 106.563H756.5M756.5 106.563V113.734M635.112 113.734H695.806M635.112 113.734H574.418M694.033 121.325L695.806 113.734M694.033 121.325L692.153 129.372M694.033 121.325H756.5M695.806 113.734H756.5M574.418 113.734H513.724M574.418 113.734L579.444 106.563M756.5 113.734V121.325M579.444 106.563H520.425M692.153 129.372L690.157 137.919M692.153 129.372H756.5M756.5 121.325V129.372M756.5 129.372V137.919M623.813 137.919L619.565 147.014M623.813 137.919H690.157M623.813 137.919H557.47M690.157 137.919L688.033 147.014M690.157 137.919H756.5M756.5 137.919V147.014M619.565 147.014H688.033M619.565 147.014H551.097M685.768 156.709L688.033 147.014M685.768 156.709L683.348 167.069M685.768 156.709H756.5M688.033 147.014H756.5M551.097 147.014H482.63M551.097 147.014L557.47 137.919M756.5 147.014V156.709M557.47 137.919H491.127M683.348 167.069L680.756 178.162M683.348 167.069H756.5M756.5 156.709V167.069M756.5 167.069V178.162M605.014 178.162L599.45 190.07M605.014 178.162H680.756M605.014 178.162H529.27M680.756 178.162L677.975 190.07M680.756 178.162H756.5M756.5 178.162V190.07M599.45 190.07H677.975M599.45 190.07H520.925M674.982 202.885L677.975 190.07M674.982 202.885L671.751 216.717M674.982 202.885H756.5M677.975 190.07H756.5M520.925 190.07H442.4M520.925 190.07L529.27 178.162M756.5 190.07V202.885M529.27 178.162H453.526M671.751 216.717L668.253 231.691M671.751 216.717H756.5M756.5 202.885V216.717M756.5 216.717V231.691M580.006 231.691L572.409 247.953M580.006 231.691H668.253M580.006 231.691H491.759M668.253 231.691L664.454 247.953M668.253 231.691H756.5M756.5 231.691V247.953M572.409 247.953H664.454M572.409 247.953H480.363M660.314 265.679L664.454 247.953M660.314 265.679L655.784 285.074M660.314 265.679H756.5M664.454 247.953H756.5M480.363 247.953H388.317M480.363 247.953L491.759 231.691M756.5 247.953V265.679M491.759 231.691H403.512M655.784 285.074L650.805 306.387M655.784 285.074H756.5M756.5 265.679V285.074M756.5 285.074V306.387M545.11 306.387L534.118 329.916M545.11 306.387H650.805M545.11 306.387H439.415M650.805 306.387L645.309 329.916M650.805 306.387H756.5M756.5 306.387V329.916M645.309 329.916H534.118M645.309 329.916H756.5M534.118 329.916H422.926M422.926 329.916H311.735M422.926 329.916L439.415 306.387M439.415 306.387H333.719M528.337 16.6963L526.29 18.1569L524.207 19.6439M528.337 16.6963H566.364M528.337 16.6963H490.31M569.687 13.8516L572.895 11.1047M569.687 13.8516L566.364 16.6963M569.687 13.8516H607.049M572.895 11.1047H609.616M572.895 11.1047L575.229 9.10574L575.994 8.45077M539.894 8.45077H575.994M539.894 8.45077L541.256 7.47846L543.49 5.8847M539.894 8.45077H503.793M566.364 16.6963L562.922 19.6439M566.364 16.6963H604.391M607.049 13.8516L609.616 11.1047M607.049 13.8516L604.391 16.6963M609.616 11.1047L610.867 9.76639L611.791 8.77756L612.095 8.45077M575.994 8.45077H612.095M575.994 8.45077L578.251 6.51795L578.991 5.8847M604.391 16.6963L602.335 18.8969L601.638 19.6439M648.197 8.45077L648.425 8.12493L648.878 7.47846L649.551 6.51795L649.995 5.8847M648.197 8.45077H612.095M612.095 8.45077L612.399 8.12493L613.004 7.47846L614.493 5.8847M524.207 19.6439H562.922M524.207 19.6439H485.49M559.352 22.7002L559.806 22.312L560.257 21.9252L562.042 20.3971L562.922 19.6439M559.352 22.7002L556.587 25.067L555.648 25.8712M559.352 22.7002H598.782M562.922 19.6439H601.638M485.49 19.6439H446.775M485.49 19.6439L489.121 17.4231L490.31 16.6963M601.638 19.6439L598.782 22.7002M490.31 16.6963H452.283M555.648 25.8712L555.176 26.2759L554.701 26.6825L553.263 27.9145L552.778 28.3286L551.803 29.1635M555.648 25.8712H595.819M598.782 22.7002L598.417 23.0898L595.819 25.8712M595.819 25.8712L595.441 26.2759L595.06 26.6825L594.679 27.0914L592.743 29.1635M510.864 29.1635L506.069 32.5848M510.864 29.1635H551.803M510.864 29.1635H469.925M551.803 29.1635L547.808 32.5848M551.803 29.1635H592.743M592.743 29.1635L589.546 32.5848M506.069 32.5848H547.808M506.069 32.5848H464.331M543.653 36.1421L547.808 32.5848M543.653 36.1421L539.33 39.8439M543.653 36.1421H586.222M547.808 32.5848H589.546M464.331 32.5848H422.592M464.331 32.5848L469.925 29.1635M589.546 32.5848L586.222 36.1421M469.925 29.1635H428.985M539.33 39.8439L534.827 43.6991M539.33 39.8439H582.764M586.222 36.1421L585.37 37.0535L582.764 39.8439M582.764 39.8439L581.43 41.2709L580.076 42.7202L579.161 43.6991M490.492 43.6991L487.705 45.6872L484.86 47.7177M490.492 43.6991H534.827M490.492 43.6991H446.157M534.827 43.6991L530.133 47.7177M534.827 43.6991H579.161M579.161 43.6991L575.407 47.7177M484.86 47.7177H530.133M484.86 47.7177H439.587M525.237 51.9102L530.133 47.7177M525.237 51.9102L520.124 56.2877M525.237 51.9102H571.489M530.133 47.7177H575.407M439.587 47.7177H394.313M439.587 47.7177L446.157 43.6991M575.407 47.7177L571.489 51.9102M446.157 43.6991H401.823M520.124 56.2877L518.81 57.4125L514.78 60.8636M520.124 56.2877H567.399M571.489 51.9102L567.399 56.2877M567.399 56.2877L566.875 56.8487L565.286 58.5501L563.123 60.8636M466.436 60.8636L459.726 65.651M466.436 60.8636H514.78M466.436 60.8636H418.092M514.78 60.8636L509.188 65.651M514.78 60.8636H563.123M563.123 60.8636L558.651 65.651M459.726 65.651H509.188M459.726 65.651H410.264M503.332 70.6651L507.025 67.504L509.188 65.651M503.332 70.6651L497.192 75.9223M503.332 70.6651H553.966M509.188 65.651H558.651M410.264 65.651H360.801M410.264 65.651L418.092 60.8636M558.651 65.651L553.966 70.6651M418.092 60.8636H369.748M497.192 75.9223L490.746 81.4412M497.192 75.9223H549.054M553.966 70.6651L549.054 75.9223M549.054 75.9223L543.897 81.4412M437.595 81.4412L429.466 87.2411M437.595 81.4412H490.746M437.595 81.4412H384.445M490.746 81.4412L483.972 87.2411M490.746 81.4412H543.897M543.897 81.4412L538.478 87.2411M429.466 87.2411H483.972M429.466 87.2411H374.961M476.844 93.3447L483.972 87.2411M476.844 93.3447L469.333 99.7759M476.844 93.3447H532.775M483.972 87.2411H538.478M374.961 87.2411H320.456M374.961 87.2411L384.445 81.4412M538.478 87.2411L532.775 93.3447M384.445 81.4412H331.294M469.333 99.7759L461.407 106.563M469.333 99.7759H526.766M532.775 93.3447L526.766 99.7759M526.766 99.7759L520.425 106.563M402.387 106.563L392.336 113.734M402.387 106.563H461.407M402.387 106.563H343.368M461.407 106.563L453.03 113.734M461.407 106.563H520.425M520.425 106.563L513.724 113.734M392.336 113.734H453.03M392.336 113.734H331.643M444.165 121.325L453.03 113.734M444.165 121.325L434.766 129.372M444.165 121.325H506.632M453.03 113.734H513.724M331.643 113.734H270.949M331.643 113.734L343.368 106.563M513.724 113.734L506.632 121.325M343.368 106.563H284.35M434.766 129.372L424.784 137.919M434.766 129.372H499.113M506.632 121.325L499.113 129.372M499.113 129.372L491.127 137.919M358.44 137.919L345.695 147.014M358.44 137.919H424.784M358.44 137.919H292.097M424.784 137.919L414.162 147.014M424.784 137.919H491.127M491.127 137.919L482.63 147.014M345.695 147.014H414.162M345.695 147.014H277.227M402.838 156.709L414.162 147.014M402.838 156.709L390.739 167.069M402.838 156.709H473.571M414.162 147.014H482.63M277.227 147.014H208.76M277.227 147.014L292.097 137.919M482.63 147.014L473.571 156.709M292.097 137.919H225.754M390.739 167.069L377.783 178.162M390.739 167.069H463.892M473.571 156.709L463.892 167.069M463.892 167.069L453.526 178.162M302.04 178.162L285.351 190.07M302.04 178.162H377.783M302.04 178.162H226.296M377.783 178.162L363.876 190.07M377.783 178.162H453.526M453.526 178.162L442.4 190.07M285.351 190.07H363.876M285.351 190.07H206.826M348.907 202.885L363.876 190.07M348.907 202.885L332.753 216.717M348.907 202.885H430.426M363.876 190.07H442.4M206.826 190.07H128.301M206.826 190.07L226.296 178.162M442.4 190.07L430.426 202.885M226.296 178.162H150.553M332.753 216.717L315.265 231.691M332.753 216.717H417.502M430.426 202.885L417.502 216.717M417.502 216.717L403.512 231.691M227.018 231.691L204.225 247.953M227.018 231.691H315.265M227.018 231.691H138.771M315.265 231.691L296.271 247.953M315.265 231.691H403.512M403.512 231.691L388.317 247.953M204.225 247.953H296.271M204.225 247.953H112.18M275.569 265.679L296.271 247.953M275.569 265.679L252.916 285.074M275.569 265.679H371.755M296.271 247.953H388.317M112.18 247.953H20.1339M112.18 247.953L138.771 231.691M388.317 247.953L371.755 265.679M138.771 231.691H50.5239M252.916 285.074L228.025 306.387M252.916 285.074H353.633M371.755 265.679L353.633 285.074M353.633 285.074L333.719 306.387M122.329 306.387L89.3524 329.916M122.329 306.387H228.025M122.329 306.387H16.6341M228.025 306.387L200.544 329.916M228.025 306.387H333.719M333.719 306.387L311.735 329.916M200.544 329.916H89.3524M200.544 329.916H311.735M89.3524 329.916L-1.59173 329.916M16.6341 306.387L-1.59173 317.534M16.6341 306.387H-1.59173M376.229 16.6963L369.343 19.6439M376.229 16.6963H414.256M376.229 16.6963H338.202M420.236 13.8516L426.011 11.1047M420.236 13.8516L414.256 16.6963M420.236 13.8516H457.599M426.011 11.1047H462.732M426.011 11.1047L431.591 8.45077M395.489 8.45077H431.591M395.489 8.45077L397.761 7.47846L401.483 5.8847M395.489 8.45077H359.388M414.256 16.6963L408.059 19.6439M414.256 16.6963H452.283M457.599 13.8516L462.732 11.1047M457.599 13.8516L452.283 16.6963M462.732 11.1047L466.468 9.10574L467.692 8.45077M431.591 8.45077L432.274 8.12493L436.985 5.8847M431.591 8.45077H467.692M452.283 16.6963L446.775 19.6439M503.793 8.45077L507.988 5.8847M503.793 8.45077H467.692M467.692 8.45077L469.509 7.47846L472.487 5.8847M369.343 19.6439H408.059M369.343 19.6439H330.628M401.634 22.7002L408.059 19.6439M401.634 22.7002L394.968 25.8712M401.634 22.7002H441.064M408.059 19.6439H446.775M330.628 19.6439H291.912M330.628 19.6439L338.202 16.6963M446.775 19.6439L441.064 22.7002M338.202 16.6963H300.175M394.968 25.8712L393.261 26.6825L388.045 29.1635M394.968 25.8712H435.138M441.064 22.7002L435.138 25.8712M435.138 25.8712L428.985 29.1635M347.106 29.1635L346.124 29.5843L339.115 32.5848M347.106 29.1635H388.045M347.106 29.1635H306.167M388.045 29.1635L380.854 32.5848M388.045 29.1635H428.985M428.985 29.1635L428.2 29.5843L422.592 32.5848M339.115 32.5848H380.854M339.115 32.5848H297.377M373.375 36.1421L380.854 32.5848M373.375 36.1421L365.593 39.8439M373.375 36.1421H415.945M380.854 32.5848H422.592M297.377 32.5848H255.638M297.377 32.5848L306.167 29.1635M422.592 32.5848L415.945 36.1421M306.167 29.1635H265.227M365.593 39.8439L357.488 43.6991M365.593 39.8439H409.027M415.945 36.1421L409.027 39.8439M409.027 39.8439L401.823 43.6991M313.154 43.6991L303.767 47.7177M313.154 43.6991H357.488M313.154 43.6991H268.819M357.488 43.6991L349.04 47.7177M357.488 43.6991H401.823M401.823 43.6991L394.313 47.7177M303.767 47.7177H349.04M303.767 47.7177H258.493M340.226 51.9102L349.04 47.7177M340.226 51.9102L331.023 56.2877M340.226 51.9102H386.479M349.04 47.7177H394.313M258.493 47.7177H213.22M258.493 47.7177L268.819 43.6991M394.313 47.7177L386.479 51.9102M268.819 43.6991H224.484M331.023 56.2877L321.404 60.8636M331.023 56.2877H378.298M386.479 51.9102L378.298 56.2877M378.298 56.2877L369.748 60.8636M273.059 60.8636L261.877 65.651M273.059 60.8636H321.404M273.059 60.8636H224.715M321.404 60.8636L311.339 65.651M321.404 60.8636H369.748M369.748 60.8636L360.801 65.651M261.877 65.651H311.339M261.877 65.651H212.414M300.798 70.6651L311.339 65.651M300.798 70.6651L289.745 75.9223M300.798 70.6651H351.431M311.339 65.651H360.801M212.414 65.651H162.952M212.414 65.651L224.715 60.8636M360.801 65.651L351.431 70.6651M224.715 60.8636H176.371M289.745 75.9223L278.143 81.4412M289.745 75.9223H341.607M351.431 70.6651L341.607 75.9223M341.607 75.9223L331.294 81.4412M224.992 81.4412L211.445 87.2411M224.992 81.4412H278.143M224.992 81.4412H171.842M278.143 81.4412L265.95 87.2411M278.143 81.4412H331.294M331.294 81.4412L320.456 87.2411M211.445 87.2411H265.95M211.445 87.2411H156.939M253.118 93.3447L265.95 87.2411M253.118 93.3447L239.598 99.7759M253.118 93.3447H309.05M265.95 87.2411H320.456M156.939 87.2411H102.433M156.939 87.2411L171.842 81.4412M320.456 87.2411L309.05 93.3447M171.842 81.4412H118.691M239.598 99.7759L225.331 106.563M239.598 99.7759H297.032M309.05 93.3447L297.032 99.7759M297.032 99.7759L284.35 106.563M166.312 106.563L149.561 113.734M166.312 106.563H225.331M166.312 106.563H107.294M225.331 106.563L210.255 113.734M225.331 106.563H284.35M284.35 106.563L270.949 113.734M149.561 113.734H210.255M149.561 113.734H88.8668M194.297 121.325L210.255 113.734M194.297 121.325L177.379 129.372M194.297 121.325H256.764M210.255 113.734H270.949M88.8668 113.734H28.1728M88.8668 113.734L107.294 106.563M270.949 113.734L256.764 121.325M107.294 106.563H48.2749M177.379 129.372L159.41 137.919M177.379 129.372H241.726M256.764 121.325L241.726 129.372M241.726 129.372L225.754 137.919M93.0671 137.919L71.8247 147.014M93.0671 137.919H159.41M93.0671 137.919H26.7238M159.41 137.919L140.292 147.014M159.41 137.919H225.754M225.754 137.919L208.76 147.014M71.8247 147.014H140.292M71.8247 147.014H3.35719M119.908 156.709L140.292 147.014M119.908 156.709L98.1305 167.069M119.908 156.709H190.641M140.292 147.014H208.76M3.35719 147.014L26.7238 137.919M3.35719 147.014H-1.59173M3.35719 147.014L-1.59173 148.939M208.76 147.014L190.641 156.709M26.7238 137.919H-1.59173M98.1305 167.069L74.8097 178.162M98.1305 167.069H171.282M190.641 156.709L171.282 167.069M171.282 167.069L150.553 178.162M-0.933929 178.162H74.8097M-0.933929 178.162H-1.59173M-0.933929 178.162L-1.59173 178.443M74.8097 178.162L49.7753 190.07M74.8097 178.162H150.553M150.553 178.162L128.301 190.07M22.833 202.885L49.7753 190.07M22.833 202.885H104.352M22.833 202.885H-1.59173M22.833 202.885L-1.59173 214.504M49.7753 190.07H128.301M49.7753 190.07H-1.59173M128.301 190.07L104.352 202.885M104.352 202.885L78.5046 216.717M78.5046 216.717L50.5239 231.691M78.5046 216.717H-1.59173M50.5239 231.691L20.1339 247.953M50.5239 231.691H-1.59173M20.1339 247.953H-1.59173M20.1339 247.953L-1.59173 259.579M224.12 16.6963L214.481 19.6439M224.12 16.6963H262.148M224.12 16.6963H186.093M270.785 13.8516L279.126 11.1047M270.785 13.8516L262.148 16.6963M270.785 13.8516H308.148M279.126 11.1047H315.847M279.126 11.1047L287.186 8.45077M251.085 8.45077H287.186M251.085 8.45077L259.476 5.8847M251.085 8.45077H214.984M262.148 16.6963L253.197 19.6439M262.148 16.6963H300.175M308.148 13.8516L315.847 11.1047M308.148 13.8516L300.175 16.6963M315.847 11.1047L323.287 8.45077M287.186 8.45077L288.174 8.12493L294.978 5.8847M287.186 8.45077H323.287M300.175 16.6963L291.912 19.6439M359.388 8.45077L365.981 5.8847M359.388 8.45077H323.287M323.287 8.45077L324.199 8.12493L330.479 5.8847M214.481 19.6439H253.197M214.481 19.6439H175.765M243.915 22.7002L253.197 19.6439M243.915 22.7002L234.286 25.8712M243.915 22.7002H283.346M253.197 19.6439H291.912M175.765 19.6439H137.05M175.765 19.6439L186.093 16.6963M291.912 19.6439L283.346 22.7002M186.093 16.6963H148.066M234.286 25.8712L224.288 29.1635M234.286 25.8712H274.456M283.346 22.7002L282.252 23.0898L274.456 25.8712M274.456 25.8712L265.227 29.1635M183.349 29.1635L172.161 32.5848M183.349 29.1635H224.288M183.349 29.1635H142.409M224.288 29.1635L213.9 32.5848M224.288 29.1635H265.227M265.227 29.1635L255.638 32.5848M172.161 32.5848H213.9M172.161 32.5848H130.423M203.098 36.1421L213.9 32.5848M203.098 36.1421L191.857 39.8439M203.098 36.1421H245.667M213.9 32.5848H255.638M130.423 32.5848H88.6844M130.423 32.5848L142.409 29.1635M255.638 32.5848L245.667 36.1421M142.409 29.1635H101.47M191.857 39.8439L180.15 43.6991M191.857 39.8439H235.291M245.667 36.1421L235.291 39.8439M235.291 39.8439L224.484 43.6991M135.815 43.6991L122.673 47.7177M135.815 43.6991H180.15M135.815 43.6991H91.4798M180.15 43.6991L167.947 47.7177M180.15 43.6991H224.484M224.484 43.6991L213.22 47.7177M122.673 47.7177H167.947M122.673 47.7177H77.3998M155.216 51.9102L167.947 47.7177M155.216 51.9102L141.922 56.2877M155.216 51.9102H201.469M167.947 47.7177H213.22M77.3998 47.7177H32.1268M77.3998 47.7177L91.4798 43.6991M213.22 47.7177L201.469 51.9102M91.4798 43.6991H47.1457M141.922 56.2877L128.027 60.8636M141.922 56.2877H189.197M201.469 51.9102L189.197 56.2877M189.197 56.2877L176.371 60.8636M79.6828 60.8636L64.0274 65.651M79.6828 60.8636H128.027M79.6828 60.8636H31.3395M128.027 60.8636L113.49 65.651M128.027 60.8636H176.371M176.371 60.8636L162.952 65.651M64.0274 65.651H113.49M98.2632 70.6651L113.49 65.651M98.2632 70.6651L82.299 75.9223M98.2632 70.6651H148.897M113.49 65.651H162.952M162.952 65.651L148.897 70.6651M31.3395 60.8636H-1.59173M82.299 75.9223L65.5405 81.4412M82.299 75.9223H134.16M148.897 70.6651L134.16 75.9223M134.16 75.9223L118.691 81.4412M12.3895 81.4412H65.5405M12.3895 81.4412H-1.59173M12.3895 81.4412L-1.59173 85.7164M65.5405 81.4412L47.9275 87.2411M65.5405 81.4412H118.691M118.691 81.4412L102.433 87.2411M29.3937 93.3447L47.9275 87.2411M29.3937 93.3447L9.86414 99.7759M29.3937 93.3447H85.3251M29.3937 93.3447H-1.59173M47.9275 87.2411H102.433M47.9275 87.2411H-1.59173M102.433 87.2411L85.3251 93.3447M-1.74572 85.7635L-1.59173 85.7164M9.86414 99.7759H67.2975M9.86414 99.7759H-1.59173M9.86414 99.7759L-1.59173 103.549M85.3251 93.3447L67.2975 99.7759M67.2975 99.7759L48.2749 106.563M48.2749 106.563L28.1728 113.734M48.2749 106.563H-1.59173M6.89574 121.325L28.1728 113.734M6.89574 121.325H-1.59173M6.89574 121.325L-1.59173 124.353M28.1728 113.734H-1.59173M72.0119 16.6963L59.6187 19.6439M72.0119 16.6963H110.039M72.0119 16.6963H33.9841M121.334 13.8516L132.242 11.1047M121.334 13.8516L110.039 16.6963M121.334 13.8516H158.697M132.242 11.1047H168.963M132.242 11.1047L142.781 8.45077M106.68 8.45077H142.781M106.68 8.45077L117.469 5.8847M106.68 8.45077H70.5794M110.039 16.6963L98.3342 19.6439M110.039 16.6963H148.066M158.697 13.8516L168.963 11.1047M158.697 13.8516L148.066 16.6963M168.963 11.1047L178.882 8.45077M142.781 8.45077H178.882M142.781 8.45077L152.971 5.8847M148.066 16.6963L137.05 19.6439M214.984 8.45077L223.975 5.8847M214.984 8.45077H178.882M178.882 8.45077L188.473 5.8847M59.6187 19.6439H98.3342M59.6187 19.6439H20.9031M86.1977 22.7002L98.3342 19.6439M86.1977 22.7002L73.6054 25.8712M86.1977 22.7002H125.627M98.3342 19.6439H137.05M20.9031 19.6439L33.9841 16.6963M20.9031 19.6439H-1.59173M137.05 19.6439L125.627 22.7002M33.9841 16.6963H-1.59173M73.6054 25.8712L60.5307 29.1635M73.6054 25.8712H113.776M125.627 22.7002L113.776 25.8712M113.776 25.8712L101.47 29.1635M19.5914 29.1635L5.2074 32.5848M19.5914 29.1635H60.5307M19.5914 29.1635H-1.59173M60.5307 29.1635L46.9459 32.5848M60.5307 29.1635H101.47M101.47 29.1635L88.6844 32.5848M32.8201 36.1421L46.9459 32.5848M32.8201 36.1421L18.1202 39.8439M32.8201 36.1421H75.3893M32.8201 36.1421H-1.59173M46.9459 32.5848H5.2074M46.9459 32.5848H88.6844M5.2074 32.5848L-1.59173 34.2017M5.2074 32.5848H-1.59173M88.6844 32.5848L75.3893 36.1421M18.1202 39.8439L2.81073 43.6991M18.1202 39.8439H61.5542M18.1202 39.8439H-1.59173M75.3893 36.1421L61.5542 39.8439M61.5542 39.8439L47.1457 43.6991M2.81073 43.6991H47.1457M2.81073 43.6991L-1.59173 44.8076M2.81073 43.6991H-1.59173M47.1457 43.6991L32.1268 47.7177M16.458 51.9102L32.1268 47.7177M16.458 51.9102L0.0966026 56.2877M16.458 51.9102H-1.59173M32.1268 47.7177H-1.59173M-1.82864 47.7177H-1.59173M0.0966026 56.2877H-1.59173M0.0966026 56.2877L-1.59173 56.7395M-2 56.8487L-1.59173 56.7395M9.24661 13.8516L22.0789 11.1047M9.24661 13.8516H-1.59173M9.24661 13.8516L-1.59173 16.1714M22.0789 11.1047L34.4784 8.45077M22.0789 11.1047H-1.59173M70.5794 8.45077L81.9674 5.8847M70.5794 8.45077H34.4784M34.4784 8.45077L46.4658 5.8847M34.4784 8.45077H-1.59173M1253.52 5.8847H1289.03M1253.52 5.8847H1218.02M1280.33 3.40268L1282.48 4.01563L1289.03 5.8847M1280.33 3.40268H1315.25M1289.03 5.8847H1324.53M1315.25 3.40268L1317.54 4.01563L1318.69 4.32352L1324.53 5.8847M1324.53 5.8847H1360.03M1360.03 5.8847H1395.53M1218.02 5.8847H1182.52M1395.53 5.8847H1431.03M1431.03 5.8847L1420.02 3.40268M1431.03 5.8847H1466.53M1420.02 3.40268H1454.94M1111.52 5.8847H1147.02M1111.52 5.8847H1076.02M1140.64 3.40268L1142.22 4.01563L1143.01 4.32352L1147.02 5.8847M1140.64 3.40268H1175.56M1147.02 5.8847H1182.52M1175.56 3.40268L1182.52 5.8847M1076.02 5.8847H1040.51M969.51 5.8847H1005.01M969.51 5.8847H934.009M1000.95 3.40268L1001.45 3.70821L1001.96 4.01563L1002.46 4.32352L1005.01 5.8847M1000.95 3.40268H1035.87M1005.01 5.8847H1040.51M1035.87 3.40268L1040.51 5.8847M934.009 5.8847H898.506M827.503 5.8847H863.005M827.503 5.8847H792.002M861.266 3.40268L863.005 5.8847M861.266 3.40268H896.188M863.005 5.8847H898.506M896.188 3.40268L896.474 3.70821L896.76 4.01563L897.049 4.32352L898.506 5.8847M792.002 5.8847H756.5M685.497 5.8847H720.998M685.497 5.8847H649.995M721.578 3.40268L720.998 5.8847M721.578 3.40268H756.5M720.998 5.8847H756.5M756.5 3.40268V5.8847M649.995 5.8847H614.493M543.49 5.8847H578.991M543.49 5.8847H507.988M581.89 3.40268L581.175 4.01563L579.725 5.25617L578.991 5.8847M581.89 3.40268H616.812M578.991 5.8847H614.493M616.812 3.40268L616.526 3.70821L616.24 4.01563L615.951 4.32352L614.493 5.8847M507.988 5.8847H472.487M401.483 5.8847H436.985M401.483 5.8847H365.981M442.203 3.40268L440.914 4.01563L440.266 4.32352L436.985 5.8847M442.203 3.40268H477.125M436.985 5.8847H472.487M477.125 3.40268L476.553 3.70821L472.487 5.8847M365.981 5.8847H330.479M259.476 5.8847H294.978M259.476 5.8847H223.975M302.515 3.40268L300.654 4.01563L299.717 4.32352L294.978 5.8847M302.515 3.40268H337.437M294.978 5.8847H330.479M337.437 3.40268L336.58 3.70821L330.479 5.8847M223.975 5.8847H188.473M117.469 5.8847H152.971M117.469 5.8847H81.9674M162.827 3.40268L152.971 5.8847M162.827 3.40268H197.749M152.971 5.8847H188.473M197.749 3.40268L195.459 4.01563L194.306 4.32352L188.473 5.8847M81.9674 5.8847H46.4658M23.1402 3.40268L10.9642 5.8847M23.1402 3.40268H58.0622M23.1402 3.40268H-1.59173M10.9642 5.8847H46.4658M10.9642 5.8847L-1.59173 8.44449M10.9642 5.8847H-1.59173M58.0622 3.40268L55.1988 4.01563L46.4658 5.8847M1454.94 3.40268L1457.8 4.01563L1466.53 5.8847M1466.53 5.8847H1502.04M1502.04 5.8847L1514.59 8.4445M1502.04 5.8847H1514.59M1514.59 124.353V121.325M1514.59 124.353V129.372M1514.59 121.325V113.734M1514.59 129.372V130.872V137.919M1514.59 137.919V147.014M1514.59 65.651V60.8636M1514.59 65.651V70.2621M1514.59 3.40268V5.8847M1514.59 5.8847V8.4445M1514.59 8.4445L1514.62 8.45077H1514.59M1514.59 8.4445V8.45077M1514.59 8.45077V11.1047M1514.59 11.1047V13.8516M1514.59 13.8516V16.1714M1514.59 16.1714V16.6963M1514.59 16.6963V19.6439M1514.59 19.6439V22.7002M1514.59 22.7002V24.7119M1514.59 24.7119V25.8712M1514.59 25.8712V29.1635M1514.59 29.1635V32.5848M1514.59 32.5848V34.2017M1514.59 34.2017V36.1421M1514.59 36.1421V39.8439M1514.59 39.8439V43.6991M1514.59 43.6991V44.8076M1514.59 44.8076V47.7177M1514.59 47.7177V51.9102M1514.59 51.9102V56.2877M1514.59 56.2877V56.7395M1514.59 56.7395V60.8636M1514.59 70.6651V75.9223M1514.59 70.6651V70.2621M1514.59 75.9223V81.4412M1514.59 81.4412V85.7165M1514.59 85.7165V87.2411M1514.59 87.2411V93.3447M1514.59 93.3447V99.7759M1514.59 99.7759V103.549M1514.59 103.549V106.563M1514.59 106.563V113.734M1514.59 147.014V148.939M1514.59 148.939V156.709M1514.59 156.709V167.069M1514.59 167.069V178.162M1514.59 178.162V178.443M1514.59 178.443V190.07M1514.59 190.07V202.885M1514.59 202.885V214.504M1514.59 214.504V216.717M1514.59 216.717V231.691M1514.59 231.691V247.953M1514.59 247.953V259.579M1514.59 259.579V265.679M1514.59 265.679V285.074M1514.59 285.074V306.387M1514.59 306.387V317.534M1514.59 317.534V329.916M1514.59 329.916V330H-1.59173V329.916M-1.59173 70.6651V75.9223M-1.59173 70.6651V70.2621M-1.59173 70.2621V65.651M-1.59173 65.651V60.8636M-1.59173 60.8636V56.7395M-1.59173 56.7395V56.2877M-1.59173 56.2877V51.9102M-1.59173 51.9102V47.7177M-1.59173 47.7177V44.8076M-1.59173 44.8076V43.6991M-1.59173 43.6991V39.8439M-1.59173 39.8439V36.1421M-1.59173 36.1421V34.2017M-1.59173 34.2017V32.5848M-1.59173 32.5848V29.1635M-1.59173 29.1635V25.8712M-1.59173 25.8712V24.7119M-1.59173 24.7119V22.7002M-1.59173 22.7002V19.6439M-1.59173 19.6439V16.6963M-1.59173 16.6963V16.1714M-1.59173 16.1714V13.8516M-1.59173 13.8516V11.1047M-1.59173 11.1047V8.45077M-1.59173 8.45077H-1.62253L-1.59173 8.44449M-1.59173 8.45077V8.44449M-1.59173 8.44449V5.8847M-1.59173 5.8847V3.40268M-1.59173 329.916V317.534M-1.59173 317.534V306.387M-1.59173 306.387V285.074M-1.59173 285.074V265.679M-1.59173 265.679V259.579M-1.59173 259.579V247.953M-1.59173 247.953V231.691M-1.59173 231.691V216.717M-1.59173 216.717V214.504M-1.59173 214.504V202.885M-1.59173 202.885V190.07M-1.59173 190.07V178.443M-1.59173 178.443V178.162M-1.59173 178.162V167.069M-1.59173 167.069V156.709M-1.59173 156.709V148.939M-1.59173 148.939V147.014M-1.59173 147.014V137.919M-1.59173 137.919V129.372M-1.59173 129.372V124.353M-1.59173 124.353V121.325M-1.59173 121.325V113.734M-1.59173 113.734V106.563M-1.59173 106.563V103.549M-1.59173 103.549V99.7759M-1.59173 99.7759V93.3447M-1.59173 93.3447V87.2411M-1.59173 87.2411V85.7164M-1.59173 85.7164V81.4412M-1.59173 81.4412V75.9223" stroke="url(#paint0_linear_2734_1050)" stroke-opacity="0.6" stroke-width="1.8895" stroke-miterlimit="10" stroke-linecap="round" stroke-linejoin="round"/>
<defs>
<linearGradient id="paint0_linear_2734_1050" x1="756.5" y1="832.88" x2="756.5" y2="-197.132" gradientUnits="userSpaceOnUse">
<stop offset="0.439" stop-color="#70F45D" stop-opacity="0"/>
<stop offset="0.604" stop-color="#70F45D" stop-opacity="0.57"/>
<stop offset="0.759" stop-color="#AAFF9E" stop-opacity="0"/>
</linearGradient>
</defs>
</svg>
