<svg width="513" height="513" viewBox="0 0 513 513" fill="none" xmlns="http://www.w3.org/2000/svg">
<mask id="mask0_2839_150" style="mask-type:alpha" maskUnits="userSpaceOnUse" x="112" y="126" width="289" height="53">
<path d="M396.469 168.509V167.704H396.959C397.218 167.704 397.621 167.733 397.621 168.049C397.621 168.394 397.42 168.48 397.103 168.48H396.469M396.469 169.055H396.815L397.621 170.435H398.485L397.592 168.998C398.025 168.969 398.428 168.768 398.428 168.136C398.428 167.36 397.909 167.13 397.016 167.13H395.749V170.435H396.498L396.469 169.055ZM400.185 168.797C400.185 166.842 398.687 165.721 396.987 165.721C395.317 165.721 393.79 166.842 393.79 168.797C393.79 170.751 395.288 171.872 396.987 171.872C398.687 171.872 400.185 170.751 400.185 168.797ZM399.263 168.797C399.263 170.205 398.226 171.153 396.987 171.153C395.72 171.153 394.712 170.205 394.712 168.797C394.712 167.388 395.749 166.44 396.987 166.44C398.226 166.469 399.263 167.417 399.263 168.797ZM282.994 136.031V170.837H292.846V136.031H282.994ZM205.558 135.973V170.809H215.497V143.762L223.246 143.791C225.781 143.791 227.567 144.424 228.777 145.717C230.333 147.355 230.967 150.057 230.967 154.914V170.809H240.588V151.58C240.588 137.842 231.802 135.973 223.246 135.973H205.558ZM298.867 136.031V170.837H314.827C323.325 170.837 326.12 169.429 329.116 166.267C331.247 164.054 332.601 159.168 332.601 153.822C332.601 148.936 331.449 144.567 329.404 141.837C325.803 136.979 320.531 136.031 312.666 136.031H298.867ZM308.633 143.59H312.868C319.004 143.59 322.98 146.32 322.98 153.477C322.98 160.605 319.033 163.364 312.868 163.364H308.633V143.59ZM268.82 136.031L260.61 163.594L252.745 136.031H242.115L253.35 170.837H267.524L278.846 136.031H268.82ZM337.211 170.809H347.063V136.031H337.211V170.809ZM364.809 136.031L351.067 170.809H360.776L362.965 164.687H379.242L381.316 170.809H391.86L377.974 136.031H364.809ZM371.204 142.383L377.167 158.651H365.039L371.204 142.383ZM142.036 141.808V137.037C142.497 137.008 142.987 136.979 143.448 136.979C156.584 136.577 165.169 148.217 165.169 148.217C165.169 148.217 155.893 161.094 145.925 161.094C144.485 161.094 143.217 160.864 142.065 160.461V145.947C147.164 146.579 148.201 148.821 151.283 153.908L158.111 148.16C158.111 148.16 153.127 141.636 144.715 141.636C143.793 141.664 142.9 141.722 142.036 141.808ZM142.036 126V133.128C142.497 133.099 142.987 133.07 143.448 133.042C161.683 132.409 173.581 147.959 173.581 147.959C173.581 147.959 159.926 164.543 145.724 164.543C144.427 164.543 143.217 164.428 142.065 164.227V168.653C143.044 168.768 144.081 168.854 145.119 168.854C158.37 168.854 167.935 162.1 177.211 154.138C178.738 155.374 185.047 158.363 186.343 159.657C177.528 167.015 156.987 172.964 145.349 172.964C144.225 172.964 143.16 172.907 142.094 172.792V179H192.421V126H142.036ZM142.036 160.49V164.255C129.793 162.071 126.393 149.367 126.393 149.367C126.393 149.367 132.27 142.871 142.036 141.808V145.947H142.007C136.908 145.315 132.875 150.114 132.875 150.114C132.875 150.114 135.151 158.133 142.036 160.49ZM120.286 148.821C120.286 148.821 127.546 138.158 142.036 137.037V133.157C125.99 134.45 112.104 148.016 112.104 148.016C112.104 148.016 119.969 170.722 142.036 172.82V168.682C125.846 166.641 120.286 148.821 120.286 148.821Z" fill="url(#paint0_linear_2839_150)"/>
</mask>
<g mask="url(#mask0_2839_150)">
<rect x="197.589" y="103.773" width="248.758" height="91.4677" fill="white"/>
<rect x="109.54" y="112.322" width="80.3548" height="94.0323" fill="url(#paint1_linear_2839_150)"/>
</g>
<path d="M39.744 131.356L256.5 5.20662L473.256 131.356L474.126 382.147L256.5 506.788L38.8736 382.147L39.744 131.356Z" stroke="#3AA82A" stroke-width="9"/>
<path d="M170.575 364.727V388H167.848L155.166 369.727H154.939V388H152.121V364.727H154.848L167.575 383.045H167.802V364.727H170.575ZM174.891 388V370.545H177.573V388H174.891ZM176.254 367.636C175.732 367.636 175.281 367.458 174.902 367.102C174.531 366.746 174.345 366.318 174.345 365.818C174.345 365.318 174.531 364.89 174.902 364.534C175.281 364.178 175.732 364 176.254 364C176.777 364 177.224 364.178 177.595 364.534C177.974 364.89 178.164 365.318 178.164 365.818C178.164 366.318 177.974 366.746 177.595 367.102C177.224 367.458 176.777 367.636 176.254 367.636ZM181.888 388V364.727H184.57V373.318H184.797C184.994 373.015 185.267 372.629 185.615 372.159C185.972 371.682 186.479 371.258 187.138 370.886C187.805 370.508 188.706 370.318 189.843 370.318C191.312 370.318 192.608 370.686 193.729 371.42C194.85 372.155 195.725 373.197 196.354 374.545C196.983 375.894 197.297 377.485 197.297 379.318C197.297 381.167 196.983 382.769 196.354 384.125C195.725 385.473 194.854 386.519 193.74 387.261C192.627 387.996 191.343 388.364 189.888 388.364C188.767 388.364 187.869 388.178 187.195 387.807C186.521 387.428 186.002 387 185.638 386.523C185.275 386.038 184.994 385.636 184.797 385.318H184.479V388H181.888ZM184.525 379.273C184.525 380.591 184.718 381.754 185.104 382.761C185.49 383.761 186.055 384.545 186.797 385.114C187.54 385.674 188.449 385.955 189.525 385.955C190.646 385.955 191.581 385.659 192.331 385.068C193.089 384.47 193.657 383.667 194.036 382.659C194.422 381.644 194.615 380.515 194.615 379.273C194.615 378.045 194.426 376.939 194.047 375.955C193.676 374.962 193.112 374.178 192.354 373.602C191.604 373.019 190.661 372.727 189.525 372.727C188.434 372.727 187.517 373.004 186.775 373.557C186.032 374.102 185.472 374.867 185.093 375.852C184.714 376.83 184.525 377.97 184.525 379.273ZM200.44 388V370.545H203.121V388H200.44ZM201.803 367.636C201.28 367.636 200.83 367.458 200.451 367.102C200.08 366.746 199.894 366.318 199.894 365.818C199.894 365.318 200.08 364.89 200.451 364.534C200.83 364.178 201.28 364 201.803 364C202.326 364 202.773 364.178 203.144 364.534C203.523 364.89 203.712 365.318 203.712 365.818C203.712 366.318 203.523 366.746 203.144 367.102C202.773 367.458 202.326 367.636 201.803 367.636ZM215.477 364.727H218.841L226.75 384.045H227.022L234.931 364.727H238.295V388H235.659V370.318H235.431L228.159 388H225.613L218.341 370.318H218.113V388H215.477V364.727ZM247.758 388.409C246.652 388.409 245.649 388.201 244.747 387.784C243.846 387.36 243.13 386.75 242.599 385.955C242.069 385.152 241.804 384.182 241.804 383.045C241.804 382.045 242.001 381.235 242.395 380.614C242.789 379.985 243.315 379.492 243.974 379.136C244.633 378.78 245.361 378.515 246.156 378.341C246.959 378.159 247.766 378.015 248.577 377.909C249.637 377.773 250.497 377.67 251.156 377.602C251.823 377.527 252.308 377.402 252.611 377.227C252.921 377.053 253.077 376.75 253.077 376.318V376.227C253.077 375.106 252.77 374.235 252.156 373.614C251.55 372.992 250.63 372.682 249.395 372.682C248.114 372.682 247.111 372.962 246.383 373.523C245.656 374.083 245.145 374.682 244.849 375.318L242.304 374.409C242.758 373.348 243.364 372.523 244.122 371.932C244.887 371.333 245.721 370.917 246.622 370.682C247.531 370.439 248.425 370.318 249.304 370.318C249.864 370.318 250.508 370.386 251.236 370.523C251.971 370.652 252.679 370.92 253.361 371.33C254.05 371.739 254.622 372.356 255.077 373.182C255.531 374.008 255.758 375.114 255.758 376.5V388H253.077V385.636H252.94C252.758 386.015 252.455 386.42 252.031 386.852C251.607 387.284 251.042 387.652 250.338 387.955C249.633 388.258 248.774 388.409 247.758 388.409ZM248.167 386C249.228 386 250.122 385.792 250.849 385.375C251.584 384.958 252.137 384.42 252.508 383.761C252.887 383.102 253.077 382.409 253.077 381.682V379.227C252.963 379.364 252.713 379.489 252.327 379.602C251.948 379.708 251.508 379.803 251.008 379.886C250.516 379.962 250.035 380.03 249.565 380.091C249.103 380.144 248.728 380.189 248.44 380.227C247.743 380.318 247.092 380.466 246.486 380.67C245.887 380.867 245.402 381.167 245.031 381.568C244.667 381.962 244.486 382.5 244.486 383.182C244.486 384.114 244.83 384.818 245.52 385.295C246.217 385.765 247.099 386 248.167 386ZM266.784 388.364C265.208 388.364 263.826 387.989 262.636 387.239C261.455 386.489 260.53 385.439 259.864 384.091C259.205 382.742 258.875 381.167 258.875 379.364C258.875 377.545 259.205 375.958 259.864 374.602C260.53 373.246 261.455 372.193 262.636 371.443C263.826 370.693 265.208 370.318 266.784 370.318C268.36 370.318 269.739 370.693 270.921 371.443C272.11 372.193 273.034 373.246 273.693 374.602C274.36 375.958 274.693 377.545 274.693 379.364C274.693 381.167 274.36 382.742 273.693 384.091C273.034 385.439 272.11 386.489 270.921 387.239C269.739 387.989 268.36 388.364 266.784 388.364ZM266.784 385.955C267.981 385.955 268.966 385.648 269.739 385.034C270.511 384.42 271.083 383.614 271.455 382.614C271.826 381.614 272.011 380.53 272.011 379.364C272.011 378.197 271.826 377.11 271.455 376.102C271.083 375.095 270.511 374.28 269.739 373.659C268.966 373.038 267.981 372.727 266.784 372.727C265.587 372.727 264.602 373.038 263.83 373.659C263.057 374.28 262.485 375.095 262.114 376.102C261.743 377.11 261.557 378.197 261.557 379.364C261.557 380.53 261.743 381.614 262.114 382.614C262.485 383.614 263.057 384.42 263.83 385.034C264.602 385.648 265.587 385.955 266.784 385.955ZM288.827 380.864V370.545H291.509V388H288.827V385.045H288.645C288.236 385.932 287.6 386.686 286.736 387.307C285.872 387.92 284.782 388.227 283.463 388.227C282.372 388.227 281.403 387.989 280.554 387.511C279.706 387.027 279.039 386.299 278.554 385.33C278.069 384.352 277.827 383.121 277.827 381.636V370.545H280.509V381.455C280.509 382.727 280.865 383.742 281.577 384.5C282.297 385.258 283.213 385.636 284.327 385.636C284.994 385.636 285.672 385.466 286.361 385.125C287.058 384.784 287.641 384.261 288.111 383.557C288.588 382.852 288.827 381.955 288.827 380.864ZM295.461 388V370.545H298.052V373.182H298.234C298.552 372.318 299.127 371.617 299.961 371.08C300.794 370.542 301.734 370.273 302.779 370.273C302.976 370.273 303.222 370.277 303.518 370.284C303.813 370.292 304.037 370.303 304.188 370.318V373.045C304.097 373.023 303.889 372.989 303.563 372.943C303.245 372.89 302.908 372.864 302.552 372.864C301.703 372.864 300.946 373.042 300.279 373.398C299.62 373.746 299.097 374.231 298.711 374.852C298.332 375.466 298.143 376.167 298.143 376.955V388H295.461ZM306.407 388V370.545H309.089V388H306.407ZM307.771 367.636C307.248 367.636 306.797 367.458 306.418 367.102C306.047 366.746 305.862 366.318 305.862 365.818C305.862 365.318 306.047 364.89 306.418 364.534C306.797 364.178 307.248 364 307.771 364C308.293 364 308.74 364.178 309.112 364.534C309.49 364.89 309.68 365.318 309.68 365.818C309.68 366.318 309.49 366.746 309.112 367.102C308.74 367.458 308.293 367.636 307.771 367.636ZM314.768 394.545C314.314 394.545 313.908 394.508 313.552 394.432C313.196 394.364 312.95 394.295 312.814 394.227L313.495 391.864C314.147 392.03 314.723 392.091 315.223 392.045C315.723 392 316.166 391.777 316.552 391.375C316.946 390.981 317.306 390.341 317.632 389.455L318.132 388.091L311.677 370.545H314.586L319.404 384.455H319.586L324.404 370.545H327.314L319.904 390.545C319.571 391.447 319.158 392.193 318.666 392.784C318.173 393.383 317.601 393.826 316.95 394.114C316.306 394.402 315.579 394.545 314.768 394.545ZM334.498 388.409C333.392 388.409 332.389 388.201 331.487 387.784C330.586 387.36 329.87 386.75 329.339 385.955C328.809 385.152 328.544 384.182 328.544 383.045C328.544 382.045 328.741 381.235 329.135 380.614C329.529 379.985 330.055 379.492 330.714 379.136C331.373 378.78 332.101 378.515 332.896 378.341C333.699 378.159 334.506 378.015 335.317 377.909C336.377 377.773 337.237 377.67 337.896 377.602C338.563 377.527 339.048 377.402 339.351 377.227C339.661 377.053 339.817 376.75 339.817 376.318V376.227C339.817 375.106 339.51 374.235 338.896 373.614C338.29 372.992 337.37 372.682 336.135 372.682C334.854 372.682 333.851 372.962 333.123 373.523C332.396 374.083 331.885 374.682 331.589 375.318L329.044 374.409C329.498 373.348 330.104 372.523 330.862 371.932C331.627 371.333 332.461 370.917 333.362 370.682C334.271 370.439 335.165 370.318 336.044 370.318C336.604 370.318 337.248 370.386 337.976 370.523C338.711 370.652 339.419 370.92 340.101 371.33C340.79 371.739 341.362 372.356 341.817 373.182C342.271 374.008 342.498 375.114 342.498 376.5V388H339.817V385.636H339.68C339.498 386.015 339.195 386.42 338.771 386.852C338.347 387.284 337.783 387.652 337.078 387.955C336.373 388.258 335.514 388.409 334.498 388.409ZM334.908 386C335.968 386 336.862 385.792 337.589 385.375C338.324 384.958 338.877 384.42 339.248 383.761C339.627 383.102 339.817 382.409 339.817 381.682V379.227C339.703 379.364 339.453 379.489 339.067 379.602C338.688 379.708 338.248 379.803 337.748 379.886C337.256 379.962 336.775 380.03 336.305 380.091C335.843 380.144 335.468 380.189 335.18 380.227C334.483 380.318 333.832 380.466 333.226 380.67C332.627 380.867 332.142 381.167 331.771 381.568C331.408 381.962 331.226 382.5 331.226 383.182C331.226 384.114 331.57 384.818 332.26 385.295C332.957 385.765 333.839 386 334.908 386ZM349.115 377.5V388H346.433V370.545H349.024V373.273H349.251C349.661 372.386 350.282 371.674 351.115 371.136C351.948 370.591 353.024 370.318 354.342 370.318C355.524 370.318 356.558 370.561 357.445 371.045C358.331 371.523 359.02 372.25 359.513 373.227C360.005 374.197 360.251 375.424 360.251 376.909V388H357.57V377.091C357.57 375.72 357.214 374.652 356.501 373.886C355.789 373.114 354.812 372.727 353.57 372.727C352.714 372.727 351.948 372.913 351.274 373.284C350.608 373.655 350.081 374.197 349.695 374.909C349.308 375.621 349.115 376.485 349.115 377.5Z" fill="white"/>
<g filter="url(#filter0_d_2839_150)">
<rect x="18" y="205" width="476" height="129" fill="url(#paint2_linear_2839_150)"/>
</g>
<path d="M35 205H18L35 190V205Z" fill="#393939"/>
<path d="M478 205H494L478 190V205Z" fill="#393939"/>
<path d="M206.427 240H203.256C203.069 239.088 202.741 238.287 202.272 237.597C201.812 236.906 201.249 236.327 200.584 235.858C199.928 235.381 199.199 235.023 198.398 234.784C197.597 234.545 196.762 234.426 195.893 234.426C194.307 234.426 192.871 234.827 191.584 235.628C190.306 236.429 189.288 237.609 188.529 239.169C187.779 240.729 187.404 242.642 187.404 244.909C187.404 247.176 187.779 249.089 188.529 250.649C189.288 252.209 190.306 253.389 191.584 254.19C192.871 254.991 194.307 255.392 195.893 255.392C196.762 255.392 197.597 255.273 198.398 255.034C199.199 254.795 199.928 254.442 200.584 253.973C201.249 253.496 201.812 252.912 202.272 252.222C202.741 251.523 203.069 250.722 203.256 249.818H206.427C206.188 251.156 205.753 252.354 205.123 253.411C204.492 254.467 203.708 255.366 202.771 256.108C201.833 256.841 200.78 257.399 199.613 257.783C198.454 258.166 197.214 258.358 195.893 258.358C193.66 258.358 191.674 257.812 189.935 256.722C188.197 255.631 186.829 254.08 185.832 252.068C184.834 250.057 184.336 247.67 184.336 244.909C184.336 242.148 184.834 239.761 185.832 237.75C186.829 235.739 188.197 234.188 189.935 233.097C191.674 232.006 193.66 231.46 195.893 231.46C197.214 231.46 198.454 231.652 199.613 232.036C200.78 232.419 201.833 232.982 202.771 233.723C203.708 234.456 204.492 235.351 205.123 236.408C205.753 237.456 206.188 238.653 206.427 240ZM218.294 258.409C216.402 258.409 214.77 257.991 213.398 257.156C212.034 256.312 210.981 255.136 210.24 253.628C209.507 252.111 209.14 250.347 209.14 248.335C209.14 246.324 209.507 244.551 210.24 243.017C210.981 241.474 212.013 240.273 213.334 239.412C214.663 238.543 216.214 238.108 217.987 238.108C219.01 238.108 220.02 238.278 221.017 238.619C222.014 238.96 222.922 239.514 223.74 240.281C224.558 241.04 225.21 242.045 225.696 243.298C226.182 244.551 226.425 246.094 226.425 247.926V249.205H211.288V246.597H223.356C223.356 245.489 223.135 244.5 222.692 243.631C222.257 242.761 221.635 242.075 220.825 241.572C220.024 241.07 219.078 240.818 217.987 240.818C216.785 240.818 215.746 241.116 214.868 241.713C213.998 242.301 213.329 243.068 212.861 244.014C212.392 244.96 212.157 245.974 212.157 247.057V248.795C212.157 250.278 212.413 251.536 212.925 252.567C213.444 253.589 214.165 254.369 215.085 254.906C216.005 255.435 217.075 255.699 218.294 255.699C219.086 255.699 219.802 255.588 220.442 255.366C221.089 255.136 221.648 254.795 222.116 254.344C222.585 253.884 222.947 253.312 223.203 252.631L226.118 253.449C225.811 254.438 225.295 255.307 224.571 256.057C223.846 256.798 222.952 257.378 221.886 257.795C220.821 258.205 219.623 258.409 218.294 258.409ZM229.934 258V238.364H232.849V241.33H233.053C233.411 240.358 234.059 239.57 234.997 238.964C235.934 238.359 236.991 238.057 238.167 238.057C238.389 238.057 238.666 238.061 238.998 238.07C239.33 238.078 239.582 238.091 239.752 238.108V241.176C239.65 241.151 239.416 241.112 239.049 241.061C238.691 241.001 238.312 240.972 237.911 240.972C236.957 240.972 236.104 241.172 235.354 241.572C234.613 241.964 234.025 242.51 233.59 243.209C233.164 243.899 232.951 244.687 232.951 245.574V258H229.934ZM252.019 238.364V240.92H241.843V238.364H252.019ZM244.809 233.659H247.826V252.375C247.826 253.227 247.949 253.866 248.196 254.293C248.452 254.71 248.776 254.991 249.168 255.136C249.569 255.273 249.99 255.341 250.434 255.341C250.766 255.341 251.039 255.324 251.252 255.29C251.465 255.247 251.635 255.213 251.763 255.188L252.377 257.898C252.172 257.974 251.887 258.051 251.52 258.128C251.154 258.213 250.689 258.256 250.127 258.256C249.274 258.256 248.439 258.072 247.621 257.706C246.811 257.339 246.138 256.781 245.601 256.031C245.073 255.281 244.809 254.335 244.809 253.193V233.659ZM255.477 258V238.364H258.494V258H255.477ZM257.011 235.091C256.423 235.091 255.916 234.891 255.49 234.49C255.072 234.089 254.864 233.608 254.864 233.045C254.864 232.483 255.072 232.001 255.49 231.601C255.916 231.2 256.423 231 257.011 231C257.599 231 258.102 231.2 258.52 231.601C258.946 232.001 259.159 232.483 259.159 233.045C259.159 233.608 258.946 234.089 258.52 234.49C258.102 234.891 257.599 235.091 257.011 235.091ZM271.684 238.364V240.92H261.099V238.364H271.684ZM264.27 258V235.653C264.27 234.528 264.534 233.591 265.062 232.841C265.591 232.091 266.277 231.528 267.121 231.153C267.964 230.778 268.855 230.591 269.792 230.591C270.534 230.591 271.139 230.651 271.608 230.77C272.076 230.889 272.426 231 272.656 231.102L271.787 233.71C271.633 233.659 271.42 233.595 271.147 233.518C270.883 233.442 270.534 233.403 270.099 233.403C269.102 233.403 268.382 233.655 267.939 234.158C267.504 234.661 267.287 235.398 267.287 236.369V258H264.27ZM274.833 258V238.364H277.85V258H274.833ZM276.367 235.091C275.779 235.091 275.272 234.891 274.846 234.49C274.428 234.089 274.219 233.608 274.219 233.045C274.219 232.483 274.428 232.001 274.846 231.601C275.272 231.2 275.779 231 276.367 231C276.955 231 277.458 231.2 277.875 231.601C278.302 232.001 278.515 232.483 278.515 233.045C278.515 233.608 278.302 234.089 277.875 234.49C277.458 234.891 276.955 235.091 276.367 235.091ZM290.529 258.409C288.637 258.409 287.005 257.991 285.632 257.156C284.269 256.312 283.216 255.136 282.475 253.628C281.742 252.111 281.375 250.347 281.375 248.335C281.375 246.324 281.742 244.551 282.475 243.017C283.216 241.474 284.247 240.273 285.568 239.412C286.898 238.543 288.449 238.108 290.222 238.108C291.245 238.108 292.255 238.278 293.252 238.619C294.249 238.96 295.157 239.514 295.975 240.281C296.793 241.04 297.445 242.045 297.931 243.298C298.416 244.551 298.659 246.094 298.659 247.926V249.205H283.523V246.597H295.591C295.591 245.489 295.37 244.5 294.926 243.631C294.492 242.761 293.87 242.075 293.06 241.572C292.259 241.07 291.313 240.818 290.222 240.818C289.02 240.818 287.98 241.116 287.103 241.713C286.233 242.301 285.564 243.068 285.095 244.014C284.627 244.96 284.392 245.974 284.392 247.057V248.795C284.392 250.278 284.648 251.536 285.159 252.567C285.679 253.589 286.399 254.369 287.32 254.906C288.24 255.435 289.31 255.699 290.529 255.699C291.321 255.699 292.037 255.588 292.676 255.366C293.324 255.136 293.882 254.795 294.351 254.344C294.82 253.884 295.182 253.312 295.438 252.631L298.353 253.449C298.046 254.438 297.53 255.307 296.806 256.057C296.081 256.798 295.186 257.378 294.121 257.795C293.056 258.205 291.858 258.409 290.529 258.409ZM309.584 258.409C307.947 258.409 306.503 257.996 305.25 257.169C303.997 256.334 303.017 255.158 302.309 253.641C301.602 252.115 301.248 250.312 301.248 248.233C301.248 246.17 301.602 244.381 302.309 242.864C303.017 241.347 304.001 240.175 305.263 239.348C306.524 238.521 307.981 238.108 309.635 238.108C310.913 238.108 311.923 238.321 312.665 238.747C313.415 239.165 313.986 239.642 314.378 240.179C314.778 240.707 315.089 241.142 315.311 241.483H315.567V231.818H318.584V258H315.669V254.983H315.311C315.089 255.341 314.774 255.793 314.365 256.338C313.956 256.875 313.372 257.357 312.613 257.783C311.855 258.2 310.845 258.409 309.584 258.409ZM309.993 255.699C311.203 255.699 312.226 255.384 313.061 254.753C313.896 254.114 314.531 253.232 314.966 252.107C315.4 250.973 315.618 249.665 315.618 248.182C315.618 246.716 315.405 245.433 314.979 244.334C314.552 243.226 313.922 242.365 313.086 241.751C312.251 241.129 311.22 240.818 309.993 240.818C308.714 240.818 307.649 241.146 306.797 241.803C305.953 242.45 305.318 243.332 304.892 244.449C304.474 245.557 304.265 246.801 304.265 248.182C304.265 249.58 304.479 250.849 304.905 251.991C305.339 253.125 305.979 254.028 306.822 254.702C307.675 255.366 308.731 255.699 309.993 255.699ZM121.251 307V272.091H135.024C137.671 272.091 139.927 272.597 141.791 273.608C143.654 274.608 145.075 276 146.052 277.784C147.041 279.557 147.535 281.602 147.535 283.92C147.535 286.239 147.035 288.284 146.035 290.057C145.035 291.83 143.586 293.21 141.688 294.199C139.802 295.187 137.518 295.682 134.836 295.682H126.058V289.767H133.643C135.063 289.767 136.234 289.523 137.154 289.034C138.086 288.534 138.779 287.847 139.234 286.972C139.7 286.085 139.933 285.068 139.933 283.92C139.933 282.761 139.7 281.75 139.234 280.886C138.779 280.011 138.086 279.335 137.154 278.858C136.223 278.369 135.041 278.125 133.609 278.125H128.632V307H121.251ZM150.753 307V280.818H157.792V285.386H158.065C158.542 283.761 159.344 282.534 160.469 281.705C161.594 280.864 162.889 280.443 164.355 280.443C164.719 280.443 165.111 280.466 165.531 280.511C165.952 280.557 166.321 280.619 166.639 280.699V287.142C166.298 287.04 165.827 286.949 165.224 286.869C164.622 286.79 164.071 286.75 163.571 286.75C162.503 286.75 161.548 286.983 160.707 287.449C159.878 287.903 159.219 288.54 158.73 289.358C158.253 290.176 158.014 291.119 158.014 292.188V307H150.753ZM179.564 307.511C176.916 307.511 174.627 306.949 172.695 305.824C170.774 304.687 169.291 303.108 168.246 301.085C167.201 299.051 166.678 296.693 166.678 294.011C166.678 291.307 167.201 288.943 168.246 286.92C169.291 284.886 170.774 283.307 172.695 282.182C174.627 281.045 176.916 280.477 179.564 280.477C182.212 280.477 184.496 281.045 186.416 282.182C188.348 283.307 189.837 284.886 190.882 286.92C191.928 288.943 192.451 291.307 192.451 294.011C192.451 296.693 191.928 299.051 190.882 301.085C189.837 303.108 188.348 304.687 186.416 305.824C184.496 306.949 182.212 307.511 179.564 307.511ZM179.598 301.886C180.803 301.886 181.808 301.545 182.615 300.864C183.422 300.17 184.03 299.227 184.439 298.034C184.86 296.841 185.07 295.483 185.07 293.96C185.07 292.438 184.86 291.08 184.439 289.886C184.03 288.693 183.422 287.75 182.615 287.057C181.808 286.364 180.803 286.017 179.598 286.017C178.382 286.017 177.36 286.364 176.53 287.057C175.712 287.75 175.093 288.693 174.672 289.886C174.263 291.08 174.058 292.438 174.058 293.96C174.058 295.483 174.263 296.841 174.672 298.034C175.093 299.227 175.712 300.17 176.53 300.864C177.36 301.545 178.382 301.886 179.598 301.886ZM209.812 280.818V286.273H193.653V280.818H209.812ZM197.351 307V278.926C197.351 277.028 197.721 275.455 198.459 274.205C199.209 272.955 200.232 272.017 201.528 271.392C202.823 270.767 204.295 270.455 205.942 270.455C207.056 270.455 208.073 270.54 208.993 270.71C209.925 270.881 210.618 271.034 211.073 271.17L209.778 276.625C209.493 276.534 209.141 276.449 208.721 276.369C208.312 276.29 207.891 276.25 207.459 276.25C206.391 276.25 205.647 276.5 205.226 277C204.806 277.489 204.596 278.176 204.596 279.062V307H197.351ZM223.802 307.511C221.109 307.511 218.791 306.966 216.847 305.875C214.916 304.773 213.427 303.216 212.382 301.205C211.336 299.182 210.813 296.79 210.813 294.028C210.813 291.335 211.336 288.972 212.382 286.938C213.427 284.903 214.899 283.318 216.796 282.182C218.705 281.045 220.944 280.477 223.512 280.477C225.24 280.477 226.847 280.756 228.336 281.312C229.836 281.858 231.143 282.682 232.257 283.784C233.382 284.886 234.257 286.273 234.882 287.943C235.507 289.602 235.819 291.545 235.819 293.773V295.767H213.711V291.267H228.984C228.984 290.222 228.757 289.295 228.302 288.489C227.847 287.682 227.217 287.051 226.41 286.597C225.615 286.131 224.688 285.898 223.632 285.898C222.529 285.898 221.552 286.153 220.7 286.665C219.859 287.165 219.2 287.841 218.722 288.693C218.245 289.534 218.001 290.472 217.99 291.506V295.784C217.99 297.08 218.228 298.199 218.705 299.142C219.194 300.085 219.882 300.812 220.768 301.324C221.654 301.835 222.705 302.091 223.921 302.091C224.728 302.091 225.467 301.977 226.137 301.75C226.808 301.523 227.382 301.182 227.859 300.727C228.336 300.273 228.7 299.716 228.95 299.057L235.666 299.5C235.325 301.114 234.626 302.523 233.569 303.727C232.524 304.92 231.171 305.852 229.512 306.523C227.865 307.182 225.961 307.511 223.802 307.511ZM260.902 288.284L254.254 288.693C254.14 288.125 253.896 287.614 253.521 287.159C253.146 286.693 252.652 286.324 252.038 286.051C251.436 285.767 250.714 285.625 249.873 285.625C248.748 285.625 247.8 285.864 247.027 286.341C246.254 286.807 245.868 287.432 245.868 288.216C245.868 288.841 246.118 289.369 246.618 289.801C247.118 290.233 247.976 290.58 249.192 290.841L253.93 291.795C256.476 292.318 258.373 293.159 259.623 294.318C260.873 295.477 261.498 297 261.498 298.886C261.498 300.602 260.993 302.108 259.981 303.403C258.981 304.699 257.606 305.71 255.856 306.438C254.118 307.153 252.112 307.511 249.839 307.511C246.373 307.511 243.612 306.79 241.555 305.347C239.51 303.892 238.311 301.915 237.959 299.415L245.101 299.04C245.317 300.097 245.839 300.903 246.669 301.46C247.498 302.006 248.561 302.278 249.856 302.278C251.129 302.278 252.152 302.034 252.925 301.545C253.709 301.045 254.106 300.403 254.118 299.619C254.106 298.96 253.828 298.42 253.283 298C252.737 297.568 251.896 297.239 250.76 297.011L246.226 296.108C243.669 295.597 241.765 294.71 240.515 293.449C239.277 292.187 238.658 290.58 238.658 288.625C238.658 286.943 239.112 285.494 240.021 284.278C240.942 283.062 242.231 282.125 243.89 281.466C245.561 280.807 247.515 280.477 249.754 280.477C253.061 280.477 255.663 281.176 257.561 282.574C259.47 283.972 260.584 285.875 260.902 288.284ZM286.415 288.284L279.767 288.693C279.654 288.125 279.409 287.614 279.034 287.159C278.659 286.693 278.165 286.324 277.551 286.051C276.949 285.767 276.227 285.625 275.387 285.625C274.262 285.625 273.313 285.864 272.54 286.341C271.767 286.807 271.381 287.432 271.381 288.216C271.381 288.841 271.631 289.369 272.131 289.801C272.631 290.233 273.489 290.58 274.705 290.841L279.443 291.795C281.989 292.318 283.887 293.159 285.137 294.318C286.387 295.477 287.012 297 287.012 298.886C287.012 300.602 286.506 302.108 285.494 303.403C284.494 304.699 283.119 305.71 281.369 306.438C279.631 307.153 277.625 307.511 275.352 307.511C271.887 307.511 269.125 306.79 267.068 305.347C265.023 303.892 263.824 301.915 263.472 299.415L270.614 299.04C270.83 300.097 271.352 300.903 272.182 301.46C273.012 302.006 274.074 302.278 275.369 302.278C276.642 302.278 277.665 302.034 278.438 301.545C279.222 301.045 279.619 300.403 279.631 299.619C279.619 298.96 279.341 298.42 278.796 298C278.25 297.568 277.409 297.239 276.273 297.011L271.739 296.108C269.182 295.597 267.279 294.71 266.029 293.449C264.79 292.187 264.171 290.58 264.171 288.625C264.171 286.943 264.625 285.494 265.534 284.278C266.455 283.062 267.744 282.125 269.404 281.466C271.074 280.807 273.029 280.477 275.267 280.477C278.574 280.477 281.176 281.176 283.074 282.574C284.983 283.972 286.097 285.875 286.415 288.284ZM290.144 307V280.818H297.405V307H290.144ZM293.792 277.443C292.712 277.443 291.786 277.085 291.013 276.369C290.252 275.642 289.871 274.773 289.871 273.761C289.871 272.761 290.252 271.903 291.013 271.188C291.786 270.46 292.712 270.097 293.792 270.097C294.871 270.097 295.792 270.46 296.553 271.188C297.326 271.903 297.712 272.761 297.712 273.761C297.712 274.773 297.326 275.642 296.553 276.369C295.792 277.085 294.871 277.443 293.792 277.443ZM313.612 307.511C310.964 307.511 308.674 306.949 306.742 305.824C304.822 304.687 303.339 303.108 302.293 301.085C301.248 299.051 300.725 296.693 300.725 294.011C300.725 291.307 301.248 288.943 302.293 286.92C303.339 284.886 304.822 283.307 306.742 282.182C308.674 281.045 310.964 280.477 313.612 280.477C316.259 280.477 318.543 281.045 320.464 282.182C322.396 283.307 323.884 284.886 324.93 286.92C325.975 288.943 326.498 291.307 326.498 294.011C326.498 296.693 325.975 299.051 324.93 301.085C323.884 303.108 322.396 304.687 320.464 305.824C318.543 306.949 316.259 307.511 313.612 307.511ZM313.646 301.886C314.85 301.886 315.856 301.545 316.663 300.864C317.47 300.17 318.078 299.227 318.487 298.034C318.907 296.841 319.117 295.483 319.117 293.96C319.117 292.438 318.907 291.08 318.487 289.886C318.078 288.693 317.47 287.75 316.663 287.057C315.856 286.364 314.85 286.017 313.646 286.017C312.43 286.017 311.407 286.364 310.578 287.057C309.759 287.75 309.14 288.693 308.72 289.886C308.311 291.08 308.106 292.438 308.106 293.96C308.106 295.483 308.311 296.841 308.72 298.034C309.14 299.227 309.759 300.17 310.578 300.864C311.407 301.545 312.43 301.886 313.646 301.886ZM337.041 291.864V307H329.78V280.818H336.7V285.438H337.007C337.586 283.915 338.558 282.71 339.922 281.824C341.285 280.926 342.939 280.477 344.882 280.477C346.7 280.477 348.285 280.875 349.638 281.67C350.99 282.466 352.041 283.602 352.791 285.08C353.541 286.545 353.916 288.295 353.916 290.33V307H346.655V291.625C346.666 290.023 346.257 288.773 345.427 287.875C344.598 286.966 343.456 286.511 342.001 286.511C341.024 286.511 340.16 286.722 339.41 287.142C338.672 287.562 338.092 288.176 337.672 288.983C337.263 289.778 337.052 290.739 337.041 291.864ZM365.665 307.494C363.994 307.494 362.506 307.205 361.199 306.625C359.892 306.034 358.858 305.165 358.097 304.017C357.347 302.858 356.972 301.415 356.972 299.688C356.972 298.233 357.239 297.011 357.773 296.023C358.307 295.034 359.034 294.239 359.955 293.636C360.875 293.034 361.921 292.58 363.091 292.273C364.273 291.966 365.511 291.75 366.807 291.625C368.33 291.466 369.557 291.318 370.489 291.182C371.421 291.034 372.097 290.818 372.517 290.534C372.938 290.25 373.148 289.83 373.148 289.273V289.17C373.148 288.091 372.807 287.256 372.125 286.665C371.455 286.074 370.5 285.778 369.261 285.778C367.955 285.778 366.915 286.068 366.142 286.648C365.369 287.216 364.858 287.932 364.608 288.795L357.892 288.25C358.233 286.659 358.904 285.284 359.904 284.125C360.904 282.955 362.193 282.057 363.773 281.432C365.364 280.795 367.205 280.477 369.296 280.477C370.75 280.477 372.142 280.648 373.472 280.989C374.813 281.33 376 281.858 377.034 282.574C378.08 283.29 378.904 284.21 379.506 285.335C380.108 286.449 380.409 287.784 380.409 289.341V307H373.523V303.369H373.318C372.898 304.188 372.335 304.909 371.631 305.534C370.926 306.148 370.08 306.631 369.091 306.983C368.102 307.324 366.96 307.494 365.665 307.494ZM367.744 302.483C368.813 302.483 369.756 302.273 370.574 301.852C371.392 301.42 372.034 300.841 372.5 300.114C372.966 299.386 373.199 298.562 373.199 297.642V294.864C372.972 295.011 372.659 295.148 372.261 295.273C371.875 295.386 371.438 295.494 370.949 295.597C370.46 295.687 369.972 295.773 369.483 295.852C368.994 295.92 368.551 295.983 368.154 296.04C367.301 296.165 366.557 296.364 365.921 296.636C365.284 296.909 364.79 297.278 364.438 297.744C364.085 298.199 363.909 298.767 363.909 299.449C363.909 300.438 364.267 301.193 364.983 301.716C365.71 302.227 366.631 302.483 367.744 302.483ZM391.864 272.091V307H384.603V272.091H391.864Z" fill="white"/>
<defs>
<filter id="filter0_d_2839_150" x="8.9" y="199.9" width="494.2" height="147.2" filterUnits="userSpaceOnUse" color-interpolation-filters="sRGB">
<feFlood flood-opacity="0" result="BackgroundImageFix"/>
<feColorMatrix in="SourceAlpha" type="matrix" values="0 0 0 0 0 0 0 0 0 0 0 0 0 0 0 0 0 0 127 0" result="hardAlpha"/>
<feOffset dy="4"/>
<feGaussianBlur stdDeviation="4.55"/>
<feComposite in2="hardAlpha" operator="out"/>
<feColorMatrix type="matrix" values="0 0 0 0 0 0 0 0 0 0 0 0 0 0 0 0 0 0 1 0"/>
<feBlend mode="normal" in2="BackgroundImageFix" result="effect1_dropShadow_2839_150"/>
<feBlend mode="normal" in="SourceGraphic" in2="effect1_dropShadow_2839_150" result="shape"/>
</filter>
<linearGradient id="paint0_linear_2839_150" x1="256.145" y1="126" x2="256.145" y2="179" gradientUnits="userSpaceOnUse">
<stop stop-color="#70F45D"/>
<stop offset="1" stop-color="#418E36"/>
</linearGradient>
<linearGradient id="paint1_linear_2839_150" x1="149.717" y1="138.442" x2="149.717" y2="206.355" gradientUnits="userSpaceOnUse">
<stop stop-color="#3AA82A"/>
<stop offset="1" stop-color="#174210"/>
</linearGradient>
<linearGradient id="paint2_linear_2839_150" x1="256" y1="205" x2="256" y2="334" gradientUnits="userSpaceOnUse">
<stop stop-color="#505050"/>
<stop offset="1" stop-color="#222222"/>
</linearGradient>
</defs>
</svg>
