<svg width="564" height="888" viewBox="0 0 564 888" fill="none" xmlns="http://www.w3.org/2000/svg">
<g opacity="0.62">
<path d="M230.357 348.476C88.1338 183.614 -76.6488 92.6601 -137.696 145.324C-198.743 197.988 -132.936 374.327 9.28627 539.189C151.509 704.05 316.292 795.005 377.338 742.341C438.385 689.677 372.579 513.337 230.357 348.476Z" stroke="url(#paint0_linear_2231_127)" stroke-width="2" stroke-miterlimit="10"/>
<path d="M235.947 336.626C89.5448 178.048 -81.13 97.4957 -145.266 156.707C-209.403 215.919 -142.714 392.473 3.68803 551.051C150.09 709.629 320.765 790.181 384.901 730.969C449.037 671.758 382.348 495.204 235.947 336.626Z" stroke="url(#paint1_linear_2231_127)" stroke-width="2" stroke-miterlimit="10"/>
<path d="M241.873 323.607C91.2733 170.749 -85.4476 100.662 -152.844 167.063C-220.24 233.464 -152.791 411.208 -2.19078 564.066C148.409 716.923 325.13 787.011 392.526 720.61C459.923 654.209 392.473 476.465 241.873 323.607Z" stroke="url(#paint2_linear_2231_127)" stroke-width="2" stroke-miterlimit="10"/>
<path d="M248.054 309.445C93.2257 161.765 -89.6755 102.212 -160.467 176.43C-231.258 250.649 -163.133 430.533 -8.30435 578.213C146.524 725.893 329.425 785.446 400.217 711.228C471.008 637.009 402.883 457.125 248.054 309.445Z" stroke="url(#paint3_linear_2231_127)" stroke-width="2" stroke-miterlimit="10"/>
<path d="M254.313 294.206C95.194 151.204 -94.0027 102.27 -168.27 184.908C-242.538 267.546 -173.752 450.463 -14.6336 593.464C144.485 736.465 333.682 785.399 407.949 702.762C482.217 620.124 413.431 437.207 254.313 294.206Z" stroke="url(#paint4_linear_2231_127)" stroke-width="2" stroke-miterlimit="10"/>
<path d="M260.774 277.975C97.3367 139.142 -98.233 100.853 -176.043 192.453C-253.853 284.053 -184.438 470.856 -21.001 609.688C142.437 748.521 338.006 786.81 415.816 695.21C493.626 603.61 424.212 416.807 260.774 277.975Z" stroke="url(#paint5_linear_2231_127)" stroke-width="2" stroke-miterlimit="10"/>
<path d="M267.229 260.818C99.4081 125.712 -102.603 98.1253 -183.977 199.202C-265.35 300.279 -195.271 491.743 -27.4508 626.85C140.37 761.956 342.381 789.542 423.755 688.465C505.128 587.389 435.049 395.924 267.229 260.818Z" stroke="url(#paint6_linear_2231_127)" stroke-width="2" stroke-miterlimit="10"/>
<path d="M273.64 242.81C101.365 111.018 -107.143 94.1812 -192.077 205.203C-277.01 316.226 -206.205 513.066 -33.9297 644.858C138.345 776.65 346.854 793.487 431.787 682.465C516.72 571.442 445.915 374.603 273.64 242.81Z" stroke="url(#paint7_linear_2231_127)" stroke-width="2" stroke-miterlimit="10"/>
<path d="M280.006 224.043C103.215 95.1901 -111.826 89.1428 -200.304 210.536C-288.781 331.929 -217.189 534.794 -40.3985 663.647C136.392 792.5 351.433 798.548 439.911 677.154C528.388 555.761 456.796 352.896 280.006 224.043Z" stroke="url(#paint8_linear_2231_127)" stroke-width="2" stroke-miterlimit="10"/>
<path d="M286.514 204.588C105.163 78.2812 -116.452 82.9999 -208.476 215.128C-300.5 347.256 -228.086 556.759 -46.7346 683.066C134.617 809.373 356.232 804.654 448.256 672.527C540.28 540.399 467.866 330.896 286.514 204.588Z" stroke="url(#paint9_linear_2231_127)" stroke-width="2" stroke-miterlimit="10"/>
<path d="M292.751 184.501C106.749 60.4695 -121.46 76.0305 -216.967 219.257C-312.473 362.483 -239.112 579.138 -53.1098 703.169C132.893 827.2 361.101 811.639 456.608 668.413C552.115 525.186 478.754 308.531 292.751 184.501Z" stroke="url(#paint10_linear_2231_127)" stroke-width="2" stroke-miterlimit="10"/>
<path d="M299.104 163.872C108.408 41.7927 -126.422 68.168 -225.402 222.783C-324.383 377.397 -250.032 601.702 -59.335 723.781C131.362 845.86 366.192 819.485 465.172 664.87C564.152 510.256 489.801 285.951 299.104 163.872Z" stroke="url(#paint11_linear_2231_127)" stroke-width="2" stroke-miterlimit="10"/>
<path d="M305.161 142.726C109.674 22.3849 -131.79 59.6438 -234.165 225.946C-336.54 392.248 -261.059 624.618 -65.5721 744.959C129.914 865.3 371.379 828.041 473.754 661.739C576.129 495.437 500.647 263.067 305.161 142.726Z" stroke="url(#paint12_linear_2231_127)" stroke-width="2" stroke-miterlimit="10"/>
<path d="M311.312 121.162C110.992 2.28509 -137.132 50.3863 -242.89 228.599C-348.647 406.812 -271.989 647.65 -71.6691 766.527C128.651 885.404 376.776 837.302 482.533 659.09C588.291 480.877 511.633 240.039 311.312 121.162Z" stroke="url(#paint13_linear_2231_127)" stroke-width="2" stroke-miterlimit="10"/>
<path d="M317.321 99.1859C112.1 -18.4231 -142.696 40.543 -251.781 230.891C-360.866 421.238 -282.932 670.886 -77.7111 788.495C127.51 906.104 382.306 847.138 491.391 656.791C600.476 466.443 522.542 216.795 317.321 99.1859Z" stroke="url(#paint14_linear_2231_127)" stroke-width="2" stroke-miterlimit="10"/>
<path d="M323.294 76.8554C113.117 -39.6777 -148.364 30.1583 -260.74 232.838C-373.117 435.518 -293.834 694.292 -83.6579 810.825C126.519 927.358 388 857.522 500.376 654.842C612.753 452.162 533.47 193.388 323.294 76.8554Z" stroke="url(#paint15_linear_2231_127)" stroke-width="2" stroke-miterlimit="10"/>
<path d="M558.565 499.927C589.546 257.621 418.233 36.0778 175.927 5.09651C-66.3787 -25.8848 -287.922 145.428 -318.903 387.734C-349.885 630.04 -178.572 851.583 63.734 882.564C306.04 913.546 527.583 742.233 558.565 499.927Z" stroke="url(#paint16_linear_2231_127)" stroke-width="2" stroke-miterlimit="10"/>
</g>
<defs>
<linearGradient id="paint0_linear_2231_127" x1="563" y1="966.5" x2="49" y2="41.5" gradientUnits="userSpaceOnUse">
<stop stop-color="#64C555"/>
<stop offset="1" stop-color="#073A00"/>
</linearGradient>
<linearGradient id="paint1_linear_2231_127" x1="563" y1="966.5" x2="49" y2="41.5" gradientUnits="userSpaceOnUse">
<stop stop-color="#64C555"/>
<stop offset="1" stop-color="#073A00"/>
</linearGradient>
<linearGradient id="paint2_linear_2231_127" x1="563" y1="966.5" x2="49" y2="41.5" gradientUnits="userSpaceOnUse">
<stop stop-color="#64C555"/>
<stop offset="1" stop-color="#073A00"/>
</linearGradient>
<linearGradient id="paint3_linear_2231_127" x1="563" y1="966.5" x2="49" y2="41.5" gradientUnits="userSpaceOnUse">
<stop stop-color="#64C555"/>
<stop offset="1" stop-color="#073A00"/>
</linearGradient>
<linearGradient id="paint4_linear_2231_127" x1="563" y1="966.5" x2="49" y2="41.5" gradientUnits="userSpaceOnUse">
<stop stop-color="#64C555"/>
<stop offset="1" stop-color="#073A00"/>
</linearGradient>
<linearGradient id="paint5_linear_2231_127" x1="563" y1="966.5" x2="49" y2="41.5" gradientUnits="userSpaceOnUse">
<stop stop-color="#64C555"/>
<stop offset="1" stop-color="#073A00"/>
</linearGradient>
<linearGradient id="paint6_linear_2231_127" x1="563" y1="966.5" x2="49" y2="41.5" gradientUnits="userSpaceOnUse">
<stop stop-color="#64C555"/>
<stop offset="1" stop-color="#073A00"/>
</linearGradient>
<linearGradient id="paint7_linear_2231_127" x1="563" y1="966.5" x2="49" y2="41.5" gradientUnits="userSpaceOnUse">
<stop stop-color="#64C555"/>
<stop offset="1" stop-color="#073A00"/>
</linearGradient>
<linearGradient id="paint8_linear_2231_127" x1="563" y1="966.5" x2="49" y2="41.5" gradientUnits="userSpaceOnUse">
<stop stop-color="#64C555"/>
<stop offset="1" stop-color="#073A00"/>
</linearGradient>
<linearGradient id="paint9_linear_2231_127" x1="563" y1="966.5" x2="49" y2="41.5" gradientUnits="userSpaceOnUse">
<stop stop-color="#64C555"/>
<stop offset="1" stop-color="#073A00"/>
</linearGradient>
<linearGradient id="paint10_linear_2231_127" x1="563" y1="966.5" x2="49" y2="41.5" gradientUnits="userSpaceOnUse">
<stop stop-color="#64C555"/>
<stop offset="1" stop-color="#073A00"/>
</linearGradient>
<linearGradient id="paint11_linear_2231_127" x1="563" y1="966.5" x2="49" y2="41.5" gradientUnits="userSpaceOnUse">
<stop stop-color="#64C555"/>
<stop offset="1" stop-color="#073A00"/>
</linearGradient>
<linearGradient id="paint12_linear_2231_127" x1="563" y1="966.5" x2="49" y2="41.5" gradientUnits="userSpaceOnUse">
<stop stop-color="#64C555"/>
<stop offset="1" stop-color="#073A00"/>
</linearGradient>
<linearGradient id="paint13_linear_2231_127" x1="563" y1="966.5" x2="49" y2="41.5" gradientUnits="userSpaceOnUse">
<stop stop-color="#64C555"/>
<stop offset="1" stop-color="#073A00"/>
</linearGradient>
<linearGradient id="paint14_linear_2231_127" x1="563" y1="966.5" x2="49" y2="41.5" gradientUnits="userSpaceOnUse">
<stop stop-color="#64C555"/>
<stop offset="1" stop-color="#073A00"/>
</linearGradient>
<linearGradient id="paint15_linear_2231_127" x1="563" y1="966.5" x2="49" y2="41.5" gradientUnits="userSpaceOnUse">
<stop stop-color="#64C555"/>
<stop offset="1" stop-color="#073A00"/>
</linearGradient>
<linearGradient id="paint16_linear_2231_127" x1="563" y1="966.5" x2="49" y2="41.5" gradientUnits="userSpaceOnUse">
<stop stop-color="#64C555"/>
<stop offset="1" stop-color="#073A00"/>
</linearGradient>
</defs>
</svg>
