<svg width="74" height="86" viewBox="0 0 74 86" fill="none" xmlns="http://www.w3.org/2000/svg">
<path d="M27.1017 57.6898C25.5263 57.6898 24.249 56.4127 24.249 54.8372V52.23C24.249 47.518 28.0689 43.6981 32.7809 43.6981H41.2193C45.9313 43.6981 49.7512 47.518 49.7512 52.23V54.8372C49.7512 56.4126 48.4741 57.6898 46.8986 57.6898H27.1017Z" stroke="#BBBBBB" stroke-width="2.65446" stroke-miterlimit="10" stroke-linecap="round" stroke-linejoin="round"/>
<path d="M30.8843 52.1219C31.7869 52.1219 32.5186 51.3902 32.5186 50.4876C32.5186 49.585 31.7869 48.8533 30.8843 48.8533C29.9817 48.8533 29.25 49.585 29.25 50.4876C29.25 51.3902 29.9817 52.1219 30.8843 52.1219Z" fill="#BBBBBB"/>
<path d="M43.1162 52.1219C44.0188 52.1219 44.7505 51.3902 44.7505 50.4876C44.7505 49.585 44.0188 48.8533 43.1162 48.8533C42.2136 48.8533 41.4819 49.585 41.4819 50.4876C41.4819 51.3902 42.2136 52.1219 43.1162 52.1219Z" fill="#BBBBBB"/>
<path d="M17.9184 46.9757H19.259C19.3859 46.9757 19.5103 46.9868 19.6316 47.0071C21.8432 41.3707 27.3319 37.3799 33.7526 37.3799H40.2476C46.6685 37.3799 52.157 41.3707 54.3686 47.0071C54.4898 46.987 54.6141 46.9757 54.7411 46.9757H56.0816C57.3202 46.9757 58.3243 47.9798 58.3243 49.2184V53.916C58.3243 55.1545 57.3202 56.1586 56.0816 56.1586H55.2841C54.5671 60.3805 50.8925 63.5956 46.4664 63.5956H27.5336C23.1074 63.5956 19.4327 60.3807 18.716 56.1586H17.9184C16.6798 56.1586 15.6758 55.1545 15.6758 53.916V49.2184C15.6758 47.9798 16.6798 46.9757 17.9184 46.9757Z" stroke="#BBBBBB" stroke-width="2.65446" stroke-miterlimit="10" stroke-linecap="round" stroke-linejoin="round"/>
<path d="M19.7518 9.79561C21.9045 9.79561 23.6496 8.05051 23.6496 5.89781C23.6496 3.74511 21.9045 2 19.7518 2C17.5991 2 15.854 3.74511 15.854 5.89781C15.854 8.05051 17.5991 9.79561 19.7518 9.79561Z" stroke="#BBBBBB" stroke-width="2.65446" stroke-miterlimit="10" stroke-linecap="round" stroke-linejoin="round"/>
<path d="M54.2479 9.79561C56.4006 9.79561 58.1457 8.05051 58.1457 5.89781C58.1457 3.74511 56.4006 2 54.2479 2C52.0952 2 50.3501 3.74511 50.3501 5.89781C50.3501 8.05051 52.0952 9.79561 54.2479 9.79561Z" stroke="#BBBBBB" stroke-width="2.65446" stroke-miterlimit="10" stroke-linecap="round" stroke-linejoin="round"/>
<path d="M5.89781 25.3867C8.05051 25.3867 9.79561 23.6416 9.79561 21.4889C9.79561 19.3362 8.05051 17.5911 5.89781 17.5911C3.74511 17.5911 2 19.3362 2 21.4889C2 23.6416 3.74511 25.3867 5.89781 25.3867Z" stroke="#BBBBBB" stroke-width="2.65446" stroke-miterlimit="10" stroke-linecap="round" stroke-linejoin="round"/>
<path d="M37.0003 25.3867C39.153 25.3867 40.8982 23.6416 40.8982 21.4889C40.8982 19.3362 39.153 17.5911 37.0003 17.5911C34.8476 17.5911 33.1025 19.3362 33.1025 21.4889C33.1025 23.6416 34.8476 25.3867 37.0003 25.3867Z" stroke="#BBBBBB" stroke-width="2.65446" stroke-miterlimit="10" stroke-linecap="round" stroke-linejoin="round"/>
<path d="M68.1019 25.3867C70.2546 25.3867 71.9997 23.6416 71.9997 21.4889C71.9997 19.3362 70.2546 17.5911 68.1019 17.5911C65.9492 17.5911 64.2041 19.3362 64.2041 21.4889C64.2041 23.6416 65.9492 25.3867 68.1019 25.3867Z" stroke="#BBBBBB" stroke-width="2.65446" stroke-miterlimit="10" stroke-linecap="round" stroke-linejoin="round"/>
<path d="M37.0003 84.0743C39.153 84.0743 40.8982 82.3292 40.8982 80.1765C40.8982 78.0238 39.153 76.2787 37.0003 76.2787C34.8476 76.2787 33.1025 78.0238 33.1025 80.1765C33.1025 82.3292 34.8476 84.0743 37.0003 84.0743Z" stroke="#BBBBBB" stroke-width="2.65446" stroke-miterlimit="10" stroke-linecap="round" stroke-linejoin="round"/>
<path d="M37 64.1046V76.2788" stroke="#BBBBBB" stroke-width="2.65446" stroke-miterlimit="10" stroke-linecap="round" stroke-linejoin="round"/>
<path d="M37 26.3502V37.2099" stroke="#BBBBBB" stroke-width="2.65446" stroke-miterlimit="10" stroke-linecap="round" stroke-linejoin="round"/>
<path d="M5.89746 25.3865C5.89746 28.401 8.34118 30.8449 11.3559 30.8449H27.0597C30.0742 30.8449 32.5181 33.2887 32.5181 36.3034V37.2101" stroke="#BBBBBB" stroke-width="2.65446" stroke-miterlimit="10" stroke-linecap="round" stroke-linejoin="round"/>
<path d="M68.1021 25.3865C68.1021 28.401 65.6584 30.8449 62.6436 30.8449H46.9399C43.9253 30.8449 41.4814 33.2887 41.4814 36.3034V37.2101" stroke="#BBBBBB" stroke-width="2.65446" stroke-miterlimit="10" stroke-linecap="round" stroke-linejoin="round"/>
<path d="M19.752 9.79541V17.2014C19.752 19.5693 21.6715 21.4887 24.0392 21.4887C26.4071 21.4887 28.3264 23.4082 28.3264 25.7759V26.35" stroke="#BBBBBB" stroke-width="2.65446" stroke-miterlimit="10" stroke-linecap="round" stroke-linejoin="round"/>
<path d="M54.3777 9.79541V17.2014C54.3777 19.5693 52.4582 21.4887 50.0905 21.4887C47.7226 21.4887 45.8032 23.4082 45.8032 25.7759V26.35" stroke="#BBBBBB" stroke-width="2.65446" stroke-miterlimit="10" stroke-linecap="round" stroke-linejoin="round"/>
</svg>
