<svg width="106" height="75" viewBox="0 0 106 75" fill="none" xmlns="http://www.w3.org/2000/svg">
<path d="M47.6261 15.0758H14.8481" stroke="#BBBBBB" stroke-width="2.56743" stroke-miterlimit="10" stroke-linecap="round" stroke-linejoin="round"/>
<path d="M40.9481 28.0039H14.8481" stroke="#BBBBBB" stroke-width="2.56743" stroke-miterlimit="10" stroke-linecap="round" stroke-linejoin="round"/>
<path d="M27.8238 40.9318H14.8481" stroke="#BBBBBB" stroke-width="2.56743" stroke-miterlimit="10" stroke-linecap="round" stroke-linejoin="round"/>
<path d="M53.3244 63.4553C50.7782 63.4553 48.7139 61.3912 48.7139 58.8448V54.631C48.7139 47.0152 54.8876 40.8416 62.5033 40.8416H76.1416C83.7574 40.8416 89.931 47.0152 89.931 54.631V58.8448C89.931 61.391 87.8669 63.4553 85.3205 63.4553H53.3244Z" stroke="#BBBBBB" stroke-width="2.56743" stroke-miterlimit="10" stroke-linecap="round" stroke-linejoin="round"/>
<path d="M61.9945 51.815C61.9945 53.2267 60.8501 54.3711 59.4385 54.3711C58.0268 54.3711 56.8825 53.2267 56.8825 51.815C56.8825 50.4034 58.0268 49.259 59.4385 49.259C60.8501 49.259 61.9945 50.4034 61.9945 51.815Z" fill="#BBBBBB" stroke="#BBBBBB" stroke-width="0.171162"/>
<path d="M81.764 51.815C81.764 53.2267 80.6196 54.3711 79.208 54.3711C77.7964 54.3711 76.652 53.2267 76.652 51.815C76.652 50.4034 77.7964 49.259 79.208 49.259C80.6196 49.259 81.764 50.4034 81.764 51.815Z" fill="#BBBBBB" stroke="#BBBBBB" stroke-width="0.171162"/>
<path d="M38.483 46.1388H40.6498C40.855 46.1388 41.056 46.1568 41.252 46.1894C44.8264 37.0798 53.697 30.6298 64.0746 30.6298H74.5716C84.9492 30.6298 93.8198 37.0798 97.3942 46.1894C97.5902 46.1566 97.7912 46.1388 97.9965 46.1388H100.163C102.165 46.1388 103.788 47.7616 103.788 49.7634V57.3556C103.788 59.3573 102.165 60.9801 100.163 60.9801H98.8744C97.7158 67.8038 91.7766 72.9999 84.6231 72.9999H54.0236C46.87 72.9999 40.9309 67.8038 39.7723 60.9801H38.4835C36.4817 60.9801 34.8589 59.3573 34.8589 57.3556V49.7634C34.8584 47.7616 36.4812 46.1388 38.483 46.1388Z" stroke="#BBBBBB" stroke-width="2.56743" stroke-miterlimit="10" stroke-linecap="round" stroke-linejoin="round"/>
<path d="M97.394 46.1896C97.394 46.1896 97.9229 49.0546 98.0019 52.1483" stroke="#BBBBBB" stroke-width="2.56743" stroke-miterlimit="10" stroke-linecap="round" stroke-linejoin="round"/>
<path d="M41.2519 46.1896C41.2519 46.1896 40.723 49.0546 40.644 52.1483" stroke="#BBBBBB" stroke-width="2.56743" stroke-miterlimit="10" stroke-linecap="round" stroke-linejoin="round"/>
<path d="M60.685 22.3156V11.8257C60.685 6.3992 56.2858 2 50.8592 2H11.6148C6.18826 2 1.78906 6.3992 1.78906 11.8257V48.9158C1.78906 54.3423 6.18826 58.7415 11.6148 58.7415H25.3696" stroke="#BBBBBB" stroke-width="2.56743" stroke-miterlimit="10" stroke-linecap="round" stroke-linejoin="round"/>
</svg>
