<svg width="83" height="73" viewBox="0 0 83 73" fill="none" xmlns="http://www.w3.org/2000/svg">
<path d="M53.0822 7.31801L53.0821 7.31798C47.9999 4.4323 42.2521 2.92393 36.4078 2.94218C30.5634 2.96043 24.8252 4.50466 19.7611 7.42202C14.6969 10.3394 10.4825 14.5287 7.5349 19.5753C4.58732 24.6219 3.00881 30.3508 2.95562 36.1949C2.90243 42.039 4.37641 47.7957 7.23165 52.8951C10.0869 57.9946 14.2244 62.2599 19.2346 65.2689C24.2448 68.278 29.954 69.9264 35.797 70.051C41.64 70.1756 47.4143 68.7721 52.5482 65.9794L52.5483 65.9794C52.8792 65.7989 53.2682 65.7572 53.6298 65.8635C53.8088 65.9162 53.9758 66.0036 54.121 66.1207C54.2663 66.2379 54.3871 66.3825 54.4764 66.5463C54.5658 66.7101 54.622 66.89 54.6419 67.0755C54.6618 67.2611 54.6449 67.4487 54.5923 67.6278C54.5396 67.8068 54.4523 67.9737 54.3351 68.119C54.218 68.2642 54.0734 68.3849 53.9096 68.4743C48.5665 71.379 42.5814 72.9004 36.4998 72.9C30.9281 72.8979 25.4312 71.6167 20.4327 69.1552C15.4342 66.6937 11.0675 63.1176 7.66898 58.7023C4.27049 54.2871 1.93093 49.1506 0.830574 43.6886C-0.269785 38.2266 -0.101577 32.5849 1.32224 27.1982C2.74605 21.8115 5.38747 16.8235 9.04297 12.6186C12.6985 8.41369 17.2705 5.10407 22.4068 2.94474C27.5431 0.785408 33.1065 -0.165992 38.6684 0.163839C44.2304 0.493669 49.6423 2.09592 54.4874 4.84713C54.6496 4.9394 54.7921 5.06272 54.9067 5.21006C55.0213 5.35739 55.1057 5.52585 55.1552 5.70581C55.2047 5.88578 55.2182 6.07372 55.1951 6.25892C55.1719 6.44412 55.1125 6.62295 55.0202 6.78519C54.928 6.94743 54.8046 7.08991 54.6573 7.20449C54.51 7.31907 54.3415 7.40351 54.1616 7.45298C53.7981 7.55291 53.4098 7.50436 53.0822 7.31801Z" fill="#BBBBBB" stroke="white" stroke-width="0.2"/>
<path d="M36.5002 72.9C29.4132 72.9 22.977 68.83 18.3086 62.2391C13.6403 55.6485 10.746 46.5442 10.746 36.5C10.746 26.4557 13.6403 17.3515 18.3086 10.7609C22.977 4.16995 29.4132 0.1 36.5002 0.1C42.4273 0.1 48.2088 2.99367 52.7802 8.26167C53.0128 8.54772 53.1251 8.91302 53.0933 9.28037C53.0615 9.64825 52.8878 9.98929 52.6088 10.2313C52.3299 10.4732 51.9678 10.5971 51.5991 10.5767C51.2309 10.5563 50.8851 10.3935 50.6348 10.1229C46.5611 5.43008 41.675 2.94167 36.5002 2.94167C30.1679 2.94167 24.4373 6.71955 20.2942 12.796C16.1508 18.8731 13.5877 27.2579 13.5877 36.5C13.5877 45.7421 16.1508 54.1269 20.2942 60.2039C24.4373 66.2804 30.1679 70.0583 36.5002 70.0583C36.877 70.0583 37.2384 70.208 37.5048 70.4744C37.7713 70.7409 37.921 71.1023 37.921 71.4791C37.921 71.856 37.7713 72.2174 37.5048 72.4838C37.2384 72.7503 36.877 72.9 36.5002 72.9Z" fill="#BBBBBB" stroke="white" stroke-width="0.2"/>
<path d="M44.455 8.61775L44.455 8.61776L44.4558 8.6199C44.5275 8.79521 44.5634 8.98308 44.5614 9.17247C44.5595 9.36185 44.5196 9.54893 44.4443 9.7227C44.369 9.89647 44.2597 10.0534 44.1228 10.1843C43.986 10.3153 43.8243 10.4175 43.6474 10.485C43.4704 10.5526 43.2817 10.5841 43.0925 10.5776C42.9032 10.5712 42.7171 10.527 42.5451 10.4476C42.3732 10.3682 42.2188 10.2553 42.0912 10.1153C41.9635 9.97545 41.8651 9.81144 41.8017 9.63296L41.8018 9.63295L41.8009 9.6307C41.0057 7.55086 40.1178 5.88467 39.2149 4.73642C38.316 3.59312 37.3848 2.94167 36.5002 2.94167C35.9963 2.94167 35.4764 3.15252 34.9558 3.54961C34.4352 3.94673 33.9083 4.53406 33.3877 5.29822C32.3465 6.82656 31.3211 9.07563 30.4164 11.9676C28.6068 17.7527 27.2752 26.1277 27.2752 36.5C27.2752 46.8722 28.6068 55.2472 30.4164 61.0324C31.3211 63.9243 32.3465 66.1734 33.3877 67.7018C33.9083 68.4659 34.4352 69.0532 34.9558 69.4504C35.4764 69.8475 35.9963 70.0583 36.5002 70.0583C37.3195 70.0583 38.1815 69.5285 39.0299 68.5328C39.8806 67.5343 40.7314 66.0518 41.528 64.1081C43.1215 60.22 44.5051 54.4686 45.2304 47.0034L45.2306 47.0011C45.2445 46.8121 45.296 46.6279 45.3822 46.4592C45.4683 46.2905 45.5873 46.1407 45.7322 46.0186C45.877 45.8966 46.0449 45.8047 46.2257 45.7485C46.4066 45.6922 46.5969 45.6727 46.7855 45.6911C46.974 45.7095 47.157 45.7654 47.3236 45.8555C47.4902 45.9456 47.6371 46.0682 47.7557 46.2159C47.8743 46.3636 47.9621 46.5336 48.014 46.7158C48.066 46.8979 48.0809 47.0887 48.058 47.2767L48.0578 47.2791C47.4552 53.4901 46.2307 59.9077 44.3162 64.7695C43.3588 67.2006 42.2313 69.2366 40.9275 70.6633C39.6248 72.0889 38.1522 72.9 36.5002 72.9C34.5675 72.9 32.8448 71.752 31.3431 69.7257C29.8416 67.6995 28.572 64.8083 27.5471 61.3571C25.4975 54.4558 24.4335 45.341 24.4335 36.5C24.4335 27.659 25.4975 18.5441 27.5471 11.6429C28.572 8.19164 29.8416 5.30051 31.3431 3.27432C32.8448 1.24793 34.5675 0.1 36.5002 0.1C38.6161 0.1 41.7515 1.54204 44.455 8.61775Z" fill="#BBBBBB" stroke="white" stroke-width="0.2"/>
<path d="M36.5 21.1917H6.08333C5.7065 21.1917 5.34511 21.042 5.07865 20.7755C4.81219 20.5091 4.6625 20.1477 4.6625 19.7708C4.6625 19.394 4.81219 19.0326 5.07865 18.7662C5.34511 18.4997 5.7065 18.35 6.08333 18.35H36.5C36.8768 18.35 37.2382 18.4997 37.5047 18.7662C37.7711 19.0326 37.9208 19.394 37.9208 19.7708C37.9208 20.1477 37.7711 20.5091 37.5047 20.7755C37.2382 21.042 36.8768 21.1917 36.5 21.1917Z" fill="#BBBBBB" stroke="white" stroke-width="0.2"/>
<path d="M45.625 54.6498H6.08333C5.7065 54.6498 5.34511 54.5001 5.07865 54.2336C4.81219 53.9672 4.6625 53.6058 4.6625 53.229C4.6625 52.8521 4.81219 52.4907 5.07865 52.2243C5.34511 51.9578 5.7065 51.8081 6.08333 51.8081H45.625C46.0018 51.8081 46.3632 51.9578 46.6297 52.2243C46.8961 52.4907 47.0458 52.8521 47.0458 53.229C47.0458 53.6058 46.8961 53.9672 46.6297 54.2336C46.3632 54.5001 46.0018 54.6498 45.625 54.6498Z" fill="#BBBBBB" stroke="white" stroke-width="0.2"/>
<path d="M36.5 37.9207H1.52083C1.144 37.9207 0.78261 37.771 0.516152 37.5045C0.249694 37.2381 0.1 36.8767 0.1 36.4998C0.1 36.123 0.249694 35.7616 0.516152 35.4952C0.78261 35.2287 1.144 35.079 1.52083 35.079H36.5C36.8768 35.079 37.2382 35.2287 37.5047 35.4952C37.7711 35.7616 37.9208 36.123 37.9208 36.4998C37.9208 36.8767 37.7711 37.2381 37.5047 37.5045C37.2382 37.771 36.8768 37.9207 36.5 37.9207Z" fill="#BBBBBB" stroke="white" stroke-width="0.2"/>
<path d="M44.0042 19.7708V19.8708H44.1042H47.1458H47.2458V19.7708V16.7292V16.6292H47.1458H44.1042H44.0042V16.7292V19.7708ZM48.6667 22.7125H42.5833C42.2065 22.7125 41.8451 22.5628 41.5787 22.2963C41.3122 22.0299 41.1625 21.6685 41.1625 21.2917V15.2083C41.1625 14.8315 41.3122 14.4701 41.5787 14.2037C41.8451 13.9372 42.2065 13.7875 42.5833 13.7875H48.6667C49.0435 13.7875 49.4049 13.9372 49.6713 14.2037C49.9378 14.4701 50.0875 14.8315 50.0875 15.2083V21.2917C50.0875 21.6685 49.9378 22.0299 49.6713 22.2963C49.4049 22.5628 49.0435 22.7125 48.6667 22.7125Z" fill="#BBBBBB" stroke="white" stroke-width="0.2"/>
<path d="M53.1292 30.4167V30.5167H53.2292H56.2708H56.3708V30.4167V27.375V27.275H56.2708H53.2292H53.1292V27.375V30.4167ZM57.7917 33.3584H51.7083C51.3315 33.3584 50.9701 33.2087 50.7037 32.9422C50.4372 32.6758 50.2875 32.3144 50.2875 31.9375V25.8542C50.2875 25.4774 50.4372 25.116 50.7037 24.8495C50.9701 24.5831 51.3315 24.4334 51.7083 24.4334H57.7917C58.1685 24.4334 58.5299 24.5831 58.7963 24.8495C59.0628 25.116 59.2125 25.4774 59.2125 25.8542V31.9375C59.2125 32.3144 59.0628 32.6758 58.7963 32.9422C58.5299 33.2087 58.1685 33.3584 57.7917 33.3584Z" fill="#BBBBBB" stroke="white" stroke-width="0.2"/>
<path d="M42.4832 41.0623V41.1623H42.5832H45.6248H45.7248V41.0623V38.0207V37.9207H45.6248H42.5832H42.4832V38.0207V41.0623ZM47.1457 44.004H41.0623C40.6855 44.004 40.3241 43.8543 40.0577 43.5878C39.7912 43.3214 39.6415 42.96 39.6415 42.5832V36.4998C39.6415 36.123 39.7912 35.7616 40.0577 35.4952C40.3241 35.2287 40.6855 35.079 41.0623 35.079H47.1457C47.5225 35.079 47.8839 35.2287 48.1503 35.4952C48.4168 35.7616 48.5665 36.123 48.5665 36.4998V42.5832C48.5665 42.96 48.4168 43.3214 48.1503 43.5878C47.8839 43.8543 47.5225 44.004 47.1457 44.004Z" fill="#BBBBBB" stroke="white" stroke-width="0.2"/>
<path d="M60.7332 12.1666V12.2666H60.8332H66.9165H67.0165V12.1666V6.08329V5.98329H66.9165H60.8332H60.7332V6.08329V12.1666ZM68.4373 15.1083H59.3123C58.9355 15.1083 58.5741 14.9586 58.3077 14.6921C58.0412 14.4257 57.8915 14.0643 57.8915 13.6875V4.56246C57.8915 4.18563 58.0412 3.82424 58.3077 3.55778C58.5741 3.29132 58.9355 3.14163 59.3123 3.14163H68.4373C68.8142 3.14163 69.1756 3.29132 69.442 3.55778C69.7085 3.82424 69.8582 4.18563 69.8582 4.56246V13.6875C69.8582 14.0643 69.7085 14.4257 69.442 14.6921C69.1756 14.9586 68.8142 15.1083 68.4373 15.1083Z" fill="#BBBBBB" stroke="white" stroke-width="0.2"/>
<path d="M60.7332 44.104V44.204H60.8332H66.9165H67.0165V44.104V38.0207V37.9207H66.9165H60.8332H60.7332V38.0207V44.104ZM68.4373 47.0457H59.3123C58.9355 47.0457 58.5741 46.896 58.3077 46.6295C58.0412 46.3631 57.8915 46.0017 57.8915 45.6248V36.4998C57.8915 36.123 58.0412 35.7616 58.3077 35.4952C58.5741 35.2287 58.9355 35.079 59.3123 35.079H68.4373C68.8142 35.079 69.1756 35.2287 69.442 35.4952C69.7085 35.7616 69.8582 36.123 69.8582 36.4998V45.6248C69.8582 46.0017 69.7085 46.3631 69.442 46.6295C69.1756 46.896 68.8142 47.0457 68.4373 47.0457Z" fill="#BBBBBB" stroke="white" stroke-width="0.2"/>
<path d="M51.6082 60.8331V60.9331H51.7082H57.7915H57.8915V60.8331V54.7498V54.6498H57.7915H51.7082H51.6082V54.7498V60.8331ZM59.3123 63.7748H50.1873C49.8105 63.7748 49.4491 63.6251 49.1827 63.3586C48.9162 63.0922 48.7665 62.7308 48.7665 62.354V53.229C48.7665 52.8521 48.9162 52.4907 49.1827 52.2243C49.4491 51.9578 49.8105 51.8081 50.1873 51.8081H59.3123C59.6892 51.8081 60.0506 51.9578 60.317 52.2243C60.5835 52.4907 60.7332 52.8521 60.7332 53.229V62.354C60.7332 62.7308 60.5835 63.0922 60.317 63.3586C60.0506 63.6251 59.6892 63.7748 59.3123 63.7748Z" fill="#BBBBBB" stroke="white" stroke-width="0.2"/>
<path d="M69.8582 30.4167V30.5167H69.9582H79.0832H79.1832V30.4167V21.2917V21.1917H79.0832H69.9582H69.8582V21.2917V30.4167ZM80.604 33.3583H68.4373C68.0605 33.3583 67.6991 33.2086 67.4327 32.9422C67.1662 32.6757 67.0165 32.3143 67.0165 31.9375V19.7708C67.0165 19.394 67.1662 19.0326 67.4327 18.7662C67.6991 18.4997 68.0605 18.35 68.4373 18.35H80.604C80.9808 18.35 81.3422 18.4997 81.6087 18.7662C81.8751 19.0326 82.0248 19.394 82.0248 19.7708V31.9375C82.0248 32.3143 81.8751 32.6757 81.6087 32.9422C81.3422 33.2086 80.9808 33.3583 80.604 33.3583Z" fill="#BBBBBB" stroke="white" stroke-width="0.2"/>
<path d="M69.8582 69.9583V70.0583H69.9582H79.0832H79.1832V69.9583V60.8333V60.7333H79.0832H69.9582H69.8582V60.8333V69.9583ZM80.604 72.9H68.4373C68.0605 72.9 67.6991 72.7503 67.4327 72.4838C67.1662 72.2173 67.0165 71.8559 67.0165 71.4791V59.3125C67.0165 58.9356 67.1662 58.5742 67.4327 58.3078C67.6991 58.0413 68.0605 57.8916 68.4373 57.8916H80.604C80.9808 57.8916 81.3422 58.0413 81.6087 58.3078C81.8751 58.5742 82.0248 58.9356 82.0248 59.3125V71.4791C82.0248 71.8559 81.8751 72.2173 81.6087 72.4838C81.3422 72.7503 80.9808 72.9 80.604 72.9Z" fill="#BBBBBB" stroke="white" stroke-width="0.2"/>
<path d="M35.079 1.62087H37.9207V71.3792H35.079V1.62087Z" fill="#BBBBBB" stroke="white" stroke-width="0.2"/>
</svg>
