<svg width="82" height="79" viewBox="0 0 82 79" fill="none" xmlns="http://www.w3.org/2000/svg">
<path d="M80.8392 55.9507V3.74754C80.8392 2.09901 79.7402 1 78.0917 1H3.90818C2.25966 1 1.16064 2.09901 1.16064 3.74754V55.9507" stroke="#BBBBBB" stroke-width="2" stroke-miterlimit="10" stroke-linecap="round"/>
<path d="M34.1313 64.1934V72.436C34.1313 75.4583 31.6585 77.931 28.6362 77.931H25.8887H57.4853H53.364C50.3418 77.931 47.869 75.4583 47.869 72.436V64.1934" stroke="#BBBBBB" stroke-width="2" stroke-miterlimit="10" stroke-linecap="round" stroke-linejoin="round"/>
<path d="M78.0917 64.1933H3.90818C2.25966 64.1933 1.16064 63.0943 1.16064 61.4458V55.9507H80.8392V61.4458C80.8392 63.0943 79.7402 64.1933 78.0917 64.1933Z" stroke="#BBBBBB" stroke-width="2" stroke-miterlimit="10" stroke-linecap="round" stroke-linejoin="round"/>
<path d="M40.9999 42.213C48.587 42.213 54.7376 36.0625 54.7376 28.4754C54.7376 20.8882 48.587 14.7377 40.9999 14.7377C33.4128 14.7377 27.2622 20.8882 27.2622 28.4754C27.2622 36.0625 33.4128 42.213 40.9999 42.213Z" stroke="#BBBBBB" stroke-width="2" stroke-miterlimit="10" stroke-linecap="round" stroke-linejoin="round"/>
<path d="M41.0007 32.5966C43.2768 32.5966 45.122 30.7514 45.122 28.4753C45.122 26.1992 43.2768 24.354 41.0007 24.354C38.7246 24.354 36.8794 26.1992 36.8794 28.4753C36.8794 30.7514 38.7246 32.5966 41.0007 32.5966Z" stroke="#BBBBBB" stroke-width="2" stroke-miterlimit="10" stroke-linecap="round" stroke-linejoin="round"/>
<path d="M68.4756 28.4753C68.4756 28.4753 58.035 46.609 41.0003 46.609C23.9655 46.609 13.5249 28.4753 13.5249 28.4753C13.5249 28.4753 23.9655 10.3416 41.0003 10.3416C58.035 10.3416 68.4756 28.4753 68.4756 28.4753Z" stroke="#BBBBBB" stroke-width="2" stroke-miterlimit="10" stroke-linecap="round" stroke-linejoin="round"/>
</svg>
