<svg width="61" height="61" viewBox="0 0 61 61" fill="none" xmlns="http://www.w3.org/2000/svg">
<circle cx="30.5001" cy="30.5" r="25.0267" transform="rotate(103.31 30.5001 30.5)" fill="#172015" stroke="url(#paint0_linear_1438_1828)" stroke-width="0.638276"/>
<path d="M40.2638 37.1461C39.6283 37.7336 38.897 38.1772 38.1056 38.4769C37.3143 38.7767 36.463 38.2012 36.463 37.3499V35.7672C36.463 33.4292 34.5686 31.5348 32.2306 31.5348H28.7056C26.3676 31.5348 24.4732 33.4292 24.4732 35.7672V37.6616C24.4732 38.3211 23.9337 38.8606 23.2743 38.8606H22.7347C19.7972 38.417 18.4783 36.031 18.4783 33.8968C18.4783 31.8825 19.6533 29.6524 22.2072 29.029C21.4998 26.2353 22.0993 23.6096 23.9217 21.7032C25.9959 19.533 29.3051 18.6698 32.1587 19.557C34.7845 20.3603 36.6309 22.5185 37.2903 25.516C39.5804 26.0315 41.4148 27.758 42.1462 30.156C42.9375 32.7578 42.2181 35.4315 40.2638 37.1461Z" fill="#70F45D"/>
<path d="M32.2306 33.3337H28.7056C27.1829 33.3337 26.2716 34.245 26.2716 35.7677V39.2927C26.2716 40.8154 27.1829 41.7266 28.7056 41.7266H32.2306C33.7533 41.7266 34.6645 40.8154 34.6645 39.2927V35.7677C34.6645 34.245 33.7533 33.3337 32.2306 33.3337ZM30.1204 38.6692L28.6336 40.1439C28.5257 40.2519 28.3818 40.3118 28.25 40.3118C28.0941 40.3118 27.9622 40.2519 27.8543 40.1439C27.6385 39.9281 27.6385 39.5804 27.8543 39.3646L29.329 37.8779C29.5568 37.6621 29.9045 37.6621 30.1204 37.8779C30.3362 38.0937 30.3362 38.4534 30.1204 38.6692ZM30.1204 35.6957L28.6336 37.1825C28.5257 37.2904 28.3818 37.3503 28.25 37.3503C28.0941 37.3503 27.9622 37.2904 27.8543 37.1825C27.6385 36.9667 27.6385 36.607 27.8543 36.3911L29.329 34.9164C29.5568 34.7006 29.9045 34.7006 30.1204 34.9164C30.3362 35.1322 30.3362 35.4799 30.1204 35.6957ZM33.0818 38.6692L31.6071 40.1439C31.4872 40.2519 31.3553 40.3118 31.2114 40.3118C31.0676 40.3118 30.9237 40.2519 30.8158 40.1439C30.6 39.9281 30.6 39.5804 30.8158 39.3646L32.3025 37.8779C32.5183 37.6621 32.866 37.6621 33.0818 37.8779C33.2977 38.0937 33.2977 38.4534 33.0818 38.6692ZM33.0818 35.6957L31.6071 37.1825C31.4872 37.2904 31.3553 37.3503 31.2114 37.3503C31.0676 37.3503 30.9237 37.2904 30.8158 37.1825C30.6 36.9667 30.6 36.607 30.8158 36.3911L32.3025 34.9164C32.5183 34.7006 32.866 34.7006 33.0818 34.9164C33.2977 35.1322 33.2977 35.4799 33.0818 35.6957Z" fill="#70F45D"/>
<defs>
<linearGradient id="paint0_linear_1438_1828" x1="30.5001" y1="5.15416" x2="30.5001" y2="55.8458" gradientUnits="userSpaceOnUse">
<stop stop-color="#70F45D"/>
<stop offset="1" stop-color="white" stop-opacity="0"/>
</linearGradient>
</defs>
</svg>
