<svg width="125" height="125" viewBox="0 0 125 125" fill="none" xmlns="http://www.w3.org/2000/svg">
<circle cx="62.5" cy="62.4997" r="46.4741" transform="rotate(-65.5959 62.5 62.4997)" fill="#161E15" stroke="url(#paint0_linear_1915_17)" stroke-width="1.47537"/>
<path d="M62.9026 41.064C51.3652 41.064 42.0016 50.4276 42.0016 61.965C42.0016 73.5024 51.3652 82.866 62.9026 82.866C74.44 82.866 83.8036 73.5024 83.8036 61.965C83.8036 50.4276 74.4609 41.064 62.9026 41.064ZM74.2519 71.2241C71.681 74.9236 67.459 77.1182 62.9653 77.1182C58.4716 77.1182 54.2496 74.9236 51.6788 71.2241C51.1771 70.5135 51.3652 69.5312 52.0759 69.0504C52.7865 68.5488 53.7689 68.7369 54.2496 69.4476C56.2352 72.2901 59.4957 74.004 62.9653 74.004C66.4349 74.004 69.6954 72.311 71.681 69.4476C72.1827 68.7369 73.1441 68.5697 73.8547 69.0504C74.5863 69.5312 74.7535 70.5135 74.2519 71.2241Z" fill="#70F45D"/>
<defs>
<linearGradient id="paint0_linear_1915_17" x1="62.5" y1="15.2879" x2="62.5" y2="109.711" gradientUnits="userSpaceOnUse">
<stop stop-color="#70F45D"/>
<stop offset="1" stop-color="white" stop-opacity="0"/>
</linearGradient>
</defs>
</svg>
