<svg width="80" height="80" viewBox="0 0 80 80" fill="none" xmlns="http://www.w3.org/2000/svg">
<circle cx="39.7098" cy="39.7098" r="39.2098" fill="#153217" stroke="url(#paint0_linear_1438_1809)"/>
<path d="M56.4582 21.0103C55.465 19.9909 53.9952 19.6112 52.6246 20.0109L20.665 29.3047C19.2189 29.7065 18.194 30.8597 17.9179 32.3247C17.6358 33.8157 18.621 35.7085 19.9082 36.4999L29.9013 42.6418C30.9262 43.2714 32.2491 43.1135 33.0972 42.2581L44.5403 30.7438C45.1164 30.1442 46.0698 30.1442 46.6458 30.7438C47.2219 31.3234 47.2219 32.2628 46.6458 32.8624L35.1829 44.3787C34.3327 45.2321 34.1738 46.5612 34.7995 47.5926L40.9054 57.6858C41.6205 58.885 42.852 59.5646 44.2027 59.5646C44.3616 59.5646 44.5403 59.5646 44.6992 59.5446C46.2486 59.3447 47.4801 58.2854 47.9369 56.7864L57.4116 24.8677C57.8287 23.5086 57.4513 22.0296 56.4582 21.0103Z" fill="#70F45D"/>
<defs>
<linearGradient id="paint0_linear_1438_1809" x1="39.7098" y1="0" x2="39.7098" y2="79.4197" gradientUnits="userSpaceOnUse">
<stop stop-color="#70F45D"/>
<stop offset="1" stop-color="white" stop-opacity="0"/>
</linearGradient>
</defs>
</svg>
