<svg width="85" height="85" viewBox="0 0 85 85" fill="none" xmlns="http://www.w3.org/2000/svg">
<circle cx="42.3624" cy="42.3624" r="31.5" transform="rotate(-65.5959 42.3624 42.3624)" fill="#184113" stroke="url(#paint0_linear_1438_1812)"/>
<path d="M51.832 46.0748C51.4176 46.4764 51.2272 47.0572 51.3216 47.6268L52.744 55.4988C52.864 56.166 52.5824 56.8412 52.024 57.2268C51.4768 57.6268 50.7488 57.6748 50.152 57.3548L43.0656 53.6588C42.8192 53.5276 42.5456 53.4572 42.2656 53.4492H41.832C41.6816 53.4716 41.5344 53.5196 41.4 53.5932L34.312 57.3068C33.9616 57.4828 33.5648 57.5452 33.176 57.4828C32.2288 57.3036 31.5968 56.4012 31.752 55.4492L33.176 47.5772C33.2704 47.0028 33.08 46.4188 32.6656 46.0108L26.888 40.4108C26.4048 39.942 26.2368 39.238 26.4576 38.6028C26.672 37.9692 27.2192 37.5068 27.88 37.4028L35.832 36.2492C36.4368 36.1868 36.968 35.8188 37.24 35.2748L40.744 28.0908C40.8272 27.9308 40.9344 27.7836 41.064 27.6588L41.208 27.5468C41.2832 27.4636 41.3696 27.3948 41.4656 27.3388L41.64 27.2748L41.912 27.1628H42.5856C43.1872 27.2252 43.7168 27.5852 43.9936 28.1228L47.544 35.2748C47.8 35.798 48.2976 36.1612 48.872 36.2492L56.824 37.4028C57.496 37.4988 58.0576 37.9628 58.28 38.6028C58.4896 39.2444 58.3088 39.9484 57.816 40.4108L51.832 46.0748Z" fill="#70F45D"/>
<defs>
<linearGradient id="paint0_linear_1438_1812" x1="42.3624" y1="10.3624" x2="42.3624" y2="74.3625" gradientUnits="userSpaceOnUse">
<stop stop-color="#70F45D"/>
<stop offset="1" stop-color="white" stop-opacity="0"/>
</linearGradient>
</defs>
</svg>
