<svg width="163" height="163" viewBox="0 0 163 163" fill="none" xmlns="http://www.w3.org/2000/svg">
<circle cx="81.0088" cy="81.0086" r="56.7292" transform="rotate(-42.63 81.0088 81.0086)" fill="#161E15" stroke="url(#paint0_linear_1438_1839)" stroke-width="1.20331"/>
<path d="M74.1098 55.4111C67.5608 55.4111 62.2366 60.7353 62.2366 67.2843C62.2366 73.7083 67.2609 78.9075 73.8098 79.1325C74.0098 79.1075 74.2098 79.1075 74.3598 79.1325C74.4098 79.1325 74.4347 79.1325 74.4847 79.1325C74.5097 79.1325 74.5097 79.1325 74.5347 79.1325C80.9337 78.9075 85.958 73.7083 85.983 67.2843C85.983 60.7353 80.6588 55.4111 74.1098 55.4111Z" fill="#70F45D"/>
<path d="M86.8079 85.7814C79.834 81.1321 68.4608 81.1321 61.4368 85.7814C58.2623 87.9061 56.5126 90.7806 56.5126 93.8552C56.5126 96.9297 58.2623 99.7792 61.4118 101.879C64.9113 104.229 69.5106 105.403 74.1099 105.403C78.7092 105.403 83.3085 104.229 86.8079 101.879C89.9575 99.7542 91.7072 96.9047 91.7072 93.8052C91.6822 90.7306 89.9575 87.8811 86.8079 85.7814Z" fill="#70F45D"/>
<path d="M101.58 68.7596C101.98 73.6089 98.5309 77.8582 93.7566 78.4331C93.7316 78.4331 93.7316 78.4331 93.7066 78.4331H93.6316C93.4816 78.4331 93.3317 78.4331 93.2067 78.4831C90.782 78.6081 88.5574 77.8332 86.8826 76.4085C89.4572 74.1088 90.932 70.6593 90.6321 66.9099C90.4571 64.8852 89.7572 63.0355 88.7074 61.4608C89.6572 60.9858 90.7571 60.6859 91.8819 60.5859C96.7811 60.161 101.155 63.8104 101.58 68.7596Z" fill="#70F45D"/>
<path d="M106.58 91.8807C106.38 94.3053 104.83 96.405 102.23 97.8298C99.7307 99.2045 96.5811 99.8544 93.4566 99.7795C95.2564 98.1547 96.3062 96.13 96.5062 93.9803C96.7561 90.8808 95.2814 87.9063 92.3318 85.5316C90.6571 84.2068 88.7074 83.157 86.5827 82.3821C92.1068 80.7824 99.0558 81.8572 103.33 85.3067C105.63 87.1564 106.805 89.481 106.58 91.8807Z" fill="#70F45D"/>
<defs>
<linearGradient id="paint0_linear_1438_1839" x1="81.0088" y1="23.6777" x2="81.0088" y2="138.339" gradientUnits="userSpaceOnUse">
<stop stop-color="#70F45D"/>
<stop offset="1" stop-color="white" stop-opacity="0"/>
</linearGradient>
</defs>
</svg>
