<svg width="94" height="95" viewBox="0 0 94 95" fill="none" xmlns="http://www.w3.org/2000/svg">
<circle cx="46.9722" cy="47.0681" r="37.6424" transform="rotate(165 46.9722 47.0681)" fill="#263E23" stroke="url(#paint0_linear_1438_1836)" stroke-width="1.42047"/>
<path fill-rule="evenodd" clip-rule="evenodd" d="M46.6381 66.2661C46.8505 66.3771 47.0879 66.4335 47.3254 66.4316C47.5628 66.4297 47.7984 66.3714 48.0126 66.2586L54.8545 62.6012C56.7947 61.5669 58.3141 60.4105 59.4994 59.0641C62.0767 56.1306 63.4841 52.3866 63.459 48.5261L63.3779 35.7918C63.3702 34.325 62.4068 33.0163 60.9821 32.5405L48.254 28.27C47.4875 28.0105 46.6477 28.0162 45.8948 28.2832L33.215 32.706C31.7979 33.2005 30.852 34.5187 30.8597 35.9873L30.9408 48.7123C30.9659 52.5784 32.4215 56.3055 35.0413 59.2089C36.2382 60.5365 37.7711 61.676 39.7325 62.6933L46.6381 66.2661ZM44.8269 51.2998C45.1126 51.5744 45.4833 51.7098 45.854 51.706C46.2246 51.7041 46.5934 51.565 46.8752 51.2867L54.3522 43.9154C54.914 43.3606 54.9082 42.4693 54.3407 41.9221C53.7711 41.3749 52.8541 41.3787 52.2923 41.9334L45.8327 48.3005L43.1879 45.7582C42.6184 45.211 41.7033 45.2166 41.1396 45.7714C40.5778 46.3261 40.5836 47.2174 41.1531 47.7646L44.8269 51.2998Z" fill="#70F45D"/>
<defs>
<linearGradient id="paint0_linear_1438_1836" x1="46.9722" y1="8.7155" x2="46.9722" y2="85.4207" gradientUnits="userSpaceOnUse">
<stop stop-color="#70F45D"/>
<stop offset="1" stop-color="white" stop-opacity="0"/>
</linearGradient>
</defs>
</svg>
