<svg width="54" height="54" viewBox="0 0 54 54" fill="none" xmlns="http://www.w3.org/2000/svg">
<path d="M10.0952 24.5388L10.4817 25.6757C10.6226 26.0908 10.4201 26.541 10.0261 26.7165L6.05959 28.6816C5.65206 28.8811 5.15973 28.7212 4.94626 28.3247L1.89822 22.6673C1.70922 22.3159 1.79443 21.8894 2.08215 21.6371L12.5927 11.6745L10.423 8.96988C10.1328 8.60791 10.191 8.07804 10.5534 7.78779C10.5964 7.75024 10.6441 7.72113 10.6918 7.69708V7.69413C12.0177 7.00479 13.3277 7.03432 14.5789 7.468C15.6357 7.8325 16.6314 8.48515 17.5527 9.2171C19.0997 9.1399 20.5371 9.33396 21.866 9.75457C25.6785 10.9607 28.5544 13.9957 30.5402 17.6673C32.4863 21.2667 33.5806 25.4947 33.8574 29.1739C34.0413 31.6284 33.8624 33.8622 33.3359 35.5316C33.2237 35.8859 32.9018 36.115 32.55 36.1222C31.8125 36.1838 31.0675 36.5327 30.4684 37.0625C29.9698 37.5017 29.5787 38.0577 29.3792 38.6733C29.1847 39.2639 29.1665 39.9131 29.4057 40.5658C29.6753 41.2952 30.2609 42.0432 31.2755 42.7494C31.6585 43.0156 31.7518 43.5396 31.4881 43.9235C31.3232 44.1576 31.062 44.285 30.7958 44.285H9.55778C9.16122 44.285 8.82583 44.0108 8.73765 43.6383C8.54654 42.989 6.79956 36.474 12.4413 30.8323C16.5837 26.6899 16.9697 25.5209 16.3015 23.9502C15.1299 25.0492 13.474 24.8155 11.9536 24.6025C11.1845 24.4932 10.4682 24.3919 10.0952 24.5388ZM8.6499 25.5217L8.33265 24.5898C8.26093 24.3768 8.27401 24.1321 8.39129 23.9186C9.15826 22.5078 10.6011 22.7099 12.1852 22.9339C13.5403 23.1251 15.0552 23.3411 15.6302 21.9645V21.9674C15.7049 21.7915 15.8374 21.6371 16.0188 21.5439C16.4293 21.3283 16.9376 21.4878 17.1532 21.8982L17.2941 22.1695C17.3021 22.183 17.3097 22.199 17.3182 22.2125C18.9078 25.2315 19.4318 26.2301 13.6335 32.0262C9.4059 36.2563 9.8822 40.9687 10.2146 42.598H28.6464C28.2713 42.1242 28.0022 41.6373 27.8241 41.1471C27.4436 40.1123 27.4697 39.0837 27.7765 38.1527C28.0747 37.2473 28.6417 36.4348 29.3526 35.8066C30.0769 35.1679 30.9553 34.7097 31.8682 34.5237C32.2226 33.1121 32.3264 31.2993 32.1749 29.2996C31.9163 25.828 30.8861 21.8476 29.0568 18.4638C27.2656 15.1491 24.706 12.4229 21.3572 11.3632C20.1325 10.9772 18.7935 10.8093 17.3422 10.9185V10.916C17.1347 10.9316 16.922 10.8708 16.7461 10.727C15.8834 10.0187 14.9595 9.37741 14.0305 9.0551C13.5272 8.88213 13.0159 8.8045 12.4995 8.8661L14.387 11.2223L14.3899 11.2252C14.6616 11.5636 14.6346 12.0584 14.3148 12.3618L3.68486 22.4361L6.04356 26.8097L8.6499 25.5217Z" fill="white"/>
<path d="M6.70603 42.598H33.3187C33.7959 42.598 34.2266 42.7924 34.5405 43.1063C34.8518 43.4177 35.0463 43.8522 35.0463 44.3281V47.2036C35.0463 47.6799 34.8518 48.1106 34.5405 48.4253C34.2266 48.7367 33.7955 48.9303 33.3187 48.9303H6.70603C6.23226 48.9303 5.79815 48.7367 5.48639 48.4253C5.17251 48.1106 4.97803 47.6794 4.97803 47.2036V44.3281C4.97803 43.8518 5.17251 43.4177 5.48639 43.1063H5.48934C5.80111 42.7924 6.23226 42.598 6.70603 42.598ZM33.3187 44.2855H6.70603C6.69548 44.2855 6.68451 44.2914 6.6765 44.296L6.67945 44.2994C6.67143 44.307 6.66637 44.3175 6.66637 44.3281V47.2036C6.66637 47.2141 6.67186 47.2251 6.67945 47.2301C6.68746 47.2386 6.69548 47.2432 6.70603 47.2432H33.3187C33.3293 47.2432 33.3403 47.2382 33.3453 47.2301C33.3538 47.2251 33.3584 47.2145 33.3584 47.2036V44.3281C33.3584 44.3175 33.3533 44.3066 33.3453 44.2994C33.3403 44.2909 33.3297 44.2863 33.3187 44.2863V44.2855Z" fill="white"/>
<path d="M2.07605 52.3125H37.9485C38.0573 52.3125 38.1535 52.2694 38.2227 52.2003V52.1977C38.2944 52.1252 38.3371 52.0298 38.3371 51.921V49.3222C38.3371 49.2134 38.294 49.1147 38.2248 49.0455L38.2223 49.0429C38.1531 48.9738 38.0565 48.9307 37.9481 48.9307H2.07605C1.96973 48.9307 1.87102 48.9738 1.80183 49.0429L1.7993 49.0455C1.73011 49.1147 1.68708 49.2134 1.68708 49.3222V51.921C1.68708 52.0298 1.73222 52.126 1.80141 52.1977V52.2003C1.87102 52.2699 1.96973 52.3125 2.07605 52.3125ZM37.9489 54H2.07605C1.50905 54 0.990141 53.7658 0.612141 53.3878L0.609609 53.3904C0.234141 53.0153 0 52.493 0 51.9214V49.3226C0 48.7531 0.234141 48.2342 0.609609 47.8558H0.612141V47.8533C0.990141 47.4774 1.50905 47.2437 2.07605 47.2437H37.9485C38.5155 47.2437 39.0344 47.4778 39.4128 47.8533L39.4154 47.8558C39.7913 48.2338 40.025 48.7531 40.025 49.3226V51.9214C40.025 52.493 39.7908 53.0157 39.4154 53.3904V53.3878C39.0382 53.7663 38.5155 54 37.9489 54Z" fill="white"/>
<path d="M38.8032 11.1341C38.8032 10.6683 39.1812 10.2899 39.647 10.2899C40.1131 10.2899 40.4916 10.6679 40.4916 11.1341V22.5505H48.0604C48.5262 22.5505 48.9042 22.9259 48.9042 23.3917V33.5589C48.9042 34.0246 48.5262 34.4026 48.0604 34.4026C47.5943 34.4026 47.2158 34.0246 47.2158 33.5589V24.2354H39.647C39.1812 24.2354 38.8032 23.8574 38.8032 23.3912V11.1341Z" fill="white"/>
<path d="M37.0408 15.3351C36.7506 15.6971 36.2211 15.7532 35.8592 15.463C35.4968 15.1727 35.4381 14.6432 35.7313 14.2809L38.9895 10.2473C39.2827 9.88534 39.8125 9.82966 40.1745 10.1195C40.223 10.1596 40.2652 10.2022 40.3023 10.2473V10.2448L43.5634 14.2754C43.8566 14.6373 43.8009 15.1697 43.4381 15.4625C43.0766 15.7553 42.5442 15.6996 42.251 15.3372L39.6446 12.1158L37.0408 15.3351Z" fill="white"/>
<path d="M39.6468 0C40.5475 0 41.3613 0.3645 41.9532 0.955969C42.5417 1.54448 42.9058 2.36166 42.9058 3.26152C42.9058 4.1618 42.5417 4.97602 41.9532 5.56748C41.3617 6.156 40.5475 6.5205 39.6468 6.5205C38.7469 6.5205 37.9297 6.156 37.3412 5.56748C36.7506 4.97644 36.3853 4.1618 36.3853 3.26152C36.3853 2.36166 36.7502 1.54448 37.3412 0.955969C37.9297 0.364922 38.7469 0 39.6468 0ZM40.7601 2.14861C40.4749 1.86342 40.0813 1.68792 39.6476 1.68792C39.2135 1.68792 38.8195 1.86342 38.5343 2.14861C38.2491 2.4338 38.0736 2.82741 38.0736 3.26152C38.0736 3.69563 38.2491 4.08966 38.5343 4.37442C38.8195 4.65666 39.2131 4.83511 39.6476 4.83511C40.0809 4.83511 40.4749 4.65666 40.7601 4.37442C41.0428 4.08923 41.2208 3.69563 41.2208 3.26152C41.2204 2.82488 41.0428 2.43338 40.7601 2.14861Z" fill="white"/>
<path d="M48.0603 37.7654C48.9602 37.7654 49.7748 38.1303 50.3659 38.7188C50.9544 39.3094 51.3193 40.1245 51.3193 41.0244C51.3193 41.9276 50.9544 42.7414 50.3659 43.3299C49.7753 43.9214 48.9602 44.2859 48.0603 44.2859C47.1571 44.2859 46.3433 43.9218 45.754 43.3299C45.1633 42.7414 44.7988 41.9276 44.7988 41.0244C44.7988 40.1245 45.1629 39.3099 45.754 38.7188C46.3433 38.1303 47.1575 37.7654 48.0603 37.7654ZM49.1703 39.9144C48.8885 39.6292 48.4936 39.4537 48.0603 39.4537C47.6237 39.4537 47.2322 39.6292 46.947 39.9144C46.6618 40.1962 46.4863 40.5903 46.4863 41.0244C46.4863 41.461 46.6618 41.8525 46.947 42.1377C47.2322 42.422 47.6237 42.5984 48.0603 42.5984C48.4936 42.5984 48.8885 42.422 49.1703 42.1377C49.4555 41.8525 49.631 41.461 49.631 41.0244C49.631 40.5898 49.4555 40.1962 49.1703 39.9144Z" fill="white"/>
<path d="M52.5593 10.7106C52.8896 10.3807 53.422 10.3807 53.7523 10.7106C54.0818 11.0379 54.0818 11.5733 53.7523 11.9032L49.3589 16.2962C49.0294 16.6261 48.4936 16.6261 48.1667 16.2962C47.8364 15.9663 47.8364 15.4335 48.1667 15.1035L52.5593 10.7106Z" fill="white"/>
<path d="M53.7523 15.1035C54.0818 15.4335 54.0818 15.9663 53.7523 16.2962C53.422 16.6261 52.8896 16.6261 52.5593 16.2962L48.1667 11.9032C47.8364 11.5733 47.8364 11.0379 48.1667 10.7106C48.4936 10.3807 49.0294 10.3807 49.3589 10.7106L53.7523 15.1035Z" fill="white"/>
<path d="M29.3122 3.01135C29.6425 2.68144 30.1749 2.68144 30.5052 3.01135C30.8347 3.33872 30.8347 3.87408 30.5052 4.20399L26.1118 8.59655C25.7824 8.92646 25.2466 8.92646 24.9196 8.59655C24.5893 8.26664 24.5893 7.73381 24.9196 7.40391L29.3122 3.01135Z" fill="white"/>
<path d="M30.5049 7.40391C30.8353 7.73381 30.8353 8.26664 30.5049 8.59655C30.1746 8.92646 29.6422 8.92646 29.3119 8.59655L24.9193 4.20399C24.5894 3.87408 24.5894 3.3383 24.9193 3.01135C25.2467 2.68144 25.782 2.68144 26.1119 3.01135L30.5049 7.40391Z" fill="white"/>
</svg>
