<svg width="46" height="30" viewBox="0 0 46 30" fill="none" xmlns="http://www.w3.org/2000/svg">
<path d="M1.15012 0.590027H44.8497C45.1408 0.590027 45.3784 0.827594 45.3784 1.11868V24.81C45.3784 25.0861 45.1545 25.31 44.8784 25.31H32.1181C31.2847 25.31 30.5348 25.8163 30.2233 26.5892L29.3021 28.8747C29.2259 29.0639 29.0424 29.1878 28.8384 29.1878H17.1341C16.9302 29.1878 16.7466 29.0639 16.6704 28.8747L15.7492 26.5892C15.4377 25.8161 14.6878 25.31 13.8544 25.31H1.12158C0.845439 25.31 0.621582 25.0861 0.621582 24.81V1.11857C0.621582 0.827592 0.859147 0.590027 1.15012 0.590027ZM17.2402 11.8782C17.7477 11.6239 18.0681 11.1049 18.0681 10.5373V9.83535C18.0681 8.71241 16.8795 7.98766 15.8813 8.50184L8.5029 12.3021C8.00355 12.5593 7.68974 13.0739 7.68974 13.6356V14.2956C7.68974 14.8573 8.00355 15.3719 8.50291 15.6291L15.8813 19.4294C16.8796 19.9436 18.0681 19.2188 18.0681 18.0959V17.3942C18.0681 16.8266 17.7477 16.3076 17.2402 16.0532L13.9674 14.4127C13.5995 14.2283 13.5995 13.7032 13.9674 13.5187L17.2402 11.8782ZM21.3525 20.3961C21.9724 20.3961 22.5285 20.0148 22.7518 19.4366L27.2923 7.68041C27.6718 6.6976 26.9466 5.63999 25.893 5.63999H25.186C24.5655 5.63999 24.009 6.02209 23.7861 6.60123L19.2617 18.3574C18.8836 19.3399 19.6088 20.3961 20.6616 20.3961H21.3525ZM37.4947 15.647C37.9953 15.3903 38.3101 14.8749 38.3101 14.3123V13.6191C38.3101 13.0565 37.9953 12.5412 37.4947 12.2844L30.1163 8.50016C29.1181 7.98821 27.9318 8.71304 27.9318 9.83485V10.5366C27.9318 11.1058 28.254 11.626 28.7637 11.8796L32.0571 13.5179C32.4268 13.7019 32.4268 14.2293 32.0571 14.4133L28.7637 16.0517C28.254 16.3052 27.9318 16.8254 27.9318 17.3947V18.0966C27.9318 19.2184 29.1181 19.9432 30.1163 19.4313L37.4947 15.647Z" stroke="white"/>
</svg>
