<svg width="54" height="54" viewBox="0 0 54 54" fill="none" xmlns="http://www.w3.org/2000/svg">
<path d="M5.22581 54C7.16981 54 8.86645 52.9305 9.76616 51.3514C12.5576 51.1772 16.0336 49.9988 19.8859 47.9032H20.0924C20.5235 51.3348 23.4534 54 27 54C30.5466 54 33.4765 51.3348 33.9076 47.9032H34.1141C38.3391 50.2008 42.0503 51.3732 44.9454 51.3732C46.9478 51.3732 48.5617 50.8149 49.6887 49.6878C52.2825 47.0941 51.901 42.0799 48.6427 35.5355C49.2611 34.9075 49.6452 34.047 49.6452 33.0968C49.6452 31.1754 48.0826 29.6129 46.1613 29.6129C45.8408 29.6129 45.5359 29.6704 45.2407 29.7523C44.6266 28.8395 43.9769 27.9224 43.2888 27.0035C48.1819 20.4704 51.077 14.2847 51.3557 9.76355C52.9331 8.86297 54 7.16806 54 5.22581C54 2.34377 51.6562 0 48.7742 0C46.8285 0 45.1309 1.07042 44.2321 2.6521C42.5085 2.75748 40.561 3.23826 38.4567 4.05436C35.3186 1.52332 31.3357 0 27 0C22.6582 0 18.6701 1.52681 15.5302 4.06394C10.5788 2.15652 6.52703 2.09642 4.31129 4.31129C1.71755 6.90503 2.09903 11.9192 5.35732 18.4636C4.73894 19.0925 4.35484 19.953 4.35484 20.9032C4.35484 22.8246 5.91735 24.3871 7.83871 24.3871C8.46929 24.3871 9.07026 24.2164 9.59371 23.9107C9.91945 24.9271 10.3297 25.9087 10.8235 26.845C5.94087 33.3206 2.93603 39.5942 2.6521 44.2321C1.07042 45.1309 0 46.8285 0 48.7742C0 51.6562 2.34377 54 5.22581 54ZM19.5541 33.0733C16.7557 31.6614 14.4868 29.545 12.9138 27C14.8657 24.489 17.0823 21.9623 19.5227 19.5219C21.9684 17.0762 24.5021 14.8544 27.0183 12.899C29.4492 14.7951 31.9558 16.9995 34.4781 19.5219C36.8837 21.9275 39.1178 24.4559 41.0923 26.9922C41.0635 27.0392 41.0304 27.0836 41.0008 27.1298C40.9938 27.1385 40.9877 27.1472 40.9808 27.1559L40.9825 27.1576C39.4139 29.6303 37.186 31.6902 34.4476 33.0724C34.1524 33.2213 33.9677 33.5218 33.9677 33.8502V36.5806H30.4839V23.8767L32.8416 21.519L31.61 20.2875L28.9971 22.9004C28.8334 23.0632 28.7419 23.2853 28.7419 23.5161V36.5806H25.2581V23.5161C25.2581 23.2853 25.1666 23.0632 25.0029 22.9004L22.39 20.2875L21.1584 21.519L23.5161 23.8767V36.5806H20.0323V33.8502C20.0323 33.5218 19.8476 33.2213 19.5541 33.0733ZM43.5484 18.2903C43.5484 20.7769 42.9945 23.1625 41.9867 25.3182C40.0872 22.9282 37.9733 20.5548 35.7097 18.2903C33.3049 15.8856 30.8627 13.7177 28.4493 11.8129C31.8269 9.32371 35.1357 7.35532 38.1205 6.06977C41.445 9.099 43.5484 13.4486 43.5484 18.2903ZM35.7097 38.3226L35.7105 40.0645H18.2903V38.3226H35.7097ZM33.9677 41.8064V42.6774H20.0323V41.8064H33.9677ZM35.7097 44.4194L35.7105 46.1613H18.2903V44.4194H35.7097ZM27 52.2581C24.4158 52.2581 22.2698 50.3707 21.8526 47.9032H32.1474C31.7302 50.3707 29.5842 52.2581 27 52.2581ZM47.9032 33.0968C47.9032 34.0575 47.122 34.8387 46.1613 34.8387C45.2006 34.8387 44.4194 34.0575 44.4194 33.0968C44.4194 32.1361 45.2006 31.3548 46.1613 31.3548C47.122 31.3548 47.9032 32.1361 47.9032 33.0968ZM46.1613 36.5806C46.5027 36.5806 46.8267 36.5162 47.1394 36.4239C49.9056 42.0355 50.409 46.5045 48.4572 48.4572C46.5463 50.3672 42.3238 49.95 36.9412 47.3928C37.2565 47.0767 37.4516 46.6412 37.4516 46.1613V44.4194C37.4516 43.4587 36.6704 42.6774 35.7097 42.6774V41.8064C36.6704 41.8064 37.4516 41.0252 37.4516 40.0645V38.3226C37.4516 37.3619 36.6704 36.5806 35.7097 36.5806V34.378C38.3818 32.9313 40.5871 30.8897 42.2088 28.4667C42.7384 29.1853 43.2401 29.9021 43.7217 30.6154C43.0789 31.2477 42.6774 32.1256 42.6774 33.0968C42.6774 35.0181 44.2399 36.5806 46.1613 36.5806ZM48.7742 1.74194C50.6955 1.74194 52.2581 3.30445 52.2581 5.22581C52.2581 7.14716 50.6955 8.70968 48.7742 8.70968C46.8528 8.70968 45.2903 7.14716 45.2903 5.22581C45.2903 3.30445 46.8528 1.74194 48.7742 1.74194ZM48.7742 10.4516C49.0381 10.4516 49.295 10.4255 49.5485 10.388C49.1679 13.3894 47.5731 17.2277 45.0238 21.3683C45.1928 20.3624 45.2903 19.3355 45.2903 18.2903C45.2903 13.2492 43.2401 8.67832 39.9304 5.3669C41.2455 4.90529 42.4858 4.5839 43.6128 4.44281C43.5745 4.69887 43.5484 4.95929 43.5484 5.22581C43.5484 8.10784 45.8922 10.4516 48.7742 10.4516ZM27 1.74194C30.5823 1.74194 33.892 2.89771 36.6033 4.83997C33.5854 6.22568 30.3227 8.21323 27.0009 10.7042C23.6511 8.19581 20.3867 6.21697 17.3871 4.84694C20.1002 2.90032 23.4142 1.74194 27 1.74194ZM5.54284 5.54284C7.047 4.03868 10.0954 3.99252 14.0653 5.37126C10.9211 8.51894 8.937 12.8093 8.74713 17.5544C8.45187 17.4742 8.14964 17.4194 7.83871 17.4194C7.49729 17.4194 7.17329 17.4838 6.86061 17.5761C4.09442 11.9645 3.59013 7.49555 5.54284 5.54284ZM7.83871 22.6452C6.87803 22.6452 6.09677 21.8639 6.09677 20.9032C6.09677 19.9425 6.87803 19.1613 7.83871 19.1613C8.16271 19.1613 8.47626 19.251 8.748 19.4174C8.80287 20.3232 8.92132 21.2142 9.10423 22.0851C8.77761 22.4353 8.32819 22.6452 7.83871 22.6452ZM10.4516 18.2903C10.4516 13.4504 12.5533 9.10248 15.8769 6.07413C18.7815 7.3109 22.079 9.22355 25.5707 11.8016C23.132 13.7247 20.6803 15.9013 18.2903 18.2903C15.9866 20.594 13.8815 22.957 12.0089 25.3095C11.0038 23.1564 10.4516 20.7735 10.4516 18.2903ZM11.7955 28.4737C13.4173 30.8932 15.6208 32.933 18.2903 34.378V36.5806C17.3296 36.5806 16.5484 37.3619 16.5484 38.3226V40.0645C16.5484 41.0252 17.3296 41.8064 18.2903 41.8064V42.6774C17.3296 42.6774 16.5484 43.4587 16.5484 44.4194V46.1613C16.5484 46.6395 16.7426 47.0732 17.0553 47.3885C14.5608 48.5739 12.2998 49.3107 10.3872 49.5511C10.4255 49.2968 10.4516 49.039 10.4516 48.7742C10.4516 45.8922 8.10784 43.5484 5.22581 43.5484C4.95929 43.5484 4.69887 43.5745 4.44281 43.6137C4.95058 39.555 7.64536 34.1088 11.7955 28.4737ZM5.22581 45.2903C7.14716 45.2903 8.70968 46.8528 8.70968 48.7742C8.70968 50.6955 7.14716 52.2581 5.22581 52.2581C3.30445 52.2581 1.74194 50.6955 1.74194 48.7742C1.74194 46.8528 3.30445 45.2903 5.22581 45.2903Z" fill="white"/>
</svg>
