<svg width="62" height="62" viewBox="0 0 62 62" fill="none" xmlns="http://www.w3.org/2000/svg">
<g clip-path="url(#clip0_2167_620)" filter="url(#filter0_d_2167_620)">
<path d="M5.32401 33.652C5.62016 33.8572 5.9326 34.0378 6.25821 34.192C6.64791 34.3909 7.29951 34.7239 7.34541 34.9579C7.40269 35.2652 7.366 35.5826 7.24011 35.8687C7.10601 36.1567 6.96471 36.4042 6.84411 36.6184C6.51381 37.1998 5.96301 38.1745 6.79461 38.8549C6.98901 39.0349 7.32471 39.295 7.63161 39.5299C7.40609 39.9237 7.30388 40.3761 7.33821 40.8286C7.38549 41.1828 7.57658 41.5018 7.86651 41.7106C8.06901 41.8546 8.28591 41.9806 8.49651 42.1021C9.02571 42.4036 9.23271 42.544 9.30651 42.8221C9.35492 43.1882 9.3211 43.5606 9.20751 43.912C9.15441 44.146 9.10311 44.3791 9.06981 44.6185C8.98061 45.4394 9.08479 46.2697 9.37401 47.0431C9.77793 48.4762 11.0739 49.4749 12.5627 49.5001C12.8098 49.4992 13.0562 49.4733 13.298 49.4227C15.8691 48.8134 18.4027 48.0552 20.8859 47.152C22.9127 48.3418 24.1943 51.9598 24.5282 53.3179C24.6283 53.719 24.9887 54.0004 25.4021 54.0001L47.9921 53.9371C48.2784 53.9366 48.5473 53.7998 48.7165 53.5688C48.8856 53.3379 48.9348 53.0402 48.8489 52.7671C48.6263 52.1573 48.3195 51.5817 47.9372 51.0571C47.721 50.7467 47.5262 50.4219 47.354 50.0851C46.9471 49.2597 46.6073 48.4028 46.3379 47.5228C45.8245 45.7834 45.4682 44.0015 45.2732 42.1984C44.9573 39.5058 45.3655 36.7777 46.4558 34.2955C47.1212 32.9189 47.9412 31.6226 48.9002 30.4318C49.4402 29.7028 50.0009 28.9477 50.504 28.1548C51.369 26.8111 51.9962 25.3284 52.358 23.7718C52.4616 23.2913 52.1604 22.8166 51.6816 22.7055C51.2028 22.5944 50.7234 22.888 50.6048 23.365C50.2884 24.7235 49.7404 26.0175 48.9848 27.19C48.5177 27.9289 47.9777 28.6561 47.4548 29.3599C46.4134 30.6594 45.5247 32.0741 44.8061 33.5764C43.5873 36.3524 43.1318 39.4035 43.4867 42.4144C43.6943 44.3266 44.0741 46.2162 44.6216 48.0601C44.9173 49.0283 45.2908 49.971 45.7385 50.8789C45.9437 51.2845 46.1768 51.6755 46.436 52.0489L46.4963 52.1389L26.0825 52.2001C25.4843 50.0653 24.3997 48.098 22.9136 46.4527L23.7236 46.171C24.3284 45.9595 24.7847 45.8002 25.0205 45.721C28.8743 44.4925 30.8021 42.7375 30.749 40.501C30.7465 40.2621 30.6474 40.0344 30.4743 39.8698C30.3012 39.7051 30.0688 39.6176 29.8301 39.6271C29.3334 39.6389 28.9401 40.051 28.9517 40.5478C28.9733 41.4685 28.2146 42.8167 24.4733 44.0083C24.2285 44.0866 23.7533 44.2513 23.1314 44.47C22.4627 44.7031 21.6149 45.0001 20.6789 45.3178H20.6726C18.1416 46.2459 15.5591 47.0272 12.938 47.6578C12.0997 47.8154 11.2848 47.2889 11.084 46.4599C10.8905 45.9519 10.8145 45.4067 10.8617 44.8651C10.8878 44.6851 10.9301 44.4961 10.9715 44.3125C11.1631 43.6843 11.194 43.0181 11.0615 42.3748C10.8001 41.5506 10.194 40.8805 9.40011 40.5379L9.20661 40.4272C9.30362 40.2301 9.42 40.0432 9.55401 39.8692C9.70481 39.6777 9.77146 39.4332 9.73872 39.1916C9.70598 38.95 9.57665 38.7321 9.38031 38.5876C9.16521 38.4292 8.66031 38.0476 8.28231 37.747C8.32551 37.6687 8.37231 37.5823 8.41821 37.5049C8.55951 37.2565 8.72151 36.9649 8.87811 36.6346C9.16334 36.0042 9.24694 35.301 9.11751 34.6213C8.90241 33.5233 7.85031 32.9851 7.08261 32.5927C6.82397 32.4697 6.57593 32.3255 6.34101 32.1616C6.14814 32.0325 5.9674 31.886 5.80101 31.7242C5.80101 31.5874 5.94771 31.2571 6.63261 30.4228C8.2431 28.3478 9.62367 26.1042 10.7501 23.7313C10.9616 23.3593 11.0807 22.9421 11.0975 22.5145C11.0033 21.6089 10.5218 20.7885 9.77721 20.2645C9.41271 19.9297 9.06801 19.6147 9.02931 19.3492C9.03756 19.1287 9.08701 18.9116 9.17511 18.7093C9.32181 18.3241 9.49191 17.9461 9.66111 17.5672C10.0406 16.7855 10.3421 15.9682 10.5611 15.1273C10.7674 14.1186 11.0379 13.1242 11.3711 12.1501C12.0805 10.1919 13.179 8.39755 14.6003 6.8752C16.3211 5.0527 19.0301 3.7639 22.6661 3.0421C25.4473 2.43149 28.2694 2.02481 31.1099 1.8253C32.0656 1.77605 33.0237 1.79651 33.9764 1.8865C34.2973 1.91641 34.6098 1.77284 34.7961 1.50989C34.9825 1.24694 35.0144 0.904546 34.8798 0.61169C34.7453 0.318835 34.4647 0.120007 34.1438 0.0901042C33.1038 -0.00518654 32.0584 -0.0259395 31.0154 0.0280042C28.0872 0.231184 25.1778 0.648702 22.3106 1.2772C18.2525 2.0872 15.3032 3.5101 13.2908 5.6377C11.7017 7.33648 10.4734 9.3397 9.68001 11.5264C9.31529 12.5905 9.01918 13.677 8.79351 14.779C8.60116 15.4857 8.34262 16.1728 8.02131 16.831C7.84131 17.2405 7.65591 17.65 7.49391 18.0757C7.28909 18.5515 7.20499 19.0706 7.24911 19.5868C7.43529 20.3902 7.90223 21.1006 8.56581 21.5902C9.00681 21.9943 9.29751 22.2787 9.30111 22.5271C9.26836 22.6637 9.21687 22.7952 9.14811 22.9177C8.07058 25.1871 6.75006 27.333 5.20971 29.3176C4.55811 30.1123 3.87411 31.0384 4.01721 31.9654C4.20886 32.6802 4.67975 33.2879 5.32401 33.652Z" fill="white"/>
<path d="M33.5731 5.04001L33.0331 7.73281C32.5125 7.90375 32.0059 8.11437 31.5175 8.36281L29.2324 6.83281C28.5184 6.36523 27.5742 6.46333 26.9716 7.06771L25.4776 8.56081C24.8613 9.16584 24.7616 10.1233 25.24 10.8423L26.7628 13.1166C26.5144 13.605 26.3037 14.1116 26.1328 14.6322L23.4436 15.1722C22.6033 15.342 21.9993 16.0807 22 16.938V19.062C21.9994 19.9178 22.6015 20.6557 23.44 20.8269L26.1328 21.3669C26.3037 21.8875 26.5144 22.3942 26.7628 22.8825L25.2328 25.1676C24.7652 25.8816 24.8633 26.8258 25.4677 27.4284L26.9617 28.9224C27.5678 29.5359 28.5231 29.635 29.2423 29.1591L31.5166 27.6363C32.005 27.8848 32.5116 28.0954 33.0322 28.2663L33.5722 30.9555C33.7416 31.7962 34.4805 32.4006 35.338 32.4H37.462C38.3178 32.4006 39.0557 31.7985 39.2269 30.96L39.7669 28.2672C40.2875 28.0963 40.7942 27.8857 41.2825 27.6372L43.5676 29.1672C44.2816 29.6348 45.2258 29.5367 45.8284 28.9323L47.3215 27.4392C47.9378 26.8342 48.0375 25.8767 47.5591 25.1577L46.0363 22.8834C46.2847 22.3951 46.4954 21.8884 46.6663 21.3678L49.3555 20.8278C49.8897 20.7198 50.3457 20.3747 50.5948 19.89L51.9511 20.799C52.2128 20.9639 52.5157 21.0515 52.825 21.0519C53.2565 21.052 53.6701 20.88 53.9743 20.574L55.1713 19.377C55.7157 18.8299 55.8031 17.9766 55.381 17.3304L54.22 15.5934C54.3884 15.2549 54.5339 14.9056 54.6556 14.5476L56.6923 14.1417C57.4543 13.992 58.0029 13.3226 58 12.546V10.854C58.0027 10.0803 57.458 9.41269 56.6995 9.26011L54.6538 8.85241C54.5331 8.49438 54.3882 8.14497 54.22 7.80661L55.399 6.04891C55.8075 5.40515 55.714 4.56399 55.174 4.02571L53.977 2.82871C53.43 2.28403 52.5765 2.19657 51.9304 2.61901L50.1934 3.78001C49.8549 3.61161 49.5055 3.46608 49.1476 3.34441L48.7408 1.30771C48.5912 0.546019 47.9223 -0.00247456 47.146 1.02169e-05H45.454C44.6803 -0.00272 44.0127 0.542016 43.8601 1.30051L43.4524 3.34621C43.0943 3.4678 42.7449 3.61364 42.4066 3.78271L40.6489 2.60371C40.005 2.19587 39.1643 2.28936 38.6257 2.82871L37.8157 3.63871C37.6993 3.61444 37.5809 3.60148 37.462 3.60001H35.338C34.4822 3.59941 33.7443 4.20148 33.5731 5.04001ZM47.3323 8.56801L46.912 8.14771C48.472 8.35653 49.7128 9.55941 49.9699 11.1122C50.227 12.6649 49.4401 14.2035 48.0307 14.904L46.6645 14.634C46.4936 14.1134 46.2829 13.6068 46.0345 13.1184L47.5645 10.8333C48.0338 10.1196 47.9368 9.17427 47.3323 8.57071V8.56801ZM39.7993 4.19761L41.8567 5.58001C42.1452 5.77348 42.5193 5.78364 42.8179 5.60611C43.3331 5.3029 43.8872 5.07127 44.4649 4.91761C44.795 4.82846 45.0461 4.55995 45.1129 4.22461L45.5962 1.80001H47.0038L47.4871 4.23001C47.5539 4.56535 47.805 4.83386 48.1351 4.92301C48.7128 5.07667 49.2669 5.3083 49.7821 5.61151C50.0817 5.78743 50.4558 5.77517 50.7433 5.58001L52.8007 4.19941L53.7997 5.19841L52.42 7.25671C52.2265 7.54522 52.2164 7.91932 52.3939 8.21791C52.6971 8.73311 52.9287 9.2872 53.0824 9.86491C53.1716 10.195 53.4401 10.4461 53.7754 10.5129L56.2054 10.9962V12.4038L53.7799 12.8871C53.4446 12.9539 53.1761 13.205 53.0869 13.5351C52.9332 14.1128 52.7016 14.6669 52.3984 15.1821C52.2209 15.4807 52.231 15.8548 52.4245 16.1433L53.8051 18.2007L52.8061 19.1997L50.8 17.8578V16.938C50.8001 16.4111 50.57 15.9104 50.17 15.5673C51.7545 14.0409 52.2516 11.7044 51.4258 9.66517C50.6 7.62594 48.6171 6.29376 46.417 6.30001C45.8729 6.30343 45.3326 6.39211 44.8159 6.56281C44.3762 6.49874 43.9282 6.59731 43.5559 6.84001L41.2834 8.36281C40.7951 8.11437 40.2884 7.90375 39.7678 7.73281L39.2278 5.04361C39.2119 4.9715 39.1911 4.90054 39.1657 4.83121L39.7993 4.19761ZM34.69 8.61931L35.338 5.40001H37.462L38.1091 8.62201C38.1764 8.95642 38.4269 9.22406 38.7562 9.31321C39.4998 9.51367 40.2141 9.81017 40.8811 10.1952C41.1783 10.3676 41.5478 10.3557 41.8333 10.1646L44.5567 8.34301L46.0651 9.84331L44.2381 12.5694C44.047 12.8549 44.0351 13.2244 44.2075 13.5216C44.5925 14.1886 44.889 14.9029 45.0895 15.6465C45.1787 15.9758 45.4463 16.2263 45.7807 16.2936L49 16.9371V19.062L45.778 19.7091C45.4436 19.7764 45.176 20.027 45.0868 20.3562C44.8863 21.0998 44.5898 21.8141 44.2048 22.4811C44.0324 22.7783 44.0443 23.1478 44.2354 23.4333L46.057 26.1567L44.5567 27.6651L41.8306 25.8381C41.5451 25.647 41.1756 25.6351 40.8784 25.8075C40.2114 26.1926 39.4971 26.4891 38.7535 26.6895C38.4242 26.7787 38.1737 27.0463 38.1064 27.3807L37.462 30.6H35.338L34.6909 27.378C34.6236 27.0436 34.3731 26.776 34.0438 26.6868C33.3002 26.4864 32.5859 26.1899 31.9189 25.8048C31.6217 25.6324 31.2522 25.6443 30.9667 25.8354L28.2433 27.657L26.7349 26.1567L28.5619 23.4306C28.753 23.1451 28.7649 22.7756 28.5925 22.4784C28.2075 21.8114 27.911 21.0971 27.7105 20.3535C27.6213 20.0243 27.3537 19.7737 27.0193 19.7064L23.8 19.062V16.938L27.022 16.2909C27.3564 16.2236 27.624 15.9731 27.7132 15.6438C27.9137 14.9002 28.2102 14.1859 28.5952 13.5189C28.7676 13.2217 28.7557 12.8522 28.5646 12.5667L26.743 9.84331L28.2433 8.33491L30.9694 10.1619C31.2549 10.353 31.6244 10.3649 31.9216 10.1925C32.5886 9.80747 33.3029 9.51097 34.0465 9.31051C34.3744 9.22019 34.6233 8.95278 34.69 8.61931Z" fill="white"/>
<path d="M36.4001 24.3C39.8795 24.3 42.7001 21.4794 42.7001 18C42.7001 14.5206 39.8795 11.7 36.4001 11.7C32.9207 11.7 30.1001 14.5206 30.1001 18C30.1041 21.4778 32.9223 24.296 36.4001 24.3ZM36.4001 13.5C38.8854 13.5 40.9001 15.5147 40.9001 18C40.9001 20.4853 38.8854 22.5 36.4001 22.5C33.9148 22.5 31.9001 20.4853 31.9001 18C31.9031 15.516 33.9161 13.503 36.4001 13.5Z" fill="white"/>
<path d="M36.4 18.9C36.8971 18.9 37.3 18.4971 37.3 18C37.3 17.503 36.8971 17.1 36.4 17.1C35.9029 17.1 35.5 17.503 35.5 18C35.5 18.4971 35.9029 18.9 36.4 18.9Z" fill="white"/>
</g>
<defs>
<filter id="filter0_d_2167_620" x="0" y="0" width="62" height="62" filterUnits="userSpaceOnUse" color-interpolation-filters="sRGB">
<feFlood flood-opacity="0" result="BackgroundImageFix"/>
<feColorMatrix in="SourceAlpha" type="matrix" values="0 0 0 0 0 0 0 0 0 0 0 0 0 0 0 0 0 0 127 0" result="hardAlpha"/>
<feOffset dy="4"/>
<feGaussianBlur stdDeviation="2"/>
<feComposite in2="hardAlpha" operator="out"/>
<feColorMatrix type="matrix" values="0 0 0 0 0 0 0 0 0 0 0 0 0 0 0 0 0 0 0.25 0"/>
<feBlend mode="normal" in2="BackgroundImageFix" result="effect1_dropShadow_2167_620"/>
<feBlend mode="normal" in="SourceGraphic" in2="effect1_dropShadow_2167_620" result="shape"/>
</filter>
<clipPath id="clip0_2167_620">
<rect width="54" height="54" fill="white" transform="translate(4)"/>
</clipPath>
</defs>
</svg>
