<svg width="54" height="54" viewBox="0 0 54 54" fill="none" xmlns="http://www.w3.org/2000/svg">
<path d="M52.1336 22.5001H47.856C47.3273 19.4504 46.1637 16.5459 44.4406 13.9747L46.7767 11.6381C47.5062 10.9071 47.5062 9.72356 46.7767 8.99265L44.0416 6.25793C43.6919 5.90598 43.2158 5.70875 42.7197 5.71033H42.7188C42.2225 5.70854 41.7462 5.90535 41.396 6.25698L39.0633 8.58881C36.534 6.87683 33.6736 5.71497 30.6671 5.17824V1.86681C30.6658 0.836374 29.8307 0.00126563 28.8003 0H25.267C24.2366 0.00126563 23.4015 0.836374 23.4002 1.86681V5.17813C20.3724 5.7116 17.4903 6.87503 14.9407 8.59313L12.6046 6.25698C12.2544 5.90535 11.7781 5.70844 11.2818 5.71033H11.2809C10.7852 5.70865 10.3094 5.90545 9.95991 6.25698L7.22382 8.99265C6.49429 9.72366 6.49429 10.9072 7.22382 11.6381L9.55554 13.9708C7.83375 16.5436 6.67158 19.4495 6.14445 22.5002H1.86681C0.836374 22.5015 0.00126563 23.3366 0 24.3671V27.9003C0.00126563 28.9307 0.836374 29.7658 1.86681 29.7671H6.81534C7.14694 31.2435 7.64169 32.6784 8.29054 34.0454C8.27936 34.091 8.26122 34.1403 8.25215 34.1841C8.22399 34.3106 8.19499 34.4447 8.16598 34.6315C8.1528 34.7317 8.13962 34.8323 8.14141 34.8543C8.12401 34.9606 8.11493 35.0682 8.1142 35.176C8.10713 35.296 8.10017 35.423 8.10017 35.5504C8.10586 37.3031 8.84225 38.9741 10.1323 40.1607C10.0388 40.3217 9.95148 40.4903 9.87016 40.6667L9.8651 40.6757L9.85909 40.691C9.79317 40.8394 9.7302 40.9936 9.69455 41.1047L9.68812 41.1265L9.67873 41.1503L9.67715 41.1635C9.61313 41.3353 9.56113 41.5113 9.52148 41.6903C9.48277 41.8358 9.45028 41.9804 9.43004 42.1078C9.37066 42.4402 9.34091 42.7773 9.34123 43.115C9.34861 45.8974 11.2569 48.3143 13.9616 48.9669C13.9704 48.9937 13.9783 49.0188 13.9862 49.0399C14.0374 49.2217 14.1002 49.4001 14.1743 49.5739C14.2266 49.713 14.287 49.8488 14.3554 49.9808C14.3865 50.0569 14.4223 50.131 14.4626 50.2027C14.5106 50.3038 14.5646 50.402 14.6243 50.4966C14.6533 50.5489 14.6858 50.6017 14.7219 50.6583C14.8414 50.8513 14.9708 51.0381 15.1095 51.2177L15.3661 51.5376C15.7163 51.9414 16.1114 52.3039 16.5439 52.6182C16.637 52.6868 16.7284 52.7497 16.8295 52.8174C17.1116 53.0031 17.4068 53.1682 17.7128 53.3113C17.9132 53.4084 18.1206 53.4928 18.335 53.5719C18.459 53.6167 18.5811 53.6549 18.7358 53.7024C18.836 53.7322 18.9441 53.7622 19.003 53.7744C19.2349 53.8359 19.4703 53.8835 19.7078 53.9168C19.8062 53.9322 19.9117 53.9476 19.9697 53.9506C20.2429 53.9849 20.5179 54.0015 20.7932 54.0003C23.3522 54.0095 25.7204 52.648 27.0001 50.4319C28.2798 52.648 30.648 54.0094 33.207 54.0002C33.4663 54.002 33.7256 53.987 33.983 53.9554C34.0885 53.9475 34.194 53.9321 34.2828 53.9181C34.51 53.887 34.735 53.8424 34.9568 53.7844C35.0562 53.7621 35.1643 53.7321 35.2961 53.6927C35.4192 53.6549 35.5413 53.6166 35.6732 53.5692C35.8797 53.4927 36.0872 53.4083 36.2752 53.3169C36.5886 53.1707 36.8908 53.0017 37.1796 52.8115C37.2719 52.7494 37.3633 52.6867 37.4459 52.6252C37.905 52.2912 38.3225 51.9034 38.6896 51.4703L38.8892 51.2207C39.03 51.0376 39.1614 50.8475 39.2829 50.6511C39.3154 50.5998 39.348 50.5483 39.376 50.4964C39.4357 50.4017 39.4897 50.3035 39.5377 50.2024C39.5778 50.1307 39.6135 50.0567 39.645 49.9809C39.7091 49.8581 39.7657 49.7316 39.8146 49.602C39.8876 49.4331 39.9499 49.2596 40.0008 49.0826C40.014 49.0439 40.0263 49.0053 40.0386 48.9666C42.7433 48.314 44.6517 45.8971 44.659 43.1147C44.6595 42.7798 44.6302 42.4455 44.5711 42.1158C44.5506 41.9863 44.5232 41.8579 44.4894 41.7313C44.4487 41.5334 44.3926 41.339 44.3215 41.1498C44.2687 40.9894 44.2028 40.829 44.1352 40.6765L44.1323 40.6704L44.1282 40.6602C44.121 40.6448 44.1121 40.6307 44.1048 40.6154C44.034 40.4595 43.9552 40.3072 43.8688 40.1593C45.1582 38.9727 45.8943 37.3022 45.9 35.5498C45.9 35.4224 45.893 35.2954 45.8877 35.2289C45.8892 35.1297 45.8824 35.0305 45.8675 34.9323C45.8604 34.8316 45.8472 34.731 45.8261 34.5777C45.805 34.444 45.776 34.3101 45.7505 34.1958C45.7393 34.1423 45.7262 34.091 45.7135 34.0395C46.3605 32.6741 46.854 31.2409 47.1846 29.7665H52.1332C53.1637 29.7652 53.9987 28.9301 54 27.8997V24.3664C53.9992 23.3365 53.164 22.5014 52.1336 22.5001ZM26.1001 47.0487C26.0533 49.9351 23.6797 52.2393 20.7932 52.2005C20.5795 52.2011 20.3662 52.1878 20.1542 52.1609C20.098 52.1565 20.0416 52.1473 19.981 52.1376C19.7982 52.1123 19.6171 52.0759 19.4387 52.0287C19.378 52.0151 19.3121 51.9962 19.2365 51.9733C19.1389 51.9435 19.0414 51.9135 18.9509 51.881C18.7988 51.8248 18.6459 51.7632 18.486 51.6859C18.2575 51.5795 18.037 51.457 17.8259 51.3194C17.7565 51.2723 17.688 51.2263 17.6089 51.1673C17.2769 50.926 16.9742 50.6467 16.7071 50.3349L16.5313 50.1143C16.4305 49.9842 16.3368 49.8486 16.251 49.7082L16.2018 49.6301C16.186 49.5993 16.1684 49.5695 16.1491 49.5409C16.1192 49.493 16.0929 49.4431 16.07 49.3914C16.055 49.3606 16.0207 49.2851 16.0032 49.2561C15.991 49.2258 15.9768 49.1963 15.961 49.1677C15.9161 49.0814 15.8768 48.9923 15.8432 48.901C15.7887 48.7728 15.7423 48.6413 15.7043 48.5073L15.6788 48.429C15.6726 48.395 15.6647 48.3615 15.6551 48.3284C15.6269 48.2308 15.6023 48.1372 15.583 48.0349L15.5804 48.0274V48.02C15.5168 47.7002 15.4853 47.3748 15.4863 47.0488C15.4829 45.9331 15.8537 44.8484 16.5392 43.9682C16.7359 43.7139 16.782 43.3738 16.6601 43.0763C16.5382 42.7788 16.2668 42.5689 15.9482 42.5257C15.6295 42.4824 15.3121 42.6126 15.1154 42.8668C14.2057 44.0384 13.7062 45.4764 13.6935 46.9595C12.1529 46.3008 11.1502 44.7906 11.141 43.1151C11.1409 42.8788 11.1621 42.6428 11.2042 42.4103C11.2212 42.3105 11.2433 42.2117 11.2702 42.1141C11.2982 41.9779 11.3372 41.8444 11.387 41.7147C11.4208 41.6132 11.4638 41.5127 11.5066 41.4143C11.6053 41.2016 11.7212 40.9973 11.8528 40.8032C11.9037 40.725 11.9594 40.6512 12.0168 40.5773C12.0299 40.5613 12.0338 40.5521 12.0487 40.5343C12.6003 39.8267 13.3604 39.3103 14.2214 39.0581C14.6981 38.9169 14.97 38.4159 14.8287 37.9393C14.6874 37.4627 14.1865 37.1907 13.7099 37.332C12.7938 37.6018 11.954 38.0832 11.2582 38.7374C10.3966 37.9001 9.90718 36.752 9.89969 35.5505C9.89969 35.46 9.90496 35.369 9.91203 35.2297C9.91393 35.1709 9.91952 35.1124 9.92869 35.0544C9.93218 34.9946 9.94104 34.9349 9.95063 34.8641C9.96645 34.7684 9.9866 34.6721 10.0104 34.5684C10.0313 34.467 10.0593 34.3672 10.094 34.2696C10.2959 33.591 10.6587 32.9711 11.1513 32.4626C11.1885 32.42 11.2285 32.3798 11.2708 32.3421C11.6338 31.9852 12.0535 31.6911 12.5127 31.4716L12.5133 31.4712C13.1604 31.1617 13.8688 31.002 14.586 31.004C15.0831 31.004 15.486 30.6012 15.486 30.1041C15.486 29.607 15.0831 29.2041 14.586 29.2041C13.9091 29.2053 13.2364 29.3109 12.5918 29.5173C12.4546 29.1222 12.3839 28.707 12.3826 28.2886C12.4205 26.0766 14.2425 24.3131 16.4545 24.3471C17.1436 24.344 17.8222 24.5148 18.4276 24.8437C18.8647 25.0806 19.4111 24.9182 19.648 24.4811C19.8849 24.044 19.7226 23.4976 19.2854 23.2607C18.6979 22.9446 18.0606 22.7312 17.4011 22.6298C17.6991 20.4765 19.5499 18.8796 21.7236 18.9004C23.8453 18.9004 26.0997 20.1225 26.0997 22.3879C26.0997 22.4079 26.1098 22.4245 26.1111 22.4441C26.1098 22.4638 26.0997 22.4804 26.0997 22.5004V23.4003H23.3997V22.5004C23.3997 22.0033 22.9967 21.6004 22.4997 21.6004C22.0026 21.6004 21.5997 22.0034 21.5997 22.5004V24.3002C21.5996 24.5389 21.6945 24.7678 21.8633 24.9367C22.0321 25.1054 22.261 25.2003 22.4998 25.2003H26.0998V27.0002H22.4998C22.0027 27.0002 21.5999 27.4031 21.5999 27.9002C21.5999 28.3973 22.0029 28.8002 22.4998 28.8002H26.0998V31.5002H21.5997C21.3611 31.5001 21.1321 31.5949 20.9632 31.7637C20.7945 31.9325 20.6997 32.1615 20.6997 32.4003V33.3002H17.0997C16.6026 33.3002 16.1997 33.7031 16.1997 34.2002C16.1997 34.6973 16.6026 35.1002 17.0997 35.1002H21.5997C21.8384 35.1003 22.0674 35.0055 22.2363 34.8366C22.405 34.6679 22.4998 34.4389 22.4998 34.2001V33.3001H26.0998V37.8003H22.4998C22.0027 37.8003 21.5999 38.2032 21.5999 38.7003C21.5999 39.1973 22.0029 39.6002 22.4998 39.6002H26.0998V44.1003H22.4998V42.3003C22.4998 41.8032 22.0968 41.4003 21.5999 41.4003C21.1029 41.4003 20.6999 41.8033 20.6999 42.3003V45.0003C20.6998 45.239 20.7946 45.4679 20.9634 45.6368C21.1322 45.8055 21.3612 45.9004 21.6 45.9004H26.1V46.8936C26.1 46.9211 26.1133 46.9443 26.1156 46.9711C26.1134 46.998 26.1001 47.0212 26.1001 47.0487ZM27.0002 19.5392C25.7178 17.9483 23.7668 17.0464 21.7241 17.1002C18.5586 17.0742 15.8933 19.4614 15.5717 22.6106C14.9023 22.7104 14.2551 22.9249 13.6583 23.2444C14.6209 16.6163 20.3033 11.6998 27.0009 11.7002C33.6986 11.7005 39.3804 16.6177 40.3423 23.2459C39.7455 22.9263 39.0982 22.7117 38.4287 22.6114C38.1076 19.4618 35.4421 17.074 32.2763 17.1002C30.2336 17.0464 28.2826 17.9483 27.0002 19.5392ZM42.7412 38.7378C42.046 38.0832 41.2063 37.6015 40.2902 37.3318C39.8135 37.1906 39.3126 37.4625 39.1713 37.9391C39.03 38.4157 39.302 38.9167 39.7786 39.0579C40.6454 39.3146 41.4099 39.8369 41.9642 40.551C42.0292 40.6336 42.0907 40.7161 42.1569 40.8176C42.2605 40.975 42.3536 41.1391 42.4356 41.3088C42.4511 41.3412 42.4739 41.3696 42.4882 41.4024C42.5287 41.4938 42.5677 41.5891 42.6011 41.6847C42.6104 41.7106 42.6191 41.7313 42.6288 41.7602C42.6763 41.8887 42.7135 42.0209 42.7404 42.1552C42.7633 42.24 42.7817 42.325 42.7958 42.4102L42.7984 42.4278C42.8392 42.6546 42.8595 42.8847 42.859 43.1151C42.8498 44.7906 41.8471 46.3008 40.3065 46.9595C40.2938 45.4763 39.7942 44.0384 38.8846 42.8668C38.6879 42.6126 38.3705 42.4824 38.0518 42.5257C37.7332 42.5689 37.4618 42.7788 37.3399 43.0763C37.218 43.3738 37.2641 43.7138 37.4608 43.9682C38.1463 44.8484 38.5171 45.933 38.5138 47.0487C38.5149 47.3747 38.4833 47.7001 38.4197 48.0199V48.0274L38.4171 48.0349C38.3978 48.1373 38.3731 48.2308 38.345 48.3284C38.3406 48.3429 38.3266 48.4062 38.3231 48.4207L38.2809 48.5556C38.2437 48.683 38.1984 48.8078 38.1456 48.9296C38.1153 49.0112 38.0798 49.0907 38.0393 49.1677C38.0235 49.1963 37.9918 49.2718 37.9795 49.3022C37.9612 49.3309 37.9449 49.3607 37.9302 49.3914C37.9073 49.443 37.881 49.4929 37.8511 49.5409C37.8371 49.5615 37.8124 49.6054 37.8002 49.627L37.7492 49.7083C37.6627 49.8497 37.5685 49.9863 37.4671 50.1175L37.2773 50.3548C37.0112 50.6617 36.7103 50.9367 36.3808 51.1744C36.3122 51.2263 36.2437 51.2723 36.183 51.3137C35.9653 51.4559 35.7377 51.5821 35.5019 51.6916C35.3542 51.7632 35.2013 51.8248 35.0571 51.8784C34.9587 51.9135 34.8612 51.9435 34.7495 51.9781C34.688 51.9962 34.6221 52.0151 34.5209 52.0388C34.3526 52.0825 34.1817 52.1159 34.0094 52.139C33.9585 52.1473 33.9021 52.1566 33.7985 52.1658C33.6023 52.1901 33.4046 52.2017 33.2069 52.2005C30.3204 52.2393 27.9468 49.9351 27.9 47.0487C27.9 47.0212 27.8868 46.998 27.8844 46.9712C27.8868 46.9443 27.9 46.9212 27.9 46.8937V45.9004H30.6V47.7004C30.6 48.1975 31.0029 48.6004 31.5 48.6004C31.997 48.6004 32.3999 48.1974 32.3999 47.7004V45.0004C32.4 44.7617 32.3052 44.5327 32.1364 44.3639C31.9676 44.1951 31.7386 44.1003 31.4999 44.1003H27.8999V42.3003H31.4999C31.9969 42.3003 32.3998 41.8973 32.3998 41.4003C32.3998 40.9032 31.9969 40.5003 31.4999 40.5003H27.8999V37.8003H32.3999C32.6386 37.8004 32.8676 37.7056 33.0364 37.5367C33.2052 37.368 33.3 37.139 33.3 36.9002V35.1003H36.9C37.3971 35.1003 37.8 34.6974 37.8 34.2003C37.8 33.7032 37.3971 33.3003 36.9 33.3003H32.3999C32.1613 33.3002 31.9323 33.395 31.7634 33.5639C31.5947 33.7327 31.4999 33.9616 31.4999 34.2004V36.0005H27.8999V31.5004H31.4999C31.9969 31.5004 32.3998 31.0975 32.3998 30.6004C32.3998 30.1033 31.9969 29.7004 31.4999 29.7004H27.8999V25.2004H30.5999V26.1003C30.5999 26.5974 31.0028 27.0003 31.4999 27.0003C31.9969 27.0003 32.3998 26.5974 32.3998 26.1003V24.3002C32.3999 24.0615 32.3051 23.8325 32.1363 23.6637C31.9675 23.4949 31.7385 23.4001 31.4998 23.4001H27.8998V22.5001C27.8998 22.4802 27.8896 22.4635 27.8884 22.4439C27.8896 22.4243 27.8998 22.4076 27.8998 22.3877C27.8998 20.1223 30.1542 18.9001 32.2759 18.9001C34.4496 18.8795 36.3004 20.4765 36.5984 22.6298C35.9063 22.7372 35.239 22.9675 34.6279 23.3096C34.196 23.554 34.0433 24.1018 34.2865 24.5343C34.5297 24.9669 35.0771 25.1211 35.5102 24.8789C36.1306 24.5276 36.832 24.3442 37.545 24.3467L37.5485 24.346L37.552 24.3467C39.7617 24.3157 41.5799 26.0785 41.617 28.2882C41.6157 28.7065 41.545 29.1216 41.4078 29.5168C40.7631 29.3104 40.0905 29.2047 39.4136 29.2036C38.9165 29.2036 38.5136 29.6065 38.5136 30.1035C38.5136 30.6006 38.9165 31.0035 39.4136 31.0035C40.1307 31.0015 40.8393 31.1612 41.4862 31.4706L41.4869 31.4711C41.9621 31.7004 42.3958 32.0074 42.7701 32.3794C42.7983 32.4044 42.8229 32.4339 42.8651 32.48C43.3611 32.9992 43.7239 33.6309 43.9224 34.3209C43.9516 34.4055 43.9748 34.4921 43.9918 34.5801C44.0129 34.6715 44.0331 34.7677 44.0498 34.8746C44.0585 34.9344 44.0674 34.9941 44.0796 35.1325C44.0866 35.1823 44.0899 35.2325 44.0893 35.2828C44.0946 35.3685 44.0999 35.4595 44.0999 35.55C44.0929 36.752 43.6032 37.9005 42.7412 38.7378ZM52.2004 27.9002C52.1991 27.9366 52.17 27.9658 52.1336 27.9669H47.0877C47.0155 27.9723 46.9442 27.9867 46.8755 28.0098C46.8019 27.9668 46.7224 27.935 46.6395 27.9151C46.4047 27.8716 46.1622 27.9233 45.9655 28.0587C45.7688 28.1941 45.6342 28.4022 45.5909 28.637C45.3856 29.7348 45.0822 30.812 44.6845 31.8556C44.5308 31.645 44.3639 31.4445 44.1846 31.2553C44.1251 31.1869 44.0617 31.1221 43.9947 31.061C43.7047 30.7751 43.3876 30.5178 43.0481 30.2929C43.7373 28.4974 43.4495 26.4732 42.2871 24.9409C42.152 16.5955 35.3486 9.90085 27.0021 9.90011C18.6557 9.89937 11.8511 16.5929 11.7145 24.9383C10.5515 26.4708 10.2628 28.4955 10.9511 30.2919C10.6264 30.5055 10.3235 30.7504 10.0467 31.0231C9.97088 31.09 9.89927 31.1615 9.8323 31.2371C9.64793 31.4319 9.47612 31.6381 9.31782 31.8546C8.91893 30.8115 8.61486 29.7346 8.4093 28.6369C8.36659 28.4018 8.2319 28.1934 8.0352 28.0579C7.83839 27.9223 7.59571 27.8709 7.36083 27.9148C7.27793 27.9348 7.1984 27.9666 7.12479 28.0096C7.05613 27.9865 6.98483 27.972 6.91258 27.9667H1.86681C1.83042 27.9655 1.80121 27.9363 1.80005 27.8999V24.3666C1.80132 24.3302 1.83042 24.301 1.86681 24.2999H6.91269C7.36146 24.3 7.74168 23.9694 7.8039 23.5251C8.25057 20.2327 9.50376 17.1016 11.4523 14.4103C11.7197 14.0521 11.6833 13.5519 11.3671 13.2361L8.49642 10.3654C8.47089 10.3369 8.47089 10.2938 8.49642 10.2652L11.2324 7.52968H11.2438C11.2684 7.52926 11.3308 7.52873 11.3317 7.52968L14.2031 10.4007C14.5269 10.7078 15.0225 10.7434 15.387 10.4859C18.0531 8.54325 21.1581 7.28985 24.4257 6.83707C24.8698 6.77442 25.2001 6.39441 25.2001 5.94585V1.86681C25.2013 1.83042 25.2304 1.80121 25.2668 1.80005H28.8001C28.8364 1.80131 28.8657 1.83042 28.8668 1.86681V5.94585C28.8668 6.39462 29.1976 6.77484 29.642 6.83707C32.8907 7.29396 35.9759 8.54747 38.6227 10.4859C38.9812 10.7523 39.4807 10.716 39.7969 10.4007L42.6684 7.52968H42.6797C42.7061 7.52926 42.7676 7.52873 42.7676 7.52968L45.5036 10.2654C45.5291 10.2939 45.5291 10.337 45.5036 10.3656L42.6334 13.2364C42.4644 13.409 42.3697 13.6409 42.3698 13.8824C42.3697 14.0763 42.4323 14.265 42.5482 14.4203C44.4956 17.1087 45.7488 20.2366 46.1966 23.5259C46.2594 23.97 46.6394 24.3002 47.0878 24.3003H52.1337C52.1701 24.3016 52.1993 24.3307 52.2005 24.3671V27.9002H52.2004Z" fill="white"/>
<path d="M18.9 37.8003H18.0001C17.503 37.8003 17.1001 38.2032 17.1001 38.7003C17.1001 39.1973 17.503 39.6002 18.0001 39.6002H18.9C19.3971 39.6002 19.8 39.1973 19.8 38.7003C19.8 38.2032 19.3971 37.8003 18.9 37.8003Z" fill="white"/>
<path d="M18.0001 28.8003H18.9C19.3971 28.8003 19.8 28.3974 19.8 27.9003C19.8 27.4033 19.3971 27.0004 18.9 27.0004H18.0001C17.503 27.0004 17.1001 27.4033 17.1001 27.9003C17.1001 28.3974 17.5031 28.8003 18.0001 28.8003Z" fill="white"/>
<path d="M36.0001 29.7003H35.1002C34.6031 29.7003 34.2002 30.1032 34.2002 30.6003C34.2002 31.0974 34.6032 31.5003 35.1002 31.5003H36.0001C36.4972 31.5003 36.9001 31.0974 36.9001 30.6003C36.9001 30.1032 36.4972 29.7003 36.0001 29.7003Z" fill="white"/>
<path d="M36.0001 40.5004H35.1002C34.6031 40.5004 34.2002 40.9034 34.2002 41.4003C34.2002 41.8974 34.6032 42.3003 35.1002 42.3003H36.0001C36.4972 42.3003 36.9001 41.8973 36.9001 41.4003C36.9001 40.9034 36.4972 40.5004 36.0001 40.5004Z" fill="white"/>
</svg>
