<svg width="114" height="127" viewBox="0 0 114 127" fill="none" xmlns="http://www.w3.org/2000/svg">
<mask id="path-1-inside-1_1915_18" fill="white">
<path fill-rule="evenodd" clip-rule="evenodd" d="M113.731 30.0029V57.8933C113.731 88.9604 91.0744 118.058 60.1206 126.571C58.0145 127.143 55.7169 127.143 53.6107 126.571C22.6569 118.058 0 88.9604 0 57.8933V30.0029C0 24.7933 3.95698 18.8848 8.80748 16.9153L44.3565 2.43009C52.3343 -0.81003 61.3332 -0.81003 69.311 2.43009L104.86 16.9153C109.774 18.8848 113.731 24.7933 113.731 30.0029Z"/>
</mask>
<path fill-rule="evenodd" clip-rule="evenodd" d="M113.731 30.0029V57.8933C113.731 88.9604 91.0744 118.058 60.1206 126.571C58.0145 127.143 55.7169 127.143 53.6107 126.571C22.6569 118.058 0 88.9604 0 57.8933V30.0029C0 24.7933 3.95698 18.8848 8.80748 16.9153L44.3565 2.43009C52.3343 -0.81003 61.3332 -0.81003 69.311 2.43009L104.86 16.9153C109.774 18.8848 113.731 24.7933 113.731 30.0029Z" fill="url(#paint0_linear_1915_18)"/>
<path d="M60.1206 126.571L60.2516 127.054L60.2532 127.053L60.1206 126.571ZM53.6107 126.571L53.4781 127.053L53.4797 127.054L53.6107 126.571ZM8.80748 16.9153L8.99558 17.3786L8.99615 17.3784L8.80748 16.9153ZM44.3565 2.43009L44.1684 1.96684L44.1678 1.96705L44.3565 2.43009ZM69.311 2.43009L69.4997 1.96705L69.4992 1.96684L69.311 2.43009ZM104.86 16.9153L104.671 17.3784L104.674 17.3794L104.86 16.9153ZM114.231 57.8933V30.0029H113.231V57.8933H114.231ZM60.2532 127.053C91.4149 118.483 114.231 89.1948 114.231 57.8933H113.231C113.231 88.7259 90.734 117.633 59.988 126.089L60.2532 127.053ZM53.4797 127.054C55.6717 127.649 58.0597 127.649 60.2516 127.054L59.9896 126.089C57.9693 126.637 55.7621 126.637 53.7417 126.089L53.4797 127.054ZM-0.5 57.8933C-0.5 89.1948 22.3165 118.483 53.4781 127.053L53.7433 126.089C22.9974 117.633 0.5 88.7259 0.5 57.8933H-0.5ZM-0.5 30.0029V57.8933H0.5V30.0029H-0.5ZM8.61937 16.4521C6.08253 17.4821 3.80806 19.5271 2.16979 21.9652C0.531557 24.4032 -0.5 27.2781 -0.5 30.0029H0.5C0.5 27.518 1.44693 24.8339 2.99981 22.5229C4.55266 20.212 6.68193 18.318 8.99558 17.3786L8.61937 16.4521ZM44.1678 1.96705L8.6188 16.4523L8.99615 17.3784L44.5452 2.89313L44.1678 1.96705ZM69.4992 1.96684C61.4007 -1.32228 52.2668 -1.32228 44.1684 1.96684L44.5446 2.89334C52.4018 -0.29778 61.2657 -0.29778 69.1229 2.89334L69.4992 1.96684ZM105.049 16.4523L69.4997 1.96705L69.1224 2.89313L104.671 17.3784L105.049 16.4523ZM114.231 30.0029C114.231 27.278 113.2 24.4028 111.553 21.9642C109.906 19.5255 107.615 17.4807 105.046 16.4512L104.674 17.3794C107.02 18.3194 109.164 20.2137 110.724 22.5239C112.284 24.8343 113.231 27.5181 113.231 30.0029H114.231Z" fill="url(#paint1_linear_1915_18)" mask="url(#path-1-inside-1_1915_18)"/>
<g filter="url(#filter0_i_1915_18)">
<path d="M87 60.5421V45.8283C87 43.0799 84.9125 39.9629 82.3199 38.9238L63.5657 31.282C59.3569 29.5727 54.6094 29.5727 50.4007 31.282L31.6465 38.9238C29.0875 39.9629 27 43.0799 27 45.8283V60.5421C27 76.9318 38.9529 92.2825 55.2828 96.7738C56.3939 97.0754 57.6061 97.0754 58.7172 96.7738C75.0471 92.2825 87 76.9318 87 60.5421ZM59.5253 66.4076V75.2225C59.5253 76.5967 58.3805 77.7362 57 77.7362C55.6195 77.7362 54.4747 76.5967 54.4747 75.2225V66.4076C51.0741 65.335 48.5825 62.1845 48.5825 58.4641C48.5825 53.8388 52.3535 50.0849 57 50.0849C61.6465 50.0849 65.4175 53.8388 65.4175 58.4641C65.4175 62.218 62.9259 65.335 59.5253 66.4076Z" fill="url(#paint2_linear_1915_18)"/>
</g>
<path d="M82.2269 39.1559L82.2255 39.1554L63.4716 31.5136C59.3232 29.8288 54.6434 29.8288 50.495 31.5135L82.2269 39.1559ZM82.2269 39.1559C83.4673 39.653 84.6007 40.6544 85.425 41.875C86.2493 43.0956 86.75 44.5141 86.75 45.8283V60.5421C86.75 76.8146 74.8769 92.0701 58.6509 96.5327C57.5831 96.8224 56.4169 96.8224 55.3491 96.5327C39.1231 92.0701 27.25 76.8146 27.25 60.5421V45.8283C27.25 44.5141 27.7507 43.0954 28.5711 41.8745C29.3915 40.6536 30.5169 39.6523 31.7405 39.1555L31.7408 39.1554L50.4947 31.5136L82.2269 39.1559ZM59.7753 75.2225V66.5889C63.1841 65.4351 65.6675 62.2689 65.6675 58.4641C65.6675 53.6997 61.7835 49.8349 57 49.8349C52.2165 49.8349 48.3325 53.6997 48.3325 58.4641C48.3325 62.2354 50.8154 65.4338 54.2247 66.5888V75.2225C54.2247 76.7358 55.4825 77.9862 57 77.9862C58.5175 77.9862 59.7753 76.7358 59.7753 75.2225Z" stroke="#70F45D" stroke-width="0.5"/>
<mask id="path-5-inside-2_1915_18" fill="white">
<path fill-rule="evenodd" clip-rule="evenodd" d="M99.0746 38.4431V59.306C99.0746 82.5451 82.1265 104.311 58.9721 110.679C57.3967 111.107 55.678 111.107 54.1025 110.679C30.9481 104.311 14 82.5451 14 59.306V38.4431C14 34.5461 16.9599 30.1264 20.5883 28.6532L47.1801 17.8178C53.1477 15.3941 59.8792 15.3941 65.8468 17.8178L92.4386 28.6532C96.1147 30.1264 99.0746 34.5461 99.0746 38.4431Z"/>
</mask>
<path fill-rule="evenodd" clip-rule="evenodd" d="M99.0746 38.4431V59.306C99.0746 82.5451 82.1265 104.311 58.9721 110.679C57.3967 111.107 55.678 111.107 54.1025 110.679C30.9481 104.311 14 82.5451 14 59.306V38.4431C14 34.5461 16.9599 30.1264 20.5883 28.6532L47.1801 17.8178C53.1477 15.3941 59.8792 15.3941 65.8468 17.8178L92.4386 28.6532C96.1147 30.1264 99.0746 34.5461 99.0746 38.4431Z" fill="url(#paint3_linear_1915_18)"/>
<path d="M58.9721 110.679L59.1031 111.162L59.1047 111.161L58.9721 110.679ZM54.1025 110.679L53.9699 111.161L53.9715 111.162L54.1025 110.679ZM20.5883 28.6532L20.7764 29.1165L20.7769 29.1162L20.5883 28.6532ZM47.1801 17.8178L46.9919 17.3545L46.9914 17.3547L47.1801 17.8178ZM65.8468 17.8178L66.0355 17.3547L66.035 17.3545L65.8468 17.8178ZM92.4386 28.6532L92.2499 29.1162L92.2526 29.1173L92.4386 28.6532ZM99.5746 59.306V38.4431H98.5746V59.306H99.5746ZM59.1047 111.161C82.467 104.736 99.5746 82.7796 99.5746 59.306H98.5746C98.5746 82.3107 81.7861 103.886 58.8395 110.197L59.1047 111.161ZM53.9715 111.162C55.6328 111.613 57.4419 111.613 59.1031 111.162L58.8411 110.197C57.3514 110.601 55.7232 110.601 54.2335 110.197L53.9715 111.162ZM13.5 59.306C13.5 82.7796 30.6076 104.736 53.9699 111.161L54.2351 110.197C31.2885 103.886 14.5 82.3107 14.5 59.306H13.5ZM13.5 38.4431V59.306H14.5V38.4431H13.5ZM20.4002 28.1899C18.4744 28.9719 16.7547 30.5206 15.5185 32.3604C14.2823 34.2001 13.5 36.3747 13.5 38.4431H14.5C14.5 36.6146 15.1977 34.6308 16.3485 32.9181C17.4993 31.2055 19.0738 29.8078 20.7764 29.1165L20.4002 28.1899ZM46.9914 17.3547L20.3996 28.1902L20.7769 29.1162L47.3687 18.2808L46.9914 17.3547ZM66.035 17.3545C59.9467 14.8818 53.0802 14.8818 46.9919 17.3545L47.3682 18.281C53.2152 15.9063 59.8117 15.9063 65.6587 18.281L66.035 17.3545ZM92.6273 28.1902L66.0355 17.3547L65.6581 18.2808L92.2499 29.1162L92.6273 28.1902ZM99.5746 38.4431C99.5746 36.3746 98.7923 34.1997 97.5495 32.3594C96.3066 30.519 94.5744 28.9705 92.6246 28.1891L92.2526 29.1173C93.9789 29.8092 95.5647 31.2071 96.7208 32.9191C97.877 34.6312 98.5746 36.6147 98.5746 38.4431H99.5746Z" fill="url(#paint4_linear_1915_18)" mask="url(#path-5-inside-2_1915_18)"/>
<defs>
<filter id="filter0_i_1915_18" x="27" y="30" width="60" height="67" filterUnits="userSpaceOnUse" color-interpolation-filters="sRGB">
<feFlood flood-opacity="0" result="BackgroundImageFix"/>
<feBlend mode="normal" in="SourceGraphic" in2="BackgroundImageFix" result="shape"/>
<feColorMatrix in="SourceAlpha" type="matrix" values="0 0 0 0 0 0 0 0 0 0 0 0 0 0 0 0 0 0 127 0" result="hardAlpha"/>
<feOffset/>
<feGaussianBlur stdDeviation="9.9"/>
<feComposite in2="hardAlpha" operator="arithmetic" k2="-1" k3="1"/>
<feColorMatrix type="matrix" values="0 0 0 0 0.439216 0 0 0 0 0.956863 0 0 0 0 0.364706 0 0 0 0.28 0"/>
<feBlend mode="normal" in2="shape" result="effect1_innerShadow_1915_18"/>
</filter>
<linearGradient id="paint0_linear_1915_18" x1="56.8657" y1="0" x2="56.8657" y2="127" gradientUnits="userSpaceOnUse">
<stop stop-color="#70F45D" stop-opacity="0.52"/>
<stop offset="1" stop-color="#418E36" stop-opacity="0"/>
</linearGradient>
<linearGradient id="paint1_linear_1915_18" x1="56.8657" y1="0" x2="56.8657" y2="127" gradientUnits="userSpaceOnUse">
<stop stop-color="#79FF16"/>
<stop offset="1" stop-color="#4F9B1F" stop-opacity="0.26"/>
</linearGradient>
<linearGradient id="paint2_linear_1915_18" x1="57" y1="30" x2="57" y2="97" gradientUnits="userSpaceOnUse">
<stop stop-color="#70F45D" stop-opacity="0.52"/>
<stop offset="1" stop-color="#418E36" stop-opacity="0"/>
</linearGradient>
<linearGradient id="paint3_linear_1915_18" x1="56.5373" y1="16" x2="56.5373" y2="111" gradientUnits="userSpaceOnUse">
<stop stop-color="#70F45D" stop-opacity="0.52"/>
<stop offset="1" stop-color="#418E36" stop-opacity="0"/>
</linearGradient>
<linearGradient id="paint4_linear_1915_18" x1="56.5373" y1="16" x2="56.5373" y2="111" gradientUnits="userSpaceOnUse">
<stop stop-color="#79FF16"/>
<stop offset="1" stop-color="#4F9B1F" stop-opacity="0.26"/>
</linearGradient>
</defs>
</svg>
