<svg width="167" height="85" viewBox="0 0 167 85" fill="none" xmlns="http://www.w3.org/2000/svg">
<path d="M45.5033 82.875C45.5033 65.4031 62.7351 51.17 83.9658 51.17C105.197 51.17 122.428 65.4031 122.428 82.875C122.428 83.9711 121.569 84.83 120.473 84.83H47.4583C46.3622 84.83 45.5033 83.9711 45.5033 82.875Z" fill="url(#paint0_linear_1438_1766)" stroke="#70F45D" stroke-width="0.34"/>
<path d="M70.4288 4.80831L70.4297 4.8076C74.0559 1.89823 78.6087 0.17 83.5833 0.17C95.2194 0.17 104.663 9.61389 104.663 21.25C104.663 25.2132 103.567 28.9225 101.628 32.0836L101.628 32.0836L101.626 32.0874C100.531 33.9823 99.0992 35.6674 97.456 37.0577L97.456 37.0577L97.4522 37.061C93.7431 40.3908 88.8959 42.33 83.5833 42.33C75.8684 42.33 69.2078 38.1989 65.582 32.0858L65.5821 32.0858L65.5799 32.0822C63.5994 28.9219 62.5033 25.2132 62.5033 21.25C62.5033 14.5885 65.5808 8.64454 70.4288 4.80831Z" fill="url(#paint1_linear_1438_1766)" stroke="#70F45D" stroke-width="0.34"/>
<path fill-rule="evenodd" clip-rule="evenodd" d="M83.3318 29.8889L94.6793 19.4339C96.2943 17.9464 96.3793 15.3964 94.8918 13.7389C93.4043 12.1239 90.8968 12.0389 89.2818 13.5264L80.7393 21.3889L78.2318 18.8814C76.6593 17.3089 74.1518 17.3089 72.5793 18.8814C71.0068 20.4539 71.0068 22.9614 72.5793 24.5339L77.8068 29.8039C78.5718 30.5689 79.5918 30.9514 80.6118 30.9514C81.5893 30.9514 82.5668 30.6114 83.3318 29.8889Z" fill="#A9FF9C"/>
<g filter="url(#filter0_f_1438_1766)">
<path fill-rule="evenodd" clip-rule="evenodd" d="M83.3318 29.8889L94.6793 19.4339C96.2943 17.9464 96.3793 15.3964 94.8918 13.7389C93.4043 12.1239 90.8968 12.0389 89.2818 13.5264L80.7393 21.3889L78.2318 18.8814C76.6593 17.3089 74.1518 17.3089 72.5793 18.8814C71.0068 20.4539 71.0068 22.9614 72.5793 24.5339L77.8068 29.8039C78.5718 30.5689 79.5918 30.9514 80.6118 30.9514C81.5893 30.9514 82.5668 30.6114 83.3318 29.8889Z" fill="#A9FF9C" fill-opacity="0.4"/>
</g>
<path d="M107.882 83.3849C107.882 70.1686 120.923 59.3752 137.027 59.3752C153.132 59.3752 166.173 70.1686 166.173 83.3849C166.173 84.1704 165.559 84.7846 164.773 84.7846H109.282C108.496 84.7846 107.882 84.1704 107.882 83.3849Z" fill="url(#paint2_linear_1438_1766)" stroke="url(#paint3_linear_1438_1766)" stroke-width="0.430667"/>
<path d="M127.083 24.1218L127.083 24.1218L127.084 24.1209C129.825 21.9215 133.267 20.6152 137.027 20.6152C145.823 20.6152 152.962 27.754 152.962 36.5499C152.962 39.5459 152.133 42.3494 150.668 44.7384L150.668 44.7384L150.665 44.7433C149.838 46.1744 148.756 47.4475 147.514 48.498L147.514 48.4979L147.51 48.5022C144.706 51.0188 141.043 52.4846 137.027 52.4846C131.195 52.4846 126.161 49.3621 123.42 44.7412L123.42 44.7411L123.417 44.7367C121.921 42.3485 121.092 39.5458 121.092 36.5499C121.092 31.5143 123.418 27.0214 127.083 24.1218Z" fill="url(#paint4_linear_1438_1766)" stroke="url(#paint5_linear_1438_1766)" stroke-width="0.430667"/>
<path d="M58.5061 83.3849C58.5061 70.1686 45.4648 59.3752 29.3607 59.3752C13.2566 59.3752 0.215366 70.1686 0.215366 83.3849C0.215366 84.1704 0.829559 84.7846 1.61504 84.7846H57.1064C57.8919 84.7846 58.5061 84.1704 58.5061 83.3849Z" fill="url(#paint6_linear_1438_1766)" stroke="url(#paint7_linear_1438_1766)" stroke-width="0.430667"/>
<path d="M39.3053 24.1218L39.3053 24.1218L39.3042 24.1209C36.5629 21.9215 33.1216 20.6152 29.3613 20.6152C20.5654 20.6152 13.4267 27.754 13.4267 36.5499C13.4267 39.5459 14.2552 42.3494 15.7205 44.7384L15.7205 44.7384L15.7234 44.7433C16.5503 46.1744 17.6322 47.4475 18.8737 48.498L18.8738 48.4979L18.8785 48.5022C21.6818 51.0188 25.3452 52.4846 29.3613 52.4846C35.1929 52.4846 40.2275 49.3621 42.9682 44.7412L42.9682 44.7411L42.971 44.7367C44.4675 42.3485 45.296 39.5458 45.296 36.5499C45.296 31.5143 42.9697 27.0214 39.3053 24.1218Z" fill="url(#paint8_linear_1438_1766)" stroke="url(#paint9_linear_1438_1766)" stroke-width="0.430667"/>
<defs>
<filter id="filter0_f_1438_1766" x="60.4066" y="1.47322" width="46.5384" height="40.4715" filterUnits="userSpaceOnUse" color-interpolation-filters="sRGB">
<feFlood flood-opacity="0" result="BackgroundImageFix"/>
<feBlend mode="normal" in="SourceGraphic" in2="BackgroundImageFix" result="shape"/>
<feGaussianBlur stdDeviation="5.49667" result="effect1_foregroundBlur_1438_1766"/>
</filter>
<linearGradient id="paint0_linear_1438_1766" x1="83.9658" y1="51" x2="83.9658" y2="100.5" gradientUnits="userSpaceOnUse">
<stop stop-color="#70F45D" stop-opacity="0.52"/>
<stop offset="1" stop-color="#418E36" stop-opacity="0"/>
</linearGradient>
<linearGradient id="paint1_linear_1438_1766" x1="83.5833" y1="0" x2="83.5833" y2="42.5" gradientUnits="userSpaceOnUse">
<stop stop-color="#70F45D" stop-opacity="0.52"/>
<stop offset="1" stop-color="#418E36" stop-opacity="0"/>
</linearGradient>
<linearGradient id="paint2_linear_1438_1766" x1="161.5" y1="70.0399" x2="118.472" y2="68.6245" gradientUnits="userSpaceOnUse">
<stop stop-color="#70F45D" stop-opacity="0.32"/>
<stop offset="1" stop-color="#418E36" stop-opacity="0"/>
</linearGradient>
<linearGradient id="paint3_linear_1438_1766" x1="137.027" y1="59.1599" x2="137.027" y2="84.9999" gradientUnits="userSpaceOnUse">
<stop stop-color="#70F45D"/>
<stop offset="0.345" stop-color="#418E36" stop-opacity="0"/>
</linearGradient>
<linearGradient id="paint4_linear_1438_1766" x1="150.488" y1="33.9999" x2="126.8" y2="33.657" gradientUnits="userSpaceOnUse">
<stop stop-color="#70F45D" stop-opacity="0.32"/>
<stop offset="1" stop-color="#418E36" stop-opacity="0.17"/>
</linearGradient>
<linearGradient id="paint5_linear_1438_1766" x1="125.233" y1="24.9332" x2="150.167" y2="52.1332" gradientUnits="userSpaceOnUse">
<stop stop-color="#70F45D"/>
<stop offset="0.53" stop-color="#418E36" stop-opacity="0.55"/>
</linearGradient>
<linearGradient id="paint6_linear_1438_1766" x1="4.8881" y1="70.0399" x2="47.9157" y2="68.6245" gradientUnits="userSpaceOnUse">
<stop stop-color="#70F45D" stop-opacity="0.32"/>
<stop offset="1" stop-color="#418E36" stop-opacity="0"/>
</linearGradient>
<linearGradient id="paint7_linear_1438_1766" x1="29.3607" y1="59.1599" x2="29.3607" y2="84.9999" gradientUnits="userSpaceOnUse">
<stop stop-color="#70F45D"/>
<stop offset="0.345" stop-color="#418E36" stop-opacity="0"/>
</linearGradient>
<linearGradient id="paint8_linear_1438_1766" x1="15.9" y1="33.9999" x2="39.5882" y2="33.657" gradientUnits="userSpaceOnUse">
<stop stop-color="#70F45D" stop-opacity="0.32"/>
<stop offset="1" stop-color="#418E36" stop-opacity="0.17"/>
</linearGradient>
<linearGradient id="paint9_linear_1438_1766" x1="41.1548" y1="24.9332" x2="16.2215" y2="52.1332" gradientUnits="userSpaceOnUse">
<stop stop-color="#70F45D"/>
<stop offset="0.53" stop-color="#418E36" stop-opacity="0.55"/>
</linearGradient>
</defs>
</svg>
