<svg width="116" height="119" viewBox="0 0 116 119" fill="none" xmlns="http://www.w3.org/2000/svg">
<g opacity="0.4" filter="url(#filter0_f_1438_1754)">
<path d="M36.9341 73.2306C37.4195 73.4332 37.9657 73.4346 38.4521 73.2345C38.9385 73.0344 39.3258 72.6491 39.5282 72.1637L42.3247 65.4502H52.9039L55.7004 72.1637C56.122 73.1748 57.2836 73.6524 58.2946 73.2308C59.3057 72.8092 59.7833 71.6476 59.3617 70.6367L49.445 46.8366C49.137 46.0978 48.415 45.6165 47.6145 45.6165C46.814 45.6165 46.092 46.0978 45.784 46.8366L35.8673 70.6367C35.6647 71.1221 35.6633 71.6683 35.8634 72.1547C36.0635 72.6411 36.4484 73.0282 36.9341 73.2306ZM47.6143 52.7567L51.2498 61.4834H43.9788L47.6143 52.7567Z" fill="#70F45D"/>
</g>
<g opacity="0.4" filter="url(#filter1_f_1438_1754)">
<path fill-rule="evenodd" clip-rule="evenodd" d="M63.4809 69.4167C62.3855 69.4167 61.4976 70.3047 61.4976 71.4001C61.4976 72.4955 62.3855 73.3835 63.4809 73.3835H75.381C76.4764 73.3835 77.3643 72.4955 77.3643 71.4001C77.3643 70.3047 76.4764 69.4167 75.381 69.4167H71.4142V49.5834H75.381C76.4764 49.5834 77.3643 48.6955 77.3643 47.6001C77.3643 46.5046 76.4764 45.6167 75.381 45.6167H63.4809C62.3855 45.6167 61.4976 46.5046 61.4976 47.6001C61.4976 48.6955 62.3855 49.5834 63.4809 49.5834H67.4477V69.4167H63.4809Z" fill="#70F45D"/>
</g>
<path d="M36.9341 73.2306C37.4195 73.4332 37.9657 73.4346 38.4521 73.2345C38.9385 73.0344 39.3258 72.6491 39.5282 72.1637L42.3247 65.4502H52.9039L55.7004 72.1637C56.122 73.1748 57.2836 73.6524 58.2946 73.2308C59.3057 72.8092 59.7833 71.6476 59.3617 70.6367L49.445 46.8366C49.137 46.0978 48.415 45.6165 47.6145 45.6165C46.814 45.6165 46.092 46.0978 45.784 46.8366L35.8673 70.6367C35.6647 71.1221 35.6633 71.6683 35.8634 72.1547C36.0635 72.6411 36.4484 73.0282 36.9341 73.2306ZM47.6143 52.7567L51.2498 61.4834H43.9788L47.6143 52.7567Z" fill="#A9FF9C"/>
<path fill-rule="evenodd" clip-rule="evenodd" d="M63.481 69.4167C62.3856 69.4167 61.4977 70.3047 61.4977 71.4001C61.4977 72.4955 62.3856 73.3835 63.481 73.3835H75.381C76.4765 73.3835 77.3644 72.4955 77.3644 71.4001C77.3644 70.3047 76.4765 69.4167 75.381 69.4167H71.4143V49.5834H75.381C76.4765 49.5834 77.3644 48.6955 77.3644 47.6001C77.3644 46.5046 76.4765 45.6167 75.381 45.6167H63.481C62.3856 45.6167 61.4977 46.5046 61.4977 47.6001C61.4977 48.6955 62.3856 49.5834 63.481 49.5834H67.4478V69.4167H63.481Z" fill="#A9FF9C"/>
<mask id="path-5-inside-1_1438_1754" fill="white">
<path d="M0.01432 87.2667C0.01432 91.6482 3.56627 95.2 7.9476 95.2C8.94134 95.1963 9.92531 95.0038 10.8472 94.6327C15.5358 98.2225 22.1523 100.095 30.2839 100.095C31.5095 100.095 32.783 100.037 34.074 99.9541C39.8336 111.723 48.1438 119 57.5309 119C66.9179 119 75.2281 111.723 80.9897 99.96C82.2829 100.043 83.5542 100.101 84.7798 100.101C92.9114 100.101 99.5279 98.2284 104.216 94.6386C105.138 95.0073 106.121 95.1978 107.114 95.2C110.616 95.19 113.697 92.8855 114.695 89.5292C115.694 86.173 114.374 82.559 111.448 80.6363C111.725 74.25 109.256 67.0028 104.23 59.4999C109.256 51.999 111.725 44.7518 111.448 38.3635C114.876 36.1508 116.061 31.6939 114.183 28.0707C112.306 24.4475 107.981 22.8455 104.197 24.371C98.8078 20.2477 90.8507 18.4211 80.9915 19.0637C75.2363 7.28485 66.9222 0 57.5311 0C48.1399 0 39.8258 7.28485 34.0642 19.0638C24.209 18.4252 16.2559 20.2537 10.8591 24.3712C7.07664 22.858 2.76324 24.4623 0.88879 28.0795C-0.98566 31.6966 0.190776 36.1459 3.60804 38.3637C3.33438 44.7481 5.80554 51.9951 10.8314 59.5001C5.80554 67.003 3.33438 74.2502 3.61409 80.6365C1.37092 82.0964 0.0168575 84.5904 0.01432 87.2667ZM3.98106 87.2667C3.98106 85.076 5.75694 83.2999 7.9478 83.2999C10.1387 83.2999 11.9145 85.0758 11.9145 87.2667C11.9145 89.4575 10.1387 91.2334 7.9478 91.2334C6.8957 91.2334 5.88674 90.8155 5.14286 90.0716C4.39897 89.3277 3.98106 88.3188 3.98106 87.2667ZM36.5256 23.2447C41.8056 23.8769 47.0075 25.0446 52.0512 26.7295C48.5012 28.3139 45.0343 30.0787 41.6645 32.0171C38.2827 33.9689 35.007 36.0986 31.8509 38.3974C32.8907 33.201 34.4571 28.1238 36.5256 23.2447ZM83.2093 38.3974C80.0541 36.0985 76.779 33.9685 73.3976 32.0171C70.0327 30.081 66.5719 28.3162 63.0287 26.7295C68.0673 25.0454 73.2637 23.8779 78.5384 23.2447C80.6057 28.124 82.1706 33.201 83.2093 38.3974ZM78.5365 95.7555C73.2565 95.1233 68.0546 93.9556 63.0109 92.2707C66.5609 90.6863 70.0278 88.9215 73.3976 86.9831C76.7794 85.0313 80.0551 82.9016 83.2112 80.6028C82.1714 85.7992 80.6052 90.8762 78.5365 95.7555ZM71.4144 35.4541C75.8871 38.0281 80.1628 40.9297 84.2069 44.1352C84.9363 49.2243 85.3008 54.3591 85.2976 59.5001C85.3013 64.6411 84.9375 69.7759 84.2088 74.865C80.164 78.0703 75.8875 80.9721 71.4144 83.5461C66.9556 86.125 62.3157 88.3773 57.5311 90.2854C52.7463 88.3764 48.1063 86.1226 43.6477 83.542C39.175 80.968 34.8992 78.0664 30.8552 74.8609C29.4034 64.669 29.4034 54.323 30.8552 44.1311C34.8994 40.9272 39.1754 38.027 43.6477 35.4539C48.1102 32.8731 52.7543 30.6193 57.543 28.7105C62.3237 30.6203 66.9597 32.874 71.4144 35.4541ZM88.6694 47.8837C92.6252 51.3857 96.218 55.2775 99.3934 59.5001C96.2225 63.722 92.6342 67.6137 88.6835 71.1165C89.0729 67.2567 89.2669 63.3796 89.2646 59.5001C89.2657 55.6206 89.0704 51.7435 88.6796 47.8837H88.6694ZM26.3927 71.1165C22.4359 67.6155 18.843 63.7235 15.6687 59.5001C18.8396 55.2782 22.4277 51.3865 26.3786 47.8837C25.5984 55.6083 25.5984 63.3919 26.3786 71.1165H26.3927ZM41.6762 86.9831C45.0412 88.9192 48.5019 90.684 52.0451 92.2707C47.0066 93.9548 41.8101 95.1223 36.5354 95.7555C34.4675 90.8762 32.9018 85.7992 31.8626 80.6028C35.0146 82.9016 38.2865 85.0313 41.6643 86.9831H41.6762ZM57.5311 115.033C50.0817 115.033 43.3125 109.125 38.3204 99.5417C44.8936 98.6098 51.3389 96.9302 57.5311 94.5357C63.7255 96.9313 70.1736 98.6108 76.7495 99.5417C71.7476 109.125 64.9804 115.033 57.5311 115.033ZM107.115 91.2334C104.924 91.2334 103.148 89.4575 103.148 87.2667C103.148 85.0758 104.924 83.2999 107.115 83.2999C109.305 83.2999 111.081 85.0758 111.081 87.2667C111.081 89.4575 109.305 91.2334 107.115 91.2334ZM107.531 79.375C107.39 79.375 107.257 79.3334 107.114 79.3334C102.733 79.3334 99.181 82.8853 99.181 87.2667C99.1884 89.0402 99.7959 90.7591 100.905 92.1436C96.5849 94.9936 90.2798 96.3483 82.7273 96.0647C85.1864 89.9215 86.9293 83.5152 87.9216 76.9731C93.0515 72.8424 97.694 68.1406 101.759 62.9589C105.108 67.8208 107.1 73.4873 107.531 79.375ZM111.081 31.7333C111.081 33.924 109.305 35.7001 107.114 35.7001C104.923 35.7001 103.148 33.9242 103.148 31.7333C103.148 29.5425 104.923 27.7666 107.114 27.7666C109.305 27.7666 111.081 29.5427 111.081 31.7333ZM100.905 26.8564C99.7961 28.2409 99.1886 29.9598 99.181 31.7333C99.181 36.1148 102.733 39.6666 107.114 39.6666C107.257 39.6666 107.39 39.6328 107.531 39.625C107.101 45.5129 105.109 51.1796 101.759 56.0411C97.6933 50.8592 93.0502 46.1574 87.9197 42.0269C86.9259 35.4844 85.1809 29.0781 82.7193 22.9353C90.278 22.6498 96.5869 23.9984 100.905 26.8564ZM57.5311 3.96674C64.9804 3.96674 71.7496 9.87508 76.7417 19.4585C70.1718 20.3912 63.7298 22.0706 57.541 24.4645C51.3465 22.0689 44.8985 20.3894 38.3226 19.4585C43.3145 9.87508 50.0817 3.96674 57.5311 3.96674ZM7.9476 27.7668C10.1383 27.7668 11.9143 29.5427 11.9143 31.7335C11.9143 33.9244 10.1385 35.7003 7.9476 35.7003C5.75674 35.7003 3.98086 33.9244 3.98086 31.7335C3.98086 29.5427 5.75694 27.7668 7.9476 27.7668ZM7.53125 39.625C7.67199 39.625 7.80491 39.6666 7.9478 39.6666C12.3293 39.6666 15.8811 36.1147 15.8811 31.7333C15.8737 29.9598 15.2662 28.2407 14.1575 26.8564C18.4752 24.0064 24.7802 22.6537 32.3348 22.9353C29.8759 29.0785 28.1328 35.4848 27.1405 42.0269C22.0112 46.1574 17.3687 50.8585 13.3028 56.0391C9.95283 51.1786 7.96048 45.5125 7.53125 39.625ZM13.3028 62.9609C17.3706 68.1412 22.0143 72.8422 27.1444 76.9731C28.1379 83.5162 29.8822 89.9231 32.3428 96.0666C24.7942 96.3522 18.4852 94.9936 14.1655 92.1436C15.2713 90.7581 15.8758 89.0392 15.8811 87.2667C15.8811 82.8852 12.3291 79.3334 7.9478 79.3334C7.80491 79.3334 7.67218 79.3691 7.53125 79.375C7.96127 73.4877 9.95342 67.8218 13.3028 62.9609Z"/>
</mask>
<path d="M0.01432 87.2667C0.01432 91.6482 3.56627 95.2 7.9476 95.2C8.94134 95.1963 9.92531 95.0038 10.8472 94.6327C15.5358 98.2225 22.1523 100.095 30.2839 100.095C31.5095 100.095 32.783 100.037 34.074 99.9541C39.8336 111.723 48.1438 119 57.5309 119C66.9179 119 75.2281 111.723 80.9897 99.96C82.2829 100.043 83.5542 100.101 84.7798 100.101C92.9114 100.101 99.5279 98.2284 104.216 94.6386C105.138 95.0073 106.121 95.1978 107.114 95.2C110.616 95.19 113.697 92.8855 114.695 89.5292C115.694 86.173 114.374 82.559 111.448 80.6363C111.725 74.25 109.256 67.0028 104.23 59.4999C109.256 51.999 111.725 44.7518 111.448 38.3635C114.876 36.1508 116.061 31.6939 114.183 28.0707C112.306 24.4475 107.981 22.8455 104.197 24.371C98.8078 20.2477 90.8507 18.4211 80.9915 19.0637C75.2363 7.28485 66.9222 0 57.5311 0C48.1399 0 39.8258 7.28485 34.0642 19.0638C24.209 18.4252 16.2559 20.2537 10.8591 24.3712C7.07664 22.858 2.76324 24.4623 0.88879 28.0795C-0.98566 31.6966 0.190776 36.1459 3.60804 38.3637C3.33438 44.7481 5.80554 51.9951 10.8314 59.5001C5.80554 67.003 3.33438 74.2502 3.61409 80.6365C1.37092 82.0964 0.0168575 84.5904 0.01432 87.2667ZM3.98106 87.2667C3.98106 85.076 5.75694 83.2999 7.9478 83.2999C10.1387 83.2999 11.9145 85.0758 11.9145 87.2667C11.9145 89.4575 10.1387 91.2334 7.9478 91.2334C6.8957 91.2334 5.88674 90.8155 5.14286 90.0716C4.39897 89.3277 3.98106 88.3188 3.98106 87.2667ZM36.5256 23.2447C41.8056 23.8769 47.0075 25.0446 52.0512 26.7295C48.5012 28.3139 45.0343 30.0787 41.6645 32.0171C38.2827 33.9689 35.007 36.0986 31.8509 38.3974C32.8907 33.201 34.4571 28.1238 36.5256 23.2447ZM83.2093 38.3974C80.0541 36.0985 76.779 33.9685 73.3976 32.0171C70.0327 30.081 66.5719 28.3162 63.0287 26.7295C68.0673 25.0454 73.2637 23.8779 78.5384 23.2447C80.6057 28.124 82.1706 33.201 83.2093 38.3974ZM78.5365 95.7555C73.2565 95.1233 68.0546 93.9556 63.0109 92.2707C66.5609 90.6863 70.0278 88.9215 73.3976 86.9831C76.7794 85.0313 80.0551 82.9016 83.2112 80.6028C82.1714 85.7992 80.6052 90.8762 78.5365 95.7555ZM71.4144 35.4541C75.8871 38.0281 80.1628 40.9297 84.2069 44.1352C84.9363 49.2243 85.3008 54.3591 85.2976 59.5001C85.3013 64.6411 84.9375 69.7759 84.2088 74.865C80.164 78.0703 75.8875 80.9721 71.4144 83.5461C66.9556 86.125 62.3157 88.3773 57.5311 90.2854C52.7463 88.3764 48.1063 86.1226 43.6477 83.542C39.175 80.968 34.8992 78.0664 30.8552 74.8609C29.4034 64.669 29.4034 54.323 30.8552 44.1311C34.8994 40.9272 39.1754 38.027 43.6477 35.4539C48.1102 32.8731 52.7543 30.6193 57.543 28.7105C62.3237 30.6203 66.9597 32.874 71.4144 35.4541ZM88.6694 47.8837C92.6252 51.3857 96.218 55.2775 99.3934 59.5001C96.2225 63.722 92.6342 67.6137 88.6835 71.1165C89.0729 67.2567 89.2669 63.3796 89.2646 59.5001C89.2657 55.6206 89.0704 51.7435 88.6796 47.8837H88.6694ZM26.3927 71.1165C22.4359 67.6155 18.843 63.7235 15.6687 59.5001C18.8396 55.2782 22.4277 51.3865 26.3786 47.8837C25.5984 55.6083 25.5984 63.3919 26.3786 71.1165H26.3927ZM41.6762 86.9831C45.0412 88.9192 48.5019 90.684 52.0451 92.2707C47.0066 93.9548 41.8101 95.1223 36.5354 95.7555C34.4675 90.8762 32.9018 85.7992 31.8626 80.6028C35.0146 82.9016 38.2865 85.0313 41.6643 86.9831H41.6762ZM57.5311 115.033C50.0817 115.033 43.3125 109.125 38.3204 99.5417C44.8936 98.6098 51.3389 96.9302 57.5311 94.5357C63.7255 96.9313 70.1736 98.6108 76.7495 99.5417C71.7476 109.125 64.9804 115.033 57.5311 115.033ZM107.115 91.2334C104.924 91.2334 103.148 89.4575 103.148 87.2667C103.148 85.0758 104.924 83.2999 107.115 83.2999C109.305 83.2999 111.081 85.0758 111.081 87.2667C111.081 89.4575 109.305 91.2334 107.115 91.2334ZM107.531 79.375C107.39 79.375 107.257 79.3334 107.114 79.3334C102.733 79.3334 99.181 82.8853 99.181 87.2667C99.1884 89.0402 99.7959 90.7591 100.905 92.1436C96.5849 94.9936 90.2798 96.3483 82.7273 96.0647C85.1864 89.9215 86.9293 83.5152 87.9216 76.9731C93.0515 72.8424 97.694 68.1406 101.759 62.9589C105.108 67.8208 107.1 73.4873 107.531 79.375ZM111.081 31.7333C111.081 33.924 109.305 35.7001 107.114 35.7001C104.923 35.7001 103.148 33.9242 103.148 31.7333C103.148 29.5425 104.923 27.7666 107.114 27.7666C109.305 27.7666 111.081 29.5427 111.081 31.7333ZM100.905 26.8564C99.7961 28.2409 99.1886 29.9598 99.181 31.7333C99.181 36.1148 102.733 39.6666 107.114 39.6666C107.257 39.6666 107.39 39.6328 107.531 39.625C107.101 45.5129 105.109 51.1796 101.759 56.0411C97.6933 50.8592 93.0502 46.1574 87.9197 42.0269C86.9259 35.4844 85.1809 29.0781 82.7193 22.9353C90.278 22.6498 96.5869 23.9984 100.905 26.8564ZM57.5311 3.96674C64.9804 3.96674 71.7496 9.87508 76.7417 19.4585C70.1718 20.3912 63.7298 22.0706 57.541 24.4645C51.3465 22.0689 44.8985 20.3894 38.3226 19.4585C43.3145 9.87508 50.0817 3.96674 57.5311 3.96674ZM7.9476 27.7668C10.1383 27.7668 11.9143 29.5427 11.9143 31.7335C11.9143 33.9244 10.1385 35.7003 7.9476 35.7003C5.75674 35.7003 3.98086 33.9244 3.98086 31.7335C3.98086 29.5427 5.75694 27.7668 7.9476 27.7668ZM7.53125 39.625C7.67199 39.625 7.80491 39.6666 7.9478 39.6666C12.3293 39.6666 15.8811 36.1147 15.8811 31.7333C15.8737 29.9598 15.2662 28.2407 14.1575 26.8564C18.4752 24.0064 24.7802 22.6537 32.3348 22.9353C29.8759 29.0785 28.1328 35.4848 27.1405 42.0269C22.0112 46.1574 17.3687 50.8585 13.3028 56.0391C9.95283 51.1786 7.96048 45.5125 7.53125 39.625ZM13.3028 62.9609C17.3706 68.1412 22.0143 72.8422 27.1444 76.9731C28.1379 83.5162 29.8822 89.9231 32.3428 96.0666C24.7942 96.3522 18.4852 94.9936 14.1655 92.1436C15.2713 90.7581 15.8758 89.0392 15.8811 87.2667C15.8811 82.8852 12.3291 79.3334 7.9478 79.3334C7.80491 79.3334 7.67218 79.3691 7.53125 79.375C7.96127 73.4877 9.95342 67.8218 13.3028 62.9609Z" fill="url(#paint0_linear_1438_1754)" stroke="url(#paint1_linear_1438_1754)" stroke-width="0.8" stroke-linejoin="round" mask="url(#path-5-inside-1_1438_1754)"/>
<defs>
<filter id="filter0_f_1438_1754" x="26.8144" y="36.7165" width="41.6007" height="45.5676" filterUnits="userSpaceOnUse" color-interpolation-filters="sRGB">
<feFlood flood-opacity="0" result="BackgroundImageFix"/>
<feBlend mode="normal" in="SourceGraphic" in2="BackgroundImageFix" result="shape"/>
<feGaussianBlur stdDeviation="4.45" result="effect1_foregroundBlur_1438_1754"/>
</filter>
<filter id="filter1_f_1438_1754" x="52.5976" y="36.7167" width="33.6668" height="45.5668" filterUnits="userSpaceOnUse" color-interpolation-filters="sRGB">
<feFlood flood-opacity="0" result="BackgroundImageFix"/>
<feBlend mode="normal" in="SourceGraphic" in2="BackgroundImageFix" result="shape"/>
<feGaussianBlur stdDeviation="4.45" result="effect1_foregroundBlur_1438_1754"/>
</filter>
<linearGradient id="paint0_linear_1438_1754" x1="57.536" y1="0" x2="57.536" y2="119" gradientUnits="userSpaceOnUse">
<stop stop-color="#70F45D" stop-opacity="0.67"/>
<stop offset="1" stop-color="#418E36" stop-opacity="0.33"/>
</linearGradient>
<linearGradient id="paint1_linear_1438_1754" x1="0.0361322" y1="9.5" x2="102.536" y2="116.5" gradientUnits="userSpaceOnUse">
<stop stop-color="#70F45D"/>
<stop offset="1" stop-color="#418E36"/>
</linearGradient>
</defs>
</svg>
