<svg width="120" height="120" viewBox="0 0 120 120" fill="none" xmlns="http://www.w3.org/2000/svg">
<path d="M55.6898 8.43578C57.5548 5.03123 62.4452 5.03122 64.3102 8.43577L69.6505 18.1842C71.0384 20.7176 74.1594 21.7317 76.7713 20.4979L86.8216 15.7502C90.3316 14.0921 94.288 16.9666 93.7958 20.8172L92.3862 31.8427C92.0198 34.7081 93.9487 37.363 96.787 37.9L107.709 39.9665C111.523 40.6882 113.034 45.3392 110.372 48.165L102.751 56.2564C100.771 58.3592 100.771 61.6408 102.751 63.7436L110.372 71.8349C113.034 74.6608 111.523 79.3118 107.709 80.0335L96.787 82.1C93.9487 82.637 92.0198 85.2919 92.3862 88.1573L93.7958 99.1828C94.288 103.033 90.3316 105.908 86.8217 104.25L76.7713 99.5021C74.1594 98.2683 71.0384 99.2824 69.6505 101.816L64.3102 111.564C62.4452 114.969 57.5548 114.969 55.6898 111.564L50.3495 101.816C48.9616 99.2824 45.8406 98.2683 43.2287 99.5021L33.1784 104.25C29.6684 105.908 25.712 103.033 26.2043 99.1828L27.6138 88.1573C27.9802 85.2919 26.0513 82.637 23.213 82.1L12.2914 80.0335C8.47719 79.3118 6.96598 74.6608 9.62757 71.8349L17.2486 63.7436C19.2292 61.6408 19.2292 58.3592 17.2486 56.2564L9.62757 48.1651C6.96598 45.3392 8.47718 40.6882 12.2914 39.9665L23.213 37.9C26.0513 37.363 27.9802 34.7081 27.6138 31.8427L26.2043 20.8172C25.712 16.9666 29.6684 14.0921 33.1784 15.7502L43.2287 20.4979C45.8406 21.7317 48.9616 20.7176 50.3495 18.1842L55.6898 8.43578Z" fill="url(#paint0_linear_1438_1778)" stroke="#70F45D" stroke-width="0.545456"/>
<path d="M57.6337 24.3662C58.9226 22.0135 62.3021 22.0135 63.591 24.3662L67.2814 31.1029C68.2405 32.8537 70.3973 33.5545 72.2023 32.7018L79.1476 29.4209C81.5732 28.2751 84.3073 30.2615 83.9671 32.9225L82.993 40.5418C82.7399 42.5219 84.0728 44.3566 86.0343 44.7277L93.5817 46.1557C96.2176 46.6545 97.2619 49.8686 95.4226 51.8214L90.156 57.413C88.7873 58.8661 88.7873 61.1339 90.156 62.5871L95.4226 68.1787C97.2619 70.1315 96.2176 73.3456 93.5817 73.8443L86.0343 75.2724C84.0729 75.6435 82.7399 77.4782 82.993 79.4583L83.9671 87.0776C84.3073 89.7386 81.5732 91.725 79.1476 90.5792L72.2023 87.2983C70.3973 86.4456 68.2405 87.1464 67.2814 88.8971L63.591 95.6339C62.3021 97.9866 58.9226 97.9866 57.6337 95.6339L53.9433 88.8971C52.9842 87.1464 50.8274 86.4456 49.0224 87.2983L42.0771 90.5792C39.6515 91.725 36.9174 89.7386 37.2576 87.0776L38.2317 79.4583C38.4848 77.4782 37.1519 75.6435 35.1904 75.2724L27.643 73.8443C25.0072 73.3456 23.9628 70.1315 25.8021 68.1787L31.0687 62.5871C32.4374 61.1339 32.4374 58.8661 31.0687 57.413L25.8021 51.8214C23.9628 49.8686 25.0072 46.6545 27.643 46.1557L35.1904 44.7277C37.1519 44.3566 38.4848 42.5219 38.2317 40.5418L37.2576 32.9225C36.9174 30.2615 39.6515 28.2751 42.0771 29.4209L49.0224 32.7018C50.8274 33.5545 52.9842 32.8537 53.9433 31.1029L57.6337 24.3662Z" fill="url(#paint1_linear_1438_1778)" stroke="#70F45D" stroke-width="0.376941"/>
<path fill-rule="evenodd" clip-rule="evenodd" d="M56.2059 68.4484L74.7635 54.6781C76.4963 53.0822 76.5875 50.3463 74.9915 48.568C73.3956 46.8353 70.7053 46.7441 68.9726 48.34L54.2553 60L50.7341 56.6385C49.047 54.9514 46.3567 54.9514 44.6696 56.6385C42.9824 58.3257 42.9824 61.016 44.6696 62.7031L50.2781 68.3572C51.0989 69.178 52.1932 69.5884 53.2876 69.5884C54.3364 69.5884 55.3851 69.2236 56.2059 68.4484Z" fill="#A9FF9C"/>
<g style="mix-blend-mode:screen" filter="url(#filter0_f_1438_1778)">
<path fill-rule="evenodd" clip-rule="evenodd" d="M56.2059 68.4484L74.7635 54.6781C76.4963 53.0822 76.5875 50.3463 74.9915 48.568C73.3956 46.8353 70.7053 46.7441 68.9726 48.34L54.2553 60L50.7341 56.6385C49.047 54.9514 46.3567 54.9514 44.6696 56.6385C42.9824 58.3257 42.9824 61.016 44.6696 62.7031L50.2781 68.3572C51.0989 69.178 52.1932 69.5884 53.2876 69.5884C54.3364 69.5884 55.3851 69.2236 56.2059 68.4484Z" fill="#A9FF9C" fill-opacity="0.4"/>
</g>
<defs>
<filter id="filter0_f_1438_1778" x="30.8935" y="34.6922" width="57.7458" height="47.4068" filterUnits="userSpaceOnUse" color-interpolation-filters="sRGB">
<feFlood flood-opacity="0" result="BackgroundImageFix"/>
<feBlend mode="normal" in="SourceGraphic" in2="BackgroundImageFix" result="shape"/>
<feGaussianBlur stdDeviation="6.25533" result="effect1_foregroundBlur_1438_1778"/>
</filter>
<linearGradient id="paint0_linear_1438_1778" x1="60" y1="0" x2="60" y2="120" gradientUnits="userSpaceOnUse">
<stop stop-color="#70F45D" stop-opacity="0.52"/>
<stop offset="1" stop-color="#418E36" stop-opacity="0"/>
</linearGradient>
<linearGradient id="paint1_linear_1438_1778" x1="60.6124" y1="18.5366" x2="60.6124" y2="101.463" gradientUnits="userSpaceOnUse">
<stop stop-color="#70F45D" stop-opacity="0.52"/>
<stop offset="1" stop-color="#418E36" stop-opacity="0"/>
</linearGradient>
</defs>
</svg>
