<svg width="139" height="139" viewBox="0 0 139 139" fill="none" xmlns="http://www.w3.org/2000/svg">
<g filter="url(#filter0_b_1438_1742)">
<circle cx="69.5" cy="69.5" r="69.5" fill="url(#paint0_linear_1438_1742)"/>
<circle cx="69.5" cy="69.5" r="69.393" stroke="#70F45D" stroke-width="0.214067"/>
</g>
<circle cx="69.2187" cy="69.2186" r="54.48" fill="url(#paint1_linear_1438_1742)" stroke="#70F45D" stroke-width="0.214067"/>
<circle cx="69.2189" cy="69.2189" r="39.3155" fill="url(#paint2_linear_1438_1742)" stroke="#70F45D" stroke-width="0.154481"/>
<path d="M59.3233 80.6477H54.2013L62.0057 58.0401H68.1654L75.9588 80.6477H70.8368L65.1739 63.2063H64.9973L59.3233 80.6477ZM59.0032 71.7614H71.1017V75.4926H59.0032V71.7614ZM83.4597 58.0401V80.6477H78.6799V58.0401H83.4597Z" fill="#C6FFBE"/>
<g style="mix-blend-mode:screen" filter="url(#filter1_f_1438_1742)">
<path d="M59.3233 80.6477H54.2013L62.0057 58.0401H68.1654L75.9588 80.6477H70.8368L65.1739 63.2063H64.9973L59.3233 80.6477ZM59.0032 71.7614H71.1017V75.4926H59.0032V71.7614ZM83.4597 58.0401V80.6477H78.6799V58.0401H83.4597Z" fill="#70F45D"/>
</g>
<defs>
<filter id="filter0_b_1438_1742" x="-6.69676" y="-6.69676" width="152.394" height="152.394" filterUnits="userSpaceOnUse" color-interpolation-filters="sRGB">
<feFlood flood-opacity="0" result="BackgroundImageFix"/>
<feGaussianBlur in="BackgroundImageFix" stdDeviation="3.34838"/>
<feComposite in2="SourceAlpha" operator="in" result="effect1_backgroundBlur_1438_1742"/>
<feBlend mode="normal" in="SourceGraphic" in2="effect1_backgroundBlur_1438_1742" result="shape"/>
</filter>
<filter id="filter1_f_1438_1742" x="44.6345" y="48.4732" width="48.3921" height="41.7413" filterUnits="userSpaceOnUse" color-interpolation-filters="sRGB">
<feFlood flood-opacity="0" result="BackgroundImageFix"/>
<feBlend mode="normal" in="SourceGraphic" in2="BackgroundImageFix" result="shape"/>
<feGaussianBlur stdDeviation="4.7834" result="effect1_foregroundBlur_1438_1742"/>
</filter>
<linearGradient id="paint0_linear_1438_1742" x1="69.5" y1="0" x2="69.5" y2="139" gradientUnits="userSpaceOnUse">
<stop stop-color="#70F45D" stop-opacity="0.52"/>
<stop offset="1" stop-color="#418E36" stop-opacity="0"/>
</linearGradient>
<linearGradient id="paint1_linear_1438_1742" x1="69.2187" y1="14.6316" x2="69.2187" y2="123.806" gradientUnits="userSpaceOnUse">
<stop stop-color="#70F45D" stop-opacity="0.52"/>
<stop offset="1" stop-color="#418E36" stop-opacity="0"/>
</linearGradient>
<linearGradient id="paint2_linear_1438_1742" x1="69.2189" y1="29.8262" x2="69.2189" y2="108.612" gradientUnits="userSpaceOnUse">
<stop stop-color="#70F45D" stop-opacity="0.52"/>
<stop offset="1" stop-color="#418E36" stop-opacity="0"/>
</linearGradient>
</defs>
</svg>
